<?xml version="1.0" standalone="no"?>
<!DOCTYPE svg PUBLIC "-//W3C//DTD SVG 1.1//EN" "http://www.w3.org/Graphics/SVG/1.1/DTD/svg11.dtd" >
<svg xmlns="http://www.w3.org/2000/svg" xmlns:xlink="http://www.w3.org/1999/xlink" version="1.1">
<metadata>
Created by FontForge 20190801 at Sun Sep 19 00:31:33 2004
 By www-data
Alba (c)2001, Fontalicious Fonts.
</metadata>
<defs>
<font id="ALBAS" horiz-adv-x="1103" >
  <font-face 
    font-family="ALBAS"
    font-weight="400"
    font-stretch="normal"
    units-per-em="1000"
    panose-1="0 0 4 0 0 0 0 0 0 0"
    ascent="800"
    descent="-200"
    x-height="565"
    cap-height="770"
    bbox="-204 -707 1348 1255"
    underline-thickness="20"
    underline-position="-143"
    unicode-range="U+0020-F002"
  />
<missing-glyph horiz-adv-x="500" 
d="M63 0v1030h375v-1030h-375zM125 63h250v905h-250v-905z" />
    <glyph glyph-name=".notdef" horiz-adv-x="500" 
d="M63 0v1030h375v-1030h-375zM125 63h250v905h-250v-905z" />
    <glyph glyph-name=".null" horiz-adv-x="0" 
 />
    <glyph glyph-name="glyph2" horiz-adv-x="303" 
 />
    <glyph glyph-name="space" unicode=" " horiz-adv-x="303" 
 />
    <glyph glyph-name="exclam" unicode="!" horiz-adv-x="234" 
d="M281 -17q0 -62 -43 -105t-105 -43t-105 43t-43 105q0 26 9 49q-9 25 -9 51q0 37 18 70q-3 14 -3 28v457q0 56 38 94t94 38q57 0 95 -37.5t38 -94.5v-457q0 -14 -2 -27q18 -33 18 -71q0 -27 -8 -51q8 -23 8 -49zM200 281v357q0 30 -19 48.5t-49 18.5q-29 0 -48 -19
t-19 -48v-357q0 -30 18.5 -49t48.5 -19t49 19t19 49zM216 83q0 34 -24.5 58t-58.5 24t-58.5 -24t-24.5 -58q0 -35 24 -59t59 -24t59 24t24 59z" />
    <glyph glyph-name="quotedbl" unicode="&#x22;" horiz-adv-x="473" 
d="M506 399q0 -62 -43 -104.5t-105 -42.5t-105 44l-1 -1q-43 -43 -104 -43t-104.5 43t-43.5 104v223q0 61 43.5 104.5t104.5 43.5q62 0 105 -44q43 44 105 44t105 -43t43 -105v-223zM441 499v123q0 35 -24 59t-59 24q-34 0 -58 -24.5t-24 -58.5v-123q0 -34 24 -58t58 -24
q35 0 59 23.5t24 58.5zM231 499v123q0 34 -24.5 58.5t-58.5 24.5t-58.5 -24.5t-24.5 -58.5v-123q0 -34 24.5 -58t58.5 -24t58.5 24t24.5 58z" />
    <glyph glyph-name="numbersign" unicode="#" horiz-adv-x="574" 
d="M613 266q0 -100 -85 -126q-14 -38 -47.5 -61t-76.5 -23q-59 0 -98 41q-38 -41 -97 -41q-43 0 -77 23t-48 62q-39 14 -61.5 48.5t-22.5 76.5q0 26 9 50q-9 24 -9 50q0 25 8 47q-8 23 -8 48q0 26 9 50q-9 23 -9 50q0 42 22.5 76.5t61.5 48.5q14 39 48.5 61.5t76.5 22.5
q59 0 98 -41q37 41 97 41q42 0 76.5 -22.5t48.5 -61.5q39 -14 61.5 -48.5t22.5 -76.5q0 -26 -9 -50q9 -24 9 -50q0 -25 -8 -47q8 -23 8 -48q0 -28 -8 -52q8 -23 8 -48zM548 366q0 30 -18.5 48.5t-48.5 18.5h-9v61h9q30 0 48.5 18.5t18.5 48.5t-18.5 49t-48.5 19h-9v9
q0 30 -19 48.5t-49 18.5t-48.5 -18.5t-18.5 -48.5v-9h-61v9q0 30 -18.5 48.5t-48.5 18.5t-49 -18.5t-19 -48.5v-9h-9q-30 0 -48.5 -19t-18.5 -49t18.5 -48.5t48.5 -18.5h9v-61h-9q-30 0 -48.5 -18.5t-18.5 -48.5t18.5 -49t48.5 -19h9v-9q0 -30 19 -49t49 -19t48.5 19
t18.5 49v9h61v-9q0 -30 18.5 -49t48.5 -19t49 19t19 49v9h9q67 0 67 68zM337 433h-61v61h61v-61z" />
    <glyph glyph-name="dollar" unicode="$" horiz-adv-x="484" 
d="M523 433q0 -54 -35.5 -91t-89.5 -41q0 1 -2 4t-2 4q-1 -25 -1 -63v-19q0 -106 -28 -160q4 -15 4 -32q0 -27 -11 -50q11 -24 11 -50q0 -50 -35 -83.5t-83 -33.5q-47 0 -81 31.5t-37 77.5h-1q-57 0 -94.5 37.5t-37.5 94.5q0 26 9 50q-9 24 -9 50q0 56 36.5 94t92.5 39v12
q0 11 1 23q-1 13 -1 22v55q0 49 17 94q-13 26 -13 54q0 26 11 50q-11 24 -11 50q0 49 34.5 83.5t83.5 34.5q46 0 79.5 -30.5t37.5 -75.5q11 1 22 1q57 0 95 -37.5t38 -94.5q0 -27 -9 -50q9 -23 9 -50zM304 652q0 22 -15.5 37.5t-37.5 15.5t-37.5 -15.5t-15.5 -37.5
t15.5 -37.5t37.5 -15.5t37.5 15.5t15.5 37.5zM458 533q0 30 -19 48.5t-49 18.5q-83 0 -139.5 -56.5t-56.5 -139.5v-55q0 -7 -1 -41v-20q0 -26 -17.5 -43.5t-43.5 -17.5q-30 0 -48.5 -19t-18.5 -49t18.5 -48.5t48.5 -18.5q82 0 138.5 57t57.5 139l1 116q0 15 2.5 22.5
t15.5 20.5t45.5 18.5t49 22t16.5 45.5zM304 35q0 22 -15.5 37.5t-37.5 15.5t-37.5 -15.5t-15.5 -37.5t15.5 -37t37.5 -15t37.5 15t15.5 37z" />
    <glyph glyph-name="percent" unicode="%" horiz-adv-x="752" 
d="M791 68q0 -80 -56.5 -136.5t-136.5 -56.5q-105 0 -162 87l-54 -152q-31 -88 -122 -88q-55 0 -95.5 37.5t-40.5 92.5q0 23 9 48l1 3q-10 23 -10 49q0 23 9 48l101 284q-20 -4 -41 -4q-80 0 -136.5 56.5t-56.5 136.5q0 26 6 50q-6 24 -6 50q0 80 56.5 136.5t136.5 56.5
q57 0 103.5 -30t70.5 -79l34 95q32 89 123 89q55 0 95 -38t40 -93q0 -25 -8 -47l-1 -5q9 -23 9 -48t-8 -47l-72 -203q9 1 19 1q80 0 136.5 -56.5t56.5 -136.5q0 -26 -6 -50q6 -25 6 -50zM321 573q0 53 -37.5 90.5t-90.5 37.5t-90.5 -37.5t-37.5 -90.5t37.5 -90.5t90.5 -37.5
t90.5 37.5t37.5 90.5zM726 168q0 53 -37.5 90.5t-90.5 37.5t-90.5 -37.5t-37.5 -90.5t37.5 -90.5t90.5 -37.5t90.5 37.5t37.5 90.5zM594 710q0 28 -21 47t-49 19q-46 0 -62 -46l-268 -752q-5 -14 -5 -26q0 -28 21.5 -46.5t49.5 -18.5q45 0 61 45l269 753q4 11 4 25zM253 573
q0 -25 -17.5 -42.5t-42.5 -17.5t-42.5 17.5t-17.5 42.5t17.5 42.5t42.5 17.5t42.5 -17.5t17.5 -42.5zM658 168q0 -25 -17.5 -42.5t-42.5 -17.5t-42.5 17.5t-17.5 42.5t17.5 42.5t42.5 17.5t42.5 -17.5t17.5 -42.5z" />
    <glyph glyph-name="ampersand" unicode="&#x26;" horiz-adv-x="866" 
d="M898 228q0 -80 -56.5 -136.5t-136.5 -56.5q-56 0 -103 29q-27 -29 -73 -29t-74 30q-28 -30 -74 -30q-24 0 -44 9q-19 -8 -41 -8q-25 0 -46 10q-21 -11 -48 -11q-80 0 -136.5 56.5t-56.5 136.5q0 26 6 50q-6 24 -6 50q0 80 56.5 136.5t136.5 56.5q76 0 131 -51
q50 50 122 50q71 0 121 -48q53 47 124 49v2q0 44 27.5 71.5t71.5 27.5t71.5 -27.5t27.5 -71.5v-295zM833 328v195q0 34 -34 34t-34 -34v-195q0 -25 -17.5 -42.5t-42.5 -17.5t-42.5 17.5t-17.5 42.5t17.5 42.5t42.5 17.5q34 0 34 34t-34 34q-53 0 -90.5 -37.5t-37.5 -90.5
t37.5 -90.5t90.5 -37.5t90.5 37.5t37.5 90.5zM563 234v113q0 45 -31.5 76.5t-76.5 31.5t-76.5 -31.5t-31.5 -76.5v-113q0 -34 34 -34t34 34v113q0 17 11.5 29t28.5 12t28.5 -12t11.5 -29v-113q0 -34 34 -34t34 34zM330 234v94q0 53 -37.5 90.5t-90.5 37.5t-90.5 -37.5
t-37.5 -90.5t37.5 -90.5t90.5 -37.5q34 0 34 34t-34 34q-25 0 -42.5 17.5t-17.5 42.5t17.5 42.5t42.5 17.5t42.5 -17.5t17.5 -42.5v-94q0 -33 34 -33t34 33z" />
    <glyph glyph-name="quotesingle" unicode="'" horiz-adv-x="268" 
d="M296 399q0 -61 -43.5 -104t-104.5 -43t-104.5 43t-43.5 104v223q0 61 43.5 104.5t104.5 43.5t104.5 -43.5t43.5 -104.5v-223zM231 499v123q0 34 -24.5 58.5t-58.5 24.5t-58.5 -24.5t-24.5 -58.5v-123q0 -34 24.5 -58t58.5 -24t58.5 24t24.5 58z" />
    <glyph glyph-name="parenleft" unicode="(" horiz-adv-x="525" 
d="M556 -114q0 -57 -38.5 -94.5t-94.5 -37.5q-178 0 -300.5 122.5t-122.5 300.5v240q0 178 122.5 300.5t300.5 122.5q57 0 95 -37.5t38 -94.5q0 -26 -9 -50q9 -24 9 -50q0 -57 -38 -95t-95 -38q-68 0 -113 -45t-45 -113v-40q0 -68 45 -113t113 -45q57 0 95 -38t38 -95
q0 -27 -9 -50q9 -24 9 -50zM491 -14q0 30 -19 49t-49 19q-95 0 -159 64t-64 159v140q0 95 64 159t159 64q30 0 49 19t19 49t-19 48.5t-49 18.5q-151 0 -254.5 -103.5t-103.5 -254.5v-140q0 -151 103.5 -254.5t254.5 -103.5q30 0 49 18.5t19 48.5z" />
    <glyph glyph-name="parenright" unicode=")" horiz-adv-x="525" 
d="M556 177q0 -177 -123 -300t-300 -123q-57 0 -95 37.5t-38 94.5q0 26 9 50q-9 24 -9 50q0 57 38 95t95 38q68 0 113 45t45 113v40q0 68 -45 113t-113 45q-57 0 -95 38t-38 95q0 26 9 50q-9 24 -9 50q0 57 38 94.5t95 37.5q178 0 300.5 -122.5t122.5 -300.5v-240zM491 277
v140q0 151 -103.5 254.5t-254.5 103.5q-30 0 -49 -18.5t-19 -48.5t19 -49t49 -19q95 0 159 -64t64 -159v-140q0 -95 -64 -159t-159 -64q-30 0 -49 -19t-19 -49t19 -48.5t49 -18.5q151 0 254.5 103.5t103.5 254.5z" />
    <glyph glyph-name="asterisk" unicode="*" horiz-adv-x="462" 
d="M502 194q0 -33 -63 -115q2 -41 2 -54q0 -112 -89 -112q-24 0 -101 28q-77 -28 -101 -28q-89 0 -89 112q0 13 2 54q-63 82 -63 115q0 30 18 52q-18 34 -18 48q0 48 47 75q24 13 88 30q34 52 46 66q32 33 70 33q45 0 79 -44q4 -5 37 -55q64 -17 88 -30q47 -27 47 -75
q0 -14 -18 -48q18 -22 18 -52zM437 294q0 14 -27 25q-15 6 -84 24q-42 65 -45 68q-17 22 -30 22q-15 0 -30 -22q-22 -32 -45 -68q-69 -18 -84 -24q-27 -11 -27 -25q0 -16 64 -94q-3 -60 -3 -75q0 -47 24 -47q17 0 101 33q84 -33 101 -33q24 0 24 47q0 15 -3 75q64 78 64 94z
" />
    <glyph glyph-name="plus" unicode="+" horiz-adv-x="478" 
d="M513 154q0 -59 -33.5 -94.5t-90.5 -38.5q-3 -54 -40 -89t-92 -35t-92.5 35t-40.5 89q-54 3 -89 40.5t-35 92.5q0 26 9 50q-9 24 -9 50q0 54 35 91.5t89 40.5q3 57 38.5 90.5t94.5 33.5q54 0 91.5 -35t40.5 -89q54 -3 89 -40.5t35 -91.5q0 -28 -8 -52q8 -23 8 -48z
M448 254q0 30 -18.5 48.5t-48.5 18.5h-57v57q0 30 -18.5 48.5t-48.5 18.5q-68 0 -68 -67v-57h-57q-30 0 -48.5 -18.5t-18.5 -48.5t18.5 -49t48.5 -19h57v-57q0 -30 19 -48.5t49 -18.5t48.5 18.5t18.5 48.5v57h57q67 0 67 68z" />
    <glyph glyph-name="comma" unicode="," horiz-adv-x="265" 
d="M296 -140q0 -61 -43.5 -104.5t-104.5 -43.5t-104.5 43.5t-43.5 104.5v223q0 61 43.5 104t104.5 43t104.5 -43t43.5 -104v-223zM231 -40v123q0 34 -24.5 58t-58.5 24t-58.5 -24t-24.5 -58v-123q0 -34 24.5 -58.5t58.5 -24.5t58.5 24.5t24.5 58.5z" />
    <glyph glyph-name="hyphen" unicode="-" horiz-adv-x="261" 
d="M296 210q0 -61 -43.5 -104.5t-104.5 -43.5t-104.5 43.5t-43.5 104.5q0 26 9 50q-9 24 -9 50q0 61 43.5 104.5t104.5 43.5t104.5 -43.5t43.5 -104.5q0 -26 -9 -50q9 -24 9 -50zM231 310q0 34 -24.5 58.5t-58.5 24.5t-58.5 -24.5t-24.5 -58.5t24.5 -58.5t58.5 -24.5
t58.5 24.5t24.5 58.5z" />
    <glyph glyph-name="hyphen" unicode="&#x2010;" horiz-adv-x="261" 
d="M296 210q0 -61 -43.5 -104.5t-104.5 -43.5t-104.5 43.5t-43.5 104.5q0 26 9 50q-9 24 -9 50q0 61 43.5 104.5t104.5 43.5t104.5 -43.5t43.5 -104.5q0 -26 -9 -50q9 -24 9 -50zM231 310q0 34 -24.5 58.5t-58.5 24.5t-58.5 -24.5t-24.5 -58.5t24.5 -58.5t58.5 -24.5
t58.5 24.5t24.5 58.5z" />
    <glyph glyph-name="period" unicode="." horiz-adv-x="265" 
d="M296 -17q0 -62 -43 -105t-105 -43t-105 43t-43 105q0 26 9 49q-9 25 -9 51q0 61 43.5 104t104.5 43t104.5 -43t43.5 -104q0 -27 -8 -51q8 -23 8 -49zM231 83q0 34 -24.5 58t-58.5 24t-58.5 -24t-24.5 -58q0 -35 24 -59t59 -24t59 24t24 59z" />
    <glyph glyph-name="slash" unicode="/" horiz-adv-x="472" 
d="M512 610q0 -25 -8 -47l-269 -753q-31 -88 -122 -88q-55 0 -95 37.5t-40 92.5q0 26 8 48l1 4q-9 23 -9 48q0 26 8 48l269 752q32 89 122 89q56 0 95.5 -37.5t39.5 -93.5q0 -25 -8 -47l-1 -4q9 -23 9 -49zM447 710q0 29 -20.5 47.5t-49.5 18.5q-45 0 -61 -46l-269 -752
q-4 -11 -4 -26q0 -28 21 -46.5t49 -18.5q45 0 61 45l269 753q4 11 4 25z" />
    <glyph glyph-name="zero" unicode="0" horiz-adv-x="808" 
d="M843 247q0 -177 -123 -300t-300 -123q-178 0 -300.5 122.5t-122.5 300.5q0 25 3 50q-3 25 -3 50q0 178 122.5 300.5t300.5 122.5t300.5 -122.5t122.5 -300.5q0 -26 -3 -51q3 -24 3 -49zM778 347q0 151 -103.5 254.5t-254.5 103.5t-254.5 -103.5t-103.5 -254.5
t103.5 -254.5t254.5 -103.5t254.5 103.5t103.5 254.5zM643 347q0 -95 -64 -159t-159 -64q-94 0 -158.5 64t-64.5 159q0 96 64 159.5t159 63.5t159 -64t64 -159zM571 298q-11 34 -38 62q-46 45 -113 45q-54 0 -95 -29.5t-55 -78.5q15 -48 55.5 -78t94.5 -30t95 30t56 79z" />
    <glyph glyph-name="one" unicode="1" horiz-adv-x="233" 
d="M265 -42q0 -57 -38.5 -94.5t-94.5 -37.5q-57 0 -94.5 37.5t-37.5 94.5v680q0 57 37.5 94.5t94.5 37.5t95 -37.5t38 -94.5v-680zM200 58v580q0 30 -19 48.5t-49 18.5t-48.5 -18.5t-18.5 -48.5v-580q0 -30 18.5 -48.5t48.5 -18.5t49 18.5t19 48.5z" />
    <glyph glyph-name="two" unicode="2" horiz-adv-x="601" 
d="M641 -42q0 -57 -38 -94.5t-95 -37.5h-376q-59 0 -97 28q-45 32 -45 95q0 24 10 48q-10 23 -10 52q0 50 43 96q29 31 92 72q-54 3 -89.5 40.5t-35.5 92.5q0 31 5 61q-5 19 -5 39q0 136 92 228t228 92t228.5 -92t92.5 -228q0 -24 -4 -48q4 -26 4 -52q0 -93 -58 -181
q58 -38 58 -111q0 -26 -9 -50q9 -24 9 -50zM349 397q-13 8 -29 8q-23 0 -39 -16t-16 -39q0 -19 -5 -37q60 49 89 84zM576 58q0 30 -19 49t-49 19h-164q110 87 154 138q78 90 78 186q0 109 -73.5 182t-182.5 73t-182 -73t-73 -182q0 -30 18.5 -49t48.5 -19t49 19t19 49
q0 50 35 85t85 35t85.5 -35t35.5 -85q0 -89 -213 -243q-75 -54 -131 -91q-42 -28 -42 -67q0 -58 77 -58h376q30 0 49 18.5t19 48.5z" />
    <glyph glyph-name="three" unicode="3" horiz-adv-x="514" 
d="M553 102q0 -116 -80.5 -196t-196.5 -80h-144q-57 0 -95 37.5t-38 94.5q0 26 9 50q-9 24 -9 50q0 57 38 95t95 38h19q-14 27 -14 59v11h-4q-57 -1 -95 37.5t-38 95.5q0 30 6 59q-6 20 -6 41q0 116 80 196t196 80t196.5 -80t80.5 -196q0 -26 -4 -50q4 -25 4 -50
q0 -51 -17 -96q17 -45 17 -96q0 -26 -4 -50q4 -25 4 -50zM488 202q0 85 -59 145q59 61 59 147q0 90 -61 150.5t-151 60.5t-150.5 -60.5t-60.5 -150.5q0 -30 19 -49t49 -19t48.5 19.5t18.5 50t22.5 52.5t53.5 22q32 0 54.5 -22t22.5 -54t-22.5 -54t-54.5 -23t-53 -18.5
t-21 -48.5q0 -27 19.5 -45.5t47.5 -21.5q34 -4 59 -26t25 -55q0 -32 -22.5 -54t-54.5 -22h-144q-30 0 -49 -19t-19 -49t19 -48.5t49 -18.5h144q90 0 151 60.5t61 150.5z" />
    <glyph glyph-name="four" unicode="4" horiz-adv-x="527" 
d="M561 -42q0 -57 -37.5 -94.5t-94.5 -37.5q-56 0 -94.5 38t-38.5 94v73h-15q-119 0 -200 81t-81 200v324q0 57 37.5 95t94.5 38t95 -38t38 -95v-224q0 -16 16 -16h15v242q0 56 38.5 94t94.5 38q57 0 94.5 -37.5t37.5 -94.5v-680zM496 58v580q0 30 -18.5 48.5t-48.5 18.5
q-29 0 -48.5 -19t-19.5 -48v-307h-80q-34 0 -57.5 23.5t-23.5 57.5v224q0 30 -19 49t-49 19t-48.5 -19t-18.5 -49v-224q0 -93 61.5 -154.5t154.5 -61.5h80v-138q0 -29 19.5 -48t48.5 -19q30 0 48.5 18.5t18.5 48.5z" />
    <glyph glyph-name="five" unicode="5" horiz-adv-x="519" 
d="M573 146q0 -135 -93 -227.5t-228 -92.5h-120q-57 0 -94.5 37.5t-37.5 94.5q0 26 9 50q-9 24 -9 50q0 57 37.5 95t94.5 38h120q13 0 25 5q-12 6 -25 6h-120q-54 0 -93 39t-39 93v304q0 54 39 93t93 39h297q57 0 94.5 -37.5t37.5 -94.5q0 -28 -8 -52q8 -23 8 -48
q0 -69 -46 -106q58 -81 58 -186q0 -25 -4 -49q4 -25 4 -51zM508 246q0 109 -73.5 182.5t-182.5 73.5h-52v68h229q67 0 67 68q0 30 -18.5 48.5t-48.5 18.5h-297q-27 0 -47 -20t-20 -47v-204q0 -27 20 -47t47 -20h120q50 0 85.5 -35.5t35.5 -85.5t-35.5 -85t-85.5 -35h-120
q-30 0 -48.5 -19t-18.5 -49t18.5 -48.5t48.5 -18.5h120q108 0 182 73.5t74 181.5z" />
    <glyph glyph-name="six" unicode="6" horiz-adv-x="609" 
d="M641 145q0 -135 -93 -228t-228 -93q-136 0 -228 92.5t-92 228.5v305q0 136 92 228t228 92q90 0 173 -49q97 -57 97 -141q0 -26 -10 -50q10 -24 10 -50q0 -24 -9 -46q60 -83 60 -189q0 -26 -4 -51q4 -24 4 -49zM576 245q0 109 -73.5 182t-182.5 73q-63 0 -118 -29
q7 43 40.5 71t77.5 28q52 0 87 -37q21 -22 48 -22q28 0 49 20.5t21 48.5q0 26 -20 47q-76 78 -185 78t-182 -73t-73 -182v-205q0 -109 73 -182.5t182 -73.5t182.5 73.5t73.5 182.5zM441 245q0 -50 -35.5 -85.5t-85.5 -35.5t-85 35.5t-35 85.5t35 85t85 35t85.5 -35t35.5 -85
z" />
    <glyph glyph-name="seven" unicode="7" horiz-adv-x="543" 
d="M581 543q0 -62 -60 -234l-136 -393q-31 -91 -123 -91q-56 0 -95.5 37.5t-39.5 93.5q0 21 7 43l3 7q-10 24 -10 50q0 21 7 43l100 306h-102q-57 0 -94.5 38t-37.5 95q0 26 9 50q-9 24 -9 50q0 57 37.5 94.5t94.5 37.5h318q58 0 94.5 -34t36.5 -93q0 -22 -7 -55
q7 -21 7 -45zM516 643q0 62 -66 62h-318q-30 0 -48.5 -18.5t-18.5 -48.5t18.5 -49t48.5 -19h225l-161 -491q-4 -12 -4 -23q0 -29 20.5 -47.5t49.5 -18.5q46 0 62 47l136 393q56 162 56 213z" />
    <glyph glyph-name="eight" unicode="8" horiz-adv-x="542" 
d="M576 114q0 -121 -83.5 -204.5t-204.5 -83.5t-204.5 83.5t-83.5 204.5q0 26 4 50q-4 25 -4 50q0 69 29 128q-7 30 -7 62q0 25 4 50q-4 24 -4 50q0 109 75 188t191 79q113 0 190 -77t77 -190q0 -25 -4 -50q4 -24 4 -50q0 -33 -7 -63q28 -58 28 -127q0 -26 -4 -50
q4 -24 4 -50zM511 214q0 95 -68 161q47 56 47 129q0 86 -58 144t-144 58q-85 0 -143 -58t-58 -144q0 -73 46 -129q-68 -66 -68 -161t64 -159t159 -64t159 64t64 159zM355 504q0 -28 -19.5 -47t-47.5 -19q-27 0 -46.5 19.5t-19.5 46.5q0 28 19 47.5t47 19.5t47.5 -19.5
t19.5 -47.5zM376 214q0 -37 -25.5 -62.5t-62.5 -25.5q-36 0 -62 26t-26 62q0 37 25.5 63t62.5 26t62.5 -26t25.5 -63z" />
    <glyph glyph-name="nine" unicode="9" horiz-adv-x="610" 
d="M641 145q0 -135 -93 -228t-228 -93q-88 0 -172 49q-97 58 -97 141q0 26 10 50q-10 24 -10 50q0 24 8 46q-59 84 -59 190q0 25 4 50q-4 25 -4 50q0 136 92 228t228 92t228.5 -92.5t92.5 -227.5v-305zM576 245v205q0 109 -73.5 182t-182.5 73t-182 -73t-73 -182t73 -182.5
t182 -73.5q63 0 119 29q-8 -43 -41.5 -71t-77.5 -28q-51 0 -87 37q-21 22 -48 22q-28 0 -48.5 -20.5t-20.5 -48.5q0 -25 20 -46q75 -79 184 -79t182.5 73.5t73.5 182.5zM441 450q0 -50 -35.5 -85.5t-85.5 -35.5t-85 35.5t-35 85.5t35 85t85 35t85.5 -35t35.5 -85z" />
    <glyph glyph-name="colon" unicode=":" horiz-adv-x="260" 
d="M296 -17q0 -62 -43 -105t-105 -43t-105 43t-43 105q0 26 9 49q-9 25 -9 51q0 34 14 63q-14 31 -14 64q0 26 9 50q-9 24 -9 50q0 61 43.5 104.5t104.5 43.5t104.5 -43.5t43.5 -104.5q0 -26 -9 -50q9 -24 9 -50q0 -34 -14 -64q14 -30 14 -63q0 -27 -8 -51q8 -23 8 -49z
M231 310q0 34 -24.5 58.5t-58.5 24.5t-58.5 -24.5t-24.5 -58.5t24.5 -58.5t58.5 -24.5t58.5 24.5t24.5 58.5zM231 83q0 34 -24.5 58t-58.5 24t-58.5 -24t-24.5 -58q0 -35 24 -59t59 -24t59 24t24 59z" />
    <glyph glyph-name="semicolon" unicode=";" horiz-adv-x="264" 
d="M296 -140q0 -61 -43.5 -104.5t-104.5 -43.5t-104.5 43.5t-43.5 104.5v223q0 33 14 63q-14 30 -14 64q0 26 9 50q-9 24 -9 50q0 61 43.5 104.5t104.5 43.5t104.5 -43.5t43.5 -104.5q0 -26 -9 -50q9 -24 9 -50q0 -34 -14 -64q14 -30 14 -63v-223zM231 310q0 34 -24.5 58.5
t-58.5 24.5t-58.5 -24.5t-24.5 -58.5t24.5 -58.5t58.5 -24.5t58.5 24.5t24.5 58.5zM231 -40v123q0 34 -24.5 58t-58.5 24t-58.5 -24t-24.5 -58v-123q0 -34 24.5 -58.5t58.5 -24.5t58.5 24.5t24.5 58.5z" />
    <glyph glyph-name="less" unicode="&#x3c;" horiz-adv-x="327" 
d="M364 57q0 -54 -40 -94t-94 -40q-49 0 -104 47q-29 25 -81 86q-45 52 -45 98q0 24 12 50q-12 26 -12 50q0 49 51 107q43 42 84 83t95 41t94 -40t40 -94q0 -26 -10 -50q10 -24 10 -50q0 -25 -9 -47q9 -22 9 -47q0 -26 -10 -50q10 -24 10 -50zM299 157q0 26 -21 47l-50 50
l50 50q21 21 21 47q0 27 -21 48t-48 21t-48 -21l-88 -89q-29 -29 -29 -56q0 -22 29 -56q6 -7 88 -89q21 -21 48 -21t48 21t21 48z" />
    <glyph glyph-name="equal" unicode="=" horiz-adv-x="478" 
d="M513 56q0 -61 -35.5 -97t-96.5 -36h-249q-57 0 -94.5 38t-37.5 95q0 26 9 50q-9 24 -9 50q0 25 8 48q-8 22 -8 47q0 26 9 50q-9 24 -9 50q0 57 37.5 95t94.5 38h249q57 0 94.5 -38t37.5 -95q0 -27 -9 -50q9 -24 9 -50t-8 -48q8 -22 8 -47q0 -28 -8 -52q8 -23 8 -48z
M448 351q0 30 -18.5 49t-48.5 19h-249q-30 0 -48.5 -19t-18.5 -49t18.5 -48.5t48.5 -18.5h249q30 0 48.5 18.5t18.5 48.5zM448 156q0 30 -18.5 48.5t-48.5 18.5h-249q-30 0 -48.5 -18.5t-18.5 -48.5t18.5 -49t48.5 -19h249q67 0 67 68z" />
    <glyph glyph-name="greater" unicode="&#x3e;" horiz-adv-x="329" 
d="M364 154q0 -46 -45 -98q-52 -61 -81 -86q-55 -47 -104 -47q-54 0 -94 40t-40 94q0 26 10 50q-10 24 -10 50q0 25 9 47q-9 22 -9 47q0 26 10 50q-10 24 -10 50q0 54 40 94t94 40q50 0 103 -47q40 -41 79 -82q48 -49 48 -102q0 -24 -12 -49q12 -25 12 -51zM299 254
q0 27 -29 56l-88 89q-21 21 -48 21t-48 -21t-21 -48q0 -26 21 -47l50 -50l-50 -50q-21 -21 -21 -47q0 -27 21 -48t48 -21t48 21l88 89q29 34 29 56z" />
    <glyph glyph-name="question" unicode="?" horiz-adv-x="603" 
d="M641 350q0 -135 -93 -228q-66 -66 -155 -85q-1 -5 -2 -9q8 -23 8 -49q0 -62 -43 -105t-105 -43t-105 43t-43 105q0 26 9 49q-9 25 -9 51q0 27 9 51q-3 15 -3 31q0 26 9 50q-1 3 -2 7q-51 6 -83.5 43t-32.5 89q0 31 5 61q-5 19 -5 39q0 136 92 228t228 92t228.5 -92
t92.5 -228q0 -26 -4 -51q4 -24 4 -49zM576 450q0 109 -73.5 182t-182.5 73t-182 -73t-73 -182q0 -30 18.5 -49t48.5 -19t49 19t19 49q0 50 35 85t85 35t85.5 -35t35.5 -85t-35.5 -85.5t-85.5 -35.5h-79q-30 0 -48.5 -19t-18.5 -49t18.5 -48.5t48.5 -18.5h79
q109 0 182.5 73.5t73.5 182.5zM345 400q-12 5 -25 5q-19 0 -34 -11h34q13 0 25 6zM334 79q0 34 -24.5 58t-58.5 24t-58.5 -24t-24.5 -58q0 -35 24 -59t59 -24t59 24t24 59z" />
    <glyph glyph-name="at" unicode="@" horiz-adv-x="817" 
d="M846 247q0 -177 -123 -300t-300 -123q-178 0 -300.5 122.5t-122.5 300.5q0 25 3 50q-3 25 -3 50q0 178 122.5 300.5t300.5 122.5t300.5 -122.5t122.5 -300.5q0 -26 -3 -51q3 -24 3 -49zM781 347q0 151 -103.5 254.5t-254.5 103.5t-254.5 -103.5t-103.5 -254.5
t103.5 -254.5t254.5 -103.5t254.5 103.5t103.5 254.5zM646 347q0 -69 -39 -126v126q0 77 -53.5 130.5t-130.5 53.5t-130.5 -53.5t-53.5 -130.5t53.5 -130.5t130.5 -53.5q21 0 35 13.5t14 34.5q0 49 -49 49q-36 0 -61.5 25.5t-25.5 61.5t25.5 61.5t61.5 25.5t61.5 -25.5
t25.5 -61.5v-206q-42 -17 -87 -17q-95 0 -159 64t-64 159q0 96 63.5 159.5t159.5 63.5q95 0 159 -64t64 -159z" />
    <glyph glyph-name="A" unicode="A" horiz-adv-x="610" 
d="M793 -262q0 -56 -38 -94t-94 -38q-121 0 -203 80.5t-82 200.5v147q-28 -5 -56 -5q-29 0 -55 11v-82q0 -57 -38 -94.5t-95 -37.5t-94.5 37.5t-37.5 94.5v492q0 136 92 228t228 92t228.5 -92.5t92.5 -227.5v-463q0 -16 15 -16q59 0 98 -37t39 -96q0 -26 -9 -49q9 -24 9 -51
zM345 400q-12 5 -25 5q-24 0 -40 -17q23 1 65 12zM728 -162q0 30 -18.5 49t-48.5 19h-5q-34 0 -57 23.5t-23 57.5v463q0 109 -73.5 182t-182.5 73t-182 -73t-73 -182v-392q0 -30 18.5 -48.5t48.5 -18.5t49 18.5t19 48.5v392q0 50 35 85t85 35t85.5 -35t35.5 -85t-35.5 -85.5
t-85.5 -35.5q-30 0 -48.5 -18.5t-18.5 -48.5t18.5 -49t48.5 -19q64 0 121 30v-237q0 -92 61.5 -154t153.5 -62h5q29 0 48 19t19 48z" />
    <glyph glyph-name="B" unicode="B" horiz-adv-x="515" 
d="M553 102q0 -116 -80.5 -196t-196.5 -80q-39 0 -71 20q-32 -20 -72 -20q-57 0 -95 37.5t-38 94.5v536q0 116 80 196t196 80t196.5 -80t80.5 -196q0 -26 -4 -50q4 -25 4 -50q0 -51 -17 -96q17 -45 17 -96q0 -26 -4 -50q4 -25 4 -50zM488 202q0 85 -59 145q59 61 59 147
q0 90 -61 150.5t-151 60.5t-150.5 -60.5t-60.5 -150.5v-436q0 -30 19 -48.5t49 -18.5t48.5 18.5t18.5 48.5v436q0 31 22.5 53.5t53.5 22.5q32 0 54.5 -22t22.5 -54t-22.5 -54t-54.5 -23t-53 -18.5t-21 -48.5q0 -27 19.5 -45.5t47.5 -21.5q34 -4 59 -26t25 -55
q0 -31 -22.5 -53.5t-53 -22.5t-49.5 -19t-19 -49q0 -29 19 -48t48 -19q90 0 151 60.5t61 150.5z" />
    <glyph glyph-name="C" unicode="C" horiz-adv-x="525" 
d="M556 -44q0 -57 -38.5 -94.5t-94.5 -37.5q-178 0 -300.5 122.5t-122.5 300.5q0 25 3 50q-3 25 -3 50q0 178 122.5 300.5t300.5 122.5q57 0 95 -37.5t38 -94.5q0 -26 -9 -50q9 -24 9 -50q0 -57 -38 -95t-93.5 -38t-96 -29.5t-56.5 -78.5q16 -49 56.5 -78.5t96 -29.5
t93.5 -38t38 -95q0 -27 -9 -50q9 -24 9 -50zM491 56q0 30 -19 49t-49 19q-95 0 -159 64t-64 159t64 159t159 64q30 0 49 19t19 49t-19 48.5t-49 18.5q-151 0 -254.5 -103.5t-103.5 -254.5t103.5 -254.5t254.5 -103.5q30 0 49 18.5t19 48.5z" />
    <glyph glyph-name="D" unicode="D" horiz-adv-x="670" 
d="M704 247q0 -178 -122.5 -300.5t-300.5 -122.5q-43 0 -76 22q-32 -20 -73 -20q-57 0 -94.5 37.5t-37.5 94.5v680q0 54 39 93t93 39h149q179 0 301 -122t122 -301q0 -26 -3 -51q3 -24 3 -49zM639 347q0 152 -103 255t-255 103h-149q-27 0 -47 -20t-20 -47v-580
q0 -30 18.5 -48.5t48.5 -18.5t49 18.5t19 48.5v512h81q96 0 159.5 -63.5t63.5 -159.5q0 -95 -64 -159t-159 -64q-30 0 -48.5 -19t-18.5 -49t18.5 -48.5t48.5 -18.5q152 0 255 103t103 255zM432 297q-15 49 -55.5 78.5t-95.5 29.5h-16v-217q8 1 16 1q54 0 95 30t56 78z" />
    <glyph glyph-name="E" unicode="E" horiz-adv-x="529" 
d="M556 -44q0 -57 -38 -94.5t-95 -37.5q-178 0 -300.5 122.5t-122.5 300.5q0 25 3 50q-3 25 -3 50q0 178 122.5 300.5t300.5 122.5q57 0 95 -37.5t38 -94.5q0 -26 -9 -50q9 -24 9 -50q0 -55 -36 -93q36 -38 36 -93q0 -26 -9 -50q9 -24 9 -50q0 -60 -41 -98q41 -38 41 -98
q0 -26 -9 -50q9 -24 9 -50zM491 56q0 30 -19 49t-49 19q-74 0 -133.5 44.5t-80.5 115.5h214q30 0 49 19t19 49t-19 48.5t-49 18.5h-211q23 68 81 109.5t130 41.5q30 0 49 19t19 49t-19 48.5t-49 18.5q-151 0 -254.5 -103.5t-103.5 -254.5t103.5 -254.5t254.5 -103.5
q30 0 49 18.5t19 48.5z" />
    <glyph glyph-name="F" unicode="F" horiz-adv-x="475" 
d="M507 227q0 -57 -38 -95t-95 -38h-109v-136q0 -57 -38 -94.5t-95 -37.5t-94.5 37.5t-37.5 94.5v531q0 119 81 200t200 81h93q57 0 95 -37.5t38 -94.5q0 -26 -9 -50q9 -24 9 -50q0 -67 -50 -106q50 -38 50 -105q0 -27 -9 -50q9 -24 9 -50zM442 327q0 30 -19 48.5t-49 18.5
h-174v95q0 34 23.5 57.5t57.5 23.5h93q30 0 49 19t19 49t-19 48.5t-49 18.5h-93q-93 0 -154.5 -61.5t-61.5 -154.5v-431q0 -30 18.5 -48.5t48.5 -18.5t49 18.5t19 48.5v201h174q30 0 49 19t19 49z" />
    <glyph glyph-name="G" unicode="G" horiz-adv-x="815" 
d="M846 247q0 -178 -122.5 -300.5t-300.5 -122.5t-300.5 122.5t-122.5 300.5q0 25 3 50q-3 25 -3 50q0 178 122.5 300.5t300.5 122.5q107 0 220 -61q131 -71 131 -168q0 -26 -10 -50q5 -12 7 -25q75 -37 75 -119q0 -33 -5 -65q5 -17 5 -35zM781 347q0 27 -20 47.5t-47 20.5
h-214q-30 0 -48.5 -18.5t-18.5 -48.5t18.5 -49t48.5 -19h136q-22 -71 -80.5 -113.5t-132.5 -42.5q-95 0 -159 64t-64 159q0 96 63.5 159.5t159.5 63.5q101 0 167 -74q22 -24 49 -24q28 0 49 20.5t21 48.5q0 23 -19 44q-108 120 -267 120q-151 0 -254.5 -103.5t-103.5 -254.5
t103.5 -254.5t254.5 -103.5t254.5 103.5t103.5 254.5zM378 195q-10 25 -10 53q0 26 9 50q-9 24 -9 50q0 27 9 51q-80 -22 -105 -102q25 -80 106 -102z" />
    <glyph glyph-name="H" unicode="H" horiz-adv-x="642" 
d="M829 -262q0 -57 -38.5 -94.5t-94.5 -37.5q-121 0 -204 80t-83 201v257h-144v-186q0 -57 -38 -94.5t-95 -37.5t-94.5 37.5t-37.5 94.5v680q0 57 37.5 94.5t94.5 37.5t95 -37.5t38 -94.5v-129h144v129q0 57 37.5 94.5t94.5 37.5t95 -37.5t38 -94.5v-651q0 -16 16 -16
q60 0 99.5 -37t39.5 -96q0 -27 -9 -50q9 -23 9 -50zM764 -162q0 30 -19 49t-49 19h-6q-34 0 -57.5 23.5t-23.5 57.5v651q0 30 -19 48.5t-49 18.5t-48.5 -18.5t-18.5 -48.5v-194h-274v194q0 30 -19 48.5t-49 18.5t-48.5 -18.5t-18.5 -48.5v-580q0 -30 18.5 -48.5t48.5 -18.5
t49 18.5t19 48.5v251h274v-322q0 -92 62 -154t154 -62h6q30 0 49 18.5t19 48.5z" />
    <glyph glyph-name="I" unicode="I" horiz-adv-x="233" 
d="M265 -42q0 -57 -38.5 -94.5t-94.5 -37.5q-57 0 -94.5 37.5t-37.5 94.5v680q0 57 37.5 94.5t94.5 37.5t95 -37.5t38 -94.5v-680zM200 58v580q0 30 -19 48.5t-49 18.5t-48.5 -18.5t-18.5 -48.5v-580q0 -30 18.5 -48.5t48.5 -18.5t49 18.5t19 48.5z" />
    <glyph glyph-name="J" unicode="J" horiz-adv-x="538" 
d="M571 110q0 -120 -83 -203t-203 -83t-202.5 83t-82.5 203q0 21 6 41q-6 29 -6 59q0 57 38 94.5t95 37.5t94.5 -37.5t37.5 -94.5q0 -21 20 -21q21 0 21 21v428q0 57 37.5 94.5t94.5 37.5t95 -37.5t38 -94.5v-528zM506 210v428q0 30 -19 48.5t-49 18.5t-48.5 -18.5
t-18.5 -48.5v-428q0 -36 -25 -61t-61 -25t-60.5 25t-24.5 61q0 30 -18.5 48.5t-48.5 18.5t-49 -18.5t-19 -48.5q0 -94 63 -157.5t157 -63.5t157.5 63.5t63.5 157.5z" />
    <glyph glyph-name="K" unicode="K" horiz-adv-x="558" 
d="M742 -262q0 -57 -37.5 -94.5t-94.5 -37.5q-121 0 -203 80t-82 201v221q0 15 -16 15h-44v-165q0 -57 -38 -94.5t-95 -37.5t-94.5 37.5t-37.5 94.5v678q0 57 37.5 95t94.5 38t95 -38t38 -95v-90q13 41 47.5 66t78.5 25q57 0 95 -38t38 -95q0 -30 -6 -59q6 -19 6 -41v-13
q66 -75 66 -183v-221q0 -16 16 -16q61 0 98.5 -36.5t37.5 -96.5q0 -26 -8 -49q8 -23 8 -51zM677 -162q0 68 -67 68h-4q-34 0 -57.5 23.5t-23.5 57.5v221q0 117 -99 181q33 53 33 115q0 30 -19 49t-49 19q-29 0 -48 -19t-19 -48q0 -32 -20.5 -55.5t-52.5 -26.5l-51 1v212
q0 30 -19 49t-49 19t-48.5 -19t-18.5 -49v-578q0 -30 18.5 -48.5t48.5 -18.5t49 18.5t19 48.5v230h109q33 0 57 -23.5t24 -56.5v-221q0 -93 61.5 -154.5t154.5 -61.5h4q30 0 48.5 18.5t18.5 48.5z" />
    <glyph glyph-name="L" unicode="L" horiz-adv-x="417" 
d="M457 -42q0 -57 -37.5 -94.5t-94.5 -37.5h-44q-119 0 -200 81t-81 200v531q0 57 37.5 94.5t94.5 37.5t95 -37.5t38 -94.5v-431q0 -16 16 -16h44q57 0 94.5 -38t37.5 -95q0 -27 -9 -50q9 -24 9 -50zM392 58q0 30 -18.5 49t-48.5 19h-44q-34 0 -57.5 23.5t-23.5 57.5v431
q0 30 -19 48.5t-49 18.5t-48.5 -18.5t-18.5 -48.5v-431q0 -93 61.5 -154.5t154.5 -61.5h44q30 0 48.5 18.5t18.5 48.5z" />
    <glyph glyph-name="M" unicode="M" horiz-adv-x="808" 
d="M994 -262q0 -57 -38 -94.5t-95 -37.5q-120 0 -202.5 80.5t-82.5 200.5v502q0 15 -14 16v-447q0 -57 -38 -94.5t-95 -37.5t-94.5 37.5t-37.5 94.5v431q0 16 -16 16t-16 -16v-431q0 -57 -37.5 -94.5t-94.5 -37.5t-95 37.5t-38 94.5v531q0 118 81.5 199.5t199.5 81.5
q76 0 140 -37q63 37 140 37q118 0 199 -81.5t81 -199.5v-502q0 -16 16 -16q59 0 98 -37.5t39 -95.5q0 -26 -9 -50q9 -23 9 -50zM929 -162q0 30 -19 49t-49 19h-4q-34 0 -57.5 23.5t-23.5 57.5v502q0 92 -61.5 154t-153.5 62q-80 0 -140 -52q-61 52 -140 52q-92 0 -154 -62
t-62 -154v-431q0 -30 19 -48.5t49 -18.5t48.5 18.5t18.5 48.5v431q0 34 23.5 57.5t57.5 23.5q33 0 57 -24t24 -57v-431q0 -30 18.5 -48.5t48.5 -18.5t49 18.5t19 48.5v480q24 32 64 32q33 0 56.5 -24t23.5 -57v-502q0 -92 62 -154t154 -62h4q30 0 49 18.5t19 48.5z" />
    <glyph glyph-name="N" unicode="N" horiz-adv-x="529" 
d="M715 -262q0 -57 -38.5 -94.5t-94.5 -37.5q-121 0 -203 80t-82 201v58l-1 444q0 16 -15 16q-16 0 -16 -16v-431q0 -57 -38 -94.5t-95 -37.5t-94.5 37.5t-37.5 94.5v531q0 118 81.5 199.5t199.5 81.5q113 0 195 -77q85 -80 85 -192l1 -514q0 -16 16 -16q59 0 98 -37.5
t39 -95.5q0 -27 -9 -50q9 -23 9 -50zM650 -162q0 30 -19 49t-49 19h-4q-34 0 -57.5 23.5t-23.5 57.5l-1 514q0 85 -64.5 144.5t-150.5 59.5q-92 0 -154 -62t-62 -154v-431q0 -30 18.5 -48.5t48.5 -18.5t49 18.5t19 48.5v431q0 34 23.5 57.5t57.5 23.5q33 0 56.5 -24
t23.5 -57l1 -502q0 -93 61.5 -154.5t154.5 -61.5h4q30 0 49 18.5t19 48.5z" />
    <glyph glyph-name="O" unicode="O" horiz-adv-x="808" 
d="M843 247q0 -177 -123 -300t-300 -123q-178 0 -300.5 122.5t-122.5 300.5q0 25 3 50q-3 25 -3 50q0 178 122.5 300.5t300.5 122.5t300.5 -122.5t122.5 -300.5q0 -26 -3 -51q3 -24 3 -49zM778 347q0 151 -103.5 254.5t-254.5 103.5t-254.5 -103.5t-103.5 -254.5
t103.5 -254.5t254.5 -103.5t254.5 103.5t103.5 254.5zM643 347q0 -95 -64 -159t-159 -64q-94 0 -158.5 64t-64.5 159q0 96 64 159.5t159 63.5t159 -64t64 -159zM571 298q-11 34 -38 62q-46 45 -113 45q-54 0 -95 -29.5t-55 -78.5q15 -48 55.5 -78t94.5 -30t95 30t56 79z" />
    <glyph glyph-name="P" unicode="P" horiz-adv-x="609" 
d="M641 350q0 -135 -93 -228t-228 -93q-29 0 -55 11v-82q0 -57 -38 -94.5t-95 -37.5q-56 0 -94 38t-38 94v492q0 136 92 228t228 92t228.5 -92t92.5 -228q0 -26 -4 -51q4 -24 4 -49zM345 400q-12 5 -25 5q-24 0 -40 -17q23 1 65 12zM576 450q0 109 -73.5 182t-182.5 73
t-182 -73t-73 -182v-392q0 -29 19 -48t48 -19q30 0 49 18.5t19 48.5v392q0 50 35 85t85 35t85.5 -35t35.5 -85t-35.5 -85.5t-85.5 -35.5q-30 0 -48.5 -18.5t-18.5 -48.5t18.5 -49t48.5 -19q109 0 182.5 73.5t73.5 182.5z" />
    <glyph glyph-name="Q" unicode="Q" horiz-adv-x="812" 
d="M846 247q0 -136 -78.5 -246.5t-205.5 -153.5l-1 -5q-1 -55 -3 -110q-6 -64 -30 -96q-31 -42 -99 -42q-56 0 -94 38t-38 94v177q-28 -14 -59 -14q-46 0 -84 32q-154 126 -154 326q0 25 3 49q-3 25 -3 51q0 178 122.5 300.5t300.5 122.5t300.5 -122.5t122.5 -300.5
q0 -25 -3 -49q3 -25 3 -51zM573 297q-22 74 -95 99q59 -57 76 -138q13 19 19 39zM781 347q0 151 -103.5 254.5t-254.5 103.5t-254.5 -103.5t-103.5 -254.5q0 -169 130 -276q21 -17 43 -17q28 0 48.5 21t20.5 49q0 30 -26 51q-81 67 -81 172q0 96 63.5 159.5t159.5 63.5
q95 0 159 -64t64 -159q0 -72 -41 -130t-109 -81v58q0 92 -61.5 154t-153.5 62q-30 0 -49 -18.5t-19 -48.5q0 -31 19.5 -49.5t52 -18.5t54.5 -24t22 -57l1 -368q0 -29 19 -48t48 -19t48.5 19t19.5 48l-1 171q126 25 205.5 123t79.5 227z" />
    <glyph glyph-name="R" unicode="R" horiz-adv-x="607" 
d="M641 350q0 -115 -72 -203q32 -37 32 -89q0 -26 -9 -50q9 -23 9 -50q0 -57 -38 -94.5t-95 -37.5q-128 0 -209 91q-13 -41 -47.5 -66t-79.5 -25q-56 0 -94 38t-38 94v492q0 136 92 228t228 92t228.5 -92t92.5 -228q0 -25 -4 -49q4 -25 4 -51zM345 400q-12 5 -25 5
q-25 0 -41 -18q24 2 66 13zM576 450q0 109 -73.5 182t-182.5 73t-182 -73t-73 -182v-392q0 -29 19 -48t48 -19q30 0 49 18.5t19 48.5v392q0 50 35 85t85 35t85.5 -35t35.5 -85t-35.5 -85.5t-85.5 -35.5q-27 0 -47 -20t-20 -47v-55q0 -93 61.5 -154.5t153.5 -61.5
q30 0 49 18.5t19 48.5q0 31 -19 49.5t-50.5 18.5t-54.5 22.5t-24 54.5q84 24 136 92t52 155z" />
    <glyph glyph-name="S" unicode="S" horiz-adv-x="484" 
d="M521 538q0 -57 -35.5 -92.5t-89.5 -39.5l-3 -320q-1 -109 -76.5 -185t-184.5 -76q-57 0 -94.5 37.5t-37.5 94.5q0 26 9 50q-9 24 -9 50q0 56 37 94t93 39l-3 219q0 14 1 29l-1 71q-2 109 74.5 185t186.5 76q57 0 95 -37.5t38 -94.5q0 -27 -9 -51q9 -23 9 -49zM456 638
q0 30 -19 48.5t-49 18.5q-83 0 -139.5 -56.5t-56.5 -139.5l1 -323q0 -26 -17.5 -43.5t-43.5 -17.5q-30 0 -48.5 -19t-18.5 -49t18.5 -48.5t48.5 -18.5q82 0 139 56.5t57 139.5l-1 323q0 56 64.5 61.5t64.5 67.5z" />
    <glyph glyph-name="T" unicode="T" horiz-adv-x="543" 
d="M582 538q0 -57 -38 -95t-95 -38h-28v-447q0 -57 -37.5 -94.5t-94.5 -37.5t-95 37.5t-38 94.5v447h-23q-57 0 -95 38t-38 95q0 26 9 50q-9 24 -9 50q0 57 38 94.5t95 37.5h316q57 0 95 -37.5t38 -94.5q0 -27 -9 -50q9 -24 9 -50zM517 638q0 30 -19 48.5t-49 18.5h-316
q-30 0 -49 -18.5t-19 -48.5t19 -49t49 -19h88v-512q0 -30 19 -48.5t49 -18.5t48.5 18.5t18.5 48.5v512h93q30 0 49 19t19 49z" />
    <glyph glyph-name="U" unicode="U" horiz-adv-x="529" 
d="M561 107q0 -118 -81 -199.5t-199 -81.5q-119 0 -200 81t-81 200v531q0 57 37.5 94.5t94.5 37.5t95 -37.5t38 -94.5v-431q0 -16 16 -16q15 0 15 16v432q0 56 38.5 94.5t94.5 38.5q57 0 94.5 -38t37.5 -95v-532zM496 207v432q0 30 -18.5 49t-48.5 19q-29 0 -48.5 -19.5
t-19.5 -48.5v-432q0 -34 -23 -57.5t-57 -23.5t-57.5 23.5t-23.5 57.5v431q0 30 -19 48.5t-49 18.5t-48.5 -18.5t-18.5 -48.5v-431q0 -93 61.5 -154.5t154.5 -61.5q92 0 153.5 62t61.5 154z" />
    <glyph glyph-name="V" unicode="V" horiz-adv-x="603" 
d="M642 540q0 -20 -9 -45l-200 -580q-34 -101 -125 -101t-125 101l-201 580q-8 22 -8 45q0 26 10 49l-2 6q-8 22 -8 45q0 55 40 93t95 38q64 0 108 -62q33 -45 58 -130q17 -58 33 -116q16 58 33 116q25 85 58 130q44 62 108 62q55 0 95 -38t40 -93q0 -20 -9 -45l-1 -5
q10 -24 10 -50zM577 640q0 28 -21 47t-49 19q-46 0 -62 -46l-137 -396l-137 396q-16 46 -62 46q-28 0 -49 -19t-21 -47q0 -12 4 -24l201 -580q20 -57 64 -57t64 57l200 580q5 15 5 24z" />
    <glyph glyph-name="W" unicode="W" horiz-adv-x="808" 
d="M840 107q0 -118 -81.5 -199.5t-199.5 -81.5q-76 0 -139 37q-63 -37 -139 -37q-119 0 -200 81t-81 200v531q0 57 38 94.5t95 37.5t94.5 -37.5t37.5 -94.5v-431q0 -14 13 -16v447q0 57 38 94.5t95 37.5t94.5 -37.5t37.5 -94.5v-431q0 -16 16 -16t16 16v431q0 57 37.5 94.5
t94.5 37.5t95 -37.5t38 -94.5v-531zM775 207v431q0 30 -19 48.5t-49 18.5t-48.5 -18.5t-18.5 -48.5v-431q0 -34 -23.5 -57.5t-57.5 -23.5t-57.5 23.5t-23.5 57.5v431q0 30 -18.5 48.5t-48.5 18.5t-49 -18.5t-19 -48.5v-483q-24 -29 -62 -29q-34 0 -57.5 23.5t-23.5 57.5v431
q0 30 -18.5 48.5t-48.5 18.5t-49 -18.5t-19 -48.5v-431q0 -93 61.5 -154.5t154.5 -61.5q79 0 139 51q60 -51 139 -51q92 0 154 62t62 154z" />
    <glyph glyph-name="X" unicode="X" horiz-adv-x="525" 
d="M561 -42q0 -57 -37.5 -94.5t-94.5 -37.5q-56 0 -94.5 38t-38.5 94v136q0 16 -15 16q-16 0 -16 -16v-136q0 -57 -38 -94.5t-95 -37.5t-94.5 37.5t-37.5 94.5v236q0 54 18 102q-18 47 -18 101v241q0 57 37.5 94.5t94.5 37.5t95 -37.5t38 -94.5v-141q0 -15 16 -15
q15 0 15 15v141q0 56 38.5 94t94.5 38q57 0 94.5 -37.5t37.5 -94.5v-241q0 -54 -18 -101q18 -48 18 -102v-236zM496 58v136q0 89 -62 152q62 63 62 151v141q0 30 -18.5 48.5t-48.5 18.5q-29 0 -48.5 -19t-19.5 -48v-141q0 -33 -23.5 -56.5t-56.5 -23.5q-34 0 -57.5 23
t-23.5 57v141q0 30 -19 48.5t-49 18.5t-48.5 -18.5t-18.5 -48.5v-141q0 -88 62 -151q-62 -63 -62 -152v-136q0 -30 18.5 -48.5t48.5 -18.5t49 18.5t19 48.5v136q0 34 23.5 57.5t57.5 23.5q33 0 56.5 -24t23.5 -57v-136q0 -29 19.5 -48t48.5 -19q30 0 48.5 18.5t18.5 48.5z
" />
    <glyph glyph-name="Y" unicode="Y" horiz-adv-x="530" 
d="M561 107q0 -118 -81 -199.5t-199 -81.5q-119 0 -200 81t-81 200v10q0 19 5 37q-5 26 -5 53v10q0 42 22 75q-22 52 -22 111v235q0 57 37.5 94.5t94.5 37.5t95 -37.5t38 -94.5v-135q0 -16 16 -16q15 0 15 16v135q0 56 38.5 94t94.5 38q57 0 94.5 -37.5t37.5 -94.5v-531z
M496 207v431q0 30 -18.5 48.5t-48.5 18.5q-29 0 -48.5 -19t-19.5 -48v-135q-3 -13 -6 -23q-7 -25 -17 -34q-23 -24 -57 -24t-57.5 23.5t-23.5 57.5v135q0 30 -19 48.5t-49 18.5t-48.5 -18.5t-18.5 -48.5v-135q0 -93 61.5 -154.5t154.5 -61.5q42 0 80 16v-96q0 -34 -23 -57.5
t-57 -23.5t-57.5 23.5t-23.5 57.5v10q0 30 -19 48.5t-49 18.5t-48.5 -18.5t-18.5 -48.5v-10q0 -93 61.5 -154.5t154.5 -61.5q92 0 153.5 62t61.5 154z" />
    <glyph glyph-name="Z" unicode="Z" horiz-adv-x="562" 
d="M601 548q0 -38 -23 -77l-165 -280h55q57 0 94.5 -38t37.5 -95q0 -26 -9 -50q9 -24 9 -50q0 -57 -37.5 -94.5t-94.5 -37.5h-345q-56 0 -96 33t-40 89q0 27 10 52q-10 22 -10 48q0 41 22 78l164 279q-55 2 -91 39.5t-36 93.5q0 26 9 50q-9 24 -9 50q0 57 37.5 94.5
t94.5 37.5h286q57 0 94 -28q43 -33 43 -94q0 -24 -9 -49q9 -23 9 -51zM536 648q0 57 -72 57h-286q-30 0 -48.5 -18.5t-18.5 -48.5t18.5 -49t48.5 -19h168l-281 -477q-13 -22 -13 -45q0 -28 21 -42.5t50 -14.5h345q30 0 48.5 18.5t18.5 48.5t-18.5 49t-48.5 19h-227l281 478
q14 24 14 44z" />
    <glyph glyph-name="bracketleft" unicode="[" horiz-adv-x="430" 
d="M457 -242q0 -57 -37.5 -94.5t-94.5 -37.5h-44q-118 0 -199.5 81.5t-81.5 199.5v695q0 118 81.5 199.5t199.5 81.5h44q57 0 94.5 -38t37.5 -95q0 -26 -9 -50q9 -24 9 -50q0 -57 -37.5 -94.5t-94.5 -37.5h-44q-16 0 -16 -16v-495q0 -16 16 -16h44q57 0 94.5 -38t37.5 -95
q0 -27 -9 -50q9 -24 9 -50zM392 -142q0 30 -18.5 49t-48.5 19h-44q-34 0 -57.5 23.5t-23.5 57.5v595q0 34 23.5 57.5t57.5 23.5h44q30 0 48.5 18.5t18.5 48.5t-18.5 49t-48.5 19h-44q-92 0 -154 -62t-62 -154v-595q0 -92 62 -154t154 -62h44q30 0 48.5 18.5t18.5 48.5z" />
    <glyph glyph-name="backslash" unicode="\" horiz-adv-x="480" 
d="M511 -148q0 -55 -40 -92.5t-95 -37.5q-91 0 -122 88l-269 753q-8 22 -8 47q0 26 9 49l-1 4q-8 22 -8 47q0 56 39.5 93.5t95.5 37.5q90 0 122 -89l269 -752q8 -22 8 -48t-9 -48l1 -4q8 -22 8 -48zM446 -48q0 15 -4 26l-269 752q-16 46 -61 46q-29 0 -49.5 -18.5
t-20.5 -47.5q0 -14 4 -25l269 -753q16 -45 61 -45q28 0 49 18.5t21 46.5z" />
    <glyph glyph-name="bracketright" unicode="]" horiz-adv-x="426" 
d="M458 -93q0 -118 -81.5 -199.5t-199.5 -81.5h-44q-57 0 -95 37.5t-38 94.5q0 26 9 50q-9 24 -9 50q0 57 38 95t95 38h44q16 0 16 16v495q0 16 -16 16h-44q-57 0 -95 37.5t-38 94.5q0 26 9 50q-9 24 -9 50q0 57 38 95t95 38h44q117 0 199 -82t82 -199v-695zM393 7v595
q0 91 -62.5 153.5t-153.5 62.5h-44q-30 0 -49 -19t-19 -49t19 -48.5t49 -18.5h44q33 0 57 -24t24 -57v-595q0 -34 -23.5 -57.5t-57.5 -23.5h-44q-30 0 -49 -19t-19 -49t19 -48.5t49 -18.5h44q92 0 154 62t62 154z" />
    <glyph glyph-name="asciicircum" unicode="^" horiz-adv-x="428" 
d="M463 434q0 -55 -40 -94.5t-95 -39.5q-52 0 -92 40h-10q-40 -40 -92 -40q-54 0 -94 40t-40 94q0 24 11 48q-11 25 -11 52q0 49 47 103q19 21 86 81q52 46 98 46q45 0 106 -52l86 -85q40 -40 40 -93q0 -27 -10 -51q10 -23 10 -49zM398 534q0 26 -21 47q-76 75 -90 88
q-33 30 -56 30q-21 0 -55 -30q-17 -15 -90 -88q-21 -21 -21 -47q0 -27 21 -48t48 -21q26 0 47 21l50 49l50 -49q21 -21 47 -21q28 0 49 20.5t21 48.5z" />
    <glyph glyph-name="underscore" unicode="_" horiz-adv-x="605" 
d="M640 -32q0 -56 -37.5 -94.5t-94.5 -38.5h-375q-57 0 -95 38t-38 95q0 26 9 50q-9 24 -9 50q0 57 38 94.5t95 37.5h375q57 0 94.5 -37.5t37.5 -94.5q0 -27 -9 -50q9 -24 9 -50zM575 68q0 30 -18.5 48.5t-48.5 18.5h-375q-30 0 -49 -18.5t-19 -48.5t19 -49t49 -19h375
q30 0 48.5 19t18.5 49z" />
    <glyph glyph-name="grave" unicode="`" horiz-adv-x="307" 
d="M342 404q0 -97 -90 -136q-29 -12 -58 -12q-56 0 -94 33q-29 26 -52 79q-19 47 -37 93q-11 27 -11 56q0 27 8 51q-8 23 -8 49q0 64 42.5 106t104.5 42q57 0 94 -33q29 -25 53 -78q18 -46 37 -93q11 -26 11 -57q0 -27 -8 -51q8 -23 8 -49zM277 504q0 18 -6 32l-47 113
q-21 51 -77 51q-16 0 -31 -6q-51 -21 -51 -77q0 -16 6 -31l47 -114q21 -51 76 -51q16 0 32 7q51 22 51 76z" />
    <glyph glyph-name="a" unicode="a" horiz-adv-x="609" 
d="M641 -42q0 -57 -38.5 -94.5t-94.5 -37.5t-93 36q-38 -38 -95 -38q-136 0 -228 92.5t-92 228.5q0 25 4 50q-4 25 -4 50q0 136 92 228t228 92t228.5 -92.5t92.5 -227.5v-287zM576 58v187q0 109 -73.5 182t-182.5 73t-182 -73t-73 -182t73 -182.5t182 -73.5q30 0 49 19
t19 49t-19 48.5t-49 18.5q-50 0 -85 35.5t-35 85.5t35 85t85 35t85.5 -35t35.5 -85v-187q0 -30 18.5 -48.5t48.5 -18.5t49 18.5t19 48.5zM361 183q-17 17 -41 17q-13 0 -24 -5q10 -5 31 -7q25 -2 34 -5z" />
    <glyph glyph-name="b" unicode="b" horiz-adv-x="605" 
d="M641 146q0 -134 -93.5 -227t-227.5 -93q-135 0 -227.5 92.5t-92.5 227.5v492q0 56 38 94t94 38q57 0 95 -37.5t38 -94.5v-82q26 11 55 11q136 0 228.5 -92.5t92.5 -228.5q0 -26 -4 -50q4 -25 4 -50zM576 246q0 109 -73.5 182.5t-182.5 73.5q-30 0 -48.5 -19t-18.5 -49
t18.5 -48.5t48.5 -18.5q50 0 85.5 -35.5t35.5 -85.5t-35.5 -85t-85.5 -35t-85 35t-35 85v392q0 30 -19 48.5t-49 18.5q-29 0 -48 -19t-19 -48v-392q0 -108 73.5 -181.5t181.5 -73.5t182 73.5t74 181.5zM345 196q-11 5 -32 7q-24 2 -33 5q16 -17 40 -17q13 0 25 5z" />
    <glyph glyph-name="c" unicode="c" horiz-adv-x="419" 
d="M453 -42q0 -57 -38.5 -94.5t-94.5 -37.5q-135 0 -227.5 92.5t-92.5 227.5q0 25 4 50q-4 25 -4 50q0 136 92 228.5t228 92.5q57 0 95 -38t38 -95q0 -26 -9 -50q9 -24 9 -50q0 -57 -38 -94.5t-95 -37.5q-13 0 -24 -6q11 -5 24 -5q57 0 95 -38t38 -95q0 -27 -9 -50
q9 -24 9 -50zM388 58q0 30 -19 49t-49 19q-50 0 -85 35t-35 85t35 85.5t85 35.5q30 0 49 18.5t19 48.5t-19 49t-49 19q-109 0 -182 -73.5t-73 -182.5q0 -108 73.5 -181.5t181.5 -73.5q30 0 49 18.5t19 48.5z" />
    <glyph glyph-name="d" unicode="d" horiz-adv-x="609" 
d="M641 146q0 -134 -93.5 -227t-227.5 -93q-135 0 -227.5 92.5t-92.5 227.5q0 25 4 50q-4 25 -4 50q0 136 92 228.5t228 92.5q30 0 56 -11v82q0 56 38 94t94 38q57 0 95 -37.5t38 -94.5v-492zM576 246v392q0 30 -19 48.5t-49 18.5q-29 0 -48 -19t-19 -48v-392
q0 -50 -35.5 -85t-85.5 -35t-85 35t-35 85t35 85.5t85 35.5q30 0 49 18.5t19 48.5t-19 49t-49 19q-109 0 -182 -73.5t-73 -182.5q0 -108 73.5 -181.5t181.5 -73.5t182 73.5t74 181.5zM360 208q-23 -1 -64 -12q11 -5 24 -5q24 0 40 17z" />
    <glyph glyph-name="e" unicode="e" horiz-adv-x="555" 
d="M590 276q0 -63 -51 -104q-8 -8 -28 -29q30 -36 30 -86q0 -26 -9 -50q9 -24 9 -50q0 -57 -37.5 -95t-94.5 -38h-89q-135 0 -227.5 92.5t-92.5 228.5q0 25 4 50q-4 25 -4 50q0 136 92 228t228 92q89 0 173 -49q97 -56 97 -140q0 -27 -10 -50q10 -24 10 -50zM525 376
q0 25 -20 46q-76 78 -185 78t-182 -73t-73 -182t73 -182.5t182 -73.5h89q30 0 48.5 19t18.5 49t-18.5 48.5t-48.5 18.5h-89q-50 0 -85 35.5t-35 85.5t35 85t85 35q13 0 26 -2l-72 -71q-22 -22 -22 -47q0 -28 20.5 -49t48.5 -21q25 0 47 21l128 125q29 22 29 55z" />
    <glyph glyph-name="f" unicode="f" horiz-adv-x="523" 
d="M565 178q0 -57 -37.5 -94.5t-94.5 -37.5h-168v-88q0 -57 -38 -94.5t-95 -37.5t-94.5 37.5t-37.5 94.5v531q0 119 81 200t200 81q118 0 199 -81.5t81 -199.5v-7q0 -20 -5 -38q5 -27 5 -55v-7q0 -25 -8 -47q12 -26 12 -57q0 -27 -9 -50q9 -24 9 -50zM500 278q0 30 -18.5 49
t-48.5 19h-233v143q0 34 23.5 57.5t57.5 23.5t57 -23.5t23 -57.5v-7q0 -29 19.5 -48.5t48.5 -19.5q30 0 48.5 19t18.5 49v7q0 92 -61.5 154t-153.5 62q-93 0 -154.5 -61.5t-61.5 -154.5v-431q0 -30 18.5 -48.5t48.5 -18.5t49 18.5t19 48.5v153h233q30 0 48.5 18.5t18.5 48.5
z" />
    <glyph glyph-name="g" unicode="g" horiz-adv-x="609" 
d="M640 -387q0 -135 -92.5 -227.5t-227.5 -92.5t-227.5 92.5t-92.5 227.5q0 25 4 50q-4 25 -4 50q0 125 81 216q-81 90 -81 216q0 25 4 50q-4 25 -4 50q0 136 92 228t228 92t228 -92t92 -228v-341q0 -58 -26 -109q26 -35 26 -82q0 -31 -5 -60q5 -19 5 -40zM360 184
q-16 16 -40 16q-13 0 -24 -5q10 -5 32.5 -7t31.5 -4zM575 -287q0 30 -18.5 49t-48.5 19q-29 0 -48.5 -19.5t-19.5 -48.5q0 -50 -35 -85t-85 -35t-85 35t-35 85t35 85.5t85 35.5h86q71 0 120 49.5t49 120.5v241q0 109 -73 182t-182 73t-182 -73t-73 -182t73 -182.5t182 -73.5
q30 0 49 19t19 49t-19 48.5t-49 18.5q-50 0 -85 35.5t-35 85.5t35 85t85 35t85 -35t35 -85v-241q0 -14 -10 -24.5t-24 -10.5h-87q-108 0 -181 -74t-73 -182t73.5 -181.5t181.5 -73.5t181.5 73.5t73.5 181.5zM354 -331h-34q-13 0 -24 -6q11 -5 24 -5q19 0 34 11z" />
    <glyph glyph-name="h" unicode="h" horiz-adv-x="527" 
d="M714 -262q0 -57 -37.5 -94.5t-94.5 -37.5q-121 0 -203 80.5t-82 200.5l-1 298q0 15 -15 15q-16 0 -16 -15v-227q0 -57 -38 -94.5t-95 -37.5t-94.5 37.5t-37.5 94.5v680q0 57 37.5 94.5t94.5 37.5t95 -37.5t38 -94.5v-73h16q118 0 199.5 -81t81.5 -199v-298q0 -16 16 -16
q59 0 97.5 -37.5t38.5 -95.5q0 -27 -9 -50q9 -23 9 -50zM649 -162q0 30 -18.5 49t-48.5 19h-4q-34 0 -57.5 23.5t-23.5 57.5v298q0 92 -62 153.5t-154 61.5q-43 0 -81 -15v153q0 30 -19 48.5t-49 18.5t-48.5 -18.5t-18.5 -48.5v-580q0 -30 18.5 -48.5t48.5 -18.5t49 18.5
t19 48.5v227q0 34 23.5 57t57.5 23q33 0 56.5 -23.5t23.5 -56.5l1 -298q0 -92 62 -154t154 -62h4q30 0 48.5 18.5t18.5 48.5z" />
    <glyph glyph-name="i" unicode="i" horiz-adv-x="232" 
d="M280 531q0 -38 -17 -70q2 -13 2 -28v-475q0 -57 -38.5 -94.5t-94.5 -37.5q-57 0 -94.5 37.5t-37.5 94.5v475q0 14 2 27q-18 33 -18 71q0 26 9 50q-9 24 -9 50q0 61 43.5 104.5t104.5 43.5t104.5 -43.5t43.5 -104.5q0 -26 -9 -50q9 -24 9 -50zM215 631q0 34 -24.5 58.5
t-58.5 24.5t-58.5 -24.5t-24.5 -58.5t24.5 -58.5t58.5 -24.5t58.5 24.5t24.5 58.5zM200 58v375q0 67 -68 67q-30 0 -48.5 -18.5t-18.5 -48.5v-375q0 -30 18.5 -48.5t48.5 -18.5t49 18.5t19 48.5z" />
    <glyph glyph-name="j" unicode="j" horiz-adv-x="231" 
d="M280 531q0 -38 -17 -70q2 -13 2 -28v-546q0 -118 -81.5 -199.5t-199.5 -81.5q-59 0 -98 37t-39 95q0 26 9 50q-9 23 -9 50q0 57 38 95t95 38q20 0 20 16v446q0 14 2 27q-18 33 -18 71q0 26 9 50q-9 24 -9 50q0 61 43.5 104.5t104.5 43.5t104.5 -43.5t43.5 -104.5
q0 -27 -9 -50q9 -24 9 -50zM215 631q0 34 -24.5 58.5t-58.5 24.5t-58.5 -24.5t-24.5 -58.5t24.5 -58.5t58.5 -24.5t58.5 24.5t24.5 58.5zM200 -13v446q0 67 -68 67q-30 0 -48.5 -18.5t-18.5 -48.5v-446q0 -34 -23.5 -57.5t-57.5 -23.5h-4q-30 0 -49 -19t-19 -49t19 -48.5
t49 -18.5h4q92 0 154 62t62 154z" />
    <glyph glyph-name="k" unicode="k" horiz-adv-x="510" 
d="M699 -262q0 -57 -38 -94.5t-95 -37.5q-120 0 -202.5 80.5t-82.5 200.5v118q0 15 -16 15v-62q0 -57 -38 -94.5t-95 -37.5t-94.5 37.5t-37.5 94.5v678q0 57 37.5 95t94.5 38t95 -38t38 -95v-160q25 89 126 89q57 0 95 -37.5t38 -94.5q0 -31 -6 -59q6 -20 6 -41
q0 -47 -14 -89q36 -62 36 -139v-118q0 -16 16 -16q59 0 98 -37.5t39 -95.5q0 -26 -9 -50q9 -23 9 -50zM634 -162q0 30 -19 49t-49 19h-4q-34 0 -57.5 23.5t-23.5 57.5v118q0 108 -88 173q66 64 66 155q0 30 -19 48.5t-49 18.5q-67 0 -67 -69q0 -33 -24 -56.5t-57 -22.5
l-43 1v283q0 30 -19 49t-49 19t-48.5 -19t-18.5 -49v-578q0 -30 18.5 -48.5t48.5 -18.5t49 18.5t19 48.5v127h65q34 0 57.5 -23t23.5 -57v-118q0 -92 62 -154t154 -62h4q30 0 49 18.5t19 48.5z" />
    <glyph glyph-name="l" unicode="l" horiz-adv-x="231" 
d="M265 -42q0 -57 -38.5 -94.5t-94.5 -37.5q-57 0 -94.5 37.5t-37.5 94.5v678q0 57 37.5 94.5t94.5 37.5q61 0 97 -35.5t36 -96.5v-678zM200 58v578q0 67 -68 67q-30 0 -48.5 -18.5t-18.5 -48.5v-578q0 -30 18.5 -48.5t48.5 -18.5t49 18.5t19 48.5z" />
    <glyph glyph-name="m" unicode="m" horiz-adv-x="808" 
d="M994 -262q0 -57 -38 -94.5t-95 -37.5q-120 0 -202.5 80.5t-82.5 200.5v298q0 15 -14 15v-242q0 -57 -38 -94.5t-95 -37.5t-94.5 37.5t-37.5 94.5v227q0 15 -16 15t-16 -15v-227q0 -57 -37.5 -94.5t-94.5 -37.5t-95 37.5t-38 94.5v327q0 118 81.5 199t199.5 81
q76 0 140 -37q63 37 140 37q118 0 199 -81t81 -199v-298q0 -16 16 -16q59 0 98 -37.5t39 -95.5q0 -26 -9 -50q9 -23 9 -50zM929 -162q0 30 -19 49t-49 19h-4q-34 0 -57.5 23.5t-23.5 57.5v298q0 92 -61.5 153.5t-153.5 61.5q-80 0 -140 -51q-61 51 -140 51q-92 0 -154 -61.5
t-62 -153.5v-227q0 -30 19 -48.5t49 -18.5t48.5 18.5t18.5 48.5v227q0 34 23.5 57t57.5 23q33 0 57 -23.5t24 -56.5v-227q0 -30 18.5 -48.5t48.5 -18.5t49 18.5t19 48.5v276q24 31 64 31q33 0 56.5 -23.5t23.5 -56.5v-298q0 -92 62 -154t154 -62h4q30 0 49 18.5t19 48.5z
" />
    <glyph glyph-name="n" unicode="n" horiz-adv-x="527" 
d="M715 -262q0 -57 -38.5 -94.5t-94.5 -37.5q-121 0 -203 80t-82 201v47l-1 251q0 15 -15 15q-16 0 -16 -15v-227q0 -57 -38 -94.5t-95 -37.5t-94.5 37.5t-37.5 94.5v327q0 118 81.5 199t199.5 81t199.5 -81t81.5 -199v-298q0 -16 16 -16q59 0 98 -37.5t39 -95.5
q0 -27 -9 -50q9 -23 9 -50zM650 -162q0 30 -19 49t-49 19h-4q-34 0 -57.5 23.5t-23.5 57.5v298q0 92 -62 153.5t-154 61.5t-154 -61.5t-62 -153.5v-227q0 -30 18.5 -48.5t48.5 -18.5t49 18.5t19 48.5v227q0 34 23.5 57t57.5 23q33 0 56.5 -23.5t23.5 -56.5l1 -298
q0 -93 61.5 -154.5t154.5 -61.5h4q30 0 49 18.5t19 48.5z" />
    <glyph glyph-name="o" unicode="o" horiz-adv-x="603" 
d="M641 145q0 -135 -93 -228t-228 -93q-136 0 -228 92.5t-92 228.5q0 25 4 50q-4 25 -4 50q0 136 92 228t228 92t228.5 -92t92.5 -228q0 -26 -4 -51q4 -24 4 -49zM576 245q0 109 -73.5 182t-182.5 73t-182 -73t-73 -182t73 -182.5t182 -73.5t182.5 73.5t73.5 182.5zM441 245
q0 -50 -35.5 -85.5t-85.5 -35.5t-85 35.5t-35 85.5t35 85t85 35t85.5 -35t35.5 -85z" />
    <glyph glyph-name="p" unicode="p" horiz-adv-x="603" 
d="M641 145q0 -135 -93 -228t-228 -93q-29 0 -55 11v-81q0 -57 -38 -95t-95 -38t-94.5 38t-37.5 95v491q0 136 92 228t228 92t228.5 -92t92.5 -228q0 -26 -4 -51q4 -24 4 -49zM345 195q-12 5 -25 5q-24 0 -40 -17q23 1 65 12zM576 245q0 109 -73.5 182t-182.5 73t-182 -73
t-73 -182v-391q0 -30 18.5 -49t48.5 -19t49 19t19 49v391q0 50 35 85t85 35t85.5 -35t35.5 -85t-35.5 -85.5t-85.5 -35.5q-30 0 -48.5 -18.5t-18.5 -48.5t18.5 -49t48.5 -19q109 0 182.5 73.5t73.5 182.5z" />
    <glyph glyph-name="q" unicode="q" horiz-adv-x="607" 
d="M641 -246q0 -57 -38 -95t-95 -38t-94.5 38t-37.5 95v81q-26 -11 -56 -11q-136 0 -228 92.5t-92 228.5q0 25 4 50q-4 25 -4 50q0 136 92 228t228 92t228.5 -92.5t92.5 -227.5v-491zM360 183q-16 17 -40 17q-13 0 -24 -5q10 -5 31 -7q25 -2 33 -5zM576 -146v391
q0 109 -73.5 182t-182.5 73t-182 -73t-73 -182t73 -182.5t182 -73.5q30 0 49 19t19 49t-19 48.5t-49 18.5q-50 0 -85 35.5t-35 85.5t35 85t85 35t85.5 -35t35.5 -85v-391q0 -30 18.5 -49t48.5 -19t49 19t19 49z" />
    <glyph glyph-name="r" unicode="r" horiz-adv-x="372" 
d="M413 333q0 -59 -35.5 -93.5t-92.5 -39.5q-20 -1 -20 -15v-227q0 -57 -38 -94.5t-95 -37.5t-94.5 37.5t-37.5 94.5v327q0 118 81.5 199t199.5 81q56 0 94 -38t38 -94q0 -28 -9 -51q9 -23 9 -49zM348 433q0 29 -19 48t-48 19q-92 0 -154 -61.5t-62 -153.5v-227
q0 -30 18.5 -48.5t48.5 -18.5t49 18.5t19 48.5v227q0 34 22.5 55.5t56.5 24.5q69 6 69 68z" />
    <glyph glyph-name="s" unicode="s" horiz-adv-x="482" 
d="M523 333q0 -54 -35.5 -91t-89.5 -41q0 1 -2 4t-2 4q-1 -25 -1 -63v-19q0 -75 -11 -115q-16 -59 -65 -109q-76 -76 -185 -76q-57 0 -94.5 37.5t-37.5 94.5q0 26 9 50q-9 24 -9 50q0 56 36.5 94t92.5 39v12q0 11 1 23q-1 13 -1 22v55q0 110 75.5 185.5t185.5 75.5
q57 0 95 -37.5t38 -94.5q0 -27 -9 -50q9 -23 9 -50zM458 433q0 30 -19 48.5t-49 18.5q-83 0 -139.5 -56.5t-56.5 -139.5v-55q0 -7 -1 -41v-20q0 -26 -17.5 -43.5t-43.5 -17.5q-30 0 -48.5 -19t-18.5 -49t18.5 -48.5t48.5 -18.5q82 0 138.5 57t57.5 139l1 116q0 15 2.5 22.5
t15.5 20.5t45.5 18.5t49 22t16.5 45.5z" />
    <glyph glyph-name="t" unicode="t" horiz-adv-x="523" 
d="M561 107q0 -118 -81 -199.5t-199 -81.5q-119 0 -200 81t-81 200v444q0 57 37.5 95t94.5 38q53 0 90.5 -34t42.5 -87h164q57 0 94.5 -37.5t37.5 -94.5q0 -28 -8 -52q8 -23 8 -48q0 -33 -11 -60q11 -26 11 -55v-9q0 -28 -5 -54q5 -18 5 -37v-9zM496 207v9q0 29 -19 48
t-48 19t-48.5 -19t-19.5 -48v-9q0 -34 -23 -57.5t-57 -23.5t-57.5 23.5t-23.5 57.5v156h229q67 0 67 68q0 30 -18.5 48.5t-48.5 18.5h-229v53q0 30 -19 49t-49 19t-48.5 -19t-18.5 -49v-344q0 -93 61.5 -154.5t154.5 -61.5q92 0 153.5 62t61.5 154zM294 198h-27q5 -7 14 -7
t13 7z" />
    <glyph glyph-name="u" unicode="u" horiz-adv-x="529" 
d="M561 107q0 -118 -81 -199.5t-199 -81.5q-119 0 -200 81t-81 200v324q0 57 37.5 95t94.5 38t95 -38t38 -95v-224q0 -16 16 -16q15 0 15 16v226q0 57 38 94.5t95 37.5t94.5 -37.5t37.5 -94.5v-326zM496 207v226q0 30 -18.5 48.5t-48.5 18.5t-49 -18.5t-19 -48.5v-226
q0 -34 -23 -57.5t-57 -23.5t-57.5 23.5t-23.5 57.5v224q0 30 -19 49t-49 19t-48.5 -19t-18.5 -49v-224q0 -93 61.5 -154.5t154.5 -61.5q92 0 153.5 62t61.5 154z" />
    <glyph glyph-name="v" unicode="v" horiz-adv-x="501" 
d="M541 335q0 -25 -9 -49l-145 -375q-37 -96 -124 -96t-124 96l-145 375q-9 24 -9 49q0 26 10 49l-1 2q-9 24 -9 49q0 55 40 93t95 38q62 0 96 -44q19 -23 47 -97q28 74 47 97q34 44 96 44q55 0 95 -38t40 -93q0 -25 -9 -49l-1 -2q10 -23 10 -49zM476 435q0 28 -21 47
t-49 19q-44 0 -61 -44l-82 -212l-82 212q-17 44 -61 44q-28 0 -49 -19t-21 -47q0 -13 5 -26l145 -375q21 -54 63 -54t63 54l145 375q5 13 5 26z" />
    <glyph glyph-name="w" unicode="w" horiz-adv-x="808" 
d="M841 109q0 -118 -81 -199.5t-199 -81.5q-77 0 -140 37q-64 -37 -140 -37q-119 0 -200 81t-81 200v326q0 61 36 96.5t97 35.5q57 0 94.5 -37.5t37.5 -94.5v-226q0 -16 16 -16t16 16v226q0 57 37.5 94.5t94.5 37.5q61 0 97 -35.5t36 -96.5v-242q14 0 14 16v226
q0 57 38 94.5t95 37.5t94.5 -37.5t37.5 -94.5v-326zM776 209v226q0 30 -18.5 48.5t-48.5 18.5t-49 -18.5t-19 -48.5v-226q0 -34 -23 -57.5t-57 -23.5q-40 0 -64 31v276q0 67 -68 67q-30 0 -48.5 -18.5t-18.5 -48.5v-226q0 -34 -23.5 -57.5t-57.5 -23.5t-57.5 23.5
t-23.5 57.5v226q0 30 -18.5 48.5t-48.5 18.5q-68 0 -68 -67v-226q0 -93 61.5 -154.5t154.5 -61.5q79 0 140 51q60 -51 140 -51q92 0 153.5 62t61.5 154z" />
    <glyph glyph-name="x" unicode="x" horiz-adv-x="527" 
d="M561 -42q0 -57 -37.5 -94.5t-94.5 -37.5q-56 0 -94.5 38t-38.5 94v26q0 16 -15 16q-16 0 -16 -16v-26q0 -57 -38 -94.5t-95 -37.5t-94.5 37.5t-37.5 94.5v26q0 22 3 44q-3 14 -3 30v26q0 60 22 112q-22 51 -22 111v26q0 16 3 30q-3 22 -3 44v26q0 57 37.5 94.5t94.5 37.5
q61 0 97 -35.5t36 -96.5v-26q0 -15 16 -15q15 0 15 15v26q0 57 38 94.5t95 37.5t94.5 -37.5t37.5 -94.5v-26q0 -22 -3 -44q3 -14 3 -30v-26q0 -60 -22 -111q22 -52 22 -112v-26q0 -16 -3 -30q3 -22 3 -44v-26zM496 58v26q0 97 -73 162q73 64 73 161v26q0 30 -18.5 48.5
t-48.5 18.5t-49 -18.5t-19 -48.5v-26q0 -33 -23.5 -56.5t-56.5 -23.5q-34 0 -57.5 23t-23.5 57v26q0 67 -68 67q-30 0 -48.5 -18.5t-18.5 -48.5v-26q0 -97 73 -161q-73 -65 -73 -162v-26q0 -30 18.5 -48.5t48.5 -18.5t49 18.5t19 48.5v26q0 34 23.5 57.5t57.5 23.5
q33 0 56.5 -24t23.5 -57v-26q0 -29 19.5 -48t48.5 -19q30 0 48.5 18.5t18.5 48.5z" />
    <glyph glyph-name="y" unicode="y" horiz-adv-x="527" 
d="M561 -113q0 -118 -81.5 -199.5t-199.5 -81.5q-59 0 -98 37t-39 95q0 26 9 50q-9 23 -9 50q0 11 2 21q-67 36 -106 101.5t-39 146.5v326q0 57 37.5 94.5t94.5 37.5q61 0 97 -35.5t36 -96.5v-226q0 -16 16 -16q15 0 15 16v226q0 57 38 94.5t95 37.5t94.5 -37.5t37.5 -94.5
v-546zM496 -13v446q0 30 -18.5 48.5t-48.5 18.5t-49 -18.5t-19 -48.5v-226q0 -34 -23 -57.5t-57 -23.5t-57.5 23.5t-23.5 57.5v226q0 67 -68 67q-30 0 -48.5 -18.5t-18.5 -48.5v-226q0 -93 61.5 -154.5t154.5 -61.5q42 0 80 15v-19q0 -33 -24 -57t-57 -24h-4q-30 0 -49 -19
t-19 -49t19 -48.5t49 -18.5h4q92 0 154 62t62 154z" />
    <glyph glyph-name="z" unicode="z" horiz-adv-x="536" 
d="M575 356q0 -71 -94 -187q58 -38 58 -111q0 -26 -9 -49q9 -24 9 -51q0 -56 -38 -94t-94 -38h-280q-53 0 -89 21q-49 28 -49 89q0 24 10 52q-10 21 -10 48q0 72 95 187q-56 39 -56 110q0 27 9 50q-9 24 -9 50q0 57 37.5 94.5t94.5 37.5h278q52 0 88 -21q49 -28 49 -88
q0 -24 -10 -52q10 -21 10 -48zM510 456q0 44 -72 44h-278q-30 0 -48.5 -18.5t-18.5 -48.5q0 -29 19 -48.5t48 -19.5h134l-148 -169q-92 -109 -92 -160q0 -45 73 -45h280q29 0 48 19t19 48q0 30 -18.5 49t-48.5 19h-136q110 125 147 169q92 110 92 161z" />
    <glyph glyph-name="braceleft" unicode="{" horiz-adv-x="381" 
d="M457 -242q0 -57 -37.5 -94.5t-94.5 -37.5h-44q-118 0 -199.5 81.5t-81.5 199.5v695q0 118 81.5 199.5t199.5 81.5h44q57 0 94.5 -38t37.5 -95q0 -26 -9 -50q9 -24 9 -50q0 -57 -37.5 -94.5t-94.5 -37.5h-44q-16 0 -16 -16v-495q0 -16 16 -16h44q57 0 94.5 -38t37.5 -95
q0 -27 -9 -50q9 -24 9 -50zM392 -142q0 30 -18.5 49t-48.5 19h-44q-34 0 -57.5 23.5t-23.5 57.5v595q0 34 23.5 57.5t57.5 23.5h44q30 0 48.5 18.5t18.5 48.5t-18.5 49t-48.5 19h-44q-92 0 -154 -62t-62 -154v-595q0 -92 62 -154t154 -62h44q30 0 48.5 18.5t18.5 48.5z" />
    <glyph glyph-name="bar" unicode="|" horiz-adv-x="231" 
d="M265 -142q0 -57 -38.5 -94.5t-94.5 -37.5q-57 0 -94.5 37.5t-37.5 94.5v880q0 57 37.5 94.5t94.5 37.5t95 -37.5t38 -94.5v-880zM200 -42v780q0 30 -19 48.5t-49 18.5t-48.5 -18.5t-18.5 -48.5v-780q0 -30 18.5 -48.5t48.5 -18.5t49 18.5t19 48.5z" />
    <glyph glyph-name="braceright" unicode="}" horiz-adv-x="381" 
d="M458 -93q0 -118 -81.5 -199.5t-199.5 -81.5h-44q-57 0 -95 37.5t-38 94.5q0 26 9 50q-9 24 -9 50q0 57 38 95t95 38h44q16 0 16 16v495q0 16 -16 16h-44q-57 0 -95 37.5t-38 94.5q0 26 9 50q-9 24 -9 50q0 57 38 95t95 38h44q117 0 199 -82t82 -199v-695zM393 7v595
q0 91 -62.5 153.5t-153.5 62.5h-44q-30 0 -49 -19t-19 -49t19 -48.5t49 -18.5h44q33 0 57 -24t24 -57v-595q0 -34 -23.5 -57.5t-57.5 -23.5h-44q-30 0 -49 -19t-19 -49t19 -48.5t49 -18.5h44q92 0 154 62t62 154z" />
    <glyph glyph-name="asciitilde" unicode="~" horiz-adv-x="439" 
d="M474 523q0 -62 -58 -111q-54 -46 -118 -46q-37 0 -103 28q-28 -16 -61 -16q-54 0 -94 40t-40 94q0 25 10 50q-10 24 -10 50q0 63 57 111q54 46 119 46q44 0 103 -27q28 15 60 15q55 0 95 -39.5t40 -94.5q0 -25 -10 -49q10 -25 10 -51zM409 623q0 28 -21 48.5t-49 20.5
t-49 -24q-1 -1 -4 -1l-41 19q-39 18 -69 18q-51 0 -93 -47q-18 -20 -18 -45q0 -27 21 -48t48 -21q28 0 50 24q1 1 3 1l44 -18q43 -19 67 -19q50 0 92 47q19 21 19 45z" />
    <glyph glyph-name="exclamdown" unicode="&#xa1;" horiz-adv-x="234" 
d="M269 522q0 -39 -18 -70q3 -14 3 -28v-456q0 -57 -38 -95t-95 -38t-94.5 38t-37.5 95v456q0 14 2 27q-18 33 -18 71q0 26 9 51q-9 23 -9 49q0 62 43 105t105 43t105 -43t43 -105q0 -26 -8 -50q8 -24 8 -50zM204 622q0 35 -24 59t-59 24t-59 -24t-24 -59q0 -34 24.5 -58
t58.5 -24t58.5 24t24.5 58zM189 68v356q0 30 -19 49t-49 19t-48.5 -19t-18.5 -49v-356q0 -30 18.5 -49t48.5 -19t49 19t19 49z" />
    <glyph glyph-name="cent" unicode="&#xa2;" horiz-adv-x="377" 
d="M442 58q0 -57 -39 -95q-19 -19 -45 -29q0 -49 -35 -82.5t-83 -33.5q-49 0 -83.5 34t-34.5 83q0 23 8 44q-65 43 -103 113.5t-38 153.5q0 25 4 50q-4 25 -4 50q0 83 38 155q37 69 101 112q-6 19 -6 39q0 49 34.5 83.5t83.5 34.5q47 0 81 -32.5t37 -79.5q38 -14 61 -47.5
t23 -76.5q0 -26 -9 -50q9 -24 9 -50q0 -57 -38 -94.5t-95 -37.5q-13 0 -24 -6q11 -5 24 -5q57 0 95 -38t38 -95q0 -27 -9 -50q9 -24 9 -50zM293 652q0 22 -15.5 37.5t-37.5 15.5t-37.5 -15.5t-15.5 -37.5t15.5 -37.5t37.5 -15.5t37.5 15.5t15.5 37.5zM377 158q0 30 -19 49
t-49 19q-50 0 -85 35t-35 85t35 85.5t85 35.5q30 0 49 18.5t19 48.5t-19 49t-49 19q-109 0 -182 -73.5t-73 -182.5q0 -108 73.5 -181.5t181.5 -73.5q30 0 49 18.5t19 48.5zM293 35q0 22 -15.5 37.5t-37.5 15.5t-37.5 -15.5t-15.5 -37.5t15.5 -37t37.5 -15t37.5 15t15.5 37z
" />
    <glyph glyph-name="sterling" unicode="&#xa3;" horiz-adv-x="598" 
d="M662 116q0 -118 -81 -199.5t-199 -81.5h-261q-63 0 -97.5 39t-34.5 100v515q0 118 81.5 199.5t199.5 81.5h44q57 0 94.5 -38t37.5 -95q0 -26 -9 -50q9 -24 9 -50q0 -17 -4 -32q38 -38 38 -94q0 -15 -3 -29q25 11 53 11q57 0 94.5 -38t37.5 -95v-44q0 -17 -2 -33
q2 -11 2 -23v-44zM597 216v44q0 30 -18.5 49t-48.5 19q-29 0 -48.5 -19.5t-19.5 -48.5v-44q0 -34 -23 -57.5t-57 -23.5h-193v208h158q30 0 49 19t19 49t-19 48.5t-49 18.5h-158v11q0 34 23.5 57.5t57.5 23.5h44q30 0 48.5 18.5t18.5 48.5t-18.5 49t-48.5 19h-44
q-92 0 -154 -62t-62 -154v-415q0 -74 67 -74h261q92 0 153.5 62t61.5 154z" />
    <glyph glyph-name="yen" unicode="&#xa5;" horiz-adv-x="581" 
d="M607 91q0 -61 -35.5 -97t-96.5 -36h-44q0 -57 -37.5 -94.5t-94.5 -37.5t-95 37.5t-38 94.5h-44q-57 0 -94.5 38t-37.5 95q0 26 9 50q-9 24 -9 50q0 16 3 30q-3 15 -3 31q0 26 9 50q-9 23 -9 50q0 49 29 85q-3 20 -3 41v254q0 57 37.5 94.5t94.5 37.5q61 0 97 -35.5
t36 -96.5v-154q0 -16 16 -16t16 16v155q0 57 37.5 95t94.5 38t95 -38t38 -95v-255q0 -20 -2 -38q31 -37 31 -88q0 -28 -8 -52q8 -23 8 -48q0 -17 -3 -32q3 -14 3 -29q0 -28 -8 -52q8 -23 8 -48zM542 191q0 30 -18.5 48.5t-48.5 18.5h-109v26h109q67 0 67 68q0 30 -18.5 48.5
t-48.5 18.5h-32q70 64 70 159v155q0 30 -19 49t-49 19t-48.5 -19t-18.5 -49v-155q0 -34 -23.5 -57.5t-57.5 -23.5t-57.5 23.5t-23.5 57.5v154q0 67 -68 67q-30 0 -48.5 -18.5t-18.5 -48.5v-154q0 -95 70 -159h-29q-30 0 -48.5 -18.5t-18.5 -48.5t18.5 -49t48.5 -19h109v-26
h-109q-30 0 -48.5 -18.5t-18.5 -48.5t18.5 -49t48.5 -19h109v-65q0 -30 19 -48.5t49 -18.5t48.5 18.5t18.5 48.5v65h109q67 0 67 68z" />
    <glyph glyph-name="section" unicode="&#xa7;" horiz-adv-x="696" 
d="M717 418q0 -57 -37.5 -94.5t-94.5 -37.5q-21 0 -21 -16v-163q0 -118 -81.5 -199.5t-199.5 -81.5h-7q-54 0 -90.5 33.5t-40.5 86.5q-10 -1 -19 -1h-7q-57 0 -94.5 37.5t-37.5 94.5q0 26 9 50q-9 24 -9 50q0 57 37.5 95t94.5 38h7q16 0 16 16v163q0 118 81.5 199.5
t199.5 81.5q56 0 94.5 -33t42.5 -87q10 1 20 1q61 0 99 -36.5t38 -96.5q0 -26 -8 -49q8 -24 8 -51zM652 518q0 68 -67 68h-5q-92 0 -154 -62t-62 -154v-163q0 -34 -23.5 -57.5t-57.5 -23.5h-7q-30 0 -48.5 -19t-18.5 -49t18.5 -48.5t48.5 -18.5h7q92 0 154 62t62 154v163
q0 34 23.5 57.5t57.5 23.5h5q30 0 48.5 18.5t18.5 48.5zM496 637q0 30 -19 49t-49 19h-5q-92 0 -154 -62t-62 -154v-163q0 -34 -23.5 -57.5t-57.5 -23.5h-7q-30 0 -48.5 -19t-18.5 -49t18.5 -48.5t48.5 -18.5h7q92 0 154 62t62 154v163q0 34 23.5 57.5t57.5 23.5h5
q30 0 49 18.5t19 48.5z" />
    <glyph glyph-name="dieresis" unicode="&#xa8;" horiz-adv-x="458" 
d="M476 888q0 -62 -42.5 -105t-104.5 -43q-55 0 -96 35q-41 -35 -96 -35q-62 0 -105 43t-43 105q0 26 9 49q-9 25 -9 51q0 61 43.5 104t104.5 43q54 0 95 -35q42 35 97 35q61 0 104 -43t43 -104q0 -27 -8 -51q8 -23 8 -49zM411 988q0 34 -24 58t-58 24q-35 0 -59 -23.5
t-24 -58.5t24 -59t59 -24t58.5 24t23.5 59zM220 988q0 34 -24.5 58t-58.5 24t-58.5 -24t-24.5 -58q0 -35 24 -59t59 -24t59 24t24 59z" />
    <glyph glyph-name="copyright" unicode="&#xa9;" horiz-adv-x="813" 
d="M835 247q0 -177 -123 -300t-300 -123q-178 0 -300.5 122.5t-122.5 300.5q0 25 3 50q-3 25 -3 50q0 178 122.5 300.5t300.5 122.5t300.5 -122.5t122.5 -300.5q0 -26 -3 -51q3 -24 3 -49zM770 347q0 151 -103.5 254.5t-254.5 103.5t-254.5 -103.5t-103.5 -254.5
t103.5 -254.5t254.5 -103.5t254.5 103.5t103.5 254.5zM635 347q0 -95 -64 -159t-159 -64t-159 64t-64 159q0 96 63.5 159.5t159.5 63.5q95 0 159 -64t64 -159zM456 202q0 34 -33 34q-47 0 -79.5 32t-32.5 79t32.5 79.5t79.5 32.5q33 0 33 33q0 34 -33 34q-75 0 -127 -52
t-52 -127t52 -127t127 -52q33 0 33 34z" />
    <glyph glyph-name="ordfeminine" unicode="&#xaa;" 
d="M1159 461q0 -56 -45 -99q5 -14 5 -26q0 -46 -66 -55q1 -8 1 -16q0 -73 -88 -90q-12 -79 -92 -79q-45 0 -98 23l1 -1q-5 2 -10 6q-73 -55 -75 -56q-51 -35 -82 -35q-80 0 -200 117l1 -1q-68 -31 -126 -31q-109 0 -161 95q-17 32 -13 42q-49 26 -74 61q77 -1 105 36
q-65 0 -83 93q98 53 130 109q-11 -1 -20 -1q-87 0 -116 79q181 35 224 141q32 111 114 199q64 68 124 68q39 0 76 -28q28 4 54 4q180 0 301 -175q52 -75 85 -175q7 -31 7 -70q0 -49 -14 -95q30 -20 52 -20q43 0 50 69q33 -44 33 -89zM878 533q-48 185 -250 316
q-110 4 -157 -86q-21 -39 -25 -91q-2 -26 -9 -74q14 2 30 2q74 0 101 -37q-6 -4 -17 -4q-20 0 -58.5 13t-58.5 12q-31 -112 -86 -134q-6 -8 -25 -19q24 -119 67 -173q69 -86 100 -115q64 -59 120 -59t118 59q33 31 101 116q39 48 47 126q2 19 2 148zM852 566q-9 -5 -21 1
q-24 13 -42 13q-19 0 -55.5 -12.5t-55.5 -12.5q-12 0 -18 5q27 36 100 36q24 0 51 -6q36 -9 41 -24zM829 476q-11 -12 -24 -12q-9 0 -24 11t-27 14q3 -6 3 -13q0 -31 -31 -31t-31 31q0 10 5 18q-24 -10 -24 -25q0 -4 3 -9l-17 5q17 40 58 42v-1q3 1 6 1q35 1 57 -11
q6 -4 13 -4q13 0 23 13q3 -18 -17 -22q10 -8 20 -8q4 0 7 1zM572 464l-17 -5q3 5 3 10q0 19 -27 24q5 -8 5 -17q0 -31 -31 -31t-31 31q0 7 3 13q-12 -3 -28 -14.5t-26 -11.5q-11 0 -21 8q13 -4 22 9q-14 3 -14 17q0 4 1 8q10 -13 24 -13q7 0 13 4q22 12 57 11q5 0 10 -2
q52 -7 57 -41zM700 245h-176q30 58 87 58q59 0 89 -58zM698 235q-8 -31 -30 -52q-25 -23 -55 -23q-31 0 -54.5 22t-32.5 53h9q30 -23 78 -23t72 23h13z" />
    <glyph glyph-name="guillemotleft" unicode="&#xab;" horiz-adv-x="545" 
d="M570 57q0 -54 -40 -94t-94 -40q-53 0 -109 54q-42 -54 -106 -54q-49 0 -104 47q-29 25 -81 86q-45 52 -45 98q0 24 12 50q-12 26 -12 50q0 49 51 107q43 42 84 83t95 41q66 0 107 -55q32 30 47 39q27 16 61 16q54 0 94 -40t40 -94q0 -26 -10 -50q10 -24 10 -50
q0 -25 -9 -47q9 -22 9 -47q0 -26 -10 -50q10 -24 10 -50zM505 157q0 26 -21 47l-50 50l50 50q21 21 21 47q0 27 -21 48t-48 21q-26 0 -47 -21l-89 -89q-29 -29 -29 -56q0 -23 29 -56l89 -89q21 -21 47 -21q27 0 48 21t21 48zM290 157q0 26 -21 47l-50 50l50 50q21 21 21 47
q0 27 -21 48t-48 21t-48 -21l-88 -89q-29 -29 -29 -56q0 -22 29 -56q6 -7 88 -89q21 -21 48 -21t48 21t21 48z" />
    <glyph glyph-name="logicalnot" unicode="&#xac;" horiz-adv-x="1351" 
d="M1348 413q0 -53 -54 -95q6 -13 6 -24q0 -44 -79 -53q1 -8 1 -16q0 -69 -105 -85q-14 -75 -110 -75q-54 0 -116 21v-1q-5 3 -11 6l-90 -54q-54 -32 -99 -32q-65 0 -165 61q-82 50 -141 110q-96 -68 -170 -68q-46 0 -77 28q-46 24 -46 61q0 11 3 19q-58 25 -89 58
q93 0 126 35q-78 -1 -99 88q118 51 156 104q-125 -9 -163 75q216 33 268 134q42 117 136 215q83 86 160 86q40 0 79 -23q248 -4 412 -193q68 -78 114 -187q9 -30 9 -67q0 -47 -17 -90q35 -20 62 -20q51 0 60 66q39 -41 39 -84zM1022 481q-17 70 -53 129q-87 143 -256 210
q-191 -28 -217 -207q-23 -164 -133 -219q-7 -3 -30 -10q20 -75 84 -152q57 -68 131 -117t143 -49q68 0 142 50q50 34 120 104q48 48 62 120q7 36 7 141zM889 528q-3 -1 -5 -1q-6 0 -12 4q-20 14 -41 14q-13 0 -38.5 -5.5t-38.5 -5.5q-15 0 -20 5q19 22 64 22q23 0 51 -7
q37 -10 40 -26zM902 430q0 -9 -15 -14t-25 -4v-12q0 -34 -22.5 -56.5t-56.5 -22.5q-33 0 -56 23t-23 56t23 56t56 24q44 2 72 -13q8 -4 14 -4q13 0 19 15q6 -9 6 -15q0 -21 -37 -25q15 -8 29 -8q5 0 11 1q5 2 5 -1zM669 545q-6 -6 -24 -6q-12 0 -34.5 4.5t-34.5 4.5
q-24 0 -45 -16q-9 -7 -17 -4q3 16 43 29q25 8 53 8q40 0 59 -20zM682 400q0 -34 -22.5 -56.5t-56.5 -22.5q-33 0 -56 23t-23 56q0 5 1 12q-10 -1 -25 4t-15 14q0 3 5 1q6 -1 12 -1q14 0 29 8q-37 13 -37 25q0 6 5 15q6 -15 19 -15q6 0 14 4q28 15 72 13q33 -1 55.5 -24
t22.5 -56zM786 207h-188q32 55 93 55q64 0 95 -55zM784 197q-9 -30 -34.5 -51t-56.5 -21q-32 0 -57.5 20.5t-35.5 51.5h11q31 -22 82 -22t77 22h14zM786 447q0 14 -14 14q-15 0 -15 -14t15 -14q14 0 14 14zM740 433q0 8 -8 8t-8 -8t8 -8t8 8zM783 398q0 26 -26 26t-26 -26
t26 -26t26 26zM603 447q0 14 -14 14t-14 -14t14 -14t14 14zM557 433q0 8 -8 8q-7 0 -7 -8t7 -8q8 0 8 8zM601 398q0 26 -26 26t-26 -26t26 -26t26 26z" />
    <glyph glyph-name="registered" unicode="&#xae;" horiz-adv-x="808" 
d="M835 247q0 -177 -123 -300t-300 -123q-178 0 -300.5 122.5t-122.5 300.5q0 25 3 50q-3 25 -3 50q0 178 122.5 300.5t300.5 122.5t300.5 -122.5t122.5 -300.5q0 -26 -3 -51q3 -24 3 -49zM770 347q0 151 -103.5 254.5t-254.5 103.5t-254.5 -103.5t-103.5 -254.5
t103.5 -254.5t254.5 -103.5t254.5 103.5t103.5 254.5zM635 347q0 -95 -64 -159t-159 -64t-159 64t-64 159q0 96 63.5 159.5t159.5 63.5q95 0 159 -64t64 -159zM537 399q0 53 -37.5 90.5t-90.5 37.5t-90 -37.5t-37 -90.5v-196q0 -33 33 -33q34 0 34 33v196q0 25 17.5 42.5
t42.5 17.5t43 -17.5t18 -42.5t-18 -42.5t-43 -17.5q-13 0 -23 -10.5t-10 -23.5l-1 -28q-2 -44 30.5 -76t77.5 -32q34 0 34 34t-34 34q-38 0 -40 39q42 11 68 45.5t26 77.5z" />
    <glyph glyph-name="macron" unicode="&#xaf;" horiz-adv-x="571" 
d="M548 673q0 -57 -38 -95t-95 -38h-223q-57 0 -95 38t-38 95q0 26 9 50q-9 24 -9 50q0 57 38 94.5t95 37.5h223q57 0 95 -37.5t38 -94.5q0 -27 -9 -50q9 -24 9 -50zM483 773q0 30 -19 48.5t-49 18.5h-223q-30 0 -49 -18.5t-19 -48.5t19 -49t49 -19h223q30 0 49 19t19 49z
" />
    <glyph glyph-name="macron" unicode="&#x2c9;" horiz-adv-x="571" 
d="M548 673q0 -57 -38 -95t-95 -38h-223q-57 0 -95 38t-38 95q0 26 9 50q-9 24 -9 50q0 57 38 94.5t95 37.5h223q57 0 95 -37.5t38 -94.5q0 -27 -9 -50q9 -24 9 -50zM483 773q0 30 -19 48.5t-49 18.5h-223q-30 0 -49 -18.5t-19 -48.5t19 -49t49 -19h223q30 0 49 19t19 49z
" />
    <glyph glyph-name="degree" unicode="&#xb0;" horiz-adv-x="263" 
d="M327 501q0 -70 -49.5 -119.5t-119.5 -49.5t-119.5 49.5t-49.5 119.5q0 26 7 50q-7 24 -7 50q0 70 49.5 119.5t119.5 49.5t119.5 -49.5t49.5 -119.5q0 -26 -7 -50q7 -24 7 -50zM262 601q0 43 -30.5 73.5t-73.5 30.5t-73.5 -30.5t-30.5 -73.5t30.5 -73.5t73.5 -30.5
t73.5 30.5t30.5 73.5zM187 601q0 -29 -29 -29t-29 29t29 29t29 -29z" />
    <glyph glyph-name="plusminus" unicode="&#xb1;" horiz-adv-x="471" 
d="M504 -32q0 -61 -35.5 -97t-96.5 -36h-250q-57 0 -94.5 38t-37.5 95q0 26 9 50q-9 24 -9 50q0 55 36 93q-36 38 -36 93q0 26 9 50q-9 24 -9 50q0 54 35 91.5t89 40.5q3 57 38.5 90.5t94.5 33.5q54 0 91.5 -35t40.5 -89q54 -3 89 -40.5t35 -91.5q0 -28 -8 -52q8 -23 8 -48
q0 -59 -34 -95q35 -37 35 -91q0 -28 -8 -52q8 -23 8 -48zM438 354q0 30 -18.5 48.5t-48.5 18.5h-57v57q0 30 -18.5 48.5t-48.5 18.5q-68 0 -68 -67v-57h-57q-30 0 -48.5 -18.5t-18.5 -48.5t18.5 -49t48.5 -19h57v-57q0 -30 19 -48.5t49 -18.5t48.5 18.5t18.5 48.5v57h57
q67 0 67 68zM439 68q0 30 -18.5 48.5t-48.5 18.5h-250q-30 0 -48.5 -18.5t-18.5 -48.5t18.5 -49t48.5 -19h250q67 0 67 68z" />
    <glyph glyph-name="acute" unicode="&#xb4;" horiz-adv-x="305" 
d="M325 997q0 -29 -11 -56q-18 -47 -37 -94q-23 -52 -53 -78q-37 -33 -94 -33q-61 0 -104 43t-43 105q0 21 8 50q-8 24 -8 50q0 34 23 91q17 39 35 79q38 91 136 91q63 0 105.5 -42t42.5 -106q0 -25 -8 -49q8 -24 8 -51zM260 1097q0 56 -51 77q-15 6 -32 6q-55 0 -76 -51
l-47 -113q-6 -14 -6 -32q0 -54 51 -76q16 -7 31 -7q56 0 77 51l47 114q6 15 6 31z" />
    <glyph glyph-name="mu" unicode="&#xb5;" horiz-adv-x="713" 
d="M743 -42q0 -57 -38.5 -94.5t-94.5 -37.5h-44q-82 0 -148 42q-66 -42 -148 -42h-16v-89q0 -57 -37.5 -94.5t-94.5 -37.5t-95 37.5t-38 94.5v696q0 57 37.5 94.5t94.5 37.5q61 0 97 -35.5t36 -96.5v-226q0 -16 16 -16q15 0 15 16v226q0 57 38 94.5t95 37.5t94.5 -37.5
t37.5 -94.5v-226q0 -16 16 -16h44q57 0 95 -38t38 -95q0 -27 -9 -50q9 -24 9 -50zM678 58q0 30 -19 49t-49 19h-44q-34 0 -57.5 23.5t-23.5 57.5v226q0 30 -18.5 48.5t-48.5 18.5t-49 -18.5t-19 -48.5v-226q0 -34 -23 -57.5t-57 -23.5t-57.5 23.5t-23.5 57.5v226
q0 67 -68 67q-30 0 -48.5 -18.5t-18.5 -48.5v-596q0 -30 19 -48.5t49 -18.5t48.5 18.5t18.5 48.5v169q38 -15 81 -15q86 0 148 59q62 -59 148 -59h44q30 0 49 18.5t19 48.5z" />
    <glyph glyph-name="mu" unicode="&#x3bc;" horiz-adv-x="713" 
d="M743 -42q0 -57 -38.5 -94.5t-94.5 -37.5h-44q-82 0 -148 42q-66 -42 -148 -42h-16v-89q0 -57 -37.5 -94.5t-94.5 -37.5t-95 37.5t-38 94.5v696q0 57 37.5 94.5t94.5 37.5q61 0 97 -35.5t36 -96.5v-226q0 -16 16 -16q15 0 15 16v226q0 57 38 94.5t95 37.5t94.5 -37.5
t37.5 -94.5v-226q0 -16 16 -16h44q57 0 95 -38t38 -95q0 -27 -9 -50q9 -24 9 -50zM678 58q0 30 -19 49t-49 19h-44q-34 0 -57.5 23.5t-23.5 57.5v226q0 30 -18.5 48.5t-48.5 18.5t-49 -18.5t-19 -48.5v-226q0 -34 -23 -57.5t-57 -23.5t-57.5 23.5t-23.5 57.5v226
q0 67 -68 67q-30 0 -48.5 -18.5t-18.5 -48.5v-596q0 -30 19 -48.5t49 -18.5t48.5 18.5t18.5 48.5v169q38 -15 81 -15q86 0 148 59q62 -59 148 -59h44q30 0 49 18.5t19 48.5z" />
    <glyph glyph-name="paragraph" unicode="&#xb6;" horiz-adv-x="731" 
d="M759 -42q0 -57 -38 -94.5t-95 -37.5q-42 0 -75.5 22t-48.5 61q-14 -38 -48 -60.5t-76 -22.5q-57 0 -94.5 37.5t-37.5 94.5v77q-113 21 -185 110t-72 205q0 25 4 50q-4 25 -4 50q0 135 92.5 227.5t228.5 92.5h319q56 0 93 -38t37 -94v-680zM694 58v580q0 29 -18 48t-47 19
h-319q-109 0 -182.5 -73t-73.5 -182t73.5 -182.5t182.5 -73.5h1v-136q0 -30 18.5 -48.5t48.5 -18.5t49 18.5t19 48.5v512h113v-512q0 -30 18.5 -48.5t48.5 -18.5t49 18.5t19 48.5zM311 329h-1q-50 0 -85.5 35.5t-35.5 85.5t35.5 85t85.5 35h1v-241z" />
    <glyph glyph-name="periodcentered" unicode="&#xb7;" horiz-adv-x="244" 
d="M296 -17q0 -62 -43 -105t-105 -43t-105 43t-43 105q0 26 9 49q-9 25 -9 51q0 61 43.5 104t104.5 43t104.5 -43t43.5 -104q0 -27 -8 -51q8 -23 8 -49zM231 83q0 34 -24.5 58t-58.5 24t-58.5 -24t-24.5 -58q0 -35 24 -59t59 -24t59 24t24 59z" />
    <glyph glyph-name="periodcentered" unicode="&#x2219;" horiz-adv-x="244" 
d="M296 -17q0 -62 -43 -105t-105 -43t-105 43t-43 105q0 26 9 49q-9 25 -9 51q0 61 43.5 104t104.5 43t104.5 -43t43.5 -104q0 -27 -8 -51q8 -23 8 -49zM231 83q0 34 -24.5 58t-58.5 24t-58.5 -24t-24.5 -58q0 -35 24 -59t59 -24t59 24t24 59z" />
    <glyph glyph-name="cedilla" unicode="&#xb8;" horiz-adv-x="381" 
d="M314 -121q0 -92 -62 -154t-154 -62h-44q-30 0 -49 18.5t-19 48.5t19 49t49 19h44q34 0 57.5 23.5t23.5 57.5v121h135v-121z" />
    <glyph glyph-name="ordmasculine" unicode="&#xba;" 
d="M1159 461q0 -56 -45 -99q5 -14 5 -26q0 -46 -66 -55q1 -8 1 -16q0 -73 -88 -90q-12 -79 -92 -79q-45 0 -98 23l1 -1q-5 2 -10 6q-73 -55 -75 -56q-51 -35 -82 -35q-80 0 -200 117l1 -1q-68 -31 -126 -31q-109 0 -161 95q-17 32 -13 42q-49 26 -74 61q77 -1 105 36
q-65 0 -83 93q98 53 130 109q-11 -1 -20 -1q-87 0 -116 79q181 35 224 141q32 111 114 199q64 68 124 68q39 0 76 -28q28 4 54 4q180 0 301 -175q52 -75 85 -175q7 -31 7 -70q0 -49 -14 -95q30 -20 52 -20q43 0 50 69q33 -44 33 -89zM878 533q-48 185 -250 316
q-110 4 -157 -86q-21 -39 -25 -91q-2 -26 -9 -74q14 2 30 2q74 0 101 -37q-6 -4 -17 -4q-20 0 -58.5 13t-58.5 12q-31 -112 -86 -134q-6 -8 -25 -19q24 -119 67 -173q69 -86 100 -115q64 -59 120 -59t118 59q33 31 101 116q39 48 47 126q2 19 2 148zM852 566q-9 -5 -21 1
q-24 13 -42 13q-19 0 -55.5 -12.5t-55.5 -12.5q-12 0 -18 5q27 36 100 36q24 0 51 -6q36 -9 41 -24zM829 476q-11 -12 -24 -12q-9 0 -24 11t-27 14q3 -6 3 -13q0 -31 -31 -31t-31 31q0 10 5 18q-24 -10 -24 -25q0 -4 3 -9l-17 5q17 40 58 42v-1q3 1 6 1q35 1 57 -11
q6 -4 13 -4q13 0 23 13q3 -18 -17 -22q10 -8 20 -8q4 0 7 1zM572 464l-17 -5q3 5 3 10q0 19 -27 24q5 -8 5 -17q0 -31 -31 -31t-31 31q0 7 3 13q-12 -3 -28 -14.5t-26 -11.5q-11 0 -21 8q13 -4 22 9q-14 3 -14 17q0 4 1 8q10 -13 24 -13q7 0 13 4q22 12 57 11q5 0 10 -2
q52 -7 57 -41zM700 245h-176q30 58 87 58q59 0 89 -58zM698 235q-8 -31 -30 -52q-25 -23 -55 -23q-31 0 -54.5 22t-32.5 53h9q30 -23 78 -23t72 23h13z" />
    <glyph glyph-name="guillemotright" unicode="&#xbb;" horiz-adv-x="547" 
d="M567 154q0 -47 -46 -99q-58 -65 -81 -85q-55 -47 -103 -47q-65 0 -106 52q-58 -52 -109 -52q-55 0 -95 39.5t-40 94.5q0 26 10 50q-10 24 -10 50q0 25 9 47q-9 22 -9 47q0 26 10 50q-10 24 -10 50q0 55 40 94.5t95 39.5q52 0 109 -53q40 53 106 53q49 0 102 -47
q40 -41 79 -82q49 -50 49 -102q0 -24 -12 -49q12 -25 12 -51zM502 254q0 26 -30 56l-88 89q-21 21 -47 21q-28 0 -48.5 -20.5t-20.5 -48.5q0 -26 21 -47l49 -50l-49 -50q-21 -21 -21 -47q0 -28 20.5 -48.5t48.5 -20.5q26 0 47 21l88 89q30 34 30 56zM287 254q0 26 -30 56
l-88 89q-21 21 -47 21q-28 0 -49 -20.5t-21 -48.5q0 -26 21 -47l50 -50l-50 -50q-21 -21 -21 -47q0 -28 21 -48.5t49 -20.5q26 0 47 21l88 89q30 34 30 56z" />
    <glyph glyph-name="questiondown" unicode="&#xbf;" horiz-adv-x="594" 
d="M630 152q0 -135 -93 -228t-228 -93q-136 0 -228 92.5t-92 228.5q0 25 4 50q-4 25 -4 50q0 115 69.5 201.5t178.5 110.5q1 5 2 9q-8 24 -8 50q0 62 43 104.5t105 42.5q61 0 104 -43t43 -104q0 -27 -8 -51q8 -23 8 -49q0 -27 -9 -51q4 -16 4 -32q0 -27 -9 -50q1 -4 2 -7
q51 -6 83.5 -42.5t32.5 -88.5q0 -32 -5 -61q5 -19 5 -39zM461 623q0 34 -24 58t-58 24q-35 0 -59 -23.5t-24 -58.5t24 -59t59 -24t58.5 24t23.5 59zM565 252q0 30 -19 48.5t-49 18.5q-29 0 -48 -19t-19 -48q0 -50 -35.5 -85.5t-85.5 -35.5t-85 35.5t-35 85.5q0 49 35.5 84.5
t84.5 35.5h80q30 0 48.5 19t18.5 49t-19 48.5t-49 18.5h-79q-108 0 -181.5 -73.5t-73.5 -181.5q0 -109 73 -182.5t182 -73.5t182.5 73.5t73.5 182.5zM342 207h-33q-13 0 -24 -6q11 -5 24 -5q19 0 33 11z" />
    <glyph glyph-name="Agrave" unicode="&#xc0;" horiz-adv-x="622" 
d="M793 -262q0 -56 -38 -94t-94 -38q-121 0 -203 80.5t-82 200.5v147q-28 -5 -56 -5q-29 0 -55 11v-82q0 -57 -38 -94.5t-95 -37.5t-94.5 37.5t-37.5 94.5v492q0 136 92 228t228 92t228.5 -92.5t92.5 -227.5v-463q0 -16 15 -16q59 0 98 -37t39 -96q0 -26 -9 -49q9 -24 9 -51
zM345 400q-12 5 -25 5q-24 0 -40 -17q23 1 65 12zM728 -162q0 30 -18.5 49t-48.5 19h-5q-34 0 -57 23.5t-23 57.5v463q0 109 -73.5 182t-182.5 73t-182 -73t-73 -182v-392q0 -30 18.5 -48.5t48.5 -18.5t49 18.5t19 48.5v392q0 50 35 85t85 35t85.5 -35t35.5 -85t-35.5 -85.5
t-85.5 -35.5q-30 0 -48.5 -18.5t-18.5 -48.5t18.5 -49t48.5 -19q64 0 121 30v-237q0 -92 61.5 -154t153.5 -62h5q29 0 48 19t19 48zM464 856q0 -97 -90 -136q-29 -12 -58 -12q-56 0 -94 33q-29 26 -52 79q-19 47 -37 93q-11 27 -11 56q0 27 8 51q-8 23 -8 49q0 64 42.5 106
t104.5 42q57 0 94 -33q29 -25 53 -78q18 -46 37 -93q11 -26 11 -57q0 -27 -8 -51q8 -23 8 -49zM399 956q0 18 -6 32l-47 113q-21 51 -77 51q-16 0 -31 -6q-51 -21 -51 -77q0 -16 6 -31l47 -114q21 -51 76 -51q16 0 32 7q51 22 51 76z" />
    <glyph glyph-name="Aacute" unicode="&#xc1;" horiz-adv-x="607" 
d="M793 -262q0 -56 -38 -94t-94 -38q-121 0 -203 80.5t-82 200.5v147q-28 -5 -56 -5q-29 0 -55 11v-82q0 -57 -38 -94.5t-95 -37.5t-94.5 37.5t-37.5 94.5v492q0 136 92 228t228 92t228.5 -92.5t92.5 -227.5v-463q0 -16 15 -16q59 0 98 -37t39 -96q0 -26 -9 -49q9 -24 9 -51
zM345 400q-12 5 -25 5q-24 0 -40 -17q23 1 65 12zM728 -162q0 30 -18.5 49t-48.5 19h-5q-34 0 -57 23.5t-23 57.5v463q0 109 -73.5 182t-182.5 73t-182 -73t-73 -182v-392q0 -30 18.5 -48.5t48.5 -18.5t49 18.5t19 48.5v392q0 50 35 85t85 35t85.5 -35t35.5 -85t-35.5 -85.5
t-85.5 -35.5q-30 0 -48.5 -18.5t-18.5 -48.5t18.5 -49t48.5 -19q64 0 121 30v-237q0 -92 61.5 -154t153.5 -62h5q29 0 48 19t19 48zM465 997q0 -29 -11 -56q-18 -47 -37 -94q-23 -52 -53 -78q-37 -33 -94 -33q-61 0 -104 43t-43 105q0 21 8 50q-8 24 -8 50q0 34 23 91
q17 39 35 79q38 91 136 91q63 0 105.5 -42t42.5 -106q0 -25 -8 -49q8 -24 8 -51zM400 1097q0 56 -51 77q-15 6 -32 6q-55 0 -76 -51l-47 -113q-6 -14 -6 -32q0 -54 51 -76q16 -7 31 -7q56 0 77 51l47 114q6 15 6 31z" />
    <glyph glyph-name="Acircumflex" unicode="&#xc2;" horiz-adv-x="622" 
d="M793 -262q0 -56 -38 -94t-94 -38q-121 0 -203 80.5t-82 200.5v147q-28 -5 -56 -5q-29 0 -55 11v-82q0 -57 -38 -94.5t-95 -37.5t-94.5 37.5t-37.5 94.5v492q0 136 92 228t228 92t228.5 -92.5t92.5 -227.5v-463q0 -16 15 -16q59 0 98 -37t39 -96q0 -26 -9 -49q9 -24 9 -51
zM345 400q-12 5 -25 5q-24 0 -40 -17q23 1 65 12zM728 -162q0 30 -18.5 49t-48.5 19h-5q-34 0 -57 23.5t-23 57.5v463q0 109 -73.5 182t-182.5 73t-182 -73t-73 -182v-392q0 -30 18.5 -48.5t48.5 -18.5t49 18.5t19 48.5v392q0 50 35 85t85 35t85.5 -35t35.5 -85t-35.5 -85.5
t-85.5 -35.5q-30 0 -48.5 -18.5t-18.5 -48.5t18.5 -49t48.5 -19q64 0 121 30v-237q0 -92 61.5 -154t153.5 -62h5q29 0 48 19t19 48zM554 834q0 -55 -40 -94.5t-95 -39.5q-52 0 -92 40h-10q-40 -40 -92 -40q-55 0 -94.5 39.5t-39.5 94.5q0 24 11 48q-11 25 -11 52
q0 49 47 103q19 21 86 81q52 46 98 46q45 0 106 -52l86 -85q40 -40 40 -93q0 -27 -10 -51q10 -23 10 -49zM489 934q0 26 -21 47q-76 75 -90 88q-33 30 -56 30q-21 0 -55 -30q-17 -15 -90 -88q-21 -21 -21 -47q0 -28 20.5 -48.5t48.5 -20.5q26 0 47 21l50 49l50 -49
q21 -21 47 -21q28 0 49 20.5t21 48.5z" />
    <glyph glyph-name="Atilde" unicode="&#xc3;" horiz-adv-x="565" 
d="M793 -262q0 -56 -38 -94t-94 -38q-121 0 -203 80.5t-82 200.5v147q-28 -5 -56 -5q-29 0 -55 11v-82q0 -57 -38 -94.5t-95 -37.5t-94.5 37.5t-37.5 94.5v492q0 136 92 228t228 92t228.5 -92.5t92.5 -227.5v-463q0 -16 15 -16q59 0 98 -37t39 -96q0 -26 -9 -49q9 -24 9 -51
zM345 400q-12 5 -25 5q-24 0 -40 -17q23 1 65 12zM728 -162q0 30 -18.5 49t-48.5 19h-5q-34 0 -57 23.5t-23 57.5v463q0 109 -73.5 182t-182.5 73t-182 -73t-73 -182v-392q0 -30 18.5 -48.5t48.5 -18.5t49 18.5t19 48.5v392q0 50 35 85t85 35t85.5 -35t35.5 -85t-35.5 -85.5
t-85.5 -35.5q-30 0 -48.5 -18.5t-18.5 -48.5t18.5 -49t48.5 -19q64 0 121 30v-237q0 -92 61.5 -154t153.5 -62h5q29 0 48 19t19 48zM564 873q0 -62 -58 -111q-54 -46 -118 -46q-37 0 -103 28q-28 -16 -61 -16q-54 0 -94 40t-40 94q0 25 10 50q-10 24 -10 50q0 63 57 111
q54 46 119 46q44 0 103 -27q28 15 60 15q55 0 95 -39.5t40 -94.5q0 -25 -10 -49q10 -25 10 -51zM499 973q0 28 -21 48.5t-49 20.5t-49 -24q-1 -1 -4 -1l-41 19q-39 18 -69 18q-51 0 -93 -47q-18 -20 -18 -45q0 -27 21 -48t48 -21q28 0 50 24q1 1 3 1l44 -18q43 -19 67 -19
q50 0 92 47q19 21 19 45z" />
    <glyph glyph-name="Adieresis" unicode="&#xc4;" horiz-adv-x="565" 
d="M793 -262q0 -56 -38 -94t-94 -38q-121 0 -203 80.5t-82 200.5v147q-28 -5 -56 -5q-29 0 -55 11v-82q0 -57 -38 -94.5t-95 -37.5t-94.5 37.5t-37.5 94.5v492q0 136 92 228t228 92t228.5 -92.5t92.5 -227.5v-463q0 -16 15 -16q59 0 98 -37t39 -96q0 -26 -9 -49q9 -24 9 -51
zM345 400q-12 5 -25 5q-24 0 -40 -17q23 1 65 12zM728 -162q0 30 -18.5 49t-48.5 19h-5q-34 0 -57 23.5t-23 57.5v463q0 109 -73.5 182t-182.5 73t-182 -73t-73 -182v-392q0 -30 18.5 -48.5t48.5 -18.5t49 18.5t19 48.5v392q0 50 35 85t85 35t85.5 -35t35.5 -85t-35.5 -85.5
t-85.5 -35.5q-30 0 -48.5 -18.5t-18.5 -48.5t18.5 -49t48.5 -19q64 0 121 30v-237q0 -92 61.5 -154t153.5 -62h5q29 0 48 19t19 48zM556 948q0 -62 -42.5 -105t-104.5 -43q-55 0 -96 35q-41 -35 -96 -35q-62 0 -105 43t-43 105q0 26 9 49q-9 25 -9 51q0 61 43.5 104
t104.5 43q54 0 95 -35q42 35 97 35q61 0 104 -43t43 -104q0 -27 -8 -51q8 -23 8 -49zM491 1048q0 34 -24 58t-58 24q-35 0 -59 -23.5t-24 -58.5t24 -59t59 -24t58.5 24t23.5 59zM300 1048q0 34 -24.5 58t-58.5 24t-58.5 -24t-24.5 -58q0 -35 24 -59t59 -24t59 24t24 59z" />
    <glyph glyph-name="Aring" unicode="&#xc5;" horiz-adv-x="565" 
d="M793 -262q0 -56 -38 -94t-94 -38q-121 0 -203 80.5t-82 200.5v147q-28 -5 -56 -5q-29 0 -55 11v-82q0 -57 -38 -94.5t-95 -37.5t-94.5 37.5t-37.5 94.5v492q0 136 92 228t228 92t228.5 -92.5t92.5 -227.5v-463q0 -16 15 -16q59 0 98 -37t39 -96q0 -26 -9 -49q9 -24 9 -51
zM345 400q-12 5 -25 5q-24 0 -40 -17q23 1 65 12zM728 -162q0 30 -18.5 49t-48.5 19h-5q-34 0 -57 23.5t-23 57.5v463q0 109 -73.5 182t-182.5 73t-182 -73t-73 -182v-392q0 -30 18.5 -48.5t48.5 -18.5t49 18.5t19 48.5v392q0 50 35 85t85 35t85.5 -35t35.5 -85t-35.5 -85.5
t-85.5 -35.5q-30 0 -48.5 -18.5t-18.5 -48.5t18.5 -49t48.5 -19q64 0 121 30v-237q0 -92 61.5 -154t153.5 -62h5q29 0 48 19t19 48zM467 761q0 -70 -49.5 -119.5t-119.5 -49.5t-119.5 49.5t-49.5 119.5q0 26 7 50q-7 24 -7 50q0 70 49.5 119.5t119.5 49.5t119.5 -49.5
t49.5 -119.5q0 -26 -7 -50q7 -24 7 -50zM402 861q0 43 -30.5 73.5t-73.5 30.5t-73.5 -30.5t-30.5 -73.5t30.5 -73.5t73.5 -30.5t73.5 30.5t30.5 73.5zM327 861q0 -29 -29 -29t-29 29t29 29t29 -29z" />
    <glyph glyph-name="AE" unicode="&#xc6;" horiz-adv-x="893" 
d="M921 -44q0 -57 -38 -94.5t-95 -37.5q-84 0 -158 30v-23q-85 5 -265 3v200q-28 -5 -56 -5q-29 0 -55 11v-82q0 -57 -38 -94.5t-95 -37.5t-94.5 37.5t-37.5 94.5v492q0 136 92 228t228 92q132 0 221 -87q110 87 258 87q57 0 95 -37.5t38 -94.5q0 -26 -9 -50q9 -24 9 -50
q0 -55 -36 -93q36 -38 36 -93q0 -26 -9 -50q9 -24 9 -50q0 -60 -41 -98q41 -38 41 -98q0 -26 -9 -50q9 -24 9 -50zM856 56q0 30 -19 49t-49 19q-74 0 -133.5 44.5t-80.5 115.5h214q30 0 49 19t19 49t-19 48.5t-49 18.5h-211q23 68 81 109.5t130 41.5q30 0 49 19t19 49
t-19 48.5t-49 18.5q-158 0 -264 -116q-77 116 -215 116q-109 0 -182 -73t-73 -182v-392q0 -30 18.5 -48.5t48.5 -18.5t49 18.5t19 48.5v392q0 50 35 85t85 35t85.5 -35t35.5 -85t-35.5 -85.5t-85.5 -35.5q-30 0 -48.5 -18.5t-18.5 -48.5t18.5 -49t48.5 -19q64 0 121 30v-224
h135v67q98 -78 223 -78q30 0 49 18.5t19 48.5zM334 400q-12 5 -25 5q-24 0 -40 -17q23 1 65 12z" />
    <glyph glyph-name="Ccedilla" unicode="&#xc7;" horiz-adv-x="479" 
d="M545 -44q0 -57 -39 -95q-26 -26 -62 -34q7 -22 7 -45q0 -61 -43 -104.5t-104 -43.5t-104.5 43.5t-43.5 104.5q0 26 9 50q-9 24 -9 50q0 12 2 25q-79 58 -124 147t-45 193q0 25 3 50q-3 25 -3 50q0 178 122.5 300.5t300.5 122.5q57 0 95 -37.5t38 -94.5q0 -26 -9 -50
q9 -24 9 -50q0 -57 -38 -95t-93.5 -38t-96 -29.5t-56.5 -78.5q16 -49 56.5 -78.5t96 -29.5t93.5 -38t38 -95q0 -27 -9 -50q9 -24 9 -50zM480 56q0 30 -19 49t-49 19q-95 0 -159 64t-64 159t64 159t159 64q30 0 49 19t19 49t-19 48.5t-49 18.5q-151 0 -254.5 -103.5
t-103.5 -254.5t103.5 -254.5t254.5 -103.5q30 0 49 18.5t19 48.5zM386 -118q0 34 -24 58.5t-58 24.5t-58.5 -24.5t-24.5 -58.5t24.5 -58.5t58.5 -24.5t58 24.5t24 58.5z" />
    <glyph glyph-name="Egrave" unicode="&#xc8;" horiz-adv-x="476" 
d="M556 -44q0 -57 -38 -94.5t-95 -37.5q-178 0 -300.5 122.5t-122.5 300.5q0 25 3 50q-3 25 -3 50q0 178 122.5 300.5t300.5 122.5q57 0 95 -37.5t38 -94.5q0 -26 -9 -50q9 -24 9 -50q0 -55 -36 -93q36 -38 36 -93q0 -26 -9 -50q9 -24 9 -50q0 -60 -41 -98q41 -38 41 -98
q0 -26 -9 -50q9 -24 9 -50zM491 56q0 30 -19 49t-49 19q-74 0 -133.5 44.5t-80.5 115.5h214q30 0 49 19t19 49t-19 48.5t-49 18.5h-211q23 68 81 109.5t130 41.5q30 0 49 19t19 49t-19 48.5t-49 18.5q-151 0 -254.5 -103.5t-103.5 -254.5t103.5 -254.5t254.5 -103.5
q30 0 49 18.5t19 48.5zM462 854q0 -97 -90 -136q-29 -12 -58 -12q-56 0 -94 33q-29 26 -52 79q-19 47 -37 93q-11 27 -11 56q0 27 8 51q-8 23 -8 49q0 64 42.5 106t104.5 42q57 0 94 -33q29 -25 53 -78q18 -46 37 -93q11 -26 11 -57q0 -27 -8 -51q8 -23 8 -49zM397 954
q0 18 -6 32l-47 113q-21 51 -77 51q-16 0 -31 -6q-51 -21 -51 -77q0 -16 6 -31l47 -114q21 -51 76 -51q16 0 32 7q51 22 51 76z" />
    <glyph glyph-name="Eacute" unicode="&#xc9;" horiz-adv-x="476" 
d="M556 -44q0 -57 -38 -94.5t-95 -37.5q-178 0 -300.5 122.5t-122.5 300.5q0 25 3 50q-3 25 -3 50q0 178 122.5 300.5t300.5 122.5q57 0 95 -37.5t38 -94.5q0 -26 -9 -50q9 -24 9 -50q0 -55 -36 -93q36 -38 36 -93q0 -26 -9 -50q9 -24 9 -50q0 -60 -41 -98q41 -38 41 -98
q0 -26 -9 -50q9 -24 9 -50zM491 56q0 30 -19 49t-49 19q-74 0 -133.5 44.5t-80.5 115.5h214q30 0 49 19t19 49t-19 48.5t-49 18.5h-211q23 68 81 109.5t130 41.5q30 0 49 19t19 49t-19 48.5t-49 18.5q-151 0 -254.5 -103.5t-103.5 -254.5t103.5 -254.5t254.5 -103.5
q30 0 49 18.5t19 48.5zM425 997q0 -29 -11 -56q-18 -47 -37 -94q-23 -52 -53 -78q-37 -33 -94 -33q-61 0 -104 43t-43 105q0 21 8 50q-8 24 -8 50q0 34 23 91q17 39 35 79q38 91 136 91q63 0 105.5 -42t42.5 -106q0 -25 -8 -49q8 -24 8 -51zM360 1097q0 56 -51 77
q-15 6 -32 6q-55 0 -76 -51l-47 -113q-6 -14 -6 -32q0 -54 51 -76q16 -7 31 -7q56 0 77 51l47 114q6 15 6 31z" />
    <glyph glyph-name="Ecircumflex" unicode="&#xca;" horiz-adv-x="534" 
d="M556 -44q0 -57 -38 -94.5t-95 -37.5q-178 0 -300.5 122.5t-122.5 300.5q0 25 3 50q-3 25 -3 50q0 178 122.5 300.5t300.5 122.5q57 0 95 -37.5t38 -94.5q0 -26 -9 -50q9 -24 9 -50q0 -55 -36 -93q36 -38 36 -93q0 -26 -9 -50q9 -24 9 -50q0 -60 -41 -98q41 -38 41 -98
q0 -26 -9 -50q9 -24 9 -50zM491 56q0 30 -19 49t-49 19q-74 0 -133.5 44.5t-80.5 115.5h214q30 0 49 19t19 49t-19 48.5t-49 18.5h-211q23 68 81 109.5t130 41.5q30 0 49 19t19 49t-19 48.5t-49 18.5q-151 0 -254.5 -103.5t-103.5 -254.5t103.5 -254.5t254.5 -103.5
q30 0 49 18.5t19 48.5zM544 854q0 -55 -40 -94.5t-95 -39.5q-52 0 -92 40h-10q-40 -40 -92 -40q-55 0 -94.5 39.5t-39.5 94.5q0 24 11 48q-11 25 -11 52q0 49 47 103q19 21 86 81q52 46 98 46q45 0 106 -52l86 -85q40 -40 40 -93q0 -27 -10 -51q10 -23 10 -49zM479 954
q0 26 -21 47q-76 75 -90 88q-33 30 -56 30q-21 0 -55 -30q-17 -15 -90 -88q-21 -21 -21 -47q0 -28 20.5 -48.5t48.5 -20.5q26 0 47 21l50 49l50 -49q21 -21 47 -21q28 0 49 20.5t21 48.5z" />
    <glyph glyph-name="Edieresis" unicode="&#xcb;" horiz-adv-x="476" 
d="M556 -44q0 -57 -38 -94.5t-95 -37.5q-178 0 -300.5 122.5t-122.5 300.5q0 25 3 50q-3 25 -3 50q0 178 122.5 300.5t300.5 122.5q57 0 95 -37.5t38 -94.5q0 -26 -9 -50q9 -24 9 -50q0 -55 -36 -93q36 -38 36 -93q0 -26 -9 -50q9 -24 9 -50q0 -60 -41 -98q41 -38 41 -98
q0 -26 -9 -50q9 -24 9 -50zM491 56q0 30 -19 49t-49 19q-74 0 -133.5 44.5t-80.5 115.5h214q30 0 49 19t19 49t-19 48.5t-49 18.5h-211q23 68 81 109.5t130 41.5q30 0 49 19t19 49t-19 48.5t-49 18.5q-151 0 -254.5 -103.5t-103.5 -254.5t103.5 -254.5t254.5 -103.5
q30 0 49 18.5t19 48.5zM556 948q0 -62 -42.5 -105t-104.5 -43q-55 0 -96 35q-41 -35 -96 -35q-62 0 -105 43t-43 105q0 26 9 49q-9 25 -9 51q0 61 43.5 104t104.5 43q54 0 95 -35q42 35 97 35q61 0 104 -43t43 -104q0 -27 -8 -51q8 -23 8 -49zM491 1048q0 34 -24 58t-58 24
q-35 0 -59 -23.5t-24 -58.5t24 -59t59 -24t58.5 24t23.5 59zM300 1048q0 34 -24.5 58t-58.5 24t-58.5 -24t-24.5 -58q0 -35 24 -59t59 -24t59 24t24 59z" />
    <glyph glyph-name="Igrave" unicode="&#xcc;" horiz-adv-x="189" 
d="M265 -42q0 -57 -38.5 -94.5t-94.5 -37.5q-57 0 -94.5 37.5t-37.5 94.5v680q0 57 37.5 94.5t94.5 37.5t95 -37.5t38 -94.5v-680zM200 58v580q0 30 -19 48.5t-49 18.5t-48.5 -18.5t-18.5 -48.5v-580q0 -30 18.5 -48.5t48.5 -18.5t49 18.5t19 48.5zM292 854q0 -97 -90 -136
q-29 -12 -58 -12q-56 0 -94 33q-29 26 -52 79q-19 47 -37 93q-11 27 -11 56q0 27 8 51q-8 23 -8 49q0 64 42.5 106t104.5 42q57 0 94 -33q29 -25 53 -78q18 -46 37 -93q11 -26 11 -57q0 -27 -8 -51q8 -23 8 -49zM227 954q0 18 -6 32l-47 113q-21 51 -77 51q-16 0 -31 -6
q-51 -21 -51 -77q0 -16 6 -31l47 -114q21 -51 76 -51q16 0 32 7q51 22 51 76z" />
    <glyph glyph-name="Iacute" unicode="&#xcd;" horiz-adv-x="189" 
d="M265 -42q0 -57 -38.5 -94.5t-94.5 -37.5q-57 0 -94.5 37.5t-37.5 94.5v680q0 57 37.5 94.5t94.5 37.5t95 -37.5t38 -94.5v-680zM200 58v580q0 30 -19 48.5t-49 18.5t-48.5 -18.5t-18.5 -48.5v-580q0 -30 18.5 -48.5t48.5 -18.5t49 18.5t19 48.5zM325 997q0 -29 -11 -56
q-18 -47 -37 -94q-23 -52 -53 -78q-37 -33 -94 -33q-61 0 -104 43t-43 105q0 21 8 50q-8 24 -8 50q0 34 23 91q17 39 35 79q38 91 136 91q63 0 105.5 -42t42.5 -106q0 -25 -8 -49q8 -24 8 -51zM260 1097q0 56 -51 77q-15 6 -32 6q-55 0 -76 -51l-47 -113q-6 -14 -6 -32
q0 -54 51 -76q16 -7 31 -7q56 0 77 51l47 114q6 15 6 31z" />
    <glyph glyph-name="Icircumflex" unicode="&#xce;" horiz-adv-x="189" 
d="M265 -42q0 -57 -38.5 -94.5t-94.5 -37.5q-57 0 -94.5 37.5t-37.5 94.5v680q0 57 37.5 94.5t94.5 37.5t95 -37.5t38 -94.5v-680zM200 58v580q0 30 -19 48.5t-49 18.5t-48.5 -18.5t-18.5 -48.5v-580q0 -30 18.5 -48.5t48.5 -18.5t49 18.5t19 48.5zM354 844q0 -55 -40 -94.5
t-95 -39.5q-52 0 -92 40h-10q-40 -40 -92 -40q-55 0 -94.5 39.5t-39.5 94.5q0 24 11 48q-11 25 -11 52q0 49 47 103q19 21 86 81q52 46 98 46q45 0 106 -52l86 -85q40 -40 40 -93q0 -27 -10 -51q10 -23 10 -49zM289 944q0 26 -21 47q-76 75 -90 88q-33 30 -56 30
q-21 0 -55 -30q-17 -15 -90 -88q-21 -21 -21 -47q0 -28 20.5 -48.5t48.5 -20.5q26 0 47 21l50 49l50 -49q21 -21 47 -21q28 0 49 20.5t21 48.5z" />
    <glyph glyph-name="Idieresis" unicode="&#xcf;" horiz-adv-x="189" 
d="M265 -42q0 -57 -38.5 -94.5t-94.5 -37.5q-57 0 -94.5 37.5t-37.5 94.5v680q0 57 37.5 94.5t94.5 37.5t95 -37.5t38 -94.5v-680zM200 58v580q0 30 -19 48.5t-49 18.5t-48.5 -18.5t-18.5 -48.5v-580q0 -30 18.5 -48.5t48.5 -18.5t49 18.5t19 48.5zM356 948
q0 -62 -42.5 -105t-104.5 -43q-55 0 -96 35q-41 -35 -96 -35q-62 0 -105 43t-43 105q0 26 9 49q-9 25 -9 51q0 61 43.5 104t104.5 43q54 0 95 -35q42 35 97 35q61 0 104 -43t43 -104q0 -27 -8 -51q8 -23 8 -49zM291 1048q0 34 -24 58t-58 24q-35 0 -59 -23.5t-24 -58.5
t24 -59t59 -24t58.5 24t23.5 59zM100 1048q0 34 -24.5 58t-58.5 24t-58.5 -24t-24.5 -58q0 -35 24 -59t59 -24t59 24t24 59z" />
    <glyph glyph-name="Eth" unicode="&#xd0;" 
d="M1159 461q0 -56 -45 -99q5 -14 5 -26q0 -46 -66 -55q1 -8 1 -16q0 -73 -88 -90q-12 -79 -92 -79q-45 0 -98 23l1 -1q-5 2 -10 6q-73 -55 -75 -56q-51 -35 -82 -35q-80 0 -200 117l1 -1q-68 -31 -126 -31q-109 0 -161 95q-17 32 -13 42q-49 26 -74 61q77 -1 105 36
q-65 0 -83 93q98 53 130 109q-11 -1 -20 -1q-87 0 -116 79q181 35 224 141q32 111 114 199q64 68 124 68q39 0 76 -28q28 4 54 4q180 0 301 -175q52 -75 85 -175q7 -31 7 -70q0 -49 -14 -95q30 -20 52 -20q43 0 50 69q33 -44 33 -89zM878 533q-48 185 -250 316
q-110 4 -157 -86q-21 -39 -25 -91q-2 -26 -9 -74q14 2 30 2q74 0 101 -37q-6 -4 -17 -4q-20 0 -58.5 13t-58.5 12q-31 -112 -86 -134q-6 -8 -25 -19q24 -119 67 -173q69 -86 100 -115q64 -59 120 -59t118 59q33 31 101 116q39 48 47 126q2 19 2 148zM852 566q-9 -5 -21 1
q-24 13 -42 13q-19 0 -55.5 -12.5t-55.5 -12.5q-12 0 -18 5q27 36 100 36q24 0 51 -6q36 -9 41 -24zM829 476q-11 -12 -24 -12q-9 0 -24 11t-27 14q3 -6 3 -13q0 -31 -31 -31t-31 31q0 10 5 18q-24 -10 -24 -25q0 -4 3 -9l-17 5q17 40 58 42v-1q3 1 6 1q35 1 57 -11
q6 -4 13 -4q13 0 23 13q3 -18 -17 -22q10 -8 20 -8q4 0 7 1zM572 464l-17 -5q3 5 3 10q0 19 -27 24q5 -8 5 -17q0 -31 -31 -31t-31 31q0 7 3 13q-12 -3 -28 -14.5t-26 -11.5q-11 0 -21 8q13 -4 22 9q-14 3 -14 17q0 4 1 8q10 -13 24 -13q7 0 13 4q22 12 57 11q5 0 10 -2
q52 -7 57 -41zM700 245h-176q30 58 87 58q59 0 89 -58zM698 235q-8 -31 -30 -52q-25 -23 -55 -23q-31 0 -54.5 22t-32.5 53h9q30 -23 78 -23t72 23h13z" />
    <glyph glyph-name="Ntilde" unicode="&#xd1;" horiz-adv-x="486" 
d="M715 -262q0 -57 -38.5 -94.5t-94.5 -37.5q-121 0 -203 80t-82 201v58l-1 444q0 16 -15 16q-16 0 -16 -16v-431q0 -57 -38 -94.5t-95 -37.5t-94.5 37.5t-37.5 94.5v531q0 118 81.5 199.5t199.5 81.5q113 0 195 -77q85 -80 85 -192l1 -514q0 -16 16 -16q59 0 98 -37.5
t39 -95.5q0 -27 -9 -50q9 -23 9 -50zM650 -162q0 30 -19 49t-49 19h-4q-34 0 -57.5 23.5t-23.5 57.5l-1 514q0 85 -64.5 144.5t-150.5 59.5q-92 0 -154 -62t-62 -154v-431q0 -30 18.5 -48.5t48.5 -18.5t49 18.5t19 48.5v431q0 34 23.5 57.5t57.5 23.5q33 0 56.5 -24
t23.5 -57l1 -502q0 -93 61.5 -154.5t154.5 -61.5h4q30 0 49 18.5t19 48.5zM514 753q0 -62 -58 -111q-54 -46 -118 -46q-37 0 -103 28q-28 -16 -61 -16q-54 0 -94 40t-40 94q0 25 10 50q-10 24 -10 50q0 63 57 111q54 46 119 46q44 0 103 -27q28 15 60 15q55 0 95 -39.5
t40 -94.5q0 -25 -10 -49q10 -25 10 -51zM449 853q0 28 -21 48.5t-49 20.5t-49 -24q-1 -1 -4 -1l-41 19q-39 18 -69 18q-51 0 -93 -47q-18 -20 -18 -45q0 -27 21 -48t48 -21q28 0 50 24q1 1 3 1l44 -18q43 -19 67 -19q50 0 92 47q19 21 19 45z" />
    <glyph glyph-name="Ograve" unicode="&#xd2;" horiz-adv-x="769" 
d="M843 247q0 -177 -123 -300t-300 -123q-178 0 -300.5 122.5t-122.5 300.5q0 25 3 50q-3 25 -3 50q0 178 122.5 300.5t300.5 122.5t300.5 -122.5t122.5 -300.5q0 -26 -3 -51q3 -24 3 -49zM778 347q0 151 -103.5 254.5t-254.5 103.5t-254.5 -103.5t-103.5 -254.5
t103.5 -254.5t254.5 -103.5t254.5 103.5t103.5 254.5zM643 347q0 -95 -64 -159t-159 -64q-94 0 -158.5 64t-64.5 159q0 96 64 159.5t159 63.5t159 -64t64 -159zM571 298q-11 34 -38 62q-46 45 -113 45q-54 0 -95 -29.5t-55 -78.5q15 -48 55.5 -78t94.5 -30t95 30t56 79z
M562 894q0 -97 -90 -136q-29 -12 -58 -12q-56 0 -94 33q-29 26 -52 79q-19 47 -37 93q-11 27 -11 56q0 27 8 51q-8 23 -8 49q0 64 42.5 106t104.5 42q57 0 94 -33q29 -25 53 -78q18 -46 37 -93q11 -26 11 -57q0 -27 -8 -51q8 -23 8 -49zM497 994q0 18 -6 32l-47 113
q-21 51 -77 51q-16 0 -31 -6q-51 -21 -51 -77q0 -16 6 -31l47 -114q21 -51 76 -51q16 0 32 7q51 22 51 76z" />
    <glyph glyph-name="Oacute" unicode="&#xd3;" horiz-adv-x="769" 
d="M843 247q0 -177 -123 -300t-300 -123q-178 0 -300.5 122.5t-122.5 300.5q0 25 3 50q-3 25 -3 50q0 178 122.5 300.5t300.5 122.5t300.5 -122.5t122.5 -300.5q0 -26 -3 -51q3 -24 3 -49zM778 347q0 151 -103.5 254.5t-254.5 103.5t-254.5 -103.5t-103.5 -254.5
t103.5 -254.5t254.5 -103.5t254.5 103.5t103.5 254.5zM643 347q0 -95 -64 -159t-159 -64q-94 0 -158.5 64t-64.5 159q0 96 64 159.5t159 63.5t159 -64t64 -159zM571 298q-11 34 -38 62q-46 45 -113 45q-54 0 -95 -29.5t-55 -78.5q15 -48 55.5 -78t94.5 -30t95 30t56 79z
M625 987q0 -29 -11 -56q-18 -47 -37 -94q-23 -52 -53 -78q-37 -33 -94 -33q-61 0 -104 43t-43 105q0 21 8 50q-8 24 -8 50q0 34 23 91q17 39 35 79q38 91 136 91q63 0 105.5 -42t42.5 -106q0 -25 -8 -49q8 -24 8 -51zM560 1087q0 56 -51 77q-15 6 -32 6q-55 0 -76 -51
l-47 -113q-6 -14 -6 -32q0 -54 51 -76q16 -7 31 -7q56 0 77 51l47 114q6 15 6 31z" />
    <glyph glyph-name="Ocircumflex" unicode="&#xd4;" horiz-adv-x="769" 
d="M843 247q0 -177 -123 -300t-300 -123q-178 0 -300.5 122.5t-122.5 300.5q0 25 3 50q-3 25 -3 50q0 178 122.5 300.5t300.5 122.5t300.5 -122.5t122.5 -300.5q0 -26 -3 -51q3 -24 3 -49zM778 347q0 151 -103.5 254.5t-254.5 103.5t-254.5 -103.5t-103.5 -254.5
t103.5 -254.5t254.5 -103.5t254.5 103.5t103.5 254.5zM643 347q0 -95 -64 -159t-159 -64q-94 0 -158.5 64t-64.5 159q0 96 64 159.5t159 63.5t159 -64t64 -159zM571 298q-11 34 -38 62q-46 45 -113 45q-54 0 -95 -29.5t-55 -78.5q15 -48 55.5 -78t94.5 -30t95 30t56 79z
M654 854q0 -55 -40 -94.5t-95 -39.5q-52 0 -92 40h-10q-40 -40 -92 -40q-55 0 -94.5 39.5t-39.5 94.5q0 24 11 48q-11 25 -11 52q0 49 47 103q19 21 86 81q52 46 98 46q45 0 106 -52l86 -85q40 -40 40 -93q0 -27 -10 -51q10 -23 10 -49zM589 954q0 26 -21 47q-76 75 -90 88
q-33 30 -56 30q-21 0 -55 -30q-17 -15 -90 -88q-21 -21 -21 -47q0 -28 20.5 -48.5t48.5 -20.5q26 0 47 21l50 49l50 -49q21 -21 47 -21q28 0 49 20.5t21 48.5z" />
    <glyph glyph-name="Otilde" unicode="&#xd5;" horiz-adv-x="769" 
d="M843 247q0 -177 -123 -300t-300 -123q-178 0 -300.5 122.5t-122.5 300.5q0 25 3 50q-3 25 -3 50q0 178 122.5 300.5t300.5 122.5t300.5 -122.5t122.5 -300.5q0 -26 -3 -51q3 -24 3 -49zM778 347q0 151 -103.5 254.5t-254.5 103.5t-254.5 -103.5t-103.5 -254.5
t103.5 -254.5t254.5 -103.5t254.5 103.5t103.5 254.5zM643 347q0 -95 -64 -159t-159 -64q-94 0 -158.5 64t-64.5 159q0 96 64 159.5t159 63.5t159 -64t64 -159zM571 298q-11 34 -38 62q-46 45 -113 45q-54 0 -95 -29.5t-55 -78.5q15 -48 55.5 -78t94.5 -30t95 30t56 79z
M674 873q0 -62 -58 -111q-54 -46 -118 -46q-37 0 -103 28q-28 -16 -61 -16q-54 0 -94 40t-40 94q0 25 10 50q-10 24 -10 50q0 63 57 111q54 46 119 46q44 0 103 -27q28 15 60 15q55 0 95 -39.5t40 -94.5q0 -25 -10 -49q10 -25 10 -51zM609 973q0 28 -21 48.5t-49 20.5
t-49 -24q-1 -1 -4 -1l-41 19q-39 18 -69 18q-51 0 -93 -47q-18 -20 -18 -45q0 -27 21 -48t48 -21q28 0 50 24q1 1 3 1l44 -18q43 -19 67 -19q50 0 92 47q19 21 19 45z" />
    <glyph glyph-name="Odieresis" unicode="&#xd6;" horiz-adv-x="769" 
d="M843 247q0 -177 -123 -300t-300 -123q-178 0 -300.5 122.5t-122.5 300.5q0 25 3 50q-3 25 -3 50q0 178 122.5 300.5t300.5 122.5t300.5 -122.5t122.5 -300.5q0 -26 -3 -51q3 -24 3 -49zM778 347q0 151 -103.5 254.5t-254.5 103.5t-254.5 -103.5t-103.5 -254.5
t103.5 -254.5t254.5 -103.5t254.5 103.5t103.5 254.5zM643 347q0 -95 -64 -159t-159 -64q-94 0 -158.5 64t-64.5 159q0 96 64 159.5t159 63.5t159 -64t64 -159zM571 298q-11 34 -38 62q-46 45 -113 45q-54 0 -95 -29.5t-55 -78.5q15 -48 55.5 -78t94.5 -30t95 30t56 79z
M656 948q0 -62 -42.5 -105t-104.5 -43q-55 0 -96 35q-41 -35 -96 -35q-62 0 -105 43t-43 105q0 26 9 49q-9 25 -9 51q0 61 43.5 104t104.5 43q54 0 95 -35q42 35 97 35q61 0 104 -43t43 -104q0 -27 -8 -51q8 -23 8 -49zM591 1048q0 34 -24 58t-58 24q-35 0 -59 -23.5
t-24 -58.5t24 -59t59 -24t58.5 24t23.5 59zM400 1048q0 34 -24.5 58t-58.5 24t-58.5 -24t-24.5 -58q0 -35 24 -59t59 -24t59 24t24 59z" />
    <glyph glyph-name="Oslash" unicode="&#xd8;" horiz-adv-x="819" 
d="M843 247q0 -177 -123 -300t-300 -123q-178 0 -300.5 122.5t-122.5 300.5q0 25 3 50q-3 25 -3 50q0 178 122.5 300.5t300.5 122.5t300.5 -122.5t122.5 -300.5q0 -26 -3 -51q3 -24 3 -49zM778 347q0 151 -103.5 254.5t-254.5 103.5t-254.5 -103.5t-103.5 -254.5
t103.5 -254.5t254.5 -103.5t254.5 103.5t103.5 254.5zM643 347q0 -95 -64 -159t-159 -64q-94 0 -158.5 64t-64.5 159q0 96 64 159.5t159 63.5t159 -64t64 -159zM571 298q-11 34 -38 62q-46 45 -113 45q-54 0 -95 -29.5t-55 -78.5q15 -48 55.5 -78t94.5 -30t95 30t56 79z" />
    <glyph glyph-name="Ugrave" unicode="&#xd9;" horiz-adv-x="486" 
d="M561 107q0 -118 -81 -199.5t-199 -81.5q-119 0 -200 81t-81 200v531q0 57 37.5 94.5t94.5 37.5t95 -37.5t38 -94.5v-431q0 -16 16 -16q15 0 15 16v432q0 56 38.5 94.5t94.5 38.5q57 0 94.5 -38t37.5 -95v-532zM496 207v432q0 30 -18.5 49t-48.5 19q-29 0 -48.5 -19.5
t-19.5 -48.5v-432q0 -34 -23 -57.5t-57 -23.5t-57.5 23.5t-23.5 57.5v431q0 30 -19 48.5t-49 18.5t-48.5 -18.5t-18.5 -48.5v-431q0 -93 61.5 -154.5t154.5 -61.5q92 0 153.5 62t61.5 154zM462 834q0 -97 -90 -136q-29 -12 -58 -12q-56 0 -94 33q-29 26 -52 79
q-19 47 -37 93q-11 27 -11 56q0 27 8 51q-8 23 -8 49q0 64 42.5 106t104.5 42q57 0 94 -33q29 -25 53 -78q18 -46 37 -93q11 -26 11 -57q0 -27 -8 -51q8 -23 8 -49zM397 934q0 18 -6 32l-47 113q-21 51 -77 51q-16 0 -31 -6q-51 -21 -51 -77q0 -16 6 -31l47 -114
q21 -51 76 -51q16 0 32 7q51 22 51 76z" />
    <glyph glyph-name="Uacute" unicode="&#xda;" horiz-adv-x="486" 
d="M561 107q0 -118 -81 -199.5t-199 -81.5q-119 0 -200 81t-81 200v531q0 57 37.5 94.5t94.5 37.5t95 -37.5t38 -94.5v-431q0 -16 16 -16q15 0 15 16v432q0 56 38.5 94.5t94.5 38.5q57 0 94.5 -38t37.5 -95v-532zM496 207v432q0 30 -18.5 49t-48.5 19q-29 0 -48.5 -19.5
t-19.5 -48.5v-432q0 -34 -23 -57.5t-57 -23.5t-57.5 23.5t-23.5 57.5v431q0 30 -19 48.5t-49 18.5t-48.5 -18.5t-18.5 -48.5v-431q0 -93 61.5 -154.5t154.5 -61.5q92 0 153.5 62t61.5 154zM465 997q0 -29 -11 -56q-18 -47 -37 -94q-23 -52 -53 -78q-37 -33 -94 -33
q-61 0 -104 43t-43 105q0 21 8 50q-8 24 -8 50q0 34 23 91q17 39 35 79q38 91 136 91q63 0 105.5 -42t42.5 -106q0 -25 -8 -49q8 -24 8 -51zM400 1097q0 56 -51 77q-15 6 -32 6q-55 0 -76 -51l-47 -113q-6 -14 -6 -32q0 -54 51 -76q16 -7 31 -7q56 0 77 51l47 114q6 15 6 31
z" />
    <glyph glyph-name="Ucircumflex" unicode="&#xdb;" horiz-adv-x="486" 
d="M561 107q0 -118 -81 -199.5t-199 -81.5q-119 0 -200 81t-81 200v531q0 57 37.5 94.5t94.5 37.5t95 -37.5t38 -94.5v-431q0 -16 16 -16q15 0 15 16v432q0 56 38.5 94.5t94.5 38.5q57 0 94.5 -38t37.5 -95v-532zM496 207v432q0 30 -18.5 49t-48.5 19q-29 0 -48.5 -19.5
t-19.5 -48.5v-432q0 -34 -23 -57.5t-57 -23.5t-57.5 23.5t-23.5 57.5v431q0 30 -19 48.5t-49 18.5t-48.5 -18.5t-18.5 -48.5v-431q0 -93 61.5 -154.5t154.5 -61.5q92 0 153.5 62t61.5 154zM504 844q0 -55 -40 -94.5t-95 -39.5q-52 0 -92 40h-10q-40 -40 -92 -40
q-55 0 -94.5 39.5t-39.5 94.5q0 24 11 48q-11 25 -11 52q0 49 47 103q19 21 86 81q52 46 98 46q45 0 106 -52l86 -85q40 -40 40 -93q0 -27 -10 -51q10 -23 10 -49zM439 944q0 26 -21 47q-76 75 -90 88q-33 30 -56 30q-21 0 -55 -30q-17 -15 -90 -88q-21 -21 -21 -47
q0 -28 20.5 -48.5t48.5 -20.5q26 0 47 21l50 49l50 -49q21 -21 47 -21q28 0 49 20.5t21 48.5z" />
    <glyph glyph-name="Udieresis" unicode="&#xdc;" horiz-adv-x="486" 
d="M561 107q0 -118 -81 -199.5t-199 -81.5q-119 0 -200 81t-81 200v531q0 57 37.5 94.5t94.5 37.5t95 -37.5t38 -94.5v-431q0 -16 16 -16q15 0 15 16v432q0 56 38.5 94.5t94.5 38.5q57 0 94.5 -38t37.5 -95v-532zM496 207v432q0 30 -18.5 49t-48.5 19q-29 0 -48.5 -19.5
t-19.5 -48.5v-432q0 -34 -23 -57.5t-57 -23.5t-57.5 23.5t-23.5 57.5v431q0 30 -19 48.5t-49 18.5t-48.5 -18.5t-18.5 -48.5v-431q0 -93 61.5 -154.5t154.5 -61.5q92 0 153.5 62t61.5 154zM526 948q0 -62 -42.5 -105t-104.5 -43q-55 0 -96 35q-41 -35 -96 -35q-62 0 -105 43
t-43 105q0 26 9 49q-9 25 -9 51q0 61 43.5 104t104.5 43q54 0 95 -35q42 35 97 35q61 0 104 -43t43 -104q0 -27 -8 -51q8 -23 8 -49zM461 1048q0 34 -24 58t-58 24q-35 0 -59 -23.5t-24 -58.5t24 -59t59 -24t58.5 24t23.5 59zM270 1048q0 34 -24.5 58t-58.5 24t-58.5 -24
t-24.5 -58q0 -35 24 -59t59 -24t59 24t24 59z" />
    <glyph glyph-name="Yacute" unicode="&#xdd;" horiz-adv-x="486" 
d="M400 947q0 -16 -6 -31l-47 -114q-21 -51 -77 -51q-15 0 -31 7q-51 22 -51 76q0 18 6 32l47 113q21 51 76 51q17 0 32 -6q51 -21 51 -77zM485 207q0 -92 -61.5 -154t-153.5 -62q-93 0 -154.5 61.5t-61.5 154.5v10q0 30 18.5 48.5t48.5 18.5t49 -18.5t19 -48.5v-10
q0 -34 23.5 -57.5t57.5 -23.5t57 23.5t23 57.5v96q-38 -16 -80 -16q-93 0 -154.5 61.5t-61.5 154.5v135q0 30 18.5 48.5t48.5 18.5t49 -18.5t19 -48.5v-135q0 -34 23.5 -57.5t57.5 -23.5t57 23.5t23 57.5v0v135q0 29 19.5 48t48.5 19q30 0 48.5 -18.5t18.5 -48.5v-431z" />
    <glyph glyph-name="Thorn" unicode="&#xde;" 
d="M1159 461q0 -56 -45 -99q5 -14 5 -26q0 -46 -66 -55q1 -8 1 -16q0 -73 -88 -90q-12 -79 -92 -79q-45 0 -98 23l1 -1q-5 2 -10 6q-73 -55 -75 -56q-51 -35 -82 -35q-80 0 -200 117l1 -1q-68 -31 -126 -31q-109 0 -161 95q-17 32 -13 42q-49 26 -74 61q77 -1 105 36
q-65 0 -83 93q98 53 130 109q-11 -1 -20 -1q-87 0 -116 79q181 35 224 141q32 111 114 199q64 68 124 68q39 0 76 -28q28 4 54 4q180 0 301 -175q52 -75 85 -175q7 -31 7 -70q0 -49 -14 -95q30 -20 52 -20q43 0 50 69q33 -44 33 -89zM878 533q-48 185 -250 316
q-110 4 -157 -86q-21 -39 -25 -91q-2 -26 -9 -74q14 2 30 2q74 0 101 -37q-6 -4 -17 -4q-20 0 -58.5 13t-58.5 12q-31 -112 -86 -134q-6 -8 -25 -19q24 -119 67 -173q69 -86 100 -115q64 -59 120 -59t118 59q33 31 101 116q39 48 47 126q2 19 2 148zM852 566q-9 -5 -21 1
q-24 13 -42 13q-19 0 -55.5 -12.5t-55.5 -12.5q-12 0 -18 5q27 36 100 36q24 0 51 -6q36 -9 41 -24zM829 476q-11 -12 -24 -12q-9 0 -24 11t-27 14q3 -6 3 -13q0 -31 -31 -31t-31 31q0 10 5 18q-24 -10 -24 -25q0 -4 3 -9l-17 5q17 40 58 42v-1q3 1 6 1q35 1 57 -11
q6 -4 13 -4q13 0 23 13q3 -18 -17 -22q10 -8 20 -8q4 0 7 1zM572 464l-17 -5q3 5 3 10q0 19 -27 24q5 -8 5 -17q0 -31 -31 -31t-31 31q0 7 3 13q-12 -3 -28 -14.5t-26 -11.5q-11 0 -21 8q13 -4 22 9q-14 3 -14 17q0 4 1 8q10 -13 24 -13q7 0 13 4q22 12 57 11q5 0 10 -2
q52 -7 57 -41zM700 245h-176q30 58 87 58q59 0 89 -58zM698 235q-8 -31 -30 -52q-25 -23 -55 -23q-31 0 -54.5 22t-32.5 53h9q30 -23 78 -23t72 23h13z" />
    <glyph glyph-name="germandbls" unicode="&#xdf;" horiz-adv-x="504" 
d="M542 102q0 -116 -80.5 -196t-196.5 -80h-11v-60q0 -57 -37.5 -95t-94.5 -38t-95 38t-38 95v728q0 116 80 196t196 80t196.5 -80t80.5 -196q0 -26 -4 -50q4 -25 4 -50q0 -51 -17 -96q17 -45 17 -96q0 -26 -4 -50q4 -25 4 -50zM477 202q0 85 -59 145q59 61 59 147
q0 90 -61 150.5t-151 60.5t-150.5 -60.5t-60.5 -150.5v-628q0 -30 19 -49t49 -19t48.5 19t18.5 49v628q0 31 22.5 53.5t53.5 22.5q32 0 54.5 -22t22.5 -54t-22.5 -54t-54.5 -23t-53 -18.5t-21 -48.5q0 -27 19.5 -45.5t47.5 -21.5q34 -4 59 -26t25 -55q0 -31 -22.5 -53.5
t-53 -22.5t-49.5 -19t-19 -49q0 -29 19 -48t48 -19q90 0 151 60.5t61 150.5z" />
    <glyph glyph-name="agrave" unicode="&#xe0;" horiz-adv-x="565" 
d="M641 -42q0 -57 -38.5 -94.5t-94.5 -37.5t-93 36q-38 -38 -95 -38q-136 0 -228 92.5t-92 228.5q0 25 4 50q-4 25 -4 50q0 136 92 228t228 92t228.5 -92.5t92.5 -227.5v-287zM576 58v187q0 109 -73.5 182t-182.5 73t-182 -73t-73 -182t73 -182.5t182 -73.5q30 0 49 19
t19 49t-19 48.5t-49 18.5q-50 0 -85 35.5t-35 85.5t35 85t85 35t85.5 -35t35.5 -85v-187q0 -30 18.5 -48.5t48.5 -18.5t49 18.5t19 48.5zM361 183q-17 17 -41 17q-13 0 -24 -5q10 -5 31 -7q25 -2 34 -5zM462 694q0 -97 -90 -136q-29 -12 -58 -12q-56 0 -94 33q-29 26 -52 79
q-19 47 -37 93q-11 27 -11 56q0 27 8 51q-8 23 -8 49q0 64 42.5 106t104.5 42q57 0 94 -33q29 -25 53 -78q18 -46 37 -93q11 -26 11 -57q0 -27 -8 -51q8 -23 8 -49zM397 794q0 18 -6 32l-47 113q-21 51 -77 51q-16 0 -31 -6q-51 -21 -51 -77q0 -16 6 -31l47 -114
q21 -51 76 -51q16 0 32 7q51 22 51 76z" />
    <glyph glyph-name="aacute" unicode="&#xe1;" horiz-adv-x="565" 
d="M641 -42q0 -57 -38.5 -94.5t-94.5 -37.5t-93 36q-38 -38 -95 -38q-136 0 -228 92.5t-92 228.5q0 25 4 50q-4 25 -4 50q0 136 92 228t228 92t228.5 -92.5t92.5 -227.5v-287zM576 58v187q0 109 -73.5 182t-182.5 73t-182 -73t-73 -182t73 -182.5t182 -73.5q30 0 49 19
t19 49t-19 48.5t-49 18.5q-50 0 -85 35.5t-35 85.5t35 85t85 35t85.5 -35t35.5 -85v-187q0 -30 18.5 -48.5t48.5 -18.5t49 18.5t19 48.5zM361 183q-17 17 -41 17q-13 0 -24 -5q10 -5 31 -7q25 -2 34 -5zM465 897q0 -29 -11 -56q-18 -47 -37 -94q-23 -52 -53 -78
q-37 -33 -94 -33q-61 0 -104 43t-43 105q0 21 8 50q-8 24 -8 50q0 34 23 91q17 39 35 79q38 91 136 91q63 0 105.5 -42t42.5 -106q0 -25 -8 -49q8 -24 8 -51zM400 997q0 56 -51 77q-15 6 -32 6q-55 0 -76 -51l-47 -113q-6 -14 -6 -32q0 -54 51 -76q16 -7 31 -7q56 0 77 51
l47 114q6 15 6 31z" />
    <glyph glyph-name="acircumflex" unicode="&#xe2;" horiz-adv-x="565" 
d="M641 -42q0 -57 -38.5 -94.5t-94.5 -37.5t-93 36q-38 -38 -95 -38q-136 0 -228 92.5t-92 228.5q0 25 4 50q-4 25 -4 50q0 136 92 228t228 92t228.5 -92.5t92.5 -227.5v-287zM576 58v187q0 109 -73.5 182t-182.5 73t-182 -73t-73 -182t73 -182.5t182 -73.5q30 0 49 19
t19 49t-19 48.5t-49 18.5q-50 0 -85 35.5t-35 85.5t35 85t85 35t85.5 -35t35.5 -85v-187q0 -30 18.5 -48.5t48.5 -18.5t49 18.5t19 48.5zM361 183q-17 17 -41 17q-13 0 -24 -5q10 -5 31 -7q25 -2 34 -5zM554 634q0 -55 -40 -94.5t-95 -39.5q-52 0 -92 40h-10
q-40 -40 -92 -40q-55 0 -94.5 39.5t-39.5 94.5q0 24 11 48q-11 25 -11 52q0 49 47 103q19 21 86 81q52 46 98 46q45 0 106 -52l86 -85q40 -40 40 -93q0 -27 -10 -51q10 -23 10 -49zM489 734q0 26 -21 47q-76 75 -90 88q-33 30 -56 30q-21 0 -55 -30q-17 -15 -90 -88
q-21 -21 -21 -47q0 -28 20.5 -48.5t48.5 -20.5q26 0 47 21l50 49l50 -49q21 -21 47 -21q28 0 49 20.5t21 48.5z" />
    <glyph glyph-name="atilde" unicode="&#xe3;" horiz-adv-x="565" 
d="M641 -42q0 -57 -38.5 -94.5t-94.5 -37.5t-93 36q-38 -38 -95 -38q-136 0 -228 92.5t-92 228.5q0 25 4 50q-4 25 -4 50q0 136 92 228t228 92t228.5 -92.5t92.5 -227.5v-287zM576 58v187q0 109 -73.5 182t-182.5 73t-182 -73t-73 -182t73 -182.5t182 -73.5q30 0 49 19
t19 49t-19 48.5t-49 18.5q-50 0 -85 35.5t-35 85.5t35 85t85 35t85.5 -35t35.5 -85v-187q0 -30 18.5 -48.5t48.5 -18.5t49 18.5t19 48.5zM361 183q-17 17 -41 17q-13 0 -24 -5q10 -5 31 -7q25 -2 34 -5zM564 663q0 -62 -58 -111q-54 -46 -118 -46q-37 0 -103 28
q-28 -16 -61 -16q-54 0 -94 40t-40 94q0 25 10 50q-10 24 -10 50q0 63 57 111q54 46 119 46q44 0 103 -27q28 15 60 15q55 0 95 -39.5t40 -94.5q0 -25 -10 -49q10 -25 10 -51zM499 763q0 28 -21 48.5t-49 20.5t-49 -24q-1 -1 -4 -1l-41 19q-39 18 -69 18q-51 0 -93 -47
q-18 -20 -18 -45q0 -27 21 -48t48 -21q28 0 50 24q1 1 3 1l44 -18q43 -19 67 -19q50 0 92 47q19 21 19 45z" />
    <glyph glyph-name="adieresis" unicode="&#xe4;" horiz-adv-x="565" 
d="M641 -42q0 -57 -38.5 -94.5t-94.5 -37.5t-93 36q-38 -38 -95 -38q-136 0 -228 92.5t-92 228.5q0 25 4 50q-4 25 -4 50q0 136 92 228t228 92t228.5 -92.5t92.5 -227.5v-287zM576 58v187q0 109 -73.5 182t-182.5 73t-182 -73t-73 -182t73 -182.5t182 -73.5q30 0 49 19
t19 49t-19 48.5t-49 18.5q-50 0 -85 35.5t-35 85.5t35 85t85 35t85.5 -35t35.5 -85v-187q0 -30 18.5 -48.5t48.5 -18.5t49 18.5t19 48.5zM361 183q-17 17 -41 17q-13 0 -24 -5q10 -5 31 -7q25 -2 34 -5zM556 748q0 -62 -42.5 -105t-104.5 -43q-55 0 -96 35q-41 -35 -96 -35
q-62 0 -105 43t-43 105q0 26 9 49q-9 25 -9 51q0 61 43.5 104t104.5 43q54 0 95 -35q42 35 97 35q61 0 104 -43t43 -104q0 -27 -8 -51q8 -23 8 -49zM491 848q0 34 -24 58t-58 24q-35 0 -59 -23.5t-24 -58.5t24 -59t59 -24t58.5 24t23.5 59zM300 848q0 34 -24.5 58t-58.5 24
t-58.5 -24t-24.5 -58q0 -35 24 -59t59 -24t59 24t24 59z" />
    <glyph glyph-name="aring" unicode="&#xe5;" horiz-adv-x="565" 
d="M641 -42q0 -57 -38.5 -94.5t-94.5 -37.5t-93 36q-38 -38 -95 -38q-136 0 -228 92.5t-92 228.5q0 25 4 50q-4 25 -4 50q0 136 92 228t228 92t228.5 -92.5t92.5 -227.5v-287zM576 58v187q0 109 -73.5 182t-182.5 73t-182 -73t-73 -182t73 -182.5t182 -73.5q30 0 49 19
t19 49t-19 48.5t-49 18.5q-50 0 -85 35.5t-35 85.5t35 85t85 35t85.5 -35t35.5 -85v-187q0 -30 18.5 -48.5t48.5 -18.5t49 18.5t19 48.5zM361 183q-17 17 -41 17q-13 0 -24 -5q10 -5 31 -7q25 -2 34 -5zM467 721q0 -70 -49.5 -119.5t-119.5 -49.5t-119.5 49.5t-49.5 119.5
q0 26 7 50q-7 24 -7 50q0 70 49.5 119.5t119.5 49.5t119.5 -49.5t49.5 -119.5q0 -26 -7 -50q7 -24 7 -50zM402 821q0 43 -30.5 73.5t-73.5 30.5t-73.5 -30.5t-30.5 -73.5t30.5 -73.5t73.5 -30.5t73.5 30.5t30.5 73.5zM327 821q0 -29 -29 -29t-29 29t29 29t29 -29z" />
    <glyph glyph-name="ae" unicode="&#xe6;" horiz-adv-x="925" 
d="M955 276q0 -63 -51 -104q-8 -7 -27 -29q30 -36 30 -86q0 -26 -9 -50q9 -23 9 -50q0 -56 -38.5 -94.5t-94.5 -38.5h-89q-150 0 -245 112q-7 -49 -43.5 -80.5t-87.5 -31.5q-136 0 -228 92.5t-92 228.5q0 25 4 50q-4 25 -4 50q0 136 92 228t228 92q106 0 188 -60
q82 60 188 60q89 0 173 -49q97 -56 97 -140q0 -27 -10 -50q10 -24 10 -50zM890 376q0 25 -20 46q-76 78 -185 78q-112 0 -188 -82q-76 82 -188 82q-109 0 -182 -73t-73 -182t73 -182.5t182 -73.5q30 0 49 19t19 49t-19 48.5t-49 18.5q-50 0 -85 35.5t-35 85.5t35 85t85 35
t85.5 -35t35.5 -85q0 -108 73.5 -182t181.5 -74h89q29 0 48.5 19.5t19.5 48.5q0 30 -19 48.5t-49 18.5h-89q-50 0 -85 35.5t-35 85.5t35 85t85 35q13 0 26 -2l-72 -71q-22 -22 -22 -47q0 -28 21 -49t49 -21q24 0 46 21l128 125q29 22 29 55zM349 183q-16 17 -40 17
q-13 0 -24 -5q10 -5 31 -7q25 -2 33 -5z" />
    <glyph glyph-name="ccedilla" unicode="&#xe7;" horiz-adv-x="377" 
d="M442 -42q0 -59 -39 -95l-4 -4q-2 -14 -7 -27q9 -24 9 -50q0 -61 -43 -104.5t-104 -43.5t-104.5 43.5t-43.5 104.5q0 26 9 50q-9 24 -9 50q0 7 1 14q-118 95 -118 250q0 25 4 50q-4 25 -4 50q0 136 92 228.5t228 92.5q57 0 95 -38t38 -95q0 -26 -9 -50q9 -24 9 -50
q0 -57 -38 -94.5t-95 -37.5q-13 0 -24 -6q11 -5 24 -5q57 0 95 -38t38 -95q0 -27 -9 -50q9 -24 9 -50zM377 58q0 30 -19 49t-49 19q-50 0 -85 35t-35 85t35 85.5t85 35.5q30 0 49 18.5t19 48.5t-19 49t-49 19q-109 0 -182 -73.5t-73 -182.5q0 -108 73.5 -181.5t181.5 -73.5
q30 0 49 18.5t19 48.5zM336 -118q0 34 -24 58.5t-58 24.5t-58.5 -24.5t-24.5 -58.5t24.5 -58.5t58.5 -24.5t58 24.5t24 58.5z" />
    <glyph glyph-name="egrave" unicode="&#xe8;" horiz-adv-x="514" 
d="M590 276q0 -63 -51 -104q-8 -8 -28 -29q30 -36 30 -86q0 -26 -9 -50q9 -24 9 -50q0 -57 -37.5 -95t-94.5 -38h-89q-135 0 -227.5 92.5t-92.5 228.5q0 25 4 50q-4 25 -4 50q0 136 92 228t228 92q89 0 173 -49q97 -56 97 -140q0 -27 -10 -50q10 -24 10 -50zM525 376
q0 25 -20 46q-76 78 -185 78t-182 -73t-73 -182t73 -182.5t182 -73.5h89q30 0 48.5 19t18.5 49t-18.5 48.5t-48.5 18.5h-89q-50 0 -85 35.5t-35 85.5t35 85t85 35q13 0 26 -2l-72 -71q-22 -22 -22 -47q0 -28 20.5 -49t48.5 -21q25 0 47 21l128 125q29 22 29 55zM462 654
q0 -97 -90 -136q-29 -12 -58 -12q-56 0 -94 33q-29 26 -52 79q-19 47 -37 93q-11 27 -11 56q0 27 8 51q-8 23 -8 49q0 64 42.5 106t104.5 42q57 0 94 -33q29 -25 53 -78q18 -46 37 -93q11 -26 11 -57q0 -27 -8 -51q8 -23 8 -49zM397 754q0 18 -6 32l-47 113q-21 51 -77 51
q-16 0 -31 -6q-51 -21 -51 -77q0 -16 6 -31l47 -114q21 -51 76 -51q16 0 32 7q51 22 51 76z" />
    <glyph glyph-name="eacute" unicode="&#xe9;" horiz-adv-x="514" 
d="M590 276q0 -63 -51 -104q-8 -8 -28 -29q30 -36 30 -86q0 -26 -9 -50q9 -24 9 -50q0 -57 -37.5 -95t-94.5 -38h-89q-135 0 -227.5 92.5t-92.5 228.5q0 25 4 50q-4 25 -4 50q0 136 92 228t228 92q89 0 173 -49q97 -56 97 -140q0 -27 -10 -50q10 -24 10 -50zM525 376
q0 25 -20 46q-76 78 -185 78t-182 -73t-73 -182t73 -182.5t182 -73.5h89q30 0 48.5 19t18.5 49t-18.5 48.5t-48.5 18.5h-89q-50 0 -85 35.5t-35 85.5t35 85t85 35q13 0 26 -2l-72 -71q-22 -22 -22 -47q0 -28 20.5 -49t48.5 -21q25 0 47 21l128 125q29 22 29 55zM465 787
q0 -29 -11 -56q-18 -47 -37 -94q-23 -52 -53 -78q-37 -33 -94 -33q-61 0 -104 43t-43 105q0 21 8 50q-8 24 -8 50q0 34 23 91q17 39 35 79q38 91 136 91q63 0 105.5 -42t42.5 -106q0 -25 -8 -49q8 -24 8 -51zM400 887q0 56 -51 77q-15 6 -32 6q-55 0 -76 -51l-47 -113
q-6 -14 -6 -32q0 -54 51 -76q16 -7 31 -7q56 0 77 51l47 114q6 15 6 31z" />
    <glyph glyph-name="ecircumflex" unicode="&#xea;" horiz-adv-x="514" 
d="M590 276q0 -63 -51 -104q-8 -8 -28 -29q30 -36 30 -86q0 -26 -9 -50q9 -24 9 -50q0 -57 -37.5 -95t-94.5 -38h-89q-135 0 -227.5 92.5t-92.5 228.5q0 25 4 50q-4 25 -4 50q0 136 92 228t228 92q89 0 173 -49q97 -56 97 -140q0 -27 -10 -50q10 -24 10 -50zM525 376
q0 25 -20 46q-76 78 -185 78t-182 -73t-73 -182t73 -182.5t182 -73.5h89q30 0 48.5 19t18.5 49t-18.5 48.5t-48.5 18.5h-89q-50 0 -85 35.5t-35 85.5t35 85t85 35q13 0 26 -2l-72 -71q-22 -22 -22 -47q0 -28 20.5 -49t48.5 -21q25 0 47 21l128 125q29 22 29 55zM544 644
q0 -55 -40 -94.5t-95 -39.5q-52 0 -92 40h-10q-40 -40 -92 -40q-55 0 -94.5 39.5t-39.5 94.5q0 24 11 48q-11 25 -11 52q0 49 47 103q19 21 86 81q52 46 98 46q45 0 106 -52l86 -85q40 -40 40 -93q0 -27 -10 -51q10 -23 10 -49zM479 744q0 26 -21 47q-76 75 -90 88
q-33 30 -56 30q-21 0 -55 -30q-17 -15 -90 -88q-21 -21 -21 -47q0 -28 20.5 -48.5t48.5 -20.5q26 0 47 21l50 49l50 -49q21 -21 47 -21q28 0 49 20.5t21 48.5z" />
    <glyph glyph-name="edieresis" unicode="&#xeb;" horiz-adv-x="514" 
d="M590 276q0 -63 -51 -104q-8 -8 -28 -29q30 -36 30 -86q0 -26 -9 -50q9 -24 9 -50q0 -57 -37.5 -95t-94.5 -38h-89q-135 0 -227.5 92.5t-92.5 228.5q0 25 4 50q-4 25 -4 50q0 136 92 228t228 92q89 0 173 -49q97 -56 97 -140q0 -27 -10 -50q10 -24 10 -50zM525 376
q0 25 -20 46q-76 78 -185 78t-182 -73t-73 -182t73 -182.5t182 -73.5h89q30 0 48.5 19t18.5 49t-18.5 48.5t-48.5 18.5h-89q-50 0 -85 35.5t-35 85.5t35 85t85 35q13 0 26 -2l-72 -71q-22 -22 -22 -47q0 -28 20.5 -49t48.5 -21q25 0 47 21l128 125q29 22 29 55zM546 748
q0 -62 -42.5 -105t-104.5 -43q-55 0 -96 35q-41 -35 -96 -35q-62 0 -105 43t-43 105q0 26 9 49q-9 25 -9 51q0 61 43.5 104t104.5 43q54 0 95 -35q42 35 97 35q61 0 104 -43t43 -104q0 -27 -8 -51q8 -23 8 -49zM481 848q0 34 -24 58t-58 24q-35 0 -59 -23.5t-24 -58.5
t24 -59t59 -24t58.5 24t23.5 59zM290 848q0 34 -24.5 58t-58.5 24t-58.5 -24t-24.5 -58q0 -35 24 -59t59 -24t59 24t24 59z" />
    <glyph glyph-name="igrave" unicode="&#xec;" horiz-adv-x="190" 
d="M254 -42q0 -57 -38.5 -94.5t-94.5 -37.5q-57 0 -94.5 37.5t-37.5 94.5v475q0 57 37.5 94.5t94.5 37.5q61 0 97 -35.5t36 -96.5v-475zM189 58v375q0 67 -68 67q-30 0 -48.5 -18.5t-18.5 -48.5v-375q0 -30 18.5 -48.5t48.5 -18.5t49 18.5t19 48.5zM262 664q0 -97 -90 -136
q-29 -12 -58 -12q-56 0 -94 33q-29 26 -52 79q-19 47 -37 93q-11 27 -11 56q0 27 8 51q-8 23 -8 49q0 64 42.5 106t104.5 42q57 0 94 -33q29 -25 53 -78q18 -46 37 -93q11 -26 11 -57q0 -27 -8 -51q8 -23 8 -49zM197 764q0 18 -6 32l-47 113q-21 51 -77 51q-16 0 -31 -6
q-51 -21 -51 -77q0 -16 6 -31l47 -114q21 -51 76 -51q16 0 32 7q51 22 51 76z" />
    <glyph glyph-name="iacute" unicode="&#xed;" horiz-adv-x="190" 
d="M254 -42q0 -57 -38.5 -94.5t-94.5 -37.5q-57 0 -94.5 37.5t-37.5 94.5v475q0 57 37.5 94.5t94.5 37.5q61 0 97 -35.5t36 -96.5v-475zM189 58v375q0 67 -68 67q-30 0 -48.5 -18.5t-18.5 -48.5v-375q0 -30 18.5 -48.5t48.5 -18.5t49 18.5t19 48.5zM315 787q0 -29 -11 -56
q-18 -47 -37 -94q-23 -52 -53 -78q-37 -33 -94 -33q-61 0 -104 43t-43 105q0 21 8 50q-8 24 -8 50q0 34 23 91q17 39 35 79q38 91 136 91q63 0 105.5 -42t42.5 -106q0 -25 -8 -49q8 -24 8 -51zM250 887q0 56 -51 77q-15 6 -32 6q-55 0 -76 -51l-47 -113q-6 -14 -6 -32
q0 -54 51 -76q16 -7 31 -7q56 0 77 51l47 114q6 15 6 31z" />
    <glyph glyph-name="icircumflex" unicode="&#xee;" horiz-adv-x="190" 
d="M254 -42q0 -57 -38.5 -94.5t-94.5 -37.5q-57 0 -94.5 37.5t-37.5 94.5v475q0 57 37.5 94.5t94.5 37.5q61 0 97 -35.5t36 -96.5v-475zM189 58v375q0 67 -68 67q-30 0 -48.5 -18.5t-18.5 -48.5v-375q0 -30 18.5 -48.5t48.5 -18.5t49 18.5t19 48.5zM354 644q0 -55 -40 -94.5
t-95 -39.5q-52 0 -92 40h-10q-40 -40 -92 -40q-55 0 -94.5 39.5t-39.5 94.5q0 24 11 48q-11 25 -11 52q0 49 47 103q19 21 86 81q52 46 98 46q45 0 106 -52l86 -85q40 -40 40 -93q0 -27 -10 -51q10 -23 10 -49zM289 744q0 26 -21 47q-76 75 -90 88q-33 30 -56 30
q-21 0 -55 -30q-17 -15 -90 -88q-21 -21 -21 -47q0 -28 20.5 -48.5t48.5 -20.5q26 0 47 21l50 49l50 -49q21 -21 47 -21q28 0 49 20.5t21 48.5z" />
    <glyph glyph-name="idieresis" unicode="&#xef;" horiz-adv-x="190" 
d="M254 -42q0 -57 -38.5 -94.5t-94.5 -37.5q-57 0 -94.5 37.5t-37.5 94.5v475q0 57 37.5 94.5t94.5 37.5q61 0 97 -35.5t36 -96.5v-475zM189 58v375q0 67 -68 67q-30 0 -48.5 -18.5t-18.5 -48.5v-375q0 -30 18.5 -48.5t48.5 -18.5t49 18.5t19 48.5zM366 748
q0 -62 -42.5 -105t-104.5 -43q-55 0 -96 35q-41 -35 -96 -35q-62 0 -105 43t-43 105q0 26 9 49q-9 25 -9 51q0 61 43.5 104t104.5 43q54 0 95 -35q42 35 97 35q61 0 104 -43t43 -104q0 -27 -8 -51q8 -23 8 -49zM301 848q0 34 -24 58t-58 24q-35 0 -59 -23.5t-24 -58.5
t24 -59t59 -24t58.5 24t23.5 59zM110 848q0 34 -24.5 58t-58.5 24t-58.5 -24t-24.5 -58q0 -35 24 -59t59 -24t59 24t24 59z" />
    <glyph glyph-name="eth" unicode="&#xf0;" 
d="M1159 461q0 -56 -45 -99q5 -14 5 -26q0 -46 -66 -55q1 -8 1 -16q0 -73 -88 -90q-12 -79 -92 -79q-45 0 -98 23l1 -1q-5 2 -10 6q-73 -55 -75 -56q-51 -35 -82 -35q-80 0 -200 117l1 -1q-68 -31 -126 -31q-109 0 -161 95q-17 32 -13 42q-49 26 -74 61q77 -1 105 36
q-65 0 -83 93q98 53 130 109q-11 -1 -20 -1q-87 0 -116 79q181 35 224 141q32 111 114 199q64 68 124 68q39 0 76 -28q28 4 54 4q180 0 301 -175q52 -75 85 -175q7 -31 7 -70q0 -49 -14 -95q30 -20 52 -20q43 0 50 69q33 -44 33 -89zM878 533q-48 185 -250 316
q-110 4 -157 -86q-21 -39 -25 -91q-2 -26 -9 -74q14 2 30 2q74 0 101 -37q-6 -4 -17 -4q-20 0 -58.5 13t-58.5 12q-31 -112 -86 -134q-6 -8 -25 -19q24 -119 67 -173q69 -86 100 -115q64 -59 120 -59t118 59q33 31 101 116q39 48 47 126q2 19 2 148zM852 566q-9 -5 -21 1
q-24 13 -42 13q-19 0 -55.5 -12.5t-55.5 -12.5q-12 0 -18 5q27 36 100 36q24 0 51 -6q36 -9 41 -24zM829 476q-11 -12 -24 -12q-9 0 -24 11t-27 14q3 -6 3 -13q0 -31 -31 -31t-31 31q0 10 5 18q-24 -10 -24 -25q0 -4 3 -9l-17 5q17 40 58 42v-1q3 1 6 1q35 1 57 -11
q6 -4 13 -4q13 0 23 13q3 -18 -17 -22q10 -8 20 -8q4 0 7 1zM572 464l-17 -5q3 5 3 10q0 19 -27 24q5 -8 5 -17q0 -31 -31 -31t-31 31q0 7 3 13q-12 -3 -28 -14.5t-26 -11.5q-11 0 -21 8q13 -4 22 9q-14 3 -14 17q0 4 1 8q10 -13 24 -13q7 0 13 4q22 12 57 11q5 0 10 -2
q52 -7 57 -41zM700 245h-176q30 58 87 58q59 0 89 -58zM698 235q-8 -31 -30 -52q-25 -23 -55 -23q-31 0 -54.5 22t-32.5 53h9q30 -23 78 -23t72 23h13z" />
    <glyph glyph-name="ntilde" unicode="&#xf1;" horiz-adv-x="486" 
d="M715 -262q0 -57 -38.5 -94.5t-94.5 -37.5q-121 0 -203 80t-82 201v47l-1 251q0 15 -15 15q-16 0 -16 -15v-227q0 -57 -38 -94.5t-95 -37.5t-94.5 37.5t-37.5 94.5v327q0 118 81.5 199t199.5 81t199.5 -81t81.5 -199v-298q0 -16 16 -16q59 0 98 -37.5t39 -95.5
q0 -27 -9 -50q9 -23 9 -50zM650 -162q0 30 -19 49t-49 19h-4q-34 0 -57.5 23.5t-23.5 57.5v298q0 92 -62 153.5t-154 61.5t-154 -61.5t-62 -153.5v-227q0 -30 18.5 -48.5t48.5 -18.5t49 18.5t19 48.5v227q0 34 23.5 57t57.5 23q33 0 56.5 -23.5t23.5 -56.5l1 -298
q0 -93 61.5 -154.5t154.5 -61.5h4q30 0 49 18.5t19 48.5zM524 683q0 -62 -58 -111q-54 -46 -118 -46q-37 0 -103 28q-28 -16 -61 -16q-54 0 -94 40t-40 94q0 25 10 50q-10 24 -10 50q0 63 57 111q54 46 119 46q44 0 103 -27q28 15 60 15q55 0 95 -39.5t40 -94.5
q0 -25 -10 -49q10 -25 10 -51zM459 783q0 28 -21 48.5t-49 20.5t-49 -24q-1 -1 -4 -1l-41 19q-39 18 -69 18q-51 0 -93 -47q-18 -20 -18 -45q0 -27 21 -48t48 -21q28 0 50 24q1 1 3 1l44 -18q43 -19 67 -19q50 0 92 47q19 21 19 45z" />
    <glyph glyph-name="ograve" unicode="&#xf2;" horiz-adv-x="566" 
d="M641 145q0 -135 -93 -228t-228 -93q-136 0 -228 92.5t-92 228.5q0 25 4 50q-4 25 -4 50q0 136 92 228t228 92t228.5 -92t92.5 -228q0 -26 -4 -51q4 -24 4 -49zM576 245q0 109 -73.5 182t-182.5 73t-182 -73t-73 -182t73 -182.5t182 -73.5t182.5 73.5t73.5 182.5zM441 245
q0 -50 -35.5 -85.5t-85.5 -35.5t-85 35.5t-35 85.5t35 85t85 35t85.5 -35t35.5 -85zM462 664q0 -97 -90 -136q-29 -12 -58 -12q-56 0 -94 33q-29 26 -52 79q-19 47 -37 93q-11 27 -11 56q0 27 8 51q-8 23 -8 49q0 64 42.5 106t104.5 42q57 0 94 -33q29 -25 53 -78
q18 -46 37 -93q11 -26 11 -57q0 -27 -8 -51q8 -23 8 -49zM397 764q0 18 -6 32l-47 113q-21 51 -77 51q-16 0 -31 -6q-51 -21 -51 -77q0 -16 6 -31l47 -114q21 -51 76 -51q16 0 32 7q51 22 51 76z" />
    <glyph glyph-name="oacute" unicode="&#xf3;" horiz-adv-x="566" 
d="M641 145q0 -135 -93 -228t-228 -93q-136 0 -228 92.5t-92 228.5q0 25 4 50q-4 25 -4 50q0 136 92 228t228 92t228.5 -92t92.5 -228q0 -26 -4 -51q4 -24 4 -49zM576 245q0 109 -73.5 182t-182.5 73t-182 -73t-73 -182t73 -182.5t182 -73.5t182.5 73.5t73.5 182.5zM441 245
q0 -50 -35.5 -85.5t-85.5 -35.5t-85 35.5t-35 85.5t35 85t85 35t85.5 -35t35.5 -85zM485 787q0 -29 -11 -56q-18 -47 -37 -94q-23 -52 -53 -78q-37 -33 -94 -33q-61 0 -104 43t-43 105q0 21 8 50q-8 24 -8 50q0 34 23 91q17 39 35 79q38 91 136 91q63 0 105.5 -42t42.5 -106
q0 -25 -8 -49q8 -24 8 -51zM420 887q0 56 -51 77q-15 6 -32 6q-55 0 -76 -51l-47 -113q-6 -14 -6 -32q0 -54 51 -76q16 -7 31 -7q56 0 77 51l47 114q6 15 6 31z" />
    <glyph glyph-name="ocircumflex" unicode="&#xf4;" horiz-adv-x="566" 
d="M641 145q0 -135 -93 -228t-228 -93q-136 0 -228 92.5t-92 228.5q0 25 4 50q-4 25 -4 50q0 136 92 228t228 92t228.5 -92t92.5 -228q0 -26 -4 -51q4 -24 4 -49zM576 245q0 109 -73.5 182t-182.5 73t-182 -73t-73 -182t73 -182.5t182 -73.5t182.5 73.5t73.5 182.5zM441 245
q0 -50 -35.5 -85.5t-85.5 -35.5t-85 35.5t-35 85.5t35 85t85 35t85.5 -35t35.5 -85zM544 644q0 -55 -40 -94.5t-95 -39.5q-52 0 -92 40h-10q-40 -40 -92 -40q-55 0 -94.5 39.5t-39.5 94.5q0 24 11 48q-11 25 -11 52q0 49 47 103q19 21 86 81q52 46 98 46q45 0 106 -52
l86 -85q40 -40 40 -93q0 -27 -10 -51q10 -23 10 -49zM479 744q0 26 -21 47q-76 75 -90 88q-33 30 -56 30q-21 0 -55 -30q-17 -15 -90 -88q-21 -21 -21 -47q0 -28 20.5 -48.5t48.5 -20.5q26 0 47 21l50 49l50 -49q21 -21 47 -21q28 0 49 20.5t21 48.5z" />
    <glyph glyph-name="otilde" unicode="&#xf5;" horiz-adv-x="566" 
d="M641 145q0 -135 -93 -228t-228 -93q-136 0 -228 92.5t-92 228.5q0 25 4 50q-4 25 -4 50q0 136 92 228t228 92t228.5 -92t92.5 -228q0 -26 -4 -51q4 -24 4 -49zM576 245q0 109 -73.5 182t-182.5 73t-182 -73t-73 -182t73 -182.5t182 -73.5t182.5 73.5t73.5 182.5zM441 245
q0 -50 -35.5 -85.5t-85.5 -35.5t-85 35.5t-35 85.5t35 85t85 35t85.5 -35t35.5 -85zM574 693q0 -62 -58 -111q-54 -46 -118 -46q-37 0 -103 28q-28 -16 -61 -16q-54 0 -94 40t-40 94q0 25 10 50q-10 24 -10 50q0 63 57 111q54 46 119 46q44 0 103 -27q28 15 60 15
q55 0 95 -39.5t40 -94.5q0 -25 -10 -49q10 -25 10 -51zM509 793q0 28 -21 48.5t-49 20.5t-49 -24q-1 -1 -4 -1l-41 19q-39 18 -69 18q-51 0 -93 -47q-18 -20 -18 -45q0 -27 21 -48t48 -21q28 0 50 24q1 1 3 1l44 -18q43 -19 67 -19q50 0 92 47q19 21 19 45z" />
    <glyph glyph-name="odieresis" unicode="&#xf6;" horiz-adv-x="566" 
d="M641 145q0 -135 -93 -228t-228 -93q-136 0 -228 92.5t-92 228.5q0 25 4 50q-4 25 -4 50q0 136 92 228t228 92t228.5 -92t92.5 -228q0 -26 -4 -51q4 -24 4 -49zM576 245q0 109 -73.5 182t-182.5 73t-182 -73t-73 -182t73 -182.5t182 -73.5t182.5 73.5t73.5 182.5zM441 245
q0 -50 -35.5 -85.5t-85.5 -35.5t-85 35.5t-35 85.5t35 85t85 35t85.5 -35t35.5 -85zM556 748q0 -62 -42.5 -105t-104.5 -43q-55 0 -96 35q-41 -35 -96 -35q-62 0 -105 43t-43 105q0 26 9 49q-9 25 -9 51q0 61 43.5 104t104.5 43q54 0 95 -35q42 35 97 35q61 0 104 -43
t43 -104q0 -27 -8 -51q8 -23 8 -49zM491 848q0 34 -24 58t-58 24q-35 0 -59 -23.5t-24 -58.5t24 -59t59 -24t58.5 24t23.5 59zM300 848q0 34 -24.5 58t-58.5 24t-58.5 -24t-24.5 -58q0 -35 24 -59t59 -24t59 24t24 59z" />
    <glyph glyph-name="divide" unicode="&#xf7;" 
d="M1159 461q0 -56 -45 -99q5 -14 5 -26q0 -46 -66 -55q1 -8 1 -16q0 -73 -88 -90q-12 -79 -92 -79q-45 0 -98 23l1 -1q-5 2 -10 6q-73 -55 -75 -56q-51 -35 -82 -35q-80 0 -200 117l1 -1q-68 -31 -126 -31q-109 0 -161 95q-17 32 -13 42q-49 26 -74 61q77 -1 105 36
q-65 0 -83 93q98 53 130 109q-11 -1 -20 -1q-87 0 -116 79q181 35 224 141q32 111 114 199q64 68 124 68q39 0 76 -28q28 4 54 4q180 0 301 -175q52 -75 85 -175q7 -31 7 -70q0 -49 -14 -95q30 -20 52 -20q43 0 50 69q33 -44 33 -89zM878 533q-48 185 -250 316
q-110 4 -157 -86q-21 -39 -25 -91q-2 -26 -9 -74q14 2 30 2q74 0 101 -37q-6 -4 -17 -4q-20 0 -58.5 13t-58.5 12q-31 -112 -86 -134q-6 -8 -25 -19q24 -119 67 -173q69 -86 100 -115q64 -59 120 -59t118 59q33 31 101 116q39 48 47 126q2 19 2 148zM852 566q-9 -5 -21 1
q-24 13 -42 13q-19 0 -55.5 -12.5t-55.5 -12.5q-12 0 -18 5q27 36 100 36q24 0 51 -6q36 -9 41 -24zM829 476q-11 -12 -24 -12q-9 0 -24 11t-27 14q3 -6 3 -13q0 -31 -31 -31t-31 31q0 10 5 18q-24 -10 -24 -25q0 -4 3 -9l-17 5q17 40 58 42v-1q3 1 6 1q35 1 57 -11
q6 -4 13 -4q13 0 23 13q3 -18 -17 -22q10 -8 20 -8q4 0 7 1zM572 464l-17 -5q3 5 3 10q0 19 -27 24q5 -8 5 -17q0 -31 -31 -31t-31 31q0 7 3 13q-12 -3 -28 -14.5t-26 -11.5q-11 0 -21 8q13 -4 22 9q-14 3 -14 17q0 4 1 8q10 -13 24 -13q7 0 13 4q22 12 57 11q5 0 10 -2
q52 -7 57 -41zM700 245h-176q30 58 87 58q59 0 89 -58zM698 235q-8 -31 -30 -52q-25 -23 -55 -23q-31 0 -54.5 22t-32.5 53h9q30 -23 78 -23t72 23h13z" />
    <glyph glyph-name="oslash" unicode="&#xf8;" horiz-adv-x="804" 
d="M843 247q0 -177 -123 -300t-300 -123q-178 0 -300.5 122.5t-122.5 300.5q0 25 3 50q-3 25 -3 50q0 178 122.5 300.5t300.5 122.5t300.5 -122.5t122.5 -300.5q0 -26 -3 -51q3 -24 3 -49zM778 347q0 151 -103.5 254.5t-254.5 103.5t-254.5 -103.5t-103.5 -254.5
t103.5 -254.5t254.5 -103.5t254.5 103.5t103.5 254.5zM643 347q0 -95 -64 -159t-159 -64q-94 0 -158.5 64t-64.5 159q0 96 64 159.5t159 63.5t159 -64t64 -159zM571 298q-11 34 -38 62q-46 45 -113 45q-54 0 -95 -29.5t-55 -78.5q15 -48 55.5 -78t94.5 -30t95 30t56 79z" />
    <glyph glyph-name="ugrave" unicode="&#xf9;" horiz-adv-x="486" 
d="M561 107q0 -118 -81 -199.5t-199 -81.5q-119 0 -200 81t-81 200v324q0 57 37.5 95t94.5 38t95 -38t38 -95v-224q0 -16 16 -16q15 0 15 16v226q0 57 38 94.5t95 37.5t94.5 -37.5t37.5 -94.5v-326zM496 207v226q0 30 -18.5 48.5t-48.5 18.5t-49 -18.5t-19 -48.5v-226
q0 -34 -23 -57.5t-57 -23.5t-57.5 23.5t-23.5 57.5v224q0 30 -19 49t-49 19t-48.5 -19t-18.5 -49v-224q0 -93 61.5 -154.5t154.5 -61.5q92 0 153.5 62t61.5 154zM442 634q0 -97 -90 -136q-29 -12 -58 -12q-56 0 -94 33q-29 26 -52 79q-19 47 -37 93q-11 27 -11 56q0 27 8 51
q-8 23 -8 49q0 64 42.5 106t104.5 42q57 0 94 -33q29 -25 53 -78q18 -46 37 -93q11 -26 11 -57q0 -27 -8 -51q8 -23 8 -49zM377 734q0 18 -6 32l-47 113q-21 51 -77 51q-16 0 -31 -6q-51 -21 -51 -77q0 -16 6 -31l47 -114q21 -51 76 -51q16 0 32 7q51 22 51 76z" />
    <glyph glyph-name="uacute" unicode="&#xfa;" horiz-adv-x="486" 
d="M465 787q0 -29 -11 -56q-18 -47 -37 -94q-23 -52 -53 -78q-37 -33 -94 -33q-61 0 -104 43t-43 105q0 21 8 50q-8 24 -8 50q0 34 23 91q17 39 35 79q38 91 136 91q63 0 105.5 -42t42.5 -106q0 -25 -8 -49q8 -24 8 -51zM400 887q0 56 -51 77q-15 6 -32 6q-55 0 -76 -51
l-47 -113q-6 -14 -6 -32q0 -54 51 -76q16 -7 31 -7q56 0 77 51l47 114q6 15 6 31zM561 107q0 -118 -81 -199.5t-199 -81.5q-119 0 -200 81t-81 200v324q0 57 37.5 95t94.5 38t95 -38t38 -95v-224q0 -16 16 -16q15 0 15 16v226q0 57 38 94.5t95 37.5t94.5 -37.5t37.5 -94.5
v-326zM496 207v226q0 30 -18.5 48.5t-48.5 18.5t-49 -18.5t-19 -48.5v-226q0 -34 -23 -57.5t-57 -23.5t-57.5 23.5t-23.5 57.5v224q0 30 -19 49t-49 19t-48.5 -19t-18.5 -49v-224q0 -93 61.5 -154.5t154.5 -61.5q92 0 153.5 62t61.5 154z" />
    <glyph glyph-name="ucircumflex" unicode="&#xfb;" horiz-adv-x="486" 
d="M561 107q0 -118 -81 -199.5t-199 -81.5q-119 0 -200 81t-81 200v324q0 57 37.5 95t94.5 38t95 -38t38 -95v-224q0 -16 16 -16q15 0 15 16v226q0 57 38 94.5t95 37.5t94.5 -37.5t37.5 -94.5v-326zM496 207v226q0 30 -18.5 48.5t-48.5 18.5t-49 -18.5t-19 -48.5v-226
q0 -34 -23 -57.5t-57 -23.5t-57.5 23.5t-23.5 57.5v224q0 30 -19 49t-49 19t-48.5 -19t-18.5 -49v-224q0 -93 61.5 -154.5t154.5 -61.5q92 0 153.5 62t61.5 154zM514 644q0 -55 -40 -94.5t-95 -39.5q-52 0 -92 40h-10q-40 -40 -92 -40q-55 0 -94.5 39.5t-39.5 94.5
q0 24 11 48q-11 25 -11 52q0 49 47 103q19 21 86 81q52 46 98 46q45 0 106 -52l86 -85q40 -40 40 -93q0 -27 -10 -51q10 -23 10 -49zM449 744q0 26 -21 47q-76 75 -90 88q-33 30 -56 30q-21 0 -55 -30q-17 -15 -90 -88q-21 -21 -21 -47q0 -28 20.5 -48.5t48.5 -20.5
q26 0 47 21l50 49l50 -49q21 -21 47 -21q28 0 49 20.5t21 48.5z" />
    <glyph glyph-name="udieresis" unicode="&#xfc;" horiz-adv-x="486" 
d="M561 107q0 -118 -81 -199.5t-199 -81.5q-119 0 -200 81t-81 200v324q0 57 37.5 95t94.5 38t95 -38t38 -95v-224q0 -16 16 -16q15 0 15 16v226q0 57 38 94.5t95 37.5t94.5 -37.5t37.5 -94.5v-326zM496 207v226q0 30 -18.5 48.5t-48.5 18.5t-49 -18.5t-19 -48.5v-226
q0 -34 -23 -57.5t-57 -23.5t-57.5 23.5t-23.5 57.5v224q0 30 -19 49t-49 19t-48.5 -19t-18.5 -49v-224q0 -93 61.5 -154.5t154.5 -61.5q92 0 153.5 62t61.5 154zM516 748q0 -62 -42.5 -105t-104.5 -43q-55 0 -96 35q-41 -35 -96 -35q-62 0 -105 43t-43 105q0 26 9 49
q-9 25 -9 51q0 61 43.5 104t104.5 43q54 0 95 -35q42 35 97 35q61 0 104 -43t43 -104q0 -27 -8 -51q8 -23 8 -49zM451 848q0 34 -24 58t-58 24q-35 0 -59 -23.5t-24 -58.5t24 -59t59 -24t58.5 24t23.5 59zM260 848q0 34 -24.5 58t-58.5 24t-58.5 -24t-24.5 -58q0 -35 24 -59
t59 -24t59 24t24 59z" />
    <glyph glyph-name="thorn" unicode="&#xfe;" 
d="M1159 461q0 -56 -45 -99q5 -14 5 -26q0 -46 -66 -55q1 -8 1 -16q0 -73 -88 -90q-12 -79 -92 -79q-45 0 -98 23l1 -1q-5 2 -10 6q-73 -55 -75 -56q-51 -35 -82 -35q-80 0 -200 117l1 -1q-68 -31 -126 -31q-109 0 -161 95q-17 32 -13 42q-49 26 -74 61q77 -1 105 36
q-65 0 -83 93q98 53 130 109q-11 -1 -20 -1q-87 0 -116 79q181 35 224 141q32 111 114 199q64 68 124 68q39 0 76 -28q28 4 54 4q180 0 301 -175q52 -75 85 -175q7 -31 7 -70q0 -49 -14 -95q30 -20 52 -20q43 0 50 69q33 -44 33 -89zM878 533q-48 185 -250 316
q-110 4 -157 -86q-21 -39 -25 -91q-2 -26 -9 -74q14 2 30 2q74 0 101 -37q-6 -4 -17 -4q-20 0 -58.5 13t-58.5 12q-31 -112 -86 -134q-6 -8 -25 -19q24 -119 67 -173q69 -86 100 -115q64 -59 120 -59t118 59q33 31 101 116q39 48 47 126q2 19 2 148zM852 566q-9 -5 -21 1
q-24 13 -42 13q-19 0 -55.5 -12.5t-55.5 -12.5q-12 0 -18 5q27 36 100 36q24 0 51 -6q36 -9 41 -24zM829 476q-11 -12 -24 -12q-9 0 -24 11t-27 14q3 -6 3 -13q0 -31 -31 -31t-31 31q0 10 5 18q-24 -10 -24 -25q0 -4 3 -9l-17 5q17 40 58 42v-1q3 1 6 1q35 1 57 -11
q6 -4 13 -4q13 0 23 13q3 -18 -17 -22q10 -8 20 -8q4 0 7 1zM572 464l-17 -5q3 5 3 10q0 19 -27 24q5 -8 5 -17q0 -31 -31 -31t-31 31q0 7 3 13q-12 -3 -28 -14.5t-26 -11.5q-11 0 -21 8q13 -4 22 9q-14 3 -14 17q0 4 1 8q10 -13 24 -13q7 0 13 4q22 12 57 11q5 0 10 -2
q52 -7 57 -41zM700 245h-176q30 58 87 58q59 0 89 -58zM698 235q-8 -31 -30 -52q-25 -23 -55 -23q-31 0 -54.5 22t-32.5 53h9q30 -23 78 -23t72 23h13z" />
    <glyph glyph-name="ydieresis" unicode="&#xff;" horiz-adv-x="553" 
d="M561 -113q0 -118 -81.5 -199.5t-199.5 -81.5q-59 0 -98 37t-39 95q0 26 9 50q-9 23 -9 50q0 11 2 21q-67 36 -106 101.5t-39 146.5v326q0 57 37.5 94.5t94.5 37.5q61 0 97 -35.5t36 -96.5v-226q0 -16 16 -16q15 0 15 16v226q0 57 38 94.5t95 37.5t94.5 -37.5t37.5 -94.5
v-546zM496 -13v446q0 30 -18.5 48.5t-48.5 18.5t-49 -18.5t-19 -48.5v-226q0 -34 -23 -57.5t-57 -23.5t-57.5 23.5t-23.5 57.5v226q0 67 -68 67q-30 0 -48.5 -18.5t-18.5 -48.5v-226q0 -93 61.5 -154.5t154.5 -61.5q42 0 80 15v-19q0 -33 -24 -57t-57 -24h-4q-30 0 -49 -19
t-19 -49t19 -48.5t49 -18.5h4q92 0 154 62t62 154zM516 748q0 -62 -42.5 -105t-104.5 -43q-55 0 -96 35q-41 -35 -96 -35q-62 0 -105 43t-43 105q0 26 9 49q-9 25 -9 51q0 61 43.5 104t104.5 43q54 0 95 -35q42 35 97 35q61 0 104 -43t43 -104q0 -27 -8 -51q8 -23 8 -49z
M451 848q0 34 -24 58t-58 24q-35 0 -59 -23.5t-24 -58.5t24 -59t59 -24t58.5 24t23.5 59zM260 848q0 34 -24.5 58t-58.5 24t-58.5 -24t-24.5 -58q0 -35 24 -59t59 -24t59 24t24 59z" />
    <glyph glyph-name="dotlessi" unicode="&#x131;" horiz-adv-x="190" 
d="M254 -42q0 -57 -38.5 -94.5t-94.5 -37.5q-57 0 -94.5 37.5t-37.5 94.5v475q0 57 37.5 94.5t94.5 37.5q61 0 97 -35.5t36 -96.5v-475zM189 58v375q0 67 -68 67q-30 0 -48.5 -18.5t-18.5 -48.5v-375q0 -30 18.5 -48.5t48.5 -18.5t49 18.5t19 48.5z" />
    <glyph glyph-name="Lslash" unicode="&#x141;" 
d="M1159 461q0 -56 -45 -99q5 -14 5 -26q0 -46 -66 -55q1 -8 1 -16q0 -73 -88 -90q-12 -79 -92 -79q-45 0 -98 23l1 -1q-5 2 -10 6q-73 -55 -75 -56q-51 -35 -82 -35q-80 0 -200 117l1 -1q-68 -31 -126 -31q-109 0 -161 95q-17 32 -13 42q-49 26 -74 61q77 -1 105 36
q-65 0 -83 93q98 53 130 109q-11 -1 -20 -1q-87 0 -116 79q181 35 224 141q32 111 114 199q64 68 124 68q39 0 76 -28q28 4 54 4q180 0 301 -175q52 -75 85 -175q7 -31 7 -70q0 -49 -14 -95q30 -20 52 -20q43 0 50 69q33 -44 33 -89zM878 533q-48 185 -250 316
q-110 4 -157 -86q-21 -39 -25 -91q-2 -26 -9 -74q14 2 30 2q74 0 101 -37q-6 -4 -17 -4q-20 0 -58.5 13t-58.5 12q-31 -112 -86 -134q-6 -8 -25 -19q24 -119 67 -173q69 -86 100 -115q64 -59 120 -59t118 59q33 31 101 116q39 48 47 126q2 19 2 148zM852 566q-9 -5 -21 1
q-24 13 -42 13q-19 0 -55.5 -12.5t-55.5 -12.5q-12 0 -18 5q27 36 100 36q24 0 51 -6q36 -9 41 -24zM829 476q-11 -12 -24 -12q-9 0 -24 11t-27 14q3 -6 3 -13q0 -31 -31 -31t-31 31q0 10 5 18q-24 -10 -24 -25q0 -4 3 -9l-17 5q17 40 58 42v-1q3 1 6 1q35 1 57 -11
q6 -4 13 -4q13 0 23 13q3 -18 -17 -22q10 -8 20 -8q4 0 7 1zM572 464l-17 -5q3 5 3 10q0 19 -27 24q5 -8 5 -17q0 -31 -31 -31t-31 31q0 7 3 13q-12 -3 -28 -14.5t-26 -11.5q-11 0 -21 8q13 -4 22 9q-14 3 -14 17q0 4 1 8q10 -13 24 -13q7 0 13 4q22 12 57 11q5 0 10 -2
q52 -7 57 -41zM700 245h-176q30 58 87 58q59 0 89 -58zM698 235q-8 -31 -30 -52q-25 -23 -55 -23q-31 0 -54.5 22t-32.5 53h9q30 -23 78 -23t72 23h13z" />
    <glyph glyph-name="lslash" unicode="&#x142;" 
d="M1159 461q0 -56 -45 -99q5 -14 5 -26q0 -46 -66 -55q1 -8 1 -16q0 -73 -88 -90q-12 -79 -92 -79q-45 0 -98 23l1 -1q-5 2 -10 6q-73 -55 -75 -56q-51 -35 -82 -35q-80 0 -200 117l1 -1q-68 -31 -126 -31q-109 0 -161 95q-17 32 -13 42q-49 26 -74 61q77 -1 105 36
q-65 0 -83 93q98 53 130 109q-11 -1 -20 -1q-87 0 -116 79q181 35 224 141q32 111 114 199q64 68 124 68q39 0 76 -28q28 4 54 4q180 0 301 -175q52 -75 85 -175q7 -31 7 -70q0 -49 -14 -95q30 -20 52 -20q43 0 50 69q33 -44 33 -89zM878 533q-48 185 -250 316
q-110 4 -157 -86q-21 -39 -25 -91q-2 -26 -9 -74q14 2 30 2q74 0 101 -37q-6 -4 -17 -4q-20 0 -58.5 13t-58.5 12q-31 -112 -86 -134q-6 -8 -25 -19q24 -119 67 -173q69 -86 100 -115q64 -59 120 -59t118 59q33 31 101 116q39 48 47 126q2 19 2 148zM852 566q-9 -5 -21 1
q-24 13 -42 13q-19 0 -55.5 -12.5t-55.5 -12.5q-12 0 -18 5q27 36 100 36q24 0 51 -6q36 -9 41 -24zM829 476q-11 -12 -24 -12q-9 0 -24 11t-27 14q3 -6 3 -13q0 -31 -31 -31t-31 31q0 10 5 18q-24 -10 -24 -25q0 -4 3 -9l-17 5q17 40 58 42v-1q3 1 6 1q35 1 57 -11
q6 -4 13 -4q13 0 23 13q3 -18 -17 -22q10 -8 20 -8q4 0 7 1zM572 464l-17 -5q3 5 3 10q0 19 -27 24q5 -8 5 -17q0 -31 -31 -31t-31 31q0 7 3 13q-12 -3 -28 -14.5t-26 -11.5q-11 0 -21 8q13 -4 22 9q-14 3 -14 17q0 4 1 8q10 -13 24 -13q7 0 13 4q22 12 57 11q5 0 10 -2
q52 -7 57 -41zM700 245h-176q30 58 87 58q59 0 89 -58zM698 235q-8 -31 -30 -52q-25 -23 -55 -23q-31 0 -54.5 22t-32.5 53h9q30 -23 78 -23t72 23h13z" />
    <glyph glyph-name="OE" unicode="&#x152;" horiz-adv-x="1064" 
d="M1126 -44q0 -57 -38 -94.5t-95 -37.5q-169 0 -290 116q-123 -116 -291 -116q-178 0 -300.5 122.5t-122.5 300.5q0 25 3 50q-3 25 -3 50q0 178 122.5 300.5t300.5 122.5q174 0 291 -115q122 115 290 115q57 0 95 -37.5t38 -94.5q0 -26 -9 -50q9 -24 9 -50q0 -55 -36 -93
q36 -38 36 -93q0 -26 -9 -50q9 -24 9 -50q0 -60 -41 -98q41 -38 41 -98q0 -26 -9 -50q9 -24 9 -50zM1061 56q0 30 -19 49t-49 19q-74 0 -133.5 44.5t-80.5 115.5h214q30 0 49 19t19 49t-19 48.5t-49 18.5h-211q23 68 81 109.5t130 41.5q30 0 49 19t19 49t-19 48.5t-49 18.5
q-87 0 -163.5 -39.5t-126.5 -109.5q-108 149 -291 149q-151 0 -254.5 -103.5t-103.5 -254.5t103.5 -254.5t254.5 -103.5q86 0 163 39.5t128 109.5q50 -70 126.5 -109.5t163.5 -39.5q30 0 49 18.5t19 48.5zM635 347q0 -95 -64 -159t-159 -64t-159 64t-64 159q0 96 63.5 159.5
t159.5 63.5q95 0 159 -64t64 -159zM563 298q-11 34 -38 62q-46 45 -113 45q-55 0 -95.5 -29.5t-55.5 -78.5q15 -48 56 -78t95 -30t95 30t56 79z" />
    <glyph glyph-name="oe" unicode="&#x153;" horiz-adv-x="891" 
d="M955 276q0 -63 -51 -104q-8 -7 -27 -29q30 -36 30 -86q0 -26 -9 -50q9 -23 9 -50q0 -56 -38.5 -94.5t-94.5 -38.5h-89q-106 0 -188 61q-82 -61 -188 -61q-136 0 -228 92.5t-92 228.5q0 25 4 50q-4 25 -4 50q0 136 92 228t228 92q106 0 188 -60q82 60 188 60q89 0 173 -49
q97 -56 97 -140q0 -27 -10 -50q10 -24 10 -50zM890 376q0 25 -20 46q-76 78 -185 78q-112 0 -188 -82q-76 82 -188 82q-109 0 -182 -73t-73 -182t73 -182.5t182 -73.5q112 0 188 83q76 -83 188 -83h89q29 0 48.5 19.5t19.5 48.5q0 30 -19 48.5t-49 18.5h-89q-50 0 -85 35.5
t-35 85.5t35 85t85 35q13 0 26 -2l-72 -71q-22 -22 -22 -47q0 -28 21 -49t49 -21q24 0 46 21l128 125q29 22 29 55zM430 245q0 -50 -35.5 -85.5t-85.5 -35.5t-85 35.5t-35 85.5t35 85t85 35t85.5 -35t35.5 -85z" />
    <glyph glyph-name="Scaron" unicode="&#x160;" horiz-adv-x="444" 
d="M521 538q0 -57 -35.5 -92.5t-89.5 -39.5l-3 -320q-1 -109 -76.5 -185t-184.5 -76q-57 0 -94.5 37.5t-37.5 94.5q0 26 9 50q-9 24 -9 50q0 56 37 94t93 39l-3 219q0 14 1 29l-1 71q-2 109 74.5 185t186.5 76q57 0 95 -37.5t38 -94.5q0 -27 -9 -51q9 -23 9 -49zM456 638
q0 30 -19 48.5t-49 18.5q-83 0 -139.5 -56.5t-56.5 -139.5l1 -323q0 -26 -17.5 -43.5t-43.5 -17.5q-30 0 -48.5 -19t-18.5 -49t18.5 -48.5t48.5 -18.5q82 0 139 56.5t57 139.5l-1 323q0 56 64.5 61.5t64.5 67.5zM484 813q0 -53 -40 -93q-84 -84 -86 -85q-60 -52 -106 -52
t-106 52q-6 5 -85 85q-40 40 -40 93q0 26 10 50q-10 24 -10 50q0 54 40 94t94 40q53 0 93 -40h8q40 40 93 40q55 0 95 -39.5t40 -94.5q0 -26 -10 -50q10 -24 10 -50zM419 913q0 28 -21 48.5t-49 20.5q-26 0 -47 -21l-50 -50l-50 50q-21 21 -47 21q-27 0 -48 -21t-21 -48
q0 -26 21 -47q78 -79 90 -89q34 -29 55 -29q23 0 56 29q8 7 90 89q21 21 21 47z" />
    <glyph glyph-name="scaron" unicode="&#x161;" horiz-adv-x="446" 
d="M523 333q0 -54 -35.5 -91t-89.5 -41q0 1 -2 4t-2 4q-1 -25 -1 -63v-19q0 -75 -11 -115q-16 -59 -65 -109q-76 -76 -185 -76q-57 0 -94.5 37.5t-37.5 94.5q0 26 9 50q-9 24 -9 50q0 56 36.5 94t92.5 39v12q0 11 1 23q-1 13 -1 22v55q0 110 75.5 185.5t185.5 75.5
q57 0 95 -37.5t38 -94.5q0 -27 -9 -50q9 -23 9 -50zM458 433q0 30 -19 48.5t-49 18.5q-83 0 -139.5 -56.5t-56.5 -139.5v-55q0 -7 -1 -41v-20q0 -26 -17.5 -43.5t-43.5 -17.5q-30 0 -48.5 -19t-18.5 -49t18.5 -48.5t48.5 -18.5q82 0 138.5 57t57.5 139l1 116q0 15 2.5 22.5
t15.5 20.5t45.5 18.5t49 22t16.5 45.5zM484 613q0 -53 -40 -93q-84 -84 -86 -85q-60 -52 -106 -52t-106 52q-6 5 -85 85q-40 40 -40 93q0 26 10 50q-10 24 -10 50q0 54 40 94t94 40q53 0 93 -40h8q40 40 93 40q55 0 95 -39.5t40 -94.5q0 -26 -10 -50q10 -24 10 -50zM419 713
q0 28 -21 48.5t-49 20.5q-26 0 -47 -21l-50 -50l-50 50q-21 21 -47 21q-27 0 -48 -21t-21 -48q0 -26 21 -47q78 -79 90 -89q34 -29 55 -29q23 0 56 29q8 7 90 89q21 21 21 47z" />
    <glyph glyph-name="Ydieresis" unicode="&#x178;" horiz-adv-x="532" 
d="M561 107q0 -118 -81 -199.5t-199 -81.5q-119 0 -200 81t-81 200v10q0 19 5 37q-5 26 -5 53v10q0 42 22 75q-22 52 -22 111v235q0 57 37.5 94.5t94.5 37.5t95 -37.5t38 -94.5v-135q0 -16 16 -16q15 0 15 16v135q0 56 38.5 94t94.5 38q57 0 94.5 -37.5t37.5 -94.5v-531z
M496 207v431q0 30 -18.5 48.5t-48.5 18.5q-29 0 -48.5 -19t-19.5 -48v-135q-3 -13 -6 -23q-7 -25 -17 -34q-23 -24 -57 -24t-57.5 23.5t-23.5 57.5v135q0 30 -19 48.5t-49 18.5t-48.5 -18.5t-18.5 -48.5v-135q0 -93 61.5 -154.5t154.5 -61.5q42 0 80 16v-96q0 -34 -23 -57.5
t-57 -23.5t-57.5 23.5t-23.5 57.5v10q0 30 -19 48.5t-49 18.5t-48.5 -18.5t-18.5 -48.5v-10q0 -93 61.5 -154.5t154.5 -61.5q92 0 153.5 62t61.5 154zM516 948q0 -62 -42.5 -105t-104.5 -43q-55 0 -96 35q-41 -35 -96 -35q-62 0 -105 43t-43 105q0 26 9 49q-9 25 -9 51
q0 61 43.5 104t104.5 43q54 0 95 -35q42 35 97 35q61 0 104 -43t43 -104q0 -27 -8 -51q8 -23 8 -49zM451 1048q0 34 -24 58t-58 24q-35 0 -59 -23.5t-24 -58.5t24 -59t59 -24t58.5 24t23.5 59zM260 1048q0 34 -24.5 58t-58.5 24t-58.5 -24t-24.5 -58q0 -35 24 -59t59 -24
t59 24t24 59z" />
    <glyph glyph-name="Zcaron" unicode="&#x17d;" horiz-adv-x="479" 
d="M601 548q0 -38 -23 -77l-165 -280h55q57 0 94.5 -38t37.5 -95q0 -26 -9 -50q9 -24 9 -50q0 -57 -37.5 -94.5t-94.5 -37.5h-345q-56 0 -96 33t-40 89q0 27 10 52q-10 22 -10 48q0 41 22 78l164 279q-55 2 -91 39.5t-36 93.5q0 26 9 50q-9 24 -9 50q0 57 37.5 94.5
t94.5 37.5h286q57 0 94 -28q43 -33 43 -94q0 -24 -9 -49q9 -23 9 -51zM536 648q0 57 -72 57h-286q-30 0 -48.5 -18.5t-18.5 -48.5t18.5 -49t48.5 -19h168l-281 -477q-13 -22 -13 -45q0 -28 21 -42.5t50 -14.5h345q30 0 48.5 18.5t18.5 48.5t-18.5 49t-48.5 19h-227l281 478
q14 24 14 44zM504 813q0 -53 -40 -93q-84 -84 -86 -85q-60 -52 -106 -52t-106 52q-6 5 -85 85q-40 40 -40 93q0 26 10 50q-10 24 -10 50q0 54 40 94t94 40q53 0 93 -40h8q40 40 93 40q55 0 95 -39.5t40 -94.5q0 -26 -10 -50q10 -24 10 -50zM439 913q0 28 -21 48.5t-49 20.5
q-26 0 -47 -21l-50 -50l-50 50q-21 21 -47 21q-27 0 -48 -21t-21 -48q0 -26 21 -47q78 -79 90 -89q34 -29 55 -29q23 0 56 29q8 7 90 89q21 21 21 47z" />
    <glyph glyph-name="zcaron" unicode="&#x17e;" horiz-adv-x="437" 
d="M575 356q0 -71 -94 -187q58 -38 58 -111q0 -26 -9 -49q9 -24 9 -51q0 -56 -38 -94t-94 -38h-280q-53 0 -89 21q-49 28 -49 89q0 24 10 52q-10 21 -10 48q0 72 95 187q-56 39 -56 110q0 27 9 50q-9 24 -9 50q0 57 37.5 94.5t94.5 37.5h278q52 0 88 -21q49 -28 49 -88
q0 -24 -10 -52q10 -21 10 -48zM510 456q0 44 -72 44h-278q-30 0 -48.5 -18.5t-18.5 -48.5q0 -29 19 -48.5t48 -19.5h134l-148 -169q-92 -109 -92 -160q0 -45 73 -45h280q29 0 48 19t19 48q0 30 -18.5 49t-48.5 19h-136q110 125 147 169q92 110 92 161zM484 613
q0 -53 -40 -93q-84 -84 -86 -85q-60 -52 -106 -52t-106 52q-6 5 -85 85q-40 40 -40 93q0 26 10 50q-10 24 -10 50q0 54 40 94t94 40q53 0 93 -40h8q40 40 93 40q55 0 95 -39.5t40 -94.5q0 -26 -10 -50q10 -24 10 -50zM419 713q0 28 -21 48.5t-49 20.5q-26 0 -47 -21l-50 -50
l-50 50q-21 21 -47 21q-27 0 -48 -21t-21 -48q0 -26 21 -47q78 -79 90 -89q34 -29 55 -29q23 0 56 29q8 7 90 89q21 21 21 47z" />
    <glyph glyph-name="florin" unicode="&#x192;" horiz-adv-x="475" 
d="M505 537q0 -57 -37.5 -94.5t-94.5 -37.5h-14q-16 0 -16 -16v-14q46 -10 74 -45.5t28 -83.5q0 -26 -9 -50q9 -24 9 -50q0 -48 -28 -84t-74 -46v-116q0 -118 -81.5 -199.5t-199.5 -81.5h-14q-57 0 -94.5 38t-37.5 95q0 26 9 50q-9 24 -9 50q0 57 37.5 94.5t94.5 37.5h14
q16 0 16 16v20q-40 13 -64 47.5t-24 78.5q0 26 9 50q-9 24 -9 50q0 44 23.5 78t64.5 47v118q0 118 81.5 199.5t199.5 81.5h14q61 0 96.5 -36t35.5 -97q0 -25 -8 -48q8 -24 8 -52zM440 637q0 68 -67 68h-14q-92 0 -154 -62t-62 -154v-176h-21q-30 0 -48.5 -18.5t-18.5 -48.5
t18.5 -49t48.5 -19h21v-178q0 -34 -23.5 -57.5t-57.5 -23.5h-14q-30 0 -48.5 -18.5t-18.5 -48.5t18.5 -49t48.5 -19h14q92 0 154 62t62 154v178h35q30 0 48.5 19t18.5 49t-18.5 48.5t-48.5 18.5h-35v176q0 34 23.5 57.5t57.5 23.5h14q30 0 48.5 18.5t18.5 48.5z" />
    <glyph glyph-name="circumflex" unicode="&#x2c6;" horiz-adv-x="389" 
d="M454 674q0 -55 -40 -94.5t-95 -39.5q-52 0 -92 40h-10q-40 -40 -92 -40q-55 0 -94.5 39.5t-39.5 94.5q0 24 11 48q-11 25 -11 52q0 49 47 103q19 21 86 81q52 46 98 46q45 0 106 -52l86 -85q40 -40 40 -93q0 -27 -10 -51q10 -23 10 -49zM389 774q0 26 -21 47
q-76 75 -90 88q-33 30 -56 30q-21 0 -55 -30q-17 -15 -90 -88q-21 -21 -21 -47q0 -28 20.5 -48.5t48.5 -20.5q26 0 47 21l50 49l50 -49q21 -21 47 -21q28 0 49 20.5t21 48.5z" />
    <glyph glyph-name="caron" unicode="&#x2c7;" horiz-adv-x="389" 
d="M454 773q0 -53 -40 -93q-84 -84 -86 -85q-60 -52 -106 -52t-106 52q-6 5 -85 85q-40 40 -40 93q0 26 10 50q-10 24 -10 50q0 54 40 94t94 40q53 0 93 -40h8q40 40 93 40q55 0 95 -39.5t40 -94.5q0 -26 -10 -50q10 -24 10 -50zM389 873q0 28 -21 48.5t-49 20.5
q-26 0 -47 -21l-50 -50l-50 50q-21 21 -47 21q-27 0 -48 -21t-21 -48q0 -26 21 -47q78 -79 90 -89q34 -29 55 -29q23 0 56 29q8 7 90 89q21 21 21 47z" />
    <glyph glyph-name="breve" unicode="&#x2d8;" horiz-adv-x="436" 
d="M455 752q0 -88 -62.5 -150.5t-150.5 -62.5t-150.5 62.5t-62.5 150.5q0 24 7 45q-7 27 -7 55q0 57 38 95t95 38q46 0 80 -26q35 26 81 26q57 0 94.5 -38t37.5 -95q0 -28 -7 -55q7 -21 7 -45zM390 852q0 30 -18.5 49t-48.5 19t-49 -19t-19 -49q0 -13 -13 -13t-13 13
q0 30 -18.5 49t-48.5 19t-49 -19t-19 -49q0 -61 43.5 -104.5t104.5 -43.5t104.5 43.5t43.5 104.5z" />
    <glyph glyph-name="dotaccent" unicode="&#x2d9;" horiz-adv-x="436" 
d="M390 687q0 -62 -43 -105t-105 -43t-105 43t-43 105q0 26 9 49q-9 25 -9 51q0 61 43.5 104t104.5 43t104.5 -43t43.5 -104q0 -27 -8 -51q8 -23 8 -49zM325 787q0 34 -24.5 58t-58.5 24t-58.5 -24t-24.5 -58q0 -35 24 -59t59 -24t59 24t24 59z" />
    <glyph glyph-name="ring" unicode="&#x2da;" horiz-adv-x="263" 
d="M327 711q0 -70 -49.5 -119.5t-119.5 -49.5t-119.5 49.5t-49.5 119.5q0 26 7 50q-7 24 -7 50q0 70 49.5 119.5t119.5 49.5t119.5 -49.5t49.5 -119.5q0 -26 -7 -50q7 -24 7 -50zM262 811q0 43 -30.5 73.5t-73.5 30.5t-73.5 -30.5t-30.5 -73.5t30.5 -73.5t73.5 -30.5
t73.5 30.5t30.5 73.5zM187 811q0 -29 -29 -29t-29 29t29 29t29 -29z" />
    <glyph glyph-name="ogonek" unicode="&#x2db;" horiz-adv-x="498" 
d="M491 -270q0 -30 -18.5 -48.5t-48.5 -18.5h-44q-93 0 -154.5 61.5t-61.5 154.5v121h135v-121q0 -34 23.5 -57.5t57.5 -23.5h44q30 0 48.5 -19t18.5 -49z" />
    <glyph glyph-name="tilde" unicode="&#x2dc;" horiz-adv-x="393" 
d="M458 683q0 -62 -58 -111q-54 -46 -118 -46q-37 0 -103 28q-28 -16 -61 -16q-54 0 -94 40t-40 94q0 25 10 50q-10 24 -10 50q0 63 57 111q54 46 119 46q44 0 103 -27q28 15 60 15q55 0 95 -39.5t40 -94.5q0 -25 -10 -49q10 -25 10 -51zM393 783q0 28 -21 48.5t-49 20.5
t-49 -24q-1 -1 -4 -1l-41 19q-39 18 -69 18q-51 0 -93 -47q-18 -20 -18 -45q0 -27 21 -48t48 -21q28 0 50 24q1 1 3 1l44 -18q43 -19 67 -19q50 0 92 47q19 21 19 45z" />
    <glyph glyph-name="hungarumlaut" unicode="&#x2dd;" horiz-adv-x="932" 
d="M932 60q0 -25 -17.5 -42.5t-42.5 -17.5h-758q-25 0 -42.5 17.5t-17.5 42.5v680q0 25 17.5 42.5t42.5 17.5h758q25 0 42.5 -17.5t17.5 -42.5v-680zM885 563v57q0 32 -22.5 54t-54.5 22t-54 -22t-22 -54t22.5 -54.5t54.5 -22.5q20 0 20 21q0 20 -20 20q-15 0 -25.5 10.5
t-10.5 25.5q0 36 35 36q36 0 36 -36v-57q0 -20 21 -20q20 0 20 20zM608 735q0 25 -25 25t-25 -25t25 -25t25 25zM716 564q0 20 -20 20q-15 0 -25.5 10.5t-10.5 25.5t10.5 25.5t25.5 10.5q20 0 20 20t-20 20q-32 0 -54 -22t-22 -54t22 -54t54 -22q20 0 20 20zM603 564v112
q0 20 -21 20q-20 0 -20 -20v-112q0 -20 20 -20q21 0 21 20zM547 676q0 20 -20 20q-25 0 -42 -16.5t-17 -41.5v-35q0 -12 -19.5 -18t-19.5 -21q0 -20 20 -20q25 0 42 17t17 42v35q0 12 19.5 18t19.5 20zM885 229v80q0 45 -31.5 76.5t-76.5 31.5q-46 0 -77 -31t-31 -77
q0 -45 31.5 -76.5t76.5 -31.5q29 0 29 29q0 28 -29 28q-21 0 -36 15t-15 36q0 22 14.5 36.5t36.5 14.5q21 0 36 -15t15 -36v-80q0 -28 28 -28q29 0 29 28zM464 676q0 20 -20 20q-24 0 -41 -17t-17 -41v-17q0 -6 -1 -12v-6q0 -12 -19 -18t-19 -21q0 -20 20 -20q25 0 42 17
t17 42v35q0 12 19 18t19 20zM886 51v92q0 10 -11 10t-11 -10v-92q0 -11 11 -11t11 11zM202 735q0 25 -25 25t-25 -25t25 -25t25 25zM855 75v36q0 10 -10 10q-11 0 -11 -10v-36q0 -13 -13 -13t-13 13v36q0 10 -11 10q-10 0 -10 -10v-36q0 -35 34 -35t34 35zM350 659
q0 8 -6 14q-22 23 -55 23q-32 0 -54 -22t-22 -54t22 -54.5t54 -22.5h27q20 0 20 21q0 20 -20 20h-27q-15 0 -25.5 10.5t-10.5 25.5t10.5 25.5t25.5 10.5q4 0 8 -1l-22 -21q-6 -7 -6 -14q0 -21 20 -21q9 0 14 6l39 38q8 6 8 16zM646 309q0 45 -31.5 76.5t-76.5 31.5
q-28 0 -28 -28q0 -29 28 -29q21 0 36 -15t15 -36t-15 -35.5t-36 -14.5q-22 0 -36.5 14.5t-14.5 36.5v165q0 29 -28 29q-29 0 -29 -29v-166q0 -45 31.5 -76t76.5 -31t76.5 31t31.5 76zM778 86q0 11 -10 11h-37v23q0 12 13 12q12 0 12 -13v-1q0 -11 11 -11t11 11v1
q0 35 -34 35q-35 0 -35 -34v-69q0 -11 11 -11t11 11v24h37q10 0 10 11zM703 142q0 13 -13 13q-14 0 -14 -13t14 -13q13 0 13 13zM700 51v60q0 10 -11 10q-10 0 -10 -10v-60q0 -11 10 -11q11 0 11 11zM197 543v133q0 20 -20 20t-20 -20v-133q0 -25 -24 -25h-1q-21 0 -21 -20
t21 -20h1q27 0 45.5 19t18.5 46zM408 230v244q0 28 -29 28t-29 -28v-244q0 -28 29 -28t29 28zM670 75v1q0 11 -10 11q-11 0 -11 -11v-1q0 -13 -13 -13t-13 13v24h37q10 0 10 11t-10 11h-37v8q0 11 -11 11q-10 0 -10 -11v-54q0 -35 34 -35t34 35zM593 75v36q0 10 -11 10
t-11 -10v-36q0 -13 -12 -13q-13 0 -13 13v36q0 10 -11 10t-11 -10v-36q0 -35 35 -35q34 0 34 35zM516 51v30q0 17 -12 28.5t-29 11.5t-29 -11.5t-12 -28.5t12 -29t29 -12q11 0 11 11q0 7 -11.5 11t-13.5 7q-5 4 -5 12q0 19 19 19t19 -19v-30q0 -11 11 -11t11 11zM327 229v80
q0 45 -31.5 76.5t-76.5 31.5q-46 0 -77 -31t-31 -77q0 -45 31.5 -76.5t76.5 -31.5q29 0 29 29q0 28 -29 28q-21 0 -35.5 15t-14.5 36q0 22 14 36.5t36 14.5q21 0 36 -15t15 -36v-80q0 -28 28 -28q29 0 29 28zM426 102q0 4 -3 7q-12 12 -30 12q-17 0 -28.5 -11.5t-11.5 -28.5
t11.5 -29t28.5 -12h14q11 0 11 11t-11 11h-14q-19 0 -19 19t19 19q2 0 4 -1l-11 -11q-4 -3 -4 -7q0 -11 11 -11q5 0 8 3l20 20q5 3 5 9zM344 81q0 17 -12 28.5t-29 11.5q-10 0 -10 -10q0 -9 8 -11q21 -5 21 -19q0 -19 -19 -19t-19 19v62q0 11 -11 11q-10 0 -10 -11v-62
q0 -17 11.5 -29t28.5 -12t29 12t12 29zM137 142q0 13 -13 13t-13 -13t13 -13t13 13zM206 111q0 10 -11 10q-31 0 -31 -31v-18q0 -7 -10 -10t-10 -11q0 -11 10 -11q31 0 31 32v18q0 7 10.5 10t10.5 11zM135 51v60q0 10 -11 10t-11 -10v-60q0 -11 11 -11t11 11z" />
    <glyph glyph-name="Delta" unicode="&#x394;" 
d="M1159 461q0 -56 -45 -99q5 -14 5 -26q0 -46 -66 -55q1 -8 1 -16q0 -73 -88 -90q-12 -79 -92 -79q-45 0 -98 23l1 -1q-5 2 -10 6q-73 -55 -75 -56q-51 -35 -82 -35q-80 0 -200 117l1 -1q-68 -31 -126 -31q-109 0 -161 95q-17 32 -13 42q-49 26 -74 61q77 -1 105 36
q-65 0 -83 93q98 53 130 109q-11 -1 -20 -1q-87 0 -116 79q181 35 224 141q32 111 114 199q64 68 124 68q39 0 76 -28q28 4 54 4q180 0 301 -175q52 -75 85 -175q7 -31 7 -70q0 -49 -14 -95q30 -20 52 -20q43 0 50 69q33 -44 33 -89zM878 533q-48 185 -250 316
q-110 4 -157 -86q-21 -39 -25 -91q-2 -26 -9 -74q14 2 30 2q74 0 101 -37q-6 -4 -17 -4q-20 0 -58.5 13t-58.5 12q-31 -112 -86 -134q-6 -8 -25 -19q24 -119 67 -173q69 -86 100 -115q64 -59 120 -59t118 59q33 31 101 116q39 48 47 126q2 19 2 148zM852 566q-9 -5 -21 1
q-24 13 -42 13q-19 0 -55.5 -12.5t-55.5 -12.5q-12 0 -18 5q27 36 100 36q24 0 51 -6q36 -9 41 -24zM829 476q-11 -12 -24 -12q-9 0 -24 11t-27 14q3 -6 3 -13q0 -31 -31 -31t-31 31q0 10 5 18q-24 -10 -24 -25q0 -4 3 -9l-17 5q17 40 58 42v-1q3 1 6 1q35 1 57 -11
q6 -4 13 -4q13 0 23 13q3 -18 -17 -22q10 -8 20 -8q4 0 7 1zM572 464l-17 -5q3 5 3 10q0 19 -27 24q5 -8 5 -17q0 -31 -31 -31t-31 31q0 7 3 13q-12 -3 -28 -14.5t-26 -11.5q-11 0 -21 8q13 -4 22 9q-14 3 -14 17q0 4 1 8q10 -13 24 -13q7 0 13 4q22 12 57 11q5 0 10 -2
q52 -7 57 -41zM700 245h-176q30 58 87 58q59 0 89 -58zM698 235q-8 -31 -30 -52q-25 -23 -55 -23q-31 0 -54.5 22t-32.5 53h9q30 -23 78 -23t72 23h13z" />
    <glyph glyph-name="Delta" unicode="&#x2206;" 
d="M1159 461q0 -56 -45 -99q5 -14 5 -26q0 -46 -66 -55q1 -8 1 -16q0 -73 -88 -90q-12 -79 -92 -79q-45 0 -98 23l1 -1q-5 2 -10 6q-73 -55 -75 -56q-51 -35 -82 -35q-80 0 -200 117l1 -1q-68 -31 -126 -31q-109 0 -161 95q-17 32 -13 42q-49 26 -74 61q77 -1 105 36
q-65 0 -83 93q98 53 130 109q-11 -1 -20 -1q-87 0 -116 79q181 35 224 141q32 111 114 199q64 68 124 68q39 0 76 -28q28 4 54 4q180 0 301 -175q52 -75 85 -175q7 -31 7 -70q0 -49 -14 -95q30 -20 52 -20q43 0 50 69q33 -44 33 -89zM878 533q-48 185 -250 316
q-110 4 -157 -86q-21 -39 -25 -91q-2 -26 -9 -74q14 2 30 2q74 0 101 -37q-6 -4 -17 -4q-20 0 -58.5 13t-58.5 12q-31 -112 -86 -134q-6 -8 -25 -19q24 -119 67 -173q69 -86 100 -115q64 -59 120 -59t118 59q33 31 101 116q39 48 47 126q2 19 2 148zM852 566q-9 -5 -21 1
q-24 13 -42 13q-19 0 -55.5 -12.5t-55.5 -12.5q-12 0 -18 5q27 36 100 36q24 0 51 -6q36 -9 41 -24zM829 476q-11 -12 -24 -12q-9 0 -24 11t-27 14q3 -6 3 -13q0 -31 -31 -31t-31 31q0 10 5 18q-24 -10 -24 -25q0 -4 3 -9l-17 5q17 40 58 42v-1q3 1 6 1q35 1 57 -11
q6 -4 13 -4q13 0 23 13q3 -18 -17 -22q10 -8 20 -8q4 0 7 1zM572 464l-17 -5q3 5 3 10q0 19 -27 24q5 -8 5 -17q0 -31 -31 -31t-31 31q0 7 3 13q-12 -3 -28 -14.5t-26 -11.5q-11 0 -21 8q13 -4 22 9q-14 3 -14 17q0 4 1 8q10 -13 24 -13q7 0 13 4q22 12 57 11q5 0 10 -2
q52 -7 57 -41zM700 245h-176q30 58 87 58q59 0 89 -58zM698 235q-8 -31 -30 -52q-25 -23 -55 -23q-31 0 -54.5 22t-32.5 53h9q30 -23 78 -23t72 23h13z" />
    <glyph glyph-name="Omega" unicode="&#x3a9;" 
d="M1159 461q0 -56 -45 -99q5 -14 5 -26q0 -46 -66 -55q1 -8 1 -16q0 -73 -88 -90q-12 -79 -92 -79q-45 0 -98 23l1 -1q-5 2 -10 6q-73 -55 -75 -56q-51 -35 -82 -35q-80 0 -200 117l1 -1q-68 -31 -126 -31q-109 0 -161 95q-17 32 -13 42q-49 26 -74 61q77 -1 105 36
q-65 0 -83 93q98 53 130 109q-11 -1 -20 -1q-87 0 -116 79q181 35 224 141q32 111 114 199q64 68 124 68q39 0 76 -28q28 4 54 4q180 0 301 -175q52 -75 85 -175q7 -31 7 -70q0 -49 -14 -95q30 -20 52 -20q43 0 50 69q33 -44 33 -89zM878 533q-48 185 -250 316
q-110 4 -157 -86q-21 -39 -25 -91q-2 -26 -9 -74q14 2 30 2q74 0 101 -37q-6 -4 -17 -4q-20 0 -58.5 13t-58.5 12q-31 -112 -86 -134q-6 -8 -25 -19q24 -119 67 -173q69 -86 100 -115q64 -59 120 -59t118 59q33 31 101 116q39 48 47 126q2 19 2 148zM852 566q-9 -5 -21 1
q-24 13 -42 13q-19 0 -55.5 -12.5t-55.5 -12.5q-12 0 -18 5q27 36 100 36q24 0 51 -6q36 -9 41 -24zM829 476q-11 -12 -24 -12q-9 0 -24 11t-27 14q3 -6 3 -13q0 -31 -31 -31t-31 31q0 10 5 18q-24 -10 -24 -25q0 -4 3 -9l-17 5q17 40 58 42v-1q3 1 6 1q35 1 57 -11
q6 -4 13 -4q13 0 23 13q3 -18 -17 -22q10 -8 20 -8q4 0 7 1zM572 464l-17 -5q3 5 3 10q0 19 -27 24q5 -8 5 -17q0 -31 -31 -31t-31 31q0 7 3 13q-12 -3 -28 -14.5t-26 -11.5q-11 0 -21 8q13 -4 22 9q-14 3 -14 17q0 4 1 8q10 -13 24 -13q7 0 13 4q22 12 57 11q5 0 10 -2
q52 -7 57 -41zM700 245h-176q30 58 87 58q59 0 89 -58zM698 235q-8 -31 -30 -52q-25 -23 -55 -23q-31 0 -54.5 22t-32.5 53h9q30 -23 78 -23t72 23h13z" />
    <glyph glyph-name="Omega" unicode="&#x2126;" 
d="M1159 461q0 -56 -45 -99q5 -14 5 -26q0 -46 -66 -55q1 -8 1 -16q0 -73 -88 -90q-12 -79 -92 -79q-45 0 -98 23l1 -1q-5 2 -10 6q-73 -55 -75 -56q-51 -35 -82 -35q-80 0 -200 117l1 -1q-68 -31 -126 -31q-109 0 -161 95q-17 32 -13 42q-49 26 -74 61q77 -1 105 36
q-65 0 -83 93q98 53 130 109q-11 -1 -20 -1q-87 0 -116 79q181 35 224 141q32 111 114 199q64 68 124 68q39 0 76 -28q28 4 54 4q180 0 301 -175q52 -75 85 -175q7 -31 7 -70q0 -49 -14 -95q30 -20 52 -20q43 0 50 69q33 -44 33 -89zM878 533q-48 185 -250 316
q-110 4 -157 -86q-21 -39 -25 -91q-2 -26 -9 -74q14 2 30 2q74 0 101 -37q-6 -4 -17 -4q-20 0 -58.5 13t-58.5 12q-31 -112 -86 -134q-6 -8 -25 -19q24 -119 67 -173q69 -86 100 -115q64 -59 120 -59t118 59q33 31 101 116q39 48 47 126q2 19 2 148zM852 566q-9 -5 -21 1
q-24 13 -42 13q-19 0 -55.5 -12.5t-55.5 -12.5q-12 0 -18 5q27 36 100 36q24 0 51 -6q36 -9 41 -24zM829 476q-11 -12 -24 -12q-9 0 -24 11t-27 14q3 -6 3 -13q0 -31 -31 -31t-31 31q0 10 5 18q-24 -10 -24 -25q0 -4 3 -9l-17 5q17 40 58 42v-1q3 1 6 1q35 1 57 -11
q6 -4 13 -4q13 0 23 13q3 -18 -17 -22q10 -8 20 -8q4 0 7 1zM572 464l-17 -5q3 5 3 10q0 19 -27 24q5 -8 5 -17q0 -31 -31 -31t-31 31q0 7 3 13q-12 -3 -28 -14.5t-26 -11.5q-11 0 -21 8q13 -4 22 9q-14 3 -14 17q0 4 1 8q10 -13 24 -13q7 0 13 4q22 12 57 11q5 0 10 -2
q52 -7 57 -41zM700 245h-176q30 58 87 58q59 0 89 -58zM698 235q-8 -31 -30 -52q-25 -23 -55 -23q-31 0 -54.5 22t-32.5 53h9q30 -23 78 -23t72 23h13z" />
    <glyph glyph-name="pi" unicode="&#x3c0;" horiz-adv-x="547" 
d="M572 -42q0 -57 -37.5 -94.5t-94.5 -37.5q-66 0 -106 50q-38 -50 -105 -50q-56 0 -94.5 38t-38.5 94v243q-46 9 -76 46t-30 84q0 27 9 51q-9 24 -9 49q0 57 38 94.5t95 37.5h319q56 0 93 -38t37 -94v-473zM507 58v373q0 29 -18 48t-47 19h-319q-30 0 -49 -18.5t-19 -48.5
q0 -29 19.5 -48.5t48.5 -19.5h38v-305q0 -30 19 -48.5t49 -18.5t48.5 18.5t18.5 48.5v305h76v-305q0 -30 19 -48.5t49 -18.5t48.5 18.5t18.5 48.5z" />
    <glyph glyph-name="endash" unicode="&#x2013;" horiz-adv-x="422" 
d="M488 146q0 -57 -38 -95t-95 -38h-236q-57 0 -95 38t-38 95q0 26 9 50q-9 24 -9 50q0 57 38 94.5t95 37.5h236q57 0 95 -37.5t38 -94.5q0 -27 -9 -50q9 -24 9 -50zM423 246q0 30 -19 48.5t-49 18.5h-236q-30 0 -49 -18.5t-19 -48.5t19 -49t49 -19h236q30 0 49 19t19 49z
" />
    <glyph glyph-name="emdash" unicode="&#x2014;" horiz-adv-x="623" 
d="M688 146q0 -57 -38 -95t-95 -38h-436q-57 0 -95 38t-38 95q0 26 9 50q-9 24 -9 50q0 57 38 94.5t95 37.5h436q57 0 95 -37.5t38 -94.5q0 -27 -9 -50q9 -24 9 -50zM623 246q0 30 -19 48.5t-49 18.5h-436q-30 0 -49 -18.5t-19 -48.5t19 -49t49 -19h436q30 0 49 19t19 49z
" />
    <glyph glyph-name="quoteleft" unicode="&#x2018;" horiz-adv-x="259" 
d="M296 399q0 -61 -43.5 -104t-104.5 -43t-104.5 43t-43.5 104v223q0 61 43.5 104.5t104.5 43.5t104.5 -43.5t43.5 -104.5v-223zM231 499v123q0 34 -24.5 58.5t-58.5 24.5t-58.5 -24.5t-24.5 -58.5v-123q0 -34 24.5 -58t58.5 -24t58.5 24t24.5 58z" />
    <glyph glyph-name="quoteright" unicode="&#x2019;" horiz-adv-x="259" 
d="M296 399q0 -61 -43.5 -104t-104.5 -43t-104.5 43t-43.5 104v223q0 61 43.5 104.5t104.5 43.5t104.5 -43.5t43.5 -104.5v-223zM231 499v123q0 34 -24.5 58.5t-58.5 24.5t-58.5 -24.5t-24.5 -58.5v-123q0 -34 24.5 -58t58.5 -24t58.5 24t24.5 58z" />
    <glyph glyph-name="quotesinglbase" unicode="&#x201a;" horiz-adv-x="260" 
d="M296 -140q0 -61 -43.5 -104.5t-104.5 -43.5t-104.5 43.5t-43.5 104.5v223q0 61 43.5 104t104.5 43t104.5 -43t43.5 -104v-223zM231 -40v123q0 34 -24.5 58t-58.5 24t-58.5 -24t-24.5 -58v-123q0 -34 24.5 -58.5t58.5 -24.5t58.5 24.5t24.5 58.5z" />
    <glyph glyph-name="quotedblleft" unicode="&#x201c;" horiz-adv-x="463" 
d="M506 399q0 -62 -43 -104.5t-105 -42.5t-105 44l-1 -1q-43 -43 -104 -43t-104.5 43t-43.5 104v223q0 61 43.5 104.5t104.5 43.5q62 0 105 -44q43 44 105 44t105 -43t43 -105v-223zM441 499v123q0 35 -24 59t-59 24q-34 0 -58 -24.5t-24 -58.5v-123q0 -34 24 -58t58 -24
q35 0 59 23.5t24 58.5zM231 499v123q0 34 -24.5 58.5t-58.5 24.5t-58.5 -24.5t-24.5 -58.5v-123q0 -34 24.5 -58t58.5 -24t58.5 24t24.5 58z" />
    <glyph glyph-name="quotedblright" unicode="&#x201d;" horiz-adv-x="450" 
d="M506 399q0 -62 -43 -104.5t-105 -42.5t-105 44l-1 -1q-43 -43 -104 -43t-104.5 43t-43.5 104v223q0 61 43.5 104.5t104.5 43.5q62 0 105 -44q43 44 105 44t105 -43t43 -105v-223zM441 499v123q0 35 -24 59t-59 24q-34 0 -58 -24.5t-24 -58.5v-123q0 -34 24 -58t58 -24
q35 0 59 23.5t24 58.5zM231 499v123q0 34 -24.5 58.5t-58.5 24.5t-58.5 -24.5t-24.5 -58.5v-123q0 -34 24.5 -58t58.5 -24t58.5 24t24.5 58z" />
    <glyph glyph-name="quotedblbase" unicode="&#x201e;" horiz-adv-x="532" 
d="M296 -140q0 -61 -43.5 -104.5t-104.5 -43.5t-104.5 43.5t-43.5 104.5v223q0 61 43.5 104t104.5 43t104.5 -43t43.5 -104v-223zM231 -40v123q0 34 -24.5 58t-58.5 24t-58.5 -24t-24.5 -58v-123q0 -34 24.5 -58.5t58.5 -24.5t58.5 24.5t24.5 58.5zM559 -140
q0 -61 -43.5 -104.5t-104.5 -43.5t-104.5 43.5t-43.5 104.5v223q0 61 43.5 104t104.5 43t104.5 -43t43.5 -104v-223zM494 -40v123q0 34 -24.5 58t-58.5 24t-58.5 -24t-24.5 -58v-123q0 -34 24.5 -58.5t58.5 -24.5t58.5 24.5t24.5 58.5z" />
    <glyph glyph-name="dagger" unicode="&#x2020;" horiz-adv-x="1174" 
d="M1159 461q0 -56 -45 -99q5 -14 5 -26q0 -46 -66 -55q1 -8 1 -16q0 -73 -88 -90q-12 -79 -92 -79q-45 0 -98 23l1 -1q-5 2 -10 6q-73 -55 -75 -56q-51 -35 -82 -35q-80 0 -200 117l1 -1q-68 -31 -126 -31q-109 0 -161 95q-17 32 -13 42q-49 26 -74 61q77 -1 105 36
q-65 0 -83 93q98 53 130 109q-11 -1 -20 -1q-87 0 -116 79q181 35 224 141q32 111 114 199q64 68 124 68q39 0 76 -28q28 4 54 4q180 0 301 -175q52 -75 85 -175q7 -31 7 -70q0 -49 -14 -95q30 -20 52 -20q43 0 50 69q33 -44 33 -89zM878 533q-48 185 -250 316
q-110 4 -157 -86q-21 -39 -25 -91q-2 -26 -9 -74q14 2 30 2q74 0 101 -37q-6 -4 -17 -4q-20 0 -58.5 13t-58.5 12q-31 -112 -86 -134q-6 -8 -25 -19q24 -119 67 -173q69 -86 100 -115q64 -59 120 -59t118 59q33 31 101 116q39 48 47 126q2 19 2 148zM852 566q-9 -5 -21 1
q-24 13 -42 13q-19 0 -55.5 -12.5t-55.5 -12.5q-12 0 -18 5q27 36 100 36q24 0 51 -6q36 -9 41 -24zM829 476q-11 -12 -24 -12q-9 0 -24 11t-27 14q3 -6 3 -13q0 -31 -31 -31t-31 31q0 10 5 18q-24 -10 -24 -25q0 -4 3 -9l-17 5q17 40 58 42v-1q3 1 6 1q35 1 57 -11
q6 -4 13 -4q13 0 23 13q3 -18 -17 -22q10 -8 20 -8q4 0 7 1zM572 464l-17 -5q3 5 3 10q0 19 -27 24q5 -8 5 -17q0 -31 -31 -31t-31 31q0 7 3 13q-12 -3 -28 -14.5t-26 -11.5q-11 0 -21 8q13 -4 22 9q-14 3 -14 17q0 4 1 8q10 -13 24 -13q7 0 13 4q22 12 57 11q5 0 10 -2
q52 -7 57 -41zM700 245h-176q30 58 87 58q59 0 89 -58zM698 235q-8 -31 -30 -52q-25 -23 -55 -23q-31 0 -54.5 22t-32.5 53h9q30 -23 78 -23t72 23h13z" />
    <glyph glyph-name="daggerdbl" unicode="&#x2021;" 
d="M1159 461q0 -56 -45 -99q5 -14 5 -26q0 -46 -66 -55q1 -8 1 -16q0 -73 -88 -90q-12 -79 -92 -79q-45 0 -98 23l1 -1q-5 2 -10 6q-73 -55 -75 -56q-51 -35 -82 -35q-80 0 -200 117l1 -1q-68 -31 -126 -31q-109 0 -161 95q-17 32 -13 42q-49 26 -74 61q77 -1 105 36
q-65 0 -83 93q98 53 130 109q-11 -1 -20 -1q-87 0 -116 79q181 35 224 141q32 111 114 199q64 68 124 68q39 0 76 -28q28 4 54 4q180 0 301 -175q52 -75 85 -175q7 -31 7 -70q0 -49 -14 -95q30 -20 52 -20q43 0 50 69q33 -44 33 -89zM878 533q-48 185 -250 316
q-110 4 -157 -86q-21 -39 -25 -91q-2 -26 -9 -74q14 2 30 2q74 0 101 -37q-6 -4 -17 -4q-20 0 -58.5 13t-58.5 12q-31 -112 -86 -134q-6 -8 -25 -19q24 -119 67 -173q69 -86 100 -115q64 -59 120 -59t118 59q33 31 101 116q39 48 47 126q2 19 2 148zM852 566q-9 -5 -21 1
q-24 13 -42 13q-19 0 -55.5 -12.5t-55.5 -12.5q-12 0 -18 5q27 36 100 36q24 0 51 -6q36 -9 41 -24zM829 476q-11 -12 -24 -12q-9 0 -24 11t-27 14q3 -6 3 -13q0 -31 -31 -31t-31 31q0 10 5 18q-24 -10 -24 -25q0 -4 3 -9l-17 5q17 40 58 42v-1q3 1 6 1q35 1 57 -11
q6 -4 13 -4q13 0 23 13q3 -18 -17 -22q10 -8 20 -8q4 0 7 1zM572 464l-17 -5q3 5 3 10q0 19 -27 24q5 -8 5 -17q0 -31 -31 -31t-31 31q0 7 3 13q-12 -3 -28 -14.5t-26 -11.5q-11 0 -21 8q13 -4 22 9q-14 3 -14 17q0 4 1 8q10 -13 24 -13q7 0 13 4q22 12 57 11q5 0 10 -2
q52 -7 57 -41zM700 245h-176q30 58 87 58q59 0 89 -58zM698 235q-8 -31 -30 -52q-25 -23 -55 -23q-31 0 -54.5 22t-32.5 53h9q30 -23 78 -23t72 23h13z" />
    <glyph glyph-name="bullet" unicode="&#x2022;" horiz-adv-x="376" 
d="M386 235q0 -82 -58 -140.5t-140 -58.5q-83 0 -141 58t-58 141q0 26 6 50q-6 24 -6 50q0 83 58 140.5t141 57.5q82 0 140 -58t58 -140q0 -26 -6 -50q6 -25 6 -50zM321 335q0 55 -39 94t-94 39q-56 0 -95 -38.5t-39 -94.5t39 -95t95 -39q55 0 94 39.5t39 94.5z" />
    <glyph glyph-name="ellipsis" unicode="&#x2026;" horiz-adv-x="741" 
d="M742 -17q0 -62 -43 -105t-105 -43q-76 0 -120 61q-44 -61 -120 -61q-73 0 -116 56q-45 -56 -117 -56q-62 0 -105 43t-43 105q0 26 9 49q-9 25 -9 51q0 61 43.5 104t104.5 43q72 0 117 -57q44 57 116 57q77 0 121 -61q44 61 119 61q62 0 105 -42.5t43 -104.5q0 -26 -8 -50
q8 -24 8 -50zM677 83q0 35 -24 58.5t-59 23.5q-34 0 -58 -24t-24 -58q0 -35 23.5 -59t58.5 -24t59 24t24 59zM437 83q0 35 -24 58.5t-59 23.5q-34 0 -58 -24t-24 -58q0 -35 23.5 -59t58.5 -24t59 24t24 59zM204 83q0 34 -24.5 58t-58.5 24t-58.5 -24t-24.5 -58q0 -35 24 -59
t59 -24t59 24t24 59z" />
    <glyph glyph-name="perthousand" unicode="&#x2030;" horiz-adv-x="825" 
d="M853 -84q0 -80 -56.5 -136.5t-136.5 -56.5q-73 0 -128 48t-63 120q-31 13 -56 36l-42 -117q-31 -88 -122 -88q-55 0 -95.5 37.5t-40.5 92.5q0 23 9 48l1 3q-10 23 -10 49q0 23 9 48l101 284q-20 -4 -41 -4q-80 0 -136.5 56.5t-56.5 136.5q0 26 6 50q-6 24 -6 50
q0 80 56.5 136.5t136.5 56.5q57 0 103.5 -30t70.5 -79l34 95q32 89 123 89q55 0 95 -38t40 -93q0 -25 -8 -47l-1 -5q9 -23 9 -48t-8 -47l-72 -203q65 -8 112.5 -54.5t55.5 -112.5q53 -22 85 -70.5t32 -106.5q0 -26 -7 -50q7 -25 7 -50zM310 573q0 53 -37.5 90.5t-90.5 37.5
t-90.5 -37.5t-37.5 -90.5t37.5 -90.5t90.5 -37.5t90.5 37.5t37.5 90.5zM583 710q0 28 -21 47t-49 19q-46 0 -62 -46l-268 -752q-5 -14 -5 -26q0 -28 21.5 -46.5t49.5 -18.5q45 0 61 45l269 753q4 11 4 25zM788 16q0 50 -33.5 86.5t-83.5 40.5q2 12 2 25q0 53 -37.5 90.5
t-90.5 37.5t-90.5 -37.5t-37.5 -90.5q0 -50 34 -86.5t84 -41.5q-3 -12 -3 -24q0 -53 37.5 -90.5t90.5 -37.5t90.5 37.5t37.5 90.5zM242 573q0 -25 -17.5 -42.5t-42.5 -17.5t-42.5 17.5t-17.5 42.5t17.5 42.5t42.5 17.5t42.5 -17.5t17.5 -42.5zM606 168q0 -25 -18 -42.5
t-43 -17.5t-42.5 17.5t-17.5 42.5t17.5 42.5t42.5 17.5t43 -17.5t18 -42.5zM720 16q0 -25 -17.5 -43t-42.5 -18t-42.5 18t-17.5 43t17.5 42.5t42.5 17.5t42.5 -17.5t17.5 -42.5z" />
    <glyph glyph-name="guilsinglleft" unicode="&#x2039;" horiz-adv-x="346" 
d="M364 57q0 -54 -40 -94t-94 -40q-49 0 -104 47q-29 25 -81 86q-45 52 -45 98q0 24 12 50q-12 26 -12 50q0 49 51 107q43 42 84 83t95 41t94 -40t40 -94q0 -26 -10 -50q10 -24 10 -50q0 -25 -9 -47q9 -22 9 -47q0 -26 -10 -50q10 -24 10 -50zM299 157q0 26 -21 47l-50 50
l50 50q21 21 21 47q0 27 -21 48t-48 21t-48 -21l-88 -89q-29 -29 -29 -56q0 -22 29 -56q6 -7 88 -89q21 -21 48 -21t48 21t21 48z" />
    <glyph glyph-name="guilsinglright" unicode="&#x203a;" horiz-adv-x="341" 
d="M364 154q0 -46 -45 -98q-52 -61 -81 -86q-55 -47 -104 -47q-54 0 -94 40t-40 94q0 26 10 50q-10 24 -10 50q0 25 9 47q-9 22 -9 47q0 26 10 50q-10 24 -10 50q0 54 40 94t94 40q50 0 103 -47q40 -41 79 -82q48 -49 48 -102q0 -24 -12 -49q12 -25 12 -51zM299 254
q0 27 -29 56l-88 89q-21 21 -48 21t-48 -21t-21 -48q0 -26 21 -47l50 -50l-50 -50q-21 -21 -21 -47q0 -27 21 -48t48 -21t48 21l88 89q29 34 29 56z" />
    <glyph glyph-name="fraction" unicode="&#x2044;" horiz-adv-x="465" 
d="M512 610q0 -25 -8 -47l-269 -753q-31 -88 -122 -88q-55 0 -95 37.5t-40 92.5q0 26 8 48l1 4q-9 23 -9 48q0 26 8 48l269 752q32 89 122 89q56 0 95.5 -37.5t39.5 -93.5q0 -25 -8 -47l-1 -4q9 -23 9 -49zM447 710q0 29 -20.5 47.5t-49.5 18.5q-45 0 -61 -46l-269 -752
q-4 -11 -4 -26q0 -28 21 -46.5t49 -18.5q45 0 61 45l269 753q4 11 4 25z" />
    <glyph glyph-name="currency" unicode="&#x20ac;" horiz-adv-x="584" 
d="M615 -44q0 -57 -38 -94.5t-95 -37.5q-108 0 -203.5 52t-153.5 143h-10q-57 0 -95 38t-38 95q0 26 9 50q-9 23 -9 50q0 25 9 49q-8 22 -8 46q0 26 9 50q-9 24 -9 50q0 57 37.5 95t94.5 38h13q58 89 152.5 139.5t201.5 50.5q57 0 95 -37.5t38 -94.5q0 -26 -9 -50
q9 -23 9 -50q0 -57 -38 -95q-1 -24 -9 -46q9 -23 9 -50q0 -25 -8 -47q8 -23 8 -48q0 -27 -9 -50q9 -24 9 -50v-1q38 -38 38 -95q0 -27 -9 -50q9 -24 9 -50zM550 56q0 30 -19 49t-49 19q-88 0 -152 60h114q30 0 49 19t19 49t-19 48.5t-49 18.5h-183q-2 14 -2 28q0 16 2 33
h183q30 0 49 18.5t19 48.5t-19 49t-49 19h-109q63 55 147 55q30 0 49 19t19 49t-19 48.5t-49 18.5q-100 0 -185 -51t-132 -139h-50q-30 0 -48.5 -19t-18.5 -49t18.5 -48.5t48.5 -18.5h10q-1 -17 -1 -33q0 -14 1 -28h-10q-30 0 -49 -18.5t-19 -48.5t19 -49t49 -19h48
q46 -90 132 -142.5t187 -52.5q30 0 49 18.5t19 48.5z" />
    <glyph glyph-name="trademark" unicode="&#x2122;" horiz-adv-x="659" 
d="M686 321q0 -44 -27.5 -71.5t-71.5 -27.5q-46 0 -74 31q-27 -31 -74 -31q-61 0 -87 49q-49 -45 -127 -45h-63q-72 0 -122.5 50.5t-50.5 122.5v272q0 44 27.5 71.5t71.5 27.5q70 0 92 -60h26q46 0 74 -30q42 27 93 27q37 0 70 -15q33 15 70 15q72 0 122.5 -50.5
t50.5 -122.5v-213zM621 421v113q0 45 -31.5 76.5t-76.5 31.5q-40 0 -70 -26q-30 26 -70 26q-45 0 -76.5 -31.5t-31.5 -76.5v-35q0 -17 -11.5 -29t-28.5 -12h-63q-17 0 -28.5 12t-11.5 29v78h84q34 0 34 34t-34 34h-84v26q0 34 -34 34t-34 -34v-172q0 -45 31.5 -76.5
t76.5 -31.5h63q46 0 75 21q33 23 33 67v55q0 17 11.5 28.5t28.5 11.5q20 0 32 -16v-137q0 -34 34 -34t34 34v113q0 17 11.5 28.5t28.5 11.5t29 -11.5t12 -28.5v-113q0 -34 33 -34q34 0 34 34z" />
    <glyph glyph-name="partialdiff" unicode="&#x2202;" 
d="M1159 461q0 -56 -45 -99q5 -14 5 -26q0 -46 -66 -55q1 -8 1 -16q0 -73 -88 -90q-12 -79 -92 -79q-45 0 -98 23l1 -1q-5 2 -10 6q-73 -55 -75 -56q-51 -35 -82 -35q-80 0 -200 117l1 -1q-68 -31 -126 -31q-109 0 -161 95q-17 32 -13 42q-49 26 -74 61q77 -1 105 36
q-65 0 -83 93q98 53 130 109q-11 -1 -20 -1q-87 0 -116 79q181 35 224 141q32 111 114 199q64 68 124 68q39 0 76 -28q28 4 54 4q180 0 301 -175q52 -75 85 -175q7 -31 7 -70q0 -49 -14 -95q30 -20 52 -20q43 0 50 69q33 -44 33 -89zM878 533q-48 185 -250 316
q-110 4 -157 -86q-21 -39 -25 -91q-2 -26 -9 -74q14 2 30 2q74 0 101 -37q-6 -4 -17 -4q-20 0 -58.5 13t-58.5 12q-31 -112 -86 -134q-6 -8 -25 -19q24 -119 67 -173q69 -86 100 -115q64 -59 120 -59t118 59q33 31 101 116q39 48 47 126q2 19 2 148zM852 566q-9 -5 -21 1
q-24 13 -42 13q-19 0 -55.5 -12.5t-55.5 -12.5q-12 0 -18 5q27 36 100 36q24 0 51 -6q36 -9 41 -24zM829 476q-11 -12 -24 -12q-9 0 -24 11t-27 14q3 -6 3 -13q0 -31 -31 -31t-31 31q0 10 5 18q-24 -10 -24 -25q0 -4 3 -9l-17 5q17 40 58 42v-1q3 1 6 1q35 1 57 -11
q6 -4 13 -4q13 0 23 13q3 -18 -17 -22q10 -8 20 -8q4 0 7 1zM572 464l-17 -5q3 5 3 10q0 19 -27 24q5 -8 5 -17q0 -31 -31 -31t-31 31q0 7 3 13q-12 -3 -28 -14.5t-26 -11.5q-11 0 -21 8q13 -4 22 9q-14 3 -14 17q0 4 1 8q10 -13 24 -13q7 0 13 4q22 12 57 11q5 0 10 -2
q52 -7 57 -41zM700 245h-176q30 58 87 58q59 0 89 -58zM698 235q-8 -31 -30 -52q-25 -23 -55 -23q-31 0 -54.5 22t-32.5 53h9q30 -23 78 -23t72 23h13z" />
    <glyph glyph-name="product" unicode="&#x220f;" horiz-adv-x="538" 
d="M572 -42q0 -57 -37.5 -94.5t-94.5 -37.5q-67 0 -106 50q-38 -50 -105 -50q-57 0 -95 37.5t-38 94.5v449q-47 9 -76.5 45.5t-29.5 85.5q0 27 9 50q-9 24 -9 50q0 57 38 94.5t95 37.5h319q56 0 93 -38t37 -94v-680zM507 58v580q0 29 -18 48t-47 19h-319q-30 0 -49 -18.5
t-19 -48.5t19 -49t49 -19h38v-512q0 -30 19 -48.5t49 -18.5t48.5 18.5t18.5 48.5v512h76v-512q0 -30 19 -48.5t49 -18.5t48.5 18.5t18.5 48.5z" />
    <glyph glyph-name="summation" unicode="&#x2211;" 
d="M1159 461q0 -56 -45 -99q5 -14 5 -26q0 -46 -66 -55q1 -8 1 -16q0 -73 -88 -90q-12 -79 -92 -79q-45 0 -98 23l1 -1q-5 2 -10 6q-73 -55 -75 -56q-51 -35 -82 -35q-80 0 -200 117l1 -1q-68 -31 -126 -31q-109 0 -161 95q-17 32 -13 42q-49 26 -74 61q77 -1 105 36
q-65 0 -83 93q98 53 130 109q-11 -1 -20 -1q-87 0 -116 79q181 35 224 141q32 111 114 199q64 68 124 68q39 0 76 -28q28 4 54 4q180 0 301 -175q52 -75 85 -175q7 -31 7 -70q0 -49 -14 -95q30 -20 52 -20q43 0 50 69q33 -44 33 -89zM878 533q-48 185 -250 316
q-110 4 -157 -86q-21 -39 -25 -91q-2 -26 -9 -74q14 2 30 2q74 0 101 -37q-6 -4 -17 -4q-20 0 -58.5 13t-58.5 12q-31 -112 -86 -134q-6 -8 -25 -19q24 -119 67 -173q69 -86 100 -115q64 -59 120 -59t118 59q33 31 101 116q39 48 47 126q2 19 2 148zM852 566q-9 -5 -21 1
q-24 13 -42 13q-19 0 -55.5 -12.5t-55.5 -12.5q-12 0 -18 5q27 36 100 36q24 0 51 -6q36 -9 41 -24zM829 476q-11 -12 -24 -12q-9 0 -24 11t-27 14q3 -6 3 -13q0 -31 -31 -31t-31 31q0 10 5 18q-24 -10 -24 -25q0 -4 3 -9l-17 5q17 40 58 42v-1q3 1 6 1q35 1 57 -11
q6 -4 13 -4q13 0 23 13q3 -18 -17 -22q10 -8 20 -8q4 0 7 1zM572 464l-17 -5q3 5 3 10q0 19 -27 24q5 -8 5 -17q0 -31 -31 -31t-31 31q0 7 3 13q-12 -3 -28 -14.5t-26 -11.5q-11 0 -21 8q13 -4 22 9q-14 3 -14 17q0 4 1 8q10 -13 24 -13q7 0 13 4q22 12 57 11q5 0 10 -2
q52 -7 57 -41zM700 245h-176q30 58 87 58q59 0 89 -58zM698 235q-8 -31 -30 -52q-25 -23 -55 -23q-31 0 -54.5 22t-32.5 53h9q30 -23 78 -23t72 23h13z" />
    <glyph glyph-name="radical" unicode="&#x221a;" 
d="M1159 461q0 -56 -45 -99q5 -14 5 -26q0 -46 -66 -55q1 -8 1 -16q0 -73 -88 -90q-12 -79 -92 -79q-45 0 -98 23l1 -1q-5 2 -10 6q-73 -55 -75 -56q-51 -35 -82 -35q-80 0 -200 117l1 -1q-68 -31 -126 -31q-109 0 -161 95q-17 32 -13 42q-49 26 -74 61q77 -1 105 36
q-65 0 -83 93q98 53 130 109q-11 -1 -20 -1q-87 0 -116 79q181 35 224 141q32 111 114 199q64 68 124 68q39 0 76 -28q28 4 54 4q180 0 301 -175q52 -75 85 -175q7 -31 7 -70q0 -49 -14 -95q30 -20 52 -20q43 0 50 69q33 -44 33 -89zM878 533q-48 185 -250 316
q-110 4 -157 -86q-21 -39 -25 -91q-2 -26 -9 -74q14 2 30 2q74 0 101 -37q-6 -4 -17 -4q-20 0 -58.5 13t-58.5 12q-31 -112 -86 -134q-6 -8 -25 -19q24 -119 67 -173q69 -86 100 -115q64 -59 120 -59t118 59q33 31 101 116q39 48 47 126q2 19 2 148zM852 566q-9 -5 -21 1
q-24 13 -42 13q-19 0 -55.5 -12.5t-55.5 -12.5q-12 0 -18 5q27 36 100 36q24 0 51 -6q36 -9 41 -24zM829 476q-11 -12 -24 -12q-9 0 -24 11t-27 14q3 -6 3 -13q0 -31 -31 -31t-31 31q0 10 5 18q-24 -10 -24 -25q0 -4 3 -9l-17 5q17 40 58 42v-1q3 1 6 1q35 1 57 -11
q6 -4 13 -4q13 0 23 13q3 -18 -17 -22q10 -8 20 -8q4 0 7 1zM572 464l-17 -5q3 5 3 10q0 19 -27 24q5 -8 5 -17q0 -31 -31 -31t-31 31q0 7 3 13q-12 -3 -28 -14.5t-26 -11.5q-11 0 -21 8q13 -4 22 9q-14 3 -14 17q0 4 1 8q10 -13 24 -13q7 0 13 4q22 12 57 11q5 0 10 -2
q52 -7 57 -41zM700 245h-176q30 58 87 58q59 0 89 -58zM698 235q-8 -31 -30 -52q-25 -23 -55 -23q-31 0 -54.5 22t-32.5 53h9q30 -23 78 -23t72 23h13z" />
    <glyph glyph-name="infinity" unicode="&#x221e;" horiz-adv-x="932" 
d="M928 582q0 -23 -23 -23q-22 0 -22 23v62q0 17 -11.5 28.5t-28.5 11.5t-28.5 -11.5t-11.5 -28.5t11.5 -28.5t28.5 -11.5q23 0 23 -22q0 -23 -23 -23q-35 0 -60 25t-25 60q0 36 24.5 60.5t60.5 24.5t60.5 -24.5t24.5 -60.5v-62zM620 772q0 -27 -28 -27q-27 0 -27 27
q0 28 27 28q28 0 28 -28zM740 582q0 -22 -22 -22q-35 0 -60 24.5t-25 59.5q0 36 24.5 60.5t60.5 24.5q22 0 22 -22q0 -23 -22 -23q-17 0 -28.5 -11.5t-11.5 -28.5q0 -39 40 -39q22 0 22 -23zM614 582q0 -22 -22 -22q-23 0 -23 22v125q0 22 23 22q22 0 22 -22v-125zM552 707
q0 -21 -21 -22q-10 -1 -16 -7t-6 -14v-39q0 -27 -19 -46t-46 -19q-22 0 -22 23q0 16 21 22t21 21l1 6v32q0 27 19 46t46 19q22 0 22 -22zM928 215q0 -32 -32 -32t-32 32v88q0 24 -16 40.5t-40 16.5t-40 -16t-16 -40t16 -40.5t40 -16.5q32 0 32 -32t-32 -32q-51 0 -85.5 35
t-34.5 86q0 50 35 85t85 35t85 -35.5t35 -85.5v-88zM461 707q0 -21 -22 -22q-10 -1 -15.5 -7t-5.5 -14v-39q0 -28 -19 -46.5t-47 -18.5q-22 0 -22 23q0 16 21.5 22t21.5 21v38q0 27 19 46t46 19q23 0 23 -22zM929 12q0 -12 -12 -12t-12 12v102q0 12 12 12t12 -12v-102z
M169 772q0 -27 -28 -27q-27 0 -27 27q0 28 27 28q28 0 28 -28zM895 39q0 -16 -11 -27.5t-27 -11.5t-27 11.5t-11 27.5v39q0 13 12 13t12 -13v-39q0 -15 14 -15t14 15v40q0 12 12 12t12 -12v-40zM334 688q0 -11 -10 -18l-42 -42q-6 -6 -16 -6q-23 0 -23 22q0 8 8 16l23 23
q-4 1 -8 1q-17 0 -28.5 -11.5t-11.5 -28.5t11.5 -28.5t28.5 -11.5h29q23 0 23 -22q0 -23 -23 -23h-29q-36 0 -60.5 24.5t-24.5 60.5t24.5 60.5t60.5 24.5t61 -26q7 -7 7 -15zM662 303q0 -50 -35 -84.5t-85 -34.5t-84.5 35t-34.5 85v184q0 31 31 31q32 0 32 -31v-184
q0 -24 16 -40.5t40 -16.5t40.5 16t16.5 40t-16.5 40.5t-40.5 16.5q-31 0 -31 32t31 32q51 0 85.5 -35t34.5 -86zM810 51q0 -12 -12 -12h-41v-27q0 -12 -12 -12t-12 12v76q0 16 11 27.5t27 11.5t27 -11.5t11 -27.5v-1q0 -12 -12 -12t-12 12v1q0 15 -14 15t-14 -15v-25h41
q12 0 12 -12zM726 113q0 -14 -15 -14t-15 14q0 15 15 15t15 -15zM723 12q0 -12 -12 -12t-12 12v67q0 12 12 12t12 -12v-67zM164 558q0 -30 -21 -50.5t-51 -20.5h-1q-23 0 -23 22t23 22h1q27 0 27 27v149q0 22 22 22q23 0 23 -22v-149zM397 215q0 -31 -32 -31q-31 0 -31 31
v272q0 31 31 31q32 0 32 -31v-272zM689 38q0 -16 -11 -27t-27 -11t-27 11t-11 27v61q0 12 12 12t12 -12v-9h41q11 0 11 -12t-11 -12h-41v-28q0 -14 14 -14t14 14v2q0 12 12 12t12 -12v-2zM604 39q0 -16 -11.5 -27.5t-27.5 -11.5t-27 11.5t-11 27.5v39q0 13 12 13t12 -13v-39
q0 -15 14 -15q15 0 15 15v40q0 12 12 12t12 -12v-40zM518 12q0 -12 -13 -12q-11 0 -11 12v33q0 22 -22 22q-21 0 -21 -22q0 -21 21 -21q12 0 12 -12t-12 -12q-19 0 -32 13t-13 32t13 32.5t32 13.5t32.5 -13.5t13.5 -32.5v-33zM308 215q0 -32 -32 -32q-31 0 -31 32v88
q0 24 -16.5 40.5t-40.5 16.5t-40 -16t-16 -40t16 -40.5t40 -16.5q32 0 32 -32t-32 -32q-51 0 -85.5 35t-34.5 86q0 50 35 85t85 35t85 -35.5t35 -85.5v-88zM418 68q0 -5 -5 -9l-23 -23q-3 -3 -8 -3q-12 0 -12 12q0 4 3 8l13 13q-2 1 -5 1q-21 0 -21 -22q0 -21 22 -21h15
q12 0 12 -12t-12 -12h-15q-19 0 -32.5 13t-13.5 32t13.5 32.5t32.5 13.5t32 -14q4 -4 4 -9zM327 45q0 -18 -13.5 -31.5t-31.5 -13.5q-19 0 -32 13t-13 32v70q0 12 11 12q12 0 12 -12v-70q0 -21 22 -21q21 0 21 21q0 22 -21 22q-12 0 -12 11q0 13 12 13q19 0 32 -13.5
t13 -32.5zM97 113q0 -14 -15 -14q-14 0 -14 14q0 15 14 15q15 0 15 -15zM174 79q0 -5 -3 -9q-6 0 -17 -7q-3 -3 -3 -7v-21q0 -14 -10.5 -24t-24.5 -10q-12 0 -12 11q0 9 11.5 12t11.5 11v21q0 35 35 35q12 0 12 -12zM94 12q0 -12 -12 -12t-12 12v67q0 12 12 12t12 -12v-67z
" />
    <glyph glyph-name="integral" unicode="&#x222b;" horiz-adv-x="415" 
d="M446 537q0 -57 -37.5 -94.5t-94.5 -37.5h-44q-16 0 -16 -16v-489q0 -118 -81.5 -199.5t-199.5 -81.5h-44q-57 0 -95 38t-38 95q0 26 9 50q-9 24 -9 50q0 57 38 94.5t95 37.5h44q16 0 16 16v489q0 118 81.5 199.5t199.5 81.5h44q57 0 94.5 -38t37.5 -95q0 -27 -9 -50
q9 -24 9 -50zM381 637q0 30 -18.5 49t-48.5 19h-44q-92 0 -154 -62t-62 -154v-489q0 -34 -23.5 -57.5t-57.5 -23.5h-44q-30 0 -49 -18.5t-19 -48.5t19 -49t49 -19h44q92 0 154 62t62 154v489q0 34 23.5 57.5t57.5 23.5h44q30 0 48.5 18.5t18.5 48.5z" />
    <glyph glyph-name="approxequal" unicode="&#x2248;" horiz-adv-x="610" 
d="M632 -546q0 -57 -38 -95t-95 -38h-229q-118 0 -199.5 81.5t-81.5 199.5v11q0 23 3 46q-3 21 -3 43v11q0 125 81 216q-81 90 -81 216q0 25 4 50q-4 25 -4 50q0 136 92 228t228 92t228 -92t92 -228v-341q0 -73 -40 -132.5t-106 -85.5h16q57 0 95 -37.5t38 -94.5
q0 -26 -9 -50q9 -24 9 -50zM349 184q-16 16 -40 16q-13 0 -24 -5q10 -5 32.5 -7t31.5 -4zM567 -446q0 30 -19 48.5t-49 18.5h-229q-34 0 -57.5 23.5t-23.5 57.5v11q0 50 35 85.5t85 35.5h86q71 0 120 49.5t49 120.5v241q0 109 -73 182t-182 73t-182 -73t-73 -182t73 -182.5
t182 -73.5q30 0 49 19t19 49t-19 48.5t-49 18.5q-50 0 -85 35.5t-35 85.5t35 85t85 35t85 -35t35 -85v-241q0 -14 -10 -24.5t-24 -10.5h-87q-108 0 -181 -74t-73 -182v-11q0 -92 62 -154t154 -62h229q30 0 49 19t19 49z" />
    <glyph glyph-name="approxequal" unicode="&#x22f2;" horiz-adv-x="610" 
d="M632 -546q0 -57 -38 -95t-95 -38h-229q-118 0 -199.5 81.5t-81.5 199.5v11q0 23 3 46q-3 21 -3 43v11q0 125 81 216q-81 90 -81 216q0 25 4 50q-4 25 -4 50q0 136 92 228t228 92t228 -92t92 -228v-341q0 -73 -40 -132.5t-106 -85.5h16q57 0 95 -37.5t38 -94.5
q0 -26 -9 -50q9 -24 9 -50zM349 184q-16 16 -40 16q-13 0 -24 -5q10 -5 32.5 -7t31.5 -4zM567 -446q0 30 -19 48.5t-49 18.5h-229q-34 0 -57.5 23.5t-23.5 57.5v11q0 50 35 85.5t85 35.5h86q71 0 120 49.5t49 120.5v241q0 109 -73 182t-182 73t-182 -73t-73 -182t73 -182.5
t182 -73.5q30 0 49 19t19 49t-19 48.5t-49 18.5q-50 0 -85 35.5t-35 85.5t35 85t85 35t85 -35t35 -85v-241q0 -14 -10 -24.5t-24 -10.5h-87q-108 0 -181 -74t-73 -182v-11q0 -92 62 -154t154 -62h229q30 0 49 19t19 49z" />
    <glyph glyph-name="notequal" unicode="&#x2260;" 
d="M1159 461q0 -56 -45 -99q5 -14 5 -26q0 -46 -66 -55q1 -8 1 -16q0 -73 -88 -90q-12 -79 -92 -79q-45 0 -98 23l1 -1q-5 2 -10 6q-73 -55 -75 -56q-51 -35 -82 -35q-80 0 -200 117l1 -1q-68 -31 -126 -31q-109 0 -161 95q-17 32 -13 42q-49 26 -74 61q77 -1 105 36
q-65 0 -83 93q98 53 130 109q-11 -1 -20 -1q-87 0 -116 79q181 35 224 141q32 111 114 199q64 68 124 68q39 0 76 -28q28 4 54 4q180 0 301 -175q52 -75 85 -175q7 -31 7 -70q0 -49 -14 -95q30 -20 52 -20q43 0 50 69q33 -44 33 -89zM878 533q-48 185 -250 316
q-110 4 -157 -86q-21 -39 -25 -91q-2 -26 -9 -74q14 2 30 2q74 0 101 -37q-6 -4 -17 -4q-20 0 -58.5 13t-58.5 12q-31 -112 -86 -134q-6 -8 -25 -19q24 -119 67 -173q69 -86 100 -115q64 -59 120 -59t118 59q33 31 101 116q39 48 47 126q2 19 2 148zM852 566q-9 -5 -21 1
q-24 13 -42 13q-19 0 -55.5 -12.5t-55.5 -12.5q-12 0 -18 5q27 36 100 36q24 0 51 -6q36 -9 41 -24zM829 476q-11 -12 -24 -12q-9 0 -24 11t-27 14q3 -6 3 -13q0 -31 -31 -31t-31 31q0 10 5 18q-24 -10 -24 -25q0 -4 3 -9l-17 5q17 40 58 42v-1q3 1 6 1q35 1 57 -11
q6 -4 13 -4q13 0 23 13q3 -18 -17 -22q10 -8 20 -8q4 0 7 1zM572 464l-17 -5q3 5 3 10q0 19 -27 24q5 -8 5 -17q0 -31 -31 -31t-31 31q0 7 3 13q-12 -3 -28 -14.5t-26 -11.5q-11 0 -21 8q13 -4 22 9q-14 3 -14 17q0 4 1 8q10 -13 24 -13q7 0 13 4q22 12 57 11q5 0 10 -2
q52 -7 57 -41zM700 245h-176q30 58 87 58q59 0 89 -58zM698 235q-8 -31 -30 -52q-25 -23 -55 -23q-31 0 -54.5 22t-32.5 53h9q30 -23 78 -23t72 23h13z" />
    <glyph glyph-name="lessequal" unicode="&#x2264;" horiz-adv-x="394" 
d="M422 -32q0 -61 -35.5 -97t-96.5 -36h-168q-57 0 -94.5 38t-37.5 95q0 26 9 50q-9 24 -9 50q0 66 49 105q-18 31 -18 61q0 24 12 50q-12 26 -12 50q0 49 51 107q43 42 84 83t95 41t94 -40t40 -94q0 -26 -10 -50q10 -24 10 -50q0 -25 -9 -47q9 -22 9 -47q0 -26 -10 -50
q4 -11 7 -22q40 -38 40 -97q0 -28 -8 -52q8 -23 8 -48zM320 237q0 26 -21 47l-50 50l50 50q21 21 21 47q0 27 -21 48t-48 21t-48 -21l-88 -89q-29 -29 -29 -56q0 -22 29 -56q6 -7 88 -89q21 -21 48 -21t48 21t21 48zM357 68q0 30 -18.5 48.5t-48.5 18.5h-168
q-30 0 -48.5 -18.5t-18.5 -48.5t18.5 -49t48.5 -19h168q67 0 67 68z" />
    <glyph glyph-name="greaterequal" unicode="&#x2265;" horiz-adv-x="391" 
d="M422 -32q0 -61 -35.5 -97t-96.5 -36h-168q-57 0 -94.5 38t-37.5 95q0 26 9 50q-9 24 -9 50q0 54 34 91q2 9 6 18q-10 24 -10 50q0 25 9 47q-9 22 -9 47q0 26 10 50q-10 24 -10 50q0 54 40 94t94 40q50 0 103 -47q40 -41 79 -82q48 -49 48 -102q0 -24 -12 -49
q12 -25 12 -51q0 -25 -12 -50q50 -39 50 -106q0 -28 -8 -52q8 -23 8 -48zM319 324q0 27 -29 56l-88 89q-21 21 -48 21t-48 -21t-21 -48q0 -26 21 -47l50 -50l-50 -50q-21 -21 -21 -47q0 -27 21 -48t48 -21t48 21l88 89q29 34 29 56zM357 68q0 30 -18.5 48.5t-48.5 18.5h-168
q-30 0 -48.5 -18.5t-18.5 -48.5t18.5 -49t48.5 -19h168q67 0 67 68z" />
    <glyph glyph-name="lozenge" unicode="&#x25ca;" 
d="M1159 461q0 -56 -45 -99q5 -14 5 -26q0 -46 -66 -55q1 -8 1 -16q0 -73 -88 -90q-12 -79 -92 -79q-45 0 -98 23l1 -1q-5 2 -10 6q-73 -55 -75 -56q-51 -35 -82 -35q-80 0 -200 117l1 -1q-68 -31 -126 -31q-109 0 -161 95q-17 32 -13 42q-49 26 -74 61q77 -1 105 36
q-65 0 -83 93q98 53 130 109q-11 -1 -20 -1q-87 0 -116 79q181 35 224 141q32 111 114 199q64 68 124 68q39 0 76 -28q28 4 54 4q180 0 301 -175q52 -75 85 -175q7 -31 7 -70q0 -49 -14 -95q30 -20 52 -20q43 0 50 69q33 -44 33 -89zM878 533q-48 185 -250 316
q-110 4 -157 -86q-21 -39 -25 -91q-2 -26 -9 -74q14 2 30 2q74 0 101 -37q-6 -4 -17 -4q-20 0 -58.5 13t-58.5 12q-31 -112 -86 -134q-6 -8 -25 -19q24 -119 67 -173q69 -86 100 -115q64 -59 120 -59t118 59q33 31 101 116q39 48 47 126q2 19 2 148zM852 566q-9 -5 -21 1
q-24 13 -42 13q-19 0 -55.5 -12.5t-55.5 -12.5q-12 0 -18 5q27 36 100 36q24 0 51 -6q36 -9 41 -24zM829 476q-11 -12 -24 -12q-9 0 -24 11t-27 14q3 -6 3 -13q0 -31 -31 -31t-31 31q0 10 5 18q-24 -10 -24 -25q0 -4 3 -9l-17 5q17 40 58 42v-1q3 1 6 1q35 1 57 -11
q6 -4 13 -4q13 0 23 13q3 -18 -17 -22q10 -8 20 -8q4 0 7 1zM572 464l-17 -5q3 5 3 10q0 19 -27 24q5 -8 5 -17q0 -31 -31 -31t-31 31q0 7 3 13q-12 -3 -28 -14.5t-26 -11.5q-11 0 -21 8q13 -4 22 9q-14 3 -14 17q0 4 1 8q10 -13 24 -13q7 0 13 4q22 12 57 11q5 0 10 -2
q52 -7 57 -41zM700 245h-176q30 58 87 58q59 0 89 -58zM698 235q-8 -31 -30 -52q-25 -23 -55 -23q-31 0 -54.5 22t-32.5 53h9q30 -23 78 -23t72 23h13z" />
    <glyph glyph-name="fi" unicode="&#xf001;" horiz-adv-x="771" 
d="M565 178q0 -57 -37.5 -94.5t-94.5 -37.5h-168v-88q0 -57 -38 -94.5t-95 -37.5t-94.5 37.5t-37.5 94.5v531q0 119 81 200t200 81q118 0 199 -81.5t81 -199.5v-7q0 -20 -5 -38q5 -27 5 -55v-7q0 -25 -8 -47q12 -26 12 -57q0 -27 -9 -50q9 -24 9 -50zM500 278q0 30 -18.5 49
t-48.5 19h-233v143q0 34 23.5 57.5t57.5 23.5t57 -23.5t23 -57.5v-7q0 -29 19.5 -48.5t48.5 -19.5q30 0 48.5 19t18.5 49v7q0 92 -61.5 154t-153.5 62q-93 0 -154.5 -61.5t-61.5 -154.5v-431q0 -30 18.5 -48.5t48.5 -18.5t49 18.5t19 48.5v153h233q30 0 48.5 18.5t18.5 48.5
zM790 531q0 -38 -17 -70q2 -13 2 -28v-475q0 -57 -38.5 -94.5t-94.5 -37.5q-57 0 -94.5 37.5t-37.5 94.5v475q0 14 2 27q-18 33 -18 71q0 26 9 50q-9 24 -9 50q0 61 43.5 104.5t104.5 43.5t104.5 -43.5t43.5 -104.5q0 -26 -9 -50q9 -24 9 -50zM725 631q0 34 -24.5 58.5
t-58.5 24.5t-58.5 -24.5t-24.5 -58.5t24.5 -58.5t58.5 -24.5t58.5 24.5t24.5 58.5zM710 58v375q0 67 -68 67q-30 0 -48.5 -18.5t-18.5 -48.5v-375q0 -30 18.5 -48.5t48.5 -18.5t49 18.5t19 48.5z" />
    <glyph glyph-name="fl" unicode="&#xf002;" horiz-adv-x="754" 
d="M565 178q0 -57 -37.5 -94.5t-94.5 -37.5h-168v-88q0 -57 -38 -94.5t-95 -37.5t-94.5 37.5t-37.5 94.5v531q0 119 81 200t200 81q118 0 199 -81.5t81 -199.5v-7q0 -20 -5 -38q5 -27 5 -55v-7q0 -25 -8 -47q12 -26 12 -57q0 -27 -9 -50q9 -24 9 -50zM500 278q0 30 -18.5 49
t-48.5 19h-233v143q0 34 23.5 57.5t57.5 23.5t57 -23.5t23 -57.5v-7q0 -29 19.5 -48.5t48.5 -19.5q30 0 48.5 19t18.5 49v7q0 92 -61.5 154t-153.5 62q-93 0 -154.5 -61.5t-61.5 -154.5v-431q0 -30 18.5 -48.5t48.5 -18.5t49 18.5t19 48.5v153h233q30 0 48.5 18.5t18.5 48.5
zM765 -42q0 -57 -38.5 -94.5t-94.5 -37.5q-57 0 -94.5 37.5t-37.5 94.5v678q0 57 37.5 94.5t94.5 37.5q61 0 97 -35.5t36 -96.5v-678zM700 58v578q0 67 -68 67q-30 0 -48.5 -18.5t-18.5 -48.5v-578q0 -30 18.5 -48.5t48.5 -18.5t49 18.5t19 48.5z" />
    <glyph glyph-name="HT" horiz-adv-x="303" 
 />
    <glyph glyph-name="nonmarkingreturn" horiz-adv-x="303" 
 />
  </font>
</defs>
</svg>
