<?xml version="1.0" standalone="no"?>
<!DOCTYPE svg PUBLIC "-//W3C//DTD SVG 1.1//EN" "http://www.w3.org/Graphics/SVG/1.1/DTD/svg11.dtd" >
<svg xmlns="http://www.w3.org/2000/svg" xmlns:xlink="http://www.w3.org/1999/xlink" version="1.1">
<metadata>
Created by FontForge 20190801 at Fri Oct  7 20:01:05 2011
 By www-data
Held by Jacob King. All commercial use must be liscensed. 
</metadata>
<defs>
<font id="JKAbodeDemo" horiz-adv-x="541" >
  <font-face 
    font-family="JKAbodeDemo"
    font-weight="400"
    font-stretch="normal"
    units-per-em="1000"
    panose-1="2 0 0 0 0 0 0 0 0 0"
    ascent="750"
    descent="-250"
    x-height="403"
    cap-height="731"
    bbox="-36 -245 747.048 817"
    underline-thickness="50"
    underline-position="-100"
    unicode-range="U+0020-201E"
  />
<missing-glyph horiz-adv-x="209" 
 />
    <glyph glyph-name=".notdef" horiz-adv-x="209" 
 />
    <glyph glyph-name=".null" horiz-adv-x="0" 
 />
    <glyph glyph-name="nonmarkingreturn" horiz-adv-x="209" 
 />
    <glyph glyph-name="space" unicode=" " horiz-adv-x="209" 
 />
    <glyph glyph-name="exclam" unicode="!" horiz-adv-x="158" 
d="M26 640l103 105v-555h-103v450zM127 0h-103v105h103v-105z" />
    <glyph glyph-name="parenleft" unicode="(" horiz-adv-x="299" 
d="M139 623q-11 -23 -11 -57v-456q0 -30 11.5 -56t31.5 -45.5t47 -31.5t57 -13v-105q-50 1 -94.5 20t-79 52.5t-55 78t-22.5 96.5v4v456v4q1 50 21 94.5t54 77.5t79.5 53t96.5 22v-105q-43 0 -80 -23.5t-56 -65.5z" />
    <glyph glyph-name="parenright" unicode=")" horiz-adv-x="299" 
d="M161 53q11 23 11 57v456q0 31 -11.5 57t-31.5 45t-46.5 30.5t-57.5 13.5v105q51 0 95.5 -19t78 -52.5t54 -78.5t23.5 -97v-4v-456v-4q0 -51 -20 -94t-54 -75.5t-80 -52.5t-97 -25v105q42 0 79 23t57 66z" />
    <glyph glyph-name="comma" unicode="," horiz-adv-x="190" 
d="M66 95h104v-40q0 -57 -22 -105t-60 -83l-78 70v2q26 20 41 50.5t15 65.5v40z" />
    <glyph glyph-name="hyphen" unicode="-" horiz-adv-x="416" 
d="M33 195v104h350v-104h-350z" />
    <glyph glyph-name="period" unicode="." horiz-adv-x="171" 
d="M138 0h-104v104h104v-104z" />
    <glyph glyph-name="slash" unicode="/" horiz-adv-x="365" 
d="M120 0h-114l240 749h114z" />
    <glyph glyph-name="zero" unicode="0" horiz-adv-x="583" 
d="M292 750q54 0 102.5 -20.5t84.5 -56.5t57 -84.5t21 -103.5v-222q-1 -54 -22 -102t-57 -84t-84 -56.5t-102 -20.5q-55 0 -103.5 20.5t-84.5 56.5t-56.5 84t-20.5 102v222q0 55 20.5 103.5t56.5 84.5t84.5 56.5t103.5 20.5zM447 485q0 32 -12.5 60t-33.5 49t-49 33t-60 12
q-33 0 -61.5 -12t-49.5 -33t-33.5 -49t-12.5 -60v-224q1 -31 13.5 -59t34 -49t49.5 -33t60 -12t60 12.5t49 33.5t33 49t13 60v222z" />
    <glyph glyph-name="one" unicode="1" horiz-adv-x="268" 
d="M235 750v-750h-106v495q-24 -22 -38 -37q-8 -9 -15 -16l-76 74z" />
    <glyph glyph-name="two" unicode="2" horiz-adv-x="587" 
d="M562 0h-541l369 368q45 52 45 112q0 33 -12 61.5t-33 51.5q-50 45 -113 45q-32 0 -60 -12.5t-50 -32.5q-11 -12 -20.5 -25t-14.5 -28l-104 43q19 49 59 89q42 39 90 58t100 19q42 0 81 -12t71.5 -34t58.5 -53t40 -67q20 -52 20 -103q0 -58 -21.5 -104.5t-59.5 -85.5
l-176 -177h271v-113z" />
    <glyph glyph-name="three" unicode="3" horiz-adv-x="525" 
d="M479 593q20 -44 20 -97q0 -33 -7.5 -62t-24.5 -61q32 -53 32 -123q0 -53 -19 -97q-14 -33 -37.5 -61t-53 -48.5t-65.5 -32t-75 -11.5q-46 0 -92.5 18.5t-83.5 55.5q-33 32 -53 80l95 39q6 -14 14 -25t18 -22q42 -42 102 -42q17 0 31.5 2.5t27.5 8.5q13 5 24 13t22 18
q10 11 18 22t14 25q10 27 10 57q0 11 -1 21t-3 21q-1 4 -6 17.5t-16 27.5q-7 9 -13.5 15t-13.5 11t-14 9q15 9 25 19q20 20 31 47.5t11 57.5q0 28 -10.5 54.5t-31 46.5t-47.5 32t-58 12q-28 0 -54 -10.5t-47 -31.5q-20 -20 -32 -47l-96 40q19 44 54 78q34 35 79.5 55
t95.5 20q75 0 135.5 -41t94.5 -111z" />
    <glyph glyph-name="four" unicode="4" horiz-adv-x="608" 
d="M161 322h413v-322h-107v217h-466v89q85 85 150 149.5t116.5 116t95 94t85.5 84.5h131z" />
    <glyph glyph-name="five" unicode="5" horiz-adv-x="515" 
d="M472 372q10 -26 15.5 -51.5t5.5 -51.5q0 -55 -21.5 -103t-57.5 -85t-85 -58.5t-104 -21.5q-27 0 -52 5.5t-51 15.5q-49 21 -85 57l78 78q20 -20 50 -33q27 -13 60 -13q29 0 57.5 11.5t50.5 32.5t36 50t14 64q0 31 -13.5 60.5t-35 50.5t-50.5 33.5t-61 11.5h-194v324h2
h385l77 -111h-353v-104h85q39 0 76 -11.5t69.5 -32.5t58.5 -51.5t43 -66.5z" />
    <glyph glyph-name="six" unicode="6" horiz-adv-x="576" 
d="M533 371q20 -50 20 -101q0 -57 -22.5 -106.5t-60 -86t-86 -57t-100.5 -20.5q-56 0 -105 22t-86 59.5t-58 86.5t-21 102q0 54 20.5 103.5t59.5 84.5l288 292h156l-366 -370q-23 -20 -35 -50.5t-12 -59.5q0 -33 13 -62.5t35 -50.5t51 -33t60 -12q33 0 62.5 13t50 34.5
t33 50.5t12.5 60q0 20 -6.5 40.5t-17 39t-24 32.5t-29.5 22l58 95q37 -21 66 -56t44 -72z" />
    <glyph glyph-name="seven" unicode="7" horiz-adv-x="595" 
d="M196 0h-122q92 175 166 314q31 61 61 118t55 102.5t41 75.5t18 35h-396l82 105h489z" />
    <glyph glyph-name="eight" unicode="8" horiz-adv-x="552" 
d="M494 376q14 -30 23 -60t9 -66q0 -51 -19 -97.5t-52.5 -79.5t-80 -53t-98.5 -20q-47 0 -93 19.5t-80 52t-55 79t-21 99.5q0 34 7.5 65.5t24.5 60.5q-32 51 -32 122q0 49 19.5 95t52.5 80.5t79.5 55t97.5 20.5h1q48 -1 94 -21t80.5 -53.5t54.5 -79.5t20 -97q0 -31 -8 -60.5
t-24 -61.5zM419 291q-31 -20 -67 -30t-74 -11v103q29 1 55 13t46.5 32t33.5 46.5t13 55.5t-11.5 55.5t-32.5 47t-47.5 33.5t-56.5 13q-28 0 -55 -11.5t-47.5 -32t-33.5 -47.5t-13 -58q0 -9 1.5 -19t3.5 -20q66 42 145 43v-103q-28 -1 -55 -12.5t-48 -32t-34 -47t-13 -57.5
q0 -29 12 -55.5t32.5 -46.5t47.5 -33t57 -13q28 0 54 12t47 32t34 46.5t13 57.5q0 22 -7 39z" />
    <glyph glyph-name="nine" unicode="9" horiz-adv-x="573" 
d="M101 288q-39 39 -58.5 89t-19.5 101t19.5 100t58.5 88q39 41 89 60.5t101 19.5t101 -19.5t89 -60.5q39 -39 58.5 -88t19.5 -100t-19.5 -101t-58.5 -89v0l-83 -82l-205 -206h-157l159 159l207 207q24 23 35.5 52t11.5 59t-11.5 59t-35.5 52q-23 24 -52.5 35.5t-59.5 11.5
t-59 -11.5t-51 -35.5q-24 -23 -35.5 -52t-11.5 -59t11.5 -59t35.5 -52q15 -15 31 -23l-58 -96q-30 19 -52 41z" />
    <glyph glyph-name="question" unicode="?" horiz-adv-x="455" 
d="M176 105h103v-105h-103v105zM366 668q37 -37 56 -83.5t19 -95.5t-19 -96t-56 -84l-24 -24l-22 -24l-2 -2q-23 -25 -32.5 -56.5t-4.5 -63.5v-2h-105q-5 51 11.5 102.5t54.5 91.5l28 31l22 23q22 21 33 48.5t11 56t-11 56t-33 48.5q-21 22 -48.5 33t-56 11t-56 -11
t-48.5 -33l-74 74q37 37 83.5 56t95 19t95 -19t83.5 -56z" />
    <glyph glyph-name="A" unicode="A" horiz-adv-x="550" 
d="M273 0q-52 0 -97.5 20t-79.5 54t-53.5 79.5t-19.5 96.5q0 52 19.5 97.5t53.5 79.5t79.5 53.5t97.5 19.5t97.5 -19.5t79.5 -53.5t53.5 -79.5t19.5 -97.5v-250h-104v250q0 31 -11.5 58t-31.5 47t-46.5 31.5t-56.5 11.5t-56.5 -11.5t-46.5 -31.5t-31.5 -47t-11.5 -58
q0 -30 11.5 -56.5t31.5 -46.5t46.5 -31.5t56.5 -11.5q10 0 18.5 1t17.5 3l24 -101q-45 -7 -60 -7z" />
    <glyph glyph-name="B" unicode="B" 
d="M282 500q52 0 97.5 -19.5t79.5 -53.5t53.5 -79.5t19.5 -97.5t-19.5 -97.5t-53.5 -79.5t-79.5 -53.5t-97.5 -19.5t-97.5 19.5t-79.5 53.5t-53.5 79.5t-19.5 97.5v380l104 102v-482q0 -30 11.5 -56.5t31.5 -46.5t46.5 -31.5t56.5 -11.5t56.5 11.5t46.5 31.5t31.5 46.5
t11.5 56.5t-11.5 56.5t-31.5 46.5t-46.5 31.5t-56.5 11.5q-10 0 -19 -1t-17 -3l-24 101q14 2 28.5 4.5t31.5 2.5z" />
    <glyph glyph-name="C" unicode="C" horiz-adv-x="476" 
d="M274 104q31 0 56 10.5t45 28.5l75 -72l-2 -2q-33 -32 -78 -50.5t-96 -18.5t-96.5 19.5t-79.5 53.5t-54 79.5t-20 97.5t20 98t54 80t79.5 53.5t96.5 19.5t96 -18.5t78 -50.5l2 -2l-75 -72q-20 18 -45 28.5t-56 10.5q-30 0 -56.5 -11.5t-46.5 -31.5t-31.5 -47t-11.5 -57
t11.5 -56.5t31.5 -46.5t46.5 -31.5t56.5 -11.5z" />
    <glyph glyph-name="D" unicode="D" horiz-adv-x="542" 
d="M510 250q0 -52 -19.5 -97.5t-53.5 -79.5t-80 -53.5t-98 -19.5t-97.5 19.5t-79.5 53.5t-53.5 79.5t-19.5 97.5v15t2 15q5 46 26.5 86.5t55 70.5t76 47t90.5 17q16 0 31.5 -2.5t29.5 -4.5l-24 -101q-10 2 -18.5 3t-18.5 1q-30 0 -56.5 -11.5t-46.5 -31.5t-31.5 -47
t-11.5 -57t11.5 -56.5t31.5 -46.5t46.5 -31.5t56.5 -11.5t57 11.5t47 31.5t31.5 46.5t11.5 56.5v483l104 -102v-381z" />
    <glyph glyph-name="E" unicode="E" horiz-adv-x="547" 
d="M275 104q30 0 56.5 11.5t46.5 31t31.5 46t11.5 57.5h104q0 -52 -19.5 -97.5t-53.5 -79.5t-79.5 -53.5t-97.5 -19.5t-97.5 19.5t-79.5 53.5t-53.5 79.5t-19.5 97.5t19.5 97.5t53.5 79.5t79.5 53.5t97.5 19.5q51 0 95 -18.5t78 -50.5l2 -2l68 -70l-112 -111h-138l107 110
q-19 17 -45 27.5t-55 10.5q-30 0 -56.5 -11.5t-46.5 -31.5t-31.5 -46.5t-11.5 -56.5t11.5 -56.5t31.5 -46.5t46.5 -31.5t56.5 -11.5z" />
    <glyph glyph-name="F" unicode="F" horiz-adv-x="288" 
d="M278 602q-30 0 -56.5 -11.5t-46.5 -31t-31.5 -46t-11.5 -56.5v-6q62 47 146 47v-101q-26 0 -48 -8.5t-41 -22.5q-23 -18 -38.5 -44t-18.5 -58v-264h-103v457q-1 51 19 96.5t54 79t79.5 53.5t96.5 20v-104z" />
    <glyph glyph-name="G" unicode="G" 
d="M491 349q9 -23 14 -48t5 -51v-309q0 -55 -21.5 -102.5t-58.5 -82.5l-77 71q25 21 40 50.5t14 63.5l-1 311q0 28 -12 57q-2 6 -5 11.5t-7 12.5q-20 30 -52.5 47.5t-71.5 17.5q-30 0 -56 -11.5t-46 -31.5t-31.5 -46.5t-11.5 -56.5t11.5 -57t31.5 -47t46 -31.5t56 -11.5
q11 0 20 0.5t18 3.5l24 -100q-14 -5 -29.5 -7t-32.5 -2q-47 0 -89.5 17t-76 47t-55 70.5t-26.5 87.5q-2 9 -2 16v14q0 52 19.5 97t53.5 79t79.5 53.5t96.5 19.5q39 0 75 -11t66.5 -31.5t54 -48.5t37.5 -61z" />
    <glyph glyph-name="H" unicode="H" horiz-adv-x="548" 
d="M536 0h-104v251q0 30 -11.5 56.5t-31.5 46.5t-46.5 31.5t-56.5 11.5q-31 0 -58 -11.5t-46.5 -31.5t-31 -46.5t-11.5 -56.5v-251h-104v627l104 105v-278q30 22 67.5 34.5t79.5 12.5q51 -1 97 -21t80 -53.5t54 -79t19 -96.5v-251z" />
    <glyph glyph-name="I" unicode="I" horiz-adv-x="161" 
d="M128 0h-103v500h103v-500zM128 605h-103v22l103 104v-126z" />
    <glyph glyph-name="J" unicode="J" horiz-adv-x="200" 
d="M169 -21v-38v-1q0 -56 -22 -103t-60 -82l-76 71q53 42 53 114v1v559h105v-521z" />
    <glyph glyph-name="K" unicode="K" horiz-adv-x="463" 
d="M340 328q51 -35 81.5 -90t28.5 -119v-119h-103v119q0 30 -11.5 56.5t-31.5 46.5t-47 31.5t-58 11.5h-15h-8h-1h-38v-265h-102v630l102 104v-364h39q30 0 56.5 11.5t46.5 31t31.5 46.5t11.5 57h104q0 -57 -23.5 -105.5t-62.5 -82.5z" />
    <glyph glyph-name="L" unicode="L" horiz-adv-x="169" 
d="M30 630l104 104v-734h-104v630z" />
    <glyph glyph-name="M" unicode="M" horiz-adv-x="779" 
d="M747 0h-104v250q0 30 -11.5 57t-31.5 47t-47 31.5t-57 11.5q-32 0 -59.5 -13t-48.5 -33l-2 2q-1 1 -4.5 3.5t-7.5 7.5q-20 15 -43 24t-49 9q-31 0 -57.5 -11.5t-46.5 -31.5t-31.5 -47t-11.5 -57v-250h-104v250v7q1 51 21 95.5t54 77.5t79.5 52t96.5 19q29 0 56 -6.5
t50 -17.5q25 11 52 17.5t56 6.5q52 -1 98 -21t80 -54t54 -79.5t19 -96.5v-250z" />
    <glyph glyph-name="N" unicode="N" horiz-adv-x="561" 
d="M531 0h-104v250q0 30 -11.5 57t-31.5 46.5t-46.5 31t-56.5 11.5t-56.5 -11.5t-46.5 -31t-31.5 -46.5t-11.5 -57v-250h-104v250q-1 51 18.5 96.5t53.5 79.5t80 54t98 20t98 -20t80 -54t53.5 -79.5t18.5 -96.5v-250z" />
    <glyph glyph-name="O" unicode="O" horiz-adv-x="547" 
d="M273 500q51 0 96.5 -19.5t79.5 -53.5t54 -79.5t20 -97.5t-20 -97.5t-54 -79t-79.5 -53t-96.5 -19.5q-52 0 -97.5 19.5t-79 53t-53 79t-19.5 97.5t19.5 97.5t53 79.5t79 53.5t97.5 19.5zM273 105q30 0 57 11.5t46.5 31t31 46t11.5 56.5t-11.5 57t-31 46.5t-46.5 31
t-57 11.5t-57 -11.5t-47 -31t-31.5 -46.5t-11.5 -57t11.5 -56.5t31.5 -46t47 -31t57 -11.5z" />
    <glyph glyph-name="P" unicode="P" horiz-adv-x="538" 
d="M279 0q-33 0 -61 7l25 101q16 -6 36 -6q30 0 57 11.5t47 31.5t31.5 47t11.5 58q0 30 -11.5 56.5t-31.5 46.5t-47 31.5t-57 11.5t-57 -11.5t-47 -31.5t-31.5 -46.5t-11.5 -56.5v-2v-481l-102 103v378v2q0 51 19.5 96.5t53 79.5t79 54t97.5 20q51 0 97 -20t80 -54t54 -79.5
t20 -96.5q0 -52 -20 -97.5t-54 -79.5t-80 -53.5t-97 -19.5z" />
    <glyph glyph-name="Q" unicode="Q" horiz-adv-x="539" 
d="M509 -131l-104 -104v483v2q0 30 -11.5 56.5t-31 46.5t-46.5 31.5t-57 11.5t-57 -11.5t-47 -31.5t-31.5 -46.5t-11.5 -56.5q0 -31 11.5 -58t31.5 -47t47 -31.5t57 -11.5q17 0 37 6l23 -101q-14 -5 -29.5 -6t-30.5 -1q-48 0 -91 17t-76.5 47t-55 70t-26.5 86q-2 7 -2 14.5
v15.5q0 51 19.5 97t53.5 80t80 54t98 20t97.5 -20t79.5 -54t53.5 -80t19.5 -97v-2v-379z" />
    <glyph glyph-name="R" unicode="R" horiz-adv-x="283" 
d="M25 250q-1 51 18.5 96.5t53.5 79.5t80 54t98 20v-104q-30 0 -56.5 -11.5t-46.5 -31t-31.5 -46.5t-11.5 -57v-250h-104v250z" />
    <glyph glyph-name="S" unicode="S" horiz-adv-x="410" 
d="M404 394q-30 0 -56.5 -11.5t-46 -32t-31 -47t-11.5 -56.5q-1 -51 -21 -95.5t-54.5 -78t-80 -53t-96.5 -19.5v107q30 0 56.5 11.5t46 31t31 46t11.5 56.5q1 51 20.5 96t53 79t78.5 53.5t96 19.5z" />
    <glyph glyph-name="T" unicode="T" horiz-adv-x="287" 
d="M129 251q0 -30 11.5 -57t31.5 -47t47 -31.5t57 -11.5v-104q-51 0 -96 19.5t-79 52.5t-54.5 78t-21.5 96v386l104 105v-237h145v-104h-145v-132v-13z" />
    <glyph glyph-name="U" unicode="U" horiz-adv-x="557" 
d="M528 250q1 -51 -18.5 -96.5t-53.5 -79t-79.5 -53.5t-96.5 -21h-2q-51 1 -96.5 21t-79.5 53.5t-53.5 79t-18.5 96.5v250h105l-1 -250q0 -30 11 -56.5t30.5 -46.5t46 -31.5t56.5 -11.5q31 0 57.5 11.5t46 31.5t31 46.5t11.5 56.5v250h104v-250z" />
    <glyph glyph-name="V" unicode="V" horiz-adv-x="553" 
d="M462 502l76 -76l-224 -426h-77l-222 426l76 76l184 -356z" />
    <glyph glyph-name="W" unicode="W" horiz-adv-x="774" 
d="M743 251q1 -52 -18 -98t-53 -80t-80 -53.5t-97 -19.5q-29 0 -56 6.5t-52 17.5q-25 -11 -52 -17.5t-54 -6.5q-52 0 -97.5 19t-79 52t-53.5 77t-21 95v257h102v-229v-20q0 -30 11.5 -57t31.5 -47t47 -31.5t57 -11.5q54 0 93 33q5 3 7.5 6t5.5 5v1q1 1 2 1q20 -22 47 -34
t59 -12q31 0 58 11.5t47 31.5t31.5 47t11.5 57v249h102v-249z" />
    <glyph glyph-name="X" unicode="X" horiz-adv-x="568" 
d="M430 453q0 26 -7 47h107q2 -12 3 -23.5t1 -23.5q0 -63 -26.5 -114t-72.5 -85q46 -35 72.5 -87t26.5 -112q0 -14 -1.5 -27.5t-3.5 -27.5h-108q4 12 6.5 26t2.5 29q0 30 -11.5 56.5t-31.5 46.5t-46.5 31.5t-56.5 11.5t-56.5 -11.5t-46.5 -31.5t-31.5 -46.5t-11.5 -56.5
q0 -15 2.5 -29t6.5 -26h-108q-2 14 -3.5 27.5t-1.5 27.5q0 60 26.5 112t72.5 87q-46 34 -72.5 85t-26.5 114q0 12 1.5 23.5t3.5 23.5h106q-7 -21 -7 -47q0 -31 11.5 -58t31.5 -47t46.5 -31.5t56.5 -11.5t56.5 11.5t46.5 31.5t31.5 47t11.5 58z" />
    <glyph glyph-name="Y" unicode="Y" horiz-adv-x="545" 
d="M513 -23v-35q0 -55 -21.5 -103.5t-59.5 -83.5l-77 70v2q25 21 40 51t15 64v108q-32 -24 -70 -37t-80 -13q-52 0 -98 20t-80 54t-54 80t-20 99v7q0 7 1 14.5t1 13.5q9 55 37 101l83 -65q-18 -30 -18 -71q0 -31 11.5 -58t32 -47t47.5 -31.5t57 -11.5q31 0 58 11.5
t47.5 31.5t32.5 47t12 58q0 25 -7.5 45.5t-20.5 38.5l81 66q24 -32 37 -69.5t13 -80.5v-276z" />
    <glyph glyph-name="Z" unicode="Z" horiz-adv-x="550" 
d="M375 104q42 0 79.5 -13t69.5 -36l-65 -80q-38 25 -84 25h-348v138q25 0 47 8v0v0q30 11 114 94l156 158h-21h-296v103h286h23h10q42 0 79.5 -14t69.5 -37v0q18 -11 25 -23q-320 -322 -322 -324z" />
    <glyph glyph-name="a" unicode="a" horiz-adv-x="550" 
d="M273 0q-52 0 -97.5 20t-79.5 54t-53.5 79.5t-19.5 96.5q0 52 19.5 97.5t53.5 79.5t79.5 53.5t97.5 19.5t97.5 -19.5t79.5 -53.5t53.5 -79.5t19.5 -97.5v-250h-104v250q0 31 -11.5 58t-31.5 47t-46.5 31.5t-56.5 11.5t-56.5 -11.5t-46.5 -31.5t-31.5 -47t-11.5 -58
q0 -30 11.5 -56.5t31.5 -46.5t46.5 -31.5t56.5 -11.5q10 0 18.5 1t17.5 3l24 -101q-45 -7 -60 -7z" />
    <glyph glyph-name="b" unicode="b" 
d="M282 500q52 0 97.5 -19.5t79.5 -53.5t53.5 -79.5t19.5 -97.5t-19.5 -97.5t-53.5 -79.5t-79.5 -53.5t-97.5 -19.5t-97.5 19.5t-79.5 53.5t-53.5 79.5t-19.5 97.5v380l104 102v-482q0 -30 11.5 -56.5t31.5 -46.5t46.5 -31.5t56.5 -11.5t56.5 11.5t46.5 31.5t31.5 46.5
t11.5 56.5t-11.5 56.5t-31.5 46.5t-46.5 31.5t-56.5 11.5q-10 0 -19 -1t-17 -3l-24 101q14 2 28.5 4.5t31.5 2.5z" />
    <glyph glyph-name="c" unicode="c" horiz-adv-x="476" 
d="M274 104q31 0 56 10.5t45 28.5l75 -72l-2 -2q-33 -32 -78 -50.5t-96 -18.5t-96.5 19.5t-79.5 53.5t-54 79.5t-20 97.5t20 98t54 80t79.5 53.5t96.5 19.5t96 -18.5t78 -50.5l2 -2l-75 -72q-20 18 -45 28.5t-56 10.5q-30 0 -56.5 -11.5t-46.5 -31.5t-31.5 -47t-11.5 -57
t11.5 -56.5t31.5 -46.5t46.5 -31.5t56.5 -11.5z" />
    <glyph glyph-name="d" unicode="d" horiz-adv-x="542" 
d="M510 250q0 -52 -19.5 -97.5t-53.5 -79.5t-80 -53.5t-98 -19.5t-97.5 19.5t-79.5 53.5t-53.5 79.5t-19.5 97.5v15t2 15q5 46 26.5 86.5t55 70.5t76 47t90.5 17q16 0 31.5 -2.5t29.5 -4.5l-24 -101q-10 2 -18.5 3t-18.5 1q-30 0 -56.5 -11.5t-46.5 -31.5t-31.5 -47
t-11.5 -57t11.5 -56.5t31.5 -46.5t46.5 -31.5t56.5 -11.5t57 11.5t47 31.5t31.5 46.5t11.5 56.5v483l104 -102v-381z" />
    <glyph glyph-name="e" unicode="e" horiz-adv-x="547" 
d="M275 104q30 0 56.5 11.5t46.5 31t31.5 46t11.5 57.5h104q0 -52 -19.5 -97.5t-53.5 -79.5t-79.5 -53.5t-97.5 -19.5t-97.5 19.5t-79.5 53.5t-53.5 79.5t-19.5 97.5t19.5 97.5t53.5 79.5t79.5 53.5t97.5 19.5q51 0 95 -18.5t78 -50.5l2 -2l68 -70l-112 -111h-138l107 110
q-19 17 -45 27.5t-55 10.5q-30 0 -56.5 -11.5t-46.5 -31.5t-31.5 -46.5t-11.5 -56.5t11.5 -56.5t31.5 -46.5t46.5 -31.5t56.5 -11.5z" />
    <glyph glyph-name="f" unicode="f" horiz-adv-x="288" 
d="M278 602q-30 0 -56.5 -11.5t-46.5 -31t-31.5 -46t-11.5 -56.5v-6q62 47 146 47v-101q-26 0 -48 -8.5t-41 -22.5q-23 -18 -38.5 -44t-18.5 -58v-264h-103v457q-1 51 19 96.5t54 79t79.5 53.5t96.5 20v-104z" />
    <glyph glyph-name="g" unicode="g" 
d="M491 349q9 -23 14 -48t5 -51v-309q0 -55 -21.5 -102.5t-58.5 -82.5l-77 71q25 21 40 50.5t14 63.5l-1 311q0 28 -12 57q-2 6 -5 11.5t-7 12.5q-20 30 -52.5 47.5t-71.5 17.5q-30 0 -56 -11.5t-46 -31.5t-31.5 -46.5t-11.5 -56.5t11.5 -57t31.5 -47t46 -31.5t56 -11.5
q11 0 20 0.5t18 3.5l24 -100q-14 -5 -29.5 -7t-32.5 -2q-47 0 -89.5 17t-76 47t-55 70.5t-26.5 87.5q-2 9 -2 16v14q0 52 19.5 97t53.5 79t79.5 53.5t96.5 19.5q39 0 75 -11t66.5 -31.5t54 -48.5t37.5 -61z" />
    <glyph glyph-name="h" unicode="h" horiz-adv-x="548" 
d="M536 0h-104v251q0 30 -11.5 56.5t-31.5 46.5t-46.5 31.5t-56.5 11.5q-31 0 -58 -11.5t-46.5 -31.5t-31 -46.5t-11.5 -56.5v-251h-104v627l104 105v-278q30 22 67.5 34.5t79.5 12.5q51 -1 97 -21t80 -53.5t54 -79t19 -96.5v-251z" />
    <glyph glyph-name="i" unicode="i" horiz-adv-x="161" 
d="M128 0h-103v500h103v-500zM128 605h-103v22l103 104v-126z" />
    <glyph glyph-name="j" unicode="j" horiz-adv-x="200" 
d="M169 -21v-38v-1q0 -56 -22 -103t-60 -82l-76 71q53 42 53 114v1v559h105v-521z" />
    <glyph glyph-name="k" unicode="k" horiz-adv-x="463" 
d="M340 328q51 -35 81.5 -90t28.5 -119v-119h-103v119q0 30 -11.5 56.5t-31.5 46.5t-47 31.5t-58 11.5h-15h-8h-1h-38v-265h-102v630l102 104v-364h39q30 0 56.5 11.5t46.5 31t31.5 46.5t11.5 57h104q0 -57 -23.5 -105.5t-62.5 -82.5z" />
    <glyph glyph-name="l" unicode="l" horiz-adv-x="169" 
d="M30 630l104 104v-734h-104v630z" />
    <glyph glyph-name="m" unicode="m" horiz-adv-x="779" 
d="M747 0h-104v250q0 30 -11.5 57t-31.5 47t-47 31.5t-57 11.5q-32 0 -59.5 -13t-48.5 -33l-2 2q-1 1 -4.5 3.5t-7.5 7.5q-20 15 -43 24t-49 9q-31 0 -57.5 -11.5t-46.5 -31.5t-31.5 -47t-11.5 -57v-250h-104v250v7q1 51 21 95.5t54 77.5t79.5 52t96.5 19q29 0 56 -6.5
t50 -17.5q25 11 52 17.5t56 6.5q52 -1 98 -21t80 -54t54 -79.5t19 -96.5v-250z" />
    <glyph glyph-name="n" unicode="n" horiz-adv-x="561" 
d="M531 0h-104v250q0 30 -11.5 57t-31.5 46.5t-46.5 31t-56.5 11.5t-56.5 -11.5t-46.5 -31t-31.5 -46.5t-11.5 -57v-250h-104v250q-1 51 18.5 96.5t53.5 79.5t80 54t98 20t98 -20t80 -54t53.5 -79.5t18.5 -96.5v-250z" />
    <glyph glyph-name="o" unicode="o" horiz-adv-x="547" 
d="M273 500q51 0 96.5 -19.5t79.5 -53.5t54 -79.5t20 -97.5t-20 -97.5t-54 -79t-79.5 -53t-96.5 -19.5q-52 0 -97.5 19.5t-79 53t-53 79t-19.5 97.5t19.5 97.5t53 79.5t79 53.5t97.5 19.5zM273 105q30 0 57 11.5t46.5 31t31 46t11.5 56.5t-11.5 57t-31 46.5t-46.5 31
t-57 11.5t-57 -11.5t-47 -31t-31.5 -46.5t-11.5 -57t11.5 -56.5t31.5 -46t47 -31t57 -11.5z" />
    <glyph glyph-name="p" unicode="p" horiz-adv-x="538" 
d="M279 0q-33 0 -61 7l25 101q16 -6 36 -6q30 0 57 11.5t47 31.5t31.5 47t11.5 58q0 30 -11.5 56.5t-31.5 46.5t-47 31.5t-57 11.5t-57 -11.5t-47 -31.5t-31.5 -46.5t-11.5 -56.5v-2v-481l-102 103v378v2q0 51 19.5 96.5t53 79.5t79 54t97.5 20q51 0 97 -20t80 -54t54 -79.5
t20 -96.5q0 -52 -20 -97.5t-54 -79.5t-80 -53.5t-97 -19.5z" />
    <glyph glyph-name="q" unicode="q" horiz-adv-x="539" 
d="M509 -131l-104 -104v483v2q0 30 -11.5 56.5t-31 46.5t-46.5 31.5t-57 11.5t-57 -11.5t-47 -31.5t-31.5 -46.5t-11.5 -56.5q0 -31 11.5 -58t31.5 -47t47 -31.5t57 -11.5q17 0 37 6l23 -101q-14 -5 -29.5 -6t-30.5 -1q-48 0 -91 17t-76.5 47t-55 70t-26.5 86q-2 7 -2 14.5
v15.5q0 51 19.5 97t53.5 80t80 54t98 20t97.5 -20t79.5 -54t53.5 -80t19.5 -97v-2v-379z" />
    <glyph glyph-name="r" unicode="r" horiz-adv-x="283" 
d="M25 250q-1 51 18.5 96.5t53.5 79.5t80 54t98 20v-104q-30 0 -56.5 -11.5t-46.5 -31t-31.5 -46.5t-11.5 -57v-250h-104v250z" />
    <glyph glyph-name="s" unicode="s" horiz-adv-x="410" 
d="M404 394q-30 0 -56.5 -11.5t-46 -32t-31 -47t-11.5 -56.5q-1 -51 -21 -95.5t-54.5 -78t-80 -53t-96.5 -19.5v107q30 0 56.5 11.5t46 31t31 46t11.5 56.5q1 51 20.5 96t53 79t78.5 53.5t96 19.5z" />
    <glyph glyph-name="t" unicode="t" horiz-adv-x="287" 
d="M129 251q0 -30 11.5 -57t31.5 -47t47 -31.5t57 -11.5v-104q-51 0 -96 19.5t-79 52.5t-54.5 78t-21.5 96v386l104 105v-237h145v-104h-145v-132v-13z" />
    <glyph glyph-name="u" unicode="u" horiz-adv-x="557" 
d="M528 250q1 -51 -18.5 -96.5t-53.5 -79t-79.5 -53.5t-96.5 -21h-2q-51 1 -96.5 21t-79.5 53.5t-53.5 79t-18.5 96.5v250h105l-1 -250q0 -30 11 -56.5t30.5 -46.5t46 -31.5t56.5 -11.5q31 0 57.5 11.5t46 31.5t31 46.5t11.5 56.5v250h104v-250z" />
    <glyph glyph-name="v" unicode="v" horiz-adv-x="553" 
d="M462 502l76 -76l-224 -426h-77l-222 426l76 76l184 -356z" />
    <glyph glyph-name="w" unicode="w" horiz-adv-x="774" 
d="M743 251q1 -52 -18 -98t-53 -80t-80 -53.5t-97 -19.5q-29 0 -56 6.5t-52 17.5q-25 -11 -52 -17.5t-54 -6.5q-52 0 -97.5 19t-79 52t-53.5 77t-21 95v257h102v-229v-20q0 -30 11.5 -57t31.5 -47t47 -31.5t57 -11.5q54 0 93 33q5 3 7.5 6t5.5 5v1q1 1 2 1q20 -22 47 -34
t59 -12q31 0 58 11.5t47 31.5t31.5 47t11.5 57v249h102v-249z" />
    <glyph glyph-name="x" unicode="x" horiz-adv-x="568" 
d="M430 453q0 26 -7 47h107q2 -12 3 -23.5t1 -23.5q0 -63 -26.5 -114t-72.5 -85q46 -35 72.5 -87t26.5 -112q0 -14 -1.5 -27.5t-3.5 -27.5h-108q4 12 6.5 26t2.5 29q0 30 -11.5 56.5t-31.5 46.5t-46.5 31.5t-56.5 11.5t-56.5 -11.5t-46.5 -31.5t-31.5 -46.5t-11.5 -56.5
q0 -15 2.5 -29t6.5 -26h-108q-2 14 -3.5 27.5t-1.5 27.5q0 60 26.5 112t72.5 87q-46 34 -72.5 85t-26.5 114q0 12 1.5 23.5t3.5 23.5h106q-7 -21 -7 -47q0 -31 11.5 -58t31.5 -47t46.5 -31.5t56.5 -11.5t56.5 11.5t46.5 31.5t31.5 47t11.5 58z" />
    <glyph glyph-name="y" unicode="y" horiz-adv-x="545" 
d="M513 -23v-35q0 -55 -21.5 -103.5t-59.5 -83.5l-77 70v2q25 21 40 51t15 64v108q-32 -24 -70 -37t-80 -13q-52 0 -98 20t-80 54t-54 80t-20 99v7q0 7 1 14.5t1 13.5q9 55 37 101l83 -65q-18 -30 -18 -71q0 -31 11.5 -58t32 -47t47.5 -31.5t57 -11.5q31 0 58 11.5
t47.5 31.5t32.5 47t12 58q0 25 -7.5 45.5t-20.5 38.5l81 66q24 -32 37 -69.5t13 -80.5v-276z" />
    <glyph glyph-name="z" unicode="z" horiz-adv-x="550" 
d="M375 104q42 0 79.5 -13t69.5 -36l-65 -80q-38 25 -84 25h-348v138q25 0 47 8v0v0q30 11 114 94l156 158h-21h-296v103h286h23h10q42 0 79.5 -14t69.5 -37v0q18 -11 25 -23q-320 -322 -322 -324z" />
    <glyph glyph-name="quoteleft" unicode="&#x2018;" horiz-adv-x="180" 
d="M124 460q0 -35 15 -65.5t41 -50.5v-2l-78 -70q-38 35 -60 83t-22 105v40h104v-40z" />
    <glyph glyph-name="quoteright" unicode="&#x2019;" horiz-adv-x="180" 
d="M56 500h104v-40q0 -57 -22 -105t-60 -83l-78 70v2q26 20 41 50.5t15 65.5v40z" />
    <glyph glyph-name="quotesinglbase" unicode="&#x201a;" horiz-adv-x="154" 
d="M20 95h104v-40q0 -57 -22 -105t-60 -83l-78 70v2q26 20 41 50.5t15 65.5v40z" />
    <glyph glyph-name="quotedblleft" unicode="&#x201c;" horiz-adv-x="328" 
d="M124 460q0 -35 15 -65.5t41 -50.5v-2l-78 -70q-38 35 -60 83t-22 105v40h104v-40zM272 460q0 -35 15 -65.5t41 -50.5v-2l-78 -70q-38 35 -60 83t-22 105v40h104v-40z" />
    <glyph glyph-name="quotedblright" unicode="&#x201d;" horiz-adv-x="329" 
d="M56 500h104v-40q0 -57 -22 -105t-60 -83l-78 70v2q26 20 41 50.5t15 65.5v40zM205 500h104v-40q0 -57 -22 -105t-60 -83l-78 70v2q26 20 41 50.5t15 65.5v40z" />
    <glyph glyph-name="quotedblbase" unicode="&#x201e;" horiz-adv-x="304" 
d="M20 95h104v-40q0 -57 -22 -105t-60 -83l-78 70v2q26 20 41 50.5t15 65.5v40zM170 95h104v-40q0 -57 -22 -105t-60 -83l-78 70v2q26 20 41 50.5t15 65.5v40z" />
    </font>
</defs>
</svg>
