<svg width="1280" height="375" viewBox="0 0 1280 375" fill="none" xmlns="http://www.w3.org/2000/svg">
<path fill-rule="evenodd" clip-rule="evenodd" d="M184.612 44.9052C179.802 45.605 179.853 45.6229 186.348 45.5192C190.028 45.4594 193.04 45.0647 193.04 44.641C193.04 43.7966 192.004 43.8295 184.612 44.9052ZM194.749 44.5084C194.457 44.9819 201.873 45.3687 211.228 45.3677C220.584 45.3667 231.139 45.6658 234.684 46.0326C239.739 46.556 240.487 46.4782 238.154 45.6728C234.421 44.3838 195.467 43.3381 194.749 44.5084ZM67.3667 46.551C68.3215 46.8022 69.8821 46.8022 70.837 46.551C71.7918 46.3008 71.0105 46.0954 69.1018 46.0954C67.1932 46.0954 66.4119 46.3008 67.3667 46.551ZM-1.71359 47.7552C-5.52594 48.3444 -8.0057 50.8486 -4.77735 50.8486C-3.31885 50.8486 -3.30199 51.015 -4.62367 52.3439C-5.44166 53.1663 -6.58884 53.8392 -7.17383 53.8392C-7.75782 53.8392 -8.23573 54.2878 -8.23573 54.8361C-8.23573 55.3843 -7.70329 55.8329 -7.05187 55.8329C-6.40045 55.8329 -7.28686 56.8857 -9.021 58.1726C-12.2236 60.5472 -12.2722 61.8142 -9.15981 61.8142C-6.77028 61.8142 -6.89719 68.5471 -9.30259 69.3147C-10.2187 69.6068 -12.1988 70.9097 -13.7039 72.2107C-16.1827 74.352 -16.265 74.6201 -14.5695 75.0568C-12.7471 75.5263 -12.7471 75.5422 -14.5844 75.6549C-16.3225 75.7616 -16.2907 75.928 -14.1848 77.7643L-11.8984 79.758L-14.2809 79.8368C-15.5917 79.8797 -16.1341 80.1319 -15.4856 80.397C-14.7033 80.718 -15.0325 81.6073 -16.4662 83.0487C-18.4126 85.0056 -18.4542 85.2508 -16.8876 85.5539C-15.9328 85.7393 -15.4073 86.3046 -15.7186 86.812C-16.03 87.3184 -14.9195 87.7331 -13.2518 87.7331C-9.29763 87.7331 -9.34523 89.3759 -13.3251 90.2542C-15.6106 90.7586 -16.0696 91.1713 -15.0603 91.8133C-14.0707 92.4433 -14.0341 92.6916 -14.9284 92.7025C-15.6096 92.7105 -16.1678 93.0754 -16.1678 93.514C-16.1678 94.6863 -16.7359 94.6783 87.4447 94.9545C183.141 95.2087 218.242 94.7541 226.751 93.1511C231.09 92.3337 231.131 92.2918 228.239 91.6349C225.527 91.0188 225.636 90.949 229.478 90.8413C231.795 90.7765 233.692 90.2751 233.692 89.7268C233.692 89.1786 235.031 88.73 236.667 88.73C238.303 88.73 239.641 88.2335 239.641 87.6264C239.641 87.0193 240.289 86.7731 241.08 87.0781C241.871 87.3832 243.545 86.7731 244.798 85.7224L247.077 83.8124L244.599 83.7027C242.339 83.604 242.411 83.4874 245.412 82.3948L248.703 81.1965L246.203 78.483C244.827 76.9917 244.154 75.7705 244.707 75.7705C245.294 75.7705 245.49 74.3639 245.179 72.3921C244.609 68.7944 245.893 67.8413 251.35 67.8094C252.609 67.8015 253.389 67.3888 253.084 66.8913C252.778 66.3949 253.496 66.2424 254.679 66.5534C256.359 66.995 256.698 66.7697 256.223 65.5256C255.837 64.5148 256.229 63.7701 257.295 63.488C258.219 63.2427 257.614 62.9905 255.951 62.9267C254.288 62.8629 252.401 62.2818 251.757 61.6348C251.114 60.9878 248.682 60.1464 246.354 59.7656C242.474 59.1306 242.674 59.0628 248.754 58.9482C252.403 58.8794 255.664 58.375 256.001 57.8267C256.338 57.2784 258.707 56.786 261.265 56.7321L265.916 56.6344L261.625 55.4801C259.265 54.845 257.612 54.0465 257.951 53.7056C258.291 53.3647 255.091 52.7616 250.84 52.3658C245.354 51.8554 242.622 51.1247 241.424 49.8457C238.818 47.0634 227.001 46.5211 184.7 47.2408C127.818 48.2098 62.082 48.4281 30.4331 47.7552C14.8912 47.4243 0.425089 47.4243 -1.71359 47.7552ZM172.503 49.5885C169.66 49.7889 164.752 49.7909 161.597 49.5925C158.441 49.3941 160.767 49.2296 166.765 49.2276C172.764 49.2256 175.346 49.3881 172.503 49.5885ZM182.4 49.5087C181.729 49.7819 180.391 49.7988 179.426 49.5456C178.461 49.2924 179.01 49.0691 180.646 49.0492C182.282 49.0292 183.072 49.2356 182.4 49.5087ZM209.627 49.4569C209.298 49.7879 208.442 49.8238 207.727 49.5357C206.936 49.2177 207.171 48.9814 208.326 48.9335C209.371 48.8907 209.956 49.1259 209.627 49.4569ZM108.514 50.5385C107.559 50.7897 105.999 50.7897 105.044 50.5385C104.089 50.2883 104.87 50.0829 106.779 50.0829C108.688 50.0829 109.469 50.2883 108.514 50.5385ZM132.806 50.5724C131.034 50.7937 128.133 50.7937 126.361 50.5724C124.59 50.3521 126.039 50.1707 129.584 50.1707C133.128 50.1707 134.578 50.3521 132.806 50.5724ZM140.222 50.4538C139.892 50.7848 139.037 50.8206 138.322 50.5325C137.531 50.2145 137.766 49.9783 138.921 49.9304C139.966 49.8876 140.551 50.1228 140.222 50.4538ZM149.681 50.5056C149.009 50.7788 147.671 50.7957 146.706 50.5425C145.741 50.2893 146.291 50.066 147.927 50.0461C149.563 50.0261 150.352 50.2325 149.681 50.5056ZM126.097 82.6639C127.722 83.3019 127.378 83.5821 124.114 84.2759C118.324 85.507 116.694 85.5728 116.694 84.574C116.694 83.5572 120.415 81.8744 122.643 81.8854C123.461 81.8884 125.016 82.2393 126.097 82.6639ZM133.235 84.9299C132.919 85.7244 132.684 85.4881 132.637 84.3267C132.594 83.276 132.828 82.6879 133.157 83.0188C133.486 83.3498 133.522 84.2101 133.235 84.9299ZM140.738 83.4086C140.057 83.6857 138.942 83.6857 138.259 83.4086C137.578 83.1325 138.136 82.9062 139.499 82.9062C140.862 82.9062 141.42 83.1325 140.738 83.4086ZM95.8725 84.1852C95.8725 84.4274 95.4264 84.9019 94.881 85.2409C94.3357 85.5798 93.8895 85.3814 93.8895 84.8013C93.8895 84.2211 94.3357 83.7456 94.881 83.7456C95.4264 83.7456 95.8725 83.9429 95.8725 84.1852ZM167.863 86.2667C167.981 87.0731 167.671 87.7331 167.174 87.7331C166.676 87.7331 166.27 86.7611 166.27 85.5728C166.27 83.271 167.504 83.8084 167.863 86.2667ZM153.066 86.9236C152.749 87.7181 152.514 87.4819 152.467 86.3205C152.424 85.2698 152.658 84.6816 152.987 85.0126C153.316 85.3436 153.352 86.2039 153.066 86.9236ZM226.751 86.3444C226.751 86.5597 224.409 86.6724 221.546 86.5946C216.39 86.4551 216.378 86.4471 220.307 85.8081C224.009 85.207 226.751 85.4353 226.751 86.3444ZM243.855 85.4024C243.174 85.6795 242.058 85.6795 241.376 85.4024C240.695 85.1262 241.252 84.8999 242.616 84.8999C243.979 84.8999 244.537 85.1262 243.855 85.4024ZM79.0169 86.1311C79.0169 86.3464 78.3476 86.7811 77.5296 87.0971C76.7117 87.4121 76.0424 87.2356 76.0424 86.7053C76.0424 86.174 76.7117 85.7393 77.5296 85.7393C78.3476 85.7393 79.0169 85.9158 79.0169 86.1311ZM188.083 86.1211C188.083 86.3315 186.967 86.7183 185.604 86.9804C184.241 87.2426 183.125 87.0702 183.125 86.5976C183.125 86.1261 184.241 85.7393 185.604 85.7393C186.967 85.7393 188.083 85.9118 188.083 86.1211ZM211.135 86.4431C209.908 86.6804 207.901 86.6804 206.673 86.4431C205.446 86.2049 206.45 86.0105 208.904 86.0105C211.358 86.0105 212.363 86.2049 211.135 86.4431ZM94.6123 87.3383C94.2831 87.6693 93.4275 87.7052 92.7126 87.4171C91.9214 87.0991 92.1564 86.8628 93.3115 86.8149C94.3565 86.7721 94.9415 87.0073 94.6123 87.3383ZM100.83 87.7331C100.83 88.9822 99.7781 88.9822 97.8555 87.7331C96.6528 86.9515 96.7956 86.7641 98.5992 86.7512C99.8267 86.7432 100.83 87.1848 100.83 87.7331ZM105.788 87.7331C105.788 88.2814 105.591 88.73 105.35 88.73C105.109 88.73 104.637 88.2814 104.3 87.7331C103.963 87.1848 104.161 86.7362 104.738 86.7362C105.315 86.7362 105.788 87.1848 105.788 87.7331ZM124.378 87.45C122.879 87.6783 120.424 87.6783 118.925 87.45C117.426 87.2217 118.652 87.0353 121.652 87.0353C124.651 87.0353 125.878 87.2217 124.378 87.45ZM140.26 87.449C138.77 87.6763 136.093 87.6802 134.311 87.4589C132.53 87.2366 133.748 87.0502 137.02 87.0452C140.292 87.0393 141.751 87.2207 140.26 87.449ZM175.937 87.423C174.982 87.6743 173.421 87.6743 172.466 87.423C171.512 87.1728 172.293 86.9675 174.202 86.9675C176.11 86.9675 176.892 87.1728 175.937 87.423Z" fill="#4B6CB7"/>
<path fill-rule="evenodd" clip-rule="evenodd" d="M391.167 36.9052C386.357 37.605 386.408 37.6229 392.902 37.5192C396.583 37.4594 399.595 37.0647 399.595 36.641C399.595 35.7966 398.559 35.8295 391.167 36.9052ZM401.304 36.5084C401.012 36.9819 408.428 37.3687 417.783 37.3677C427.139 37.3667 437.694 37.6658 441.238 38.0326C446.294 38.556 447.042 38.4782 444.709 37.6728C440.976 36.3838 402.022 35.3381 401.304 36.5084ZM273.922 38.551C274.876 38.8022 276.437 38.8022 277.392 38.551C278.347 38.3008 277.565 38.0954 275.657 38.0954C273.748 38.0954 272.967 38.3008 273.922 38.551ZM204.841 39.7552C201.029 40.3444 198.549 42.8486 201.778 42.8486C203.236 42.8486 203.253 43.015 201.931 44.3439C201.113 45.1663 199.966 45.8392 199.381 45.8392C198.797 45.8392 198.319 46.2878 198.319 46.8361C198.319 47.3843 198.852 47.8329 199.503 47.8329C200.155 47.8329 199.268 48.8857 197.534 50.1726C194.331 52.5472 194.283 53.8142 197.395 53.8142C199.785 53.8142 199.658 60.5471 197.252 61.3147C196.336 61.6068 194.356 62.9097 192.851 64.2107C190.372 66.352 190.29 66.6201 191.985 67.0568C193.808 67.5263 193.808 67.5422 191.971 67.6549C190.232 67.7616 190.264 67.928 192.37 69.7643L194.657 71.758L192.274 71.8368C190.963 71.8797 190.421 72.1319 191.069 72.397C191.852 72.718 191.522 73.6073 190.089 75.0487C188.142 77.0056 188.101 77.2508 189.667 77.5539C190.622 77.7393 191.148 78.3046 190.836 78.812C190.525 79.3184 191.635 79.7331 193.303 79.7331C197.257 79.7331 197.21 81.3759 193.23 82.2542C190.944 82.7586 190.485 83.1713 191.495 83.8133C192.484 84.4433 192.521 84.6916 191.627 84.7025C190.945 84.7105 190.387 85.0754 190.387 85.514C190.387 86.6863 189.819 86.6783 294 86.9545C389.696 87.2087 424.797 86.7541 433.306 85.1511C437.645 84.3337 437.686 84.2918 434.794 83.6349C432.082 83.0188 432.191 82.949 436.033 82.8413C438.35 82.7765 440.247 82.2751 440.247 81.7268C440.247 81.1786 441.586 80.73 443.221 80.73C444.857 80.73 446.196 80.2335 446.196 79.6264C446.196 79.0193 446.843 78.7731 447.635 79.0781C448.426 79.3832 450.1 78.7731 451.353 77.7224L453.632 75.8124L451.154 75.7027C448.894 75.604 448.966 75.4874 451.967 74.3948L455.258 73.1965L452.758 70.483C451.382 68.9917 450.709 67.7705 451.262 67.7705C451.849 67.7705 452.045 66.3639 451.734 64.3921C451.164 60.7944 452.447 59.8414 457.905 59.8095C459.164 59.8015 459.944 59.3888 459.639 58.8913C459.333 58.3949 460.051 58.2424 461.234 58.5534C462.914 58.995 463.253 58.7697 462.778 57.5256C462.392 56.5148 462.784 55.7701 463.85 55.488C464.774 55.2427 464.169 54.9905 462.506 54.9267C460.843 54.8629 458.956 54.2818 458.312 53.6348C457.669 52.9878 455.237 52.1464 452.909 51.7656C449.029 51.1306 449.229 51.0628 455.309 50.9482C458.958 50.8794 462.219 50.375 462.556 49.8267C462.893 49.2784 465.262 48.786 467.82 48.7321L472.471 48.6344L468.18 47.4801C465.82 46.845 464.167 46.0465 464.506 45.7056C464.846 45.3647 461.646 44.7616 457.395 44.3658C451.909 43.8554 449.177 43.1247 447.979 41.8457C445.373 39.0634 433.556 38.5211 391.255 39.2408C334.373 40.2098 268.637 40.4281 236.988 39.7552C221.446 39.4243 206.98 39.4243 204.841 39.7552ZM379.058 41.5885C376.214 41.7889 371.306 41.7909 368.152 41.5925C364.996 41.3941 367.322 41.2296 373.32 41.2276C379.319 41.2256 381.901 41.3881 379.058 41.5885ZM388.955 41.5087C388.284 41.7819 386.946 41.7988 385.981 41.5456C385.016 41.2924 385.565 41.0691 387.201 41.0492C388.837 41.0292 389.627 41.2356 388.955 41.5087ZM416.182 41.4569C415.853 41.7879 414.997 41.8238 414.282 41.5357C413.491 41.2177 413.726 40.9814 414.881 40.9335C415.926 40.8907 416.511 41.1259 416.182 41.4569ZM315.069 42.5385C314.114 42.7897 312.554 42.7897 311.599 42.5385C310.644 42.2883 311.425 42.0829 313.334 42.0829C315.243 42.0829 316.024 42.2883 315.069 42.5385ZM339.361 42.5724C337.589 42.7937 334.688 42.7937 332.916 42.5724C331.145 42.3521 332.594 42.1707 336.139 42.1707C339.683 42.1707 341.133 42.3521 339.361 42.5724ZM346.777 42.4538C346.447 42.7848 345.592 42.8206 344.877 42.5325C344.086 42.2145 344.321 41.9783 345.476 41.9304C346.521 41.8876 347.106 42.1228 346.777 42.4538ZM356.236 42.5056C355.564 42.7788 354.226 42.7957 353.261 42.5425C352.296 42.2893 352.846 42.066 354.482 42.0461C356.118 42.0261 356.907 42.2325 356.236 42.5056ZM332.652 74.6639C334.277 75.3019 333.933 75.5821 330.669 76.2759C324.879 77.507 323.249 77.5728 323.249 76.574C323.249 75.5572 326.97 73.8744 329.198 73.8854C330.016 73.8884 331.571 74.2393 332.652 74.6639ZM339.79 76.9299C339.474 77.7244 339.239 77.4881 339.192 76.3267C339.149 75.276 339.383 74.6879 339.712 75.0188C340.041 75.3498 340.077 76.2101 339.79 76.9299ZM347.293 75.4086C346.612 75.6857 345.497 75.6857 344.814 75.4086C344.133 75.1325 344.69 74.9062 346.054 74.9062C347.417 74.9062 347.975 75.1325 347.293 75.4086ZM302.427 76.1852C302.427 76.4274 301.981 76.9019 301.436 77.2409C300.891 77.5798 300.444 77.3814 300.444 76.8013C300.444 76.2211 300.891 75.7456 301.436 75.7456C301.981 75.7456 302.427 75.9429 302.427 76.1852ZM374.418 78.2667C374.536 79.0731 374.225 79.7331 373.729 79.7331C373.231 79.7331 372.824 78.7611 372.824 77.5728C372.824 75.271 374.059 75.8084 374.418 78.2667ZM359.621 78.9236C359.304 79.7181 359.069 79.4819 359.022 78.3205C358.979 77.2698 359.213 76.6816 359.542 77.0126C359.871 77.3436 359.907 78.2039 359.621 78.9236ZM433.306 78.3444C433.306 78.5597 430.964 78.6724 428.101 78.5946C422.945 78.4551 422.933 78.4471 426.862 77.8081C430.564 77.207 433.306 77.4353 433.306 78.3444ZM450.41 77.4024C449.729 77.6795 448.613 77.6795 447.931 77.4024C447.25 77.1262 447.807 76.8999 449.171 76.8999C450.534 76.8999 451.092 77.1262 450.41 77.4024ZM285.572 78.1311C285.572 78.3464 284.903 78.7811 284.085 79.0971C283.267 79.4121 282.597 79.2356 282.597 78.7053C282.597 78.174 283.267 77.7393 284.085 77.7393C284.903 77.7393 285.572 77.9158 285.572 78.1311ZM394.638 78.1211C394.638 78.3315 393.522 78.7183 392.159 78.9804C390.796 79.2426 389.68 79.0702 389.68 78.5976C389.68 78.1261 390.796 77.7393 392.159 77.7393C393.522 77.7393 394.638 77.9118 394.638 78.1211ZM417.69 78.4431C416.463 78.6804 414.456 78.6804 413.228 78.4431C412.001 78.2049 413.005 78.0105 415.459 78.0105C417.913 78.0105 418.918 78.2049 417.69 78.4431ZM301.167 79.3383C300.838 79.6693 299.982 79.7052 299.268 79.4171C298.476 79.0991 298.711 78.8628 299.866 78.8149C300.911 78.7721 301.496 79.0073 301.167 79.3383ZM307.385 79.7331C307.385 80.9822 306.333 80.9822 304.41 79.7331C303.208 78.9515 303.351 78.7641 305.154 78.7512C306.382 78.7432 307.385 79.1848 307.385 79.7331ZM312.343 79.7331C312.343 80.2814 312.146 80.73 311.905 80.73C311.664 80.73 311.192 80.2814 310.855 79.7331C310.518 79.1848 310.716 78.7362 311.293 78.7362C311.87 78.7362 312.343 79.1848 312.343 79.7331ZM330.933 79.45C329.434 79.6783 326.979 79.6783 325.48 79.45C323.981 79.2217 325.207 79.0353 328.207 79.0353C331.206 79.0353 332.432 79.2217 330.933 79.45ZM346.815 79.449C345.325 79.6763 342.648 79.6802 340.866 79.4589C339.085 79.2366 340.303 79.0502 343.575 79.0452C346.847 79.0393 348.306 79.2207 346.815 79.449ZM382.492 79.423C381.537 79.6743 379.976 79.6743 379.021 79.423C378.067 79.1728 378.848 78.9675 380.757 78.9675C382.665 78.9675 383.447 79.1728 382.492 79.423Z" fill="#4B6CB7"/>
<path fill-rule="evenodd" clip-rule="evenodd" d="M620.563 36.9052C615.752 37.605 615.803 37.6229 622.298 37.5192C625.978 37.4594 628.99 37.0647 628.99 36.641C628.99 35.7966 627.954 35.8295 620.563 36.9052ZM630.699 36.5084C630.407 36.9819 637.823 37.3687 647.179 37.3677C656.534 37.3667 667.089 37.6658 670.634 38.0326C675.689 38.556 676.437 38.4782 674.104 37.6728C670.371 36.3838 631.418 35.3381 630.699 36.5084ZM503.317 38.551C504.272 38.8022 505.832 38.8022 506.787 38.551C507.742 38.3008 506.961 38.0954 505.052 38.0954C503.143 38.0954 502.362 38.3008 503.317 38.551ZM434.237 39.7552C430.424 40.3444 427.944 42.8486 431.173 42.8486C432.631 42.8486 432.648 43.015 431.326 44.3439C430.508 45.1663 429.361 45.8392 428.776 45.8392C428.192 45.8392 427.714 46.2878 427.714 46.8361C427.714 47.3843 428.247 47.8329 428.898 47.8329C429.55 47.8329 428.663 48.8857 426.929 50.1726C423.727 52.5472 423.678 53.8142 426.79 53.8142C429.18 53.8142 429.053 60.5471 426.648 61.3147C425.731 61.6068 423.751 62.9097 422.246 64.2107C419.767 66.352 419.685 66.6201 421.381 67.0568C423.203 67.5263 423.203 67.5422 421.366 67.6549C419.628 67.7616 419.659 67.928 421.765 69.7643L424.052 71.758L421.669 71.8368C420.358 71.8797 419.816 72.1319 420.465 72.397C421.247 72.718 420.918 73.6073 419.484 75.0487C417.538 77.0056 417.496 77.2508 419.062 77.5539C420.017 77.7393 420.543 78.3046 420.232 78.812C419.92 79.3184 421.031 79.7331 422.698 79.7331C426.653 79.7331 426.605 81.3759 422.625 82.2542C420.34 82.7586 419.881 83.1713 420.89 83.8133C421.879 84.4433 421.916 84.6916 421.022 84.7025C420.341 84.7105 419.782 85.0754 419.782 85.514C419.782 86.6863 419.214 86.6783 523.395 86.9545C619.091 87.2087 654.193 86.7541 662.702 85.1511C667.04 84.3337 667.081 84.2918 664.189 83.6349C661.477 83.0188 661.586 82.949 665.428 82.8413C667.745 82.7765 669.642 82.2751 669.642 81.7268C669.642 81.1786 670.981 80.73 672.617 80.73C674.253 80.73 675.591 80.2335 675.591 79.6264C675.591 79.0193 676.239 78.7731 677.03 79.0781C677.821 79.3832 679.495 78.7731 680.748 77.7224L683.028 75.8124L680.549 75.7027C678.289 75.604 678.362 75.4874 681.362 74.3948L684.654 73.1965L682.153 70.483C680.777 68.9917 680.105 67.7705 680.657 67.7705C681.244 67.7705 681.44 66.3639 681.129 64.3921C680.56 60.7944 681.843 59.8414 687.3 59.8095C688.559 59.8015 689.339 59.3888 689.034 58.8913C688.728 58.3949 689.446 58.2424 690.629 58.5534C692.309 58.995 692.648 58.7697 692.173 57.5256C691.787 56.5148 692.179 55.7701 693.245 55.488C694.169 55.2427 693.564 54.9905 691.902 54.9267C690.238 54.8629 688.351 54.2818 687.707 53.6348C687.064 52.9878 684.632 52.1464 682.304 51.7656C678.424 51.1306 678.624 51.0628 684.704 50.9482C688.353 50.8794 691.614 50.375 691.951 49.8267C692.288 49.2784 694.657 48.786 697.215 48.7321L701.866 48.6344L697.575 47.4801C695.215 46.845 693.562 46.0465 693.901 45.7056C694.241 45.3647 691.041 44.7616 686.79 44.3658C681.304 43.8554 678.572 43.1247 677.374 41.8457C674.768 39.0634 662.951 38.5211 620.65 39.2408C563.768 40.2098 498.032 40.4281 466.383 39.7552C450.841 39.4243 436.375 39.4243 434.237 39.7552ZM608.453 41.5885C605.61 41.7889 600.702 41.7909 597.547 41.5925C594.391 41.3941 596.717 41.2296 602.715 41.2276C608.714 41.2256 611.296 41.3881 608.453 41.5885ZM618.351 41.5087C617.679 41.7819 616.341 41.7988 615.376 41.5456C614.411 41.2924 614.961 41.0691 616.596 41.0492C618.232 41.0292 619.022 41.2356 618.351 41.5087ZM645.577 41.4569C645.248 41.7879 644.392 41.8238 643.678 41.5357C642.886 41.2177 643.121 40.9814 644.276 40.9335C645.321 40.8907 645.906 41.1259 645.577 41.4569ZM544.464 42.5385C543.51 42.7897 541.949 42.7897 540.994 42.5385C540.039 42.2883 540.821 42.0829 542.729 42.0829C544.638 42.0829 545.419 42.2883 544.464 42.5385ZM568.756 42.5724C566.984 42.7937 564.083 42.7937 562.311 42.5724C560.54 42.3521 561.989 42.1707 565.534 42.1707C569.079 42.1707 570.528 42.3521 568.756 42.5724ZM576.172 42.4538C575.843 42.7848 574.987 42.8206 574.272 42.5325C573.481 42.2145 573.716 41.9783 574.871 41.9304C575.916 41.8876 576.501 42.1228 576.172 42.4538ZM585.631 42.5056C584.96 42.7788 583.621 42.7957 582.656 42.5425C581.691 42.2893 582.241 42.066 583.877 42.0461C585.513 42.0261 586.302 42.2325 585.631 42.5056ZM562.047 74.6639C563.672 75.3019 563.328 75.5821 560.064 76.2759C554.274 77.507 552.644 77.5728 552.644 76.574C552.644 75.5572 556.365 73.8744 558.593 73.8854C559.411 73.8884 560.966 74.2393 562.047 74.6639ZM569.186 76.9299C568.869 77.7244 568.634 77.4881 568.587 76.3267C568.544 75.276 568.778 74.6879 569.107 75.0188C569.437 75.3498 569.472 76.2101 569.186 76.9299ZM576.688 75.4086C576.007 75.6857 574.892 75.6857 574.21 75.4086C573.528 75.1325 574.086 74.9062 575.449 74.9062C576.812 74.9062 577.371 75.1325 576.688 75.4086ZM531.823 76.1852C531.823 76.4274 531.376 76.9019 530.831 77.2409C530.286 77.5798 529.84 77.3814 529.84 76.8013C529.84 76.2211 530.286 75.7456 530.831 75.7456C531.376 75.7456 531.823 75.9429 531.823 76.1852ZM603.813 78.2667C603.931 79.0731 603.621 79.7331 603.124 79.7331C602.626 79.7331 602.22 78.7611 602.22 77.5728C602.22 75.271 603.454 75.8084 603.813 78.2667ZM589.016 78.9236C588.699 79.7181 588.464 79.4819 588.417 78.3205C588.374 77.2698 588.608 76.6816 588.938 77.0126C589.267 77.3436 589.302 78.2039 589.016 78.9236ZM662.702 78.3444C662.702 78.5597 660.359 78.6724 657.496 78.5946C652.34 78.4551 652.328 78.4471 656.257 77.8081C659.959 77.207 662.702 77.4353 662.702 78.3444ZM679.805 77.4024C679.124 77.6795 678.009 77.6795 677.326 77.4024C676.645 77.1262 677.202 76.8999 678.566 76.8999C679.929 76.8999 680.487 77.1262 679.805 77.4024ZM514.967 78.1311C514.967 78.3464 514.298 78.7811 513.48 79.0971C512.662 79.4121 511.993 79.2356 511.993 78.7053C511.993 78.174 512.662 77.7393 513.48 77.7393C514.298 77.7393 514.967 77.9158 514.967 78.1311ZM624.033 78.1211C624.033 78.3315 622.917 78.7183 621.554 78.9804C620.191 79.2426 619.075 79.0702 619.075 78.5976C619.075 78.1261 620.191 77.7393 621.554 77.7393C622.917 77.7393 624.033 77.9118 624.033 78.1211ZM647.085 78.4431C645.858 78.6804 643.851 78.6804 642.624 78.4431C641.396 78.2049 642.401 78.0105 644.854 78.0105C647.308 78.0105 648.313 78.2049 647.085 78.4431ZM530.562 79.3383C530.233 79.6693 529.378 79.7052 528.663 79.4171C527.872 79.0991 528.107 78.8628 529.262 78.8149C530.307 78.7721 530.892 79.0073 530.562 79.3383ZM536.78 79.7331C536.78 80.9822 535.728 80.9822 533.806 79.7331C532.603 78.9515 532.746 78.7641 534.549 78.7512C535.777 78.7432 536.78 79.1848 536.78 79.7331ZM541.738 79.7331C541.738 80.2814 541.541 80.73 541.301 80.73C541.06 80.73 540.588 80.2814 540.25 79.7331C539.913 79.1848 540.111 78.7362 540.688 78.7362C541.265 78.7362 541.738 79.1848 541.738 79.7331ZM560.328 79.45C558.829 79.6783 556.374 79.6783 554.875 79.45C553.376 79.2217 554.603 79.0353 557.602 79.0353C560.601 79.0353 561.828 79.2217 560.328 79.45ZM576.21 79.449C574.72 79.6763 572.043 79.6802 570.261 79.4589C568.48 79.2366 569.698 79.0502 572.97 79.0452C576.242 79.0393 577.701 79.2207 576.21 79.449ZM611.887 79.423C610.932 79.6743 609.371 79.6743 608.417 79.423C607.462 79.1728 608.243 78.9675 610.152 78.9675C612.06 78.9675 612.842 79.1728 611.887 79.423Z" fill="#4B6CB7"/>
<path fill-rule="evenodd" clip-rule="evenodd" d="M801.298 21.9052C796.487 22.605 796.539 22.6229 803.033 22.5192C806.714 22.4594 809.726 22.0647 809.726 21.641C809.726 20.7966 808.69 20.8295 801.298 21.9052ZM811.434 21.5084C811.143 21.9819 818.558 22.3687 827.914 22.3677C837.27 22.3667 847.825 22.6658 851.369 23.0326C856.425 23.556 857.173 23.4782 854.84 22.6728C851.107 21.3838 812.153 20.3381 811.434 21.5084ZM684.052 23.551C685.007 23.8022 686.568 23.8022 687.523 23.551C688.477 23.3008 687.696 23.0954 685.788 23.0954C683.879 23.0954 683.098 23.3008 684.052 23.551ZM614.972 24.7552C611.16 25.3444 608.68 27.8486 611.908 27.8486C613.367 27.8486 613.384 28.015 612.062 29.3439C611.244 30.1663 610.097 30.8392 609.512 30.8392C608.928 30.8392 608.45 31.2878 608.45 31.8361C608.45 32.3843 608.982 32.8329 609.634 32.8329C610.285 32.8329 609.399 33.8857 607.665 35.1726C604.462 37.5472 604.414 38.8142 607.526 38.8142C609.915 38.8142 609.789 45.5471 607.383 46.3147C606.467 46.6068 604.487 47.9097 602.982 49.2107C600.503 51.352 600.421 51.6201 602.116 52.0568C603.939 52.5263 603.939 52.5422 602.101 52.6549C600.363 52.7616 600.395 52.928 602.501 54.7643L604.787 56.758L602.405 56.8368C601.094 56.8797 600.552 57.1319 601.2 57.397C601.982 57.718 601.653 58.6073 600.219 60.0487C598.273 62.0056 598.232 62.2508 599.798 62.5539C600.753 62.7393 601.278 63.3046 600.967 63.812C600.656 64.3184 601.766 64.7331 603.434 64.7331C607.388 64.7331 607.341 66.3759 603.361 67.2542C601.075 67.7586 600.616 68.1713 601.625 68.8133C602.615 69.4433 602.652 69.6916 601.757 69.7025C601.076 69.7105 600.518 70.0754 600.518 70.514C600.518 71.6863 599.95 71.6783 704.13 71.9545C799.827 72.2087 834.928 71.7541 843.437 70.1511C847.776 69.3337 847.817 69.2918 844.924 68.6349C842.213 68.0188 842.322 67.949 846.164 67.8413C848.481 67.7765 850.378 67.2751 850.378 66.7268C850.378 66.1786 851.716 65.73 853.352 65.73C854.988 65.73 856.327 65.2335 856.327 64.6264C856.327 64.0193 856.974 63.7731 857.765 64.0781C858.557 64.3832 860.23 63.7731 861.484 62.7224L863.763 60.8124L861.284 60.7027C859.025 60.604 859.097 60.4874 862.097 59.3948L865.389 58.1965L862.889 55.483C861.512 53.9917 860.84 52.7705 861.392 52.7705C861.979 52.7705 862.176 51.3639 861.864 49.3921C861.295 45.7944 862.578 44.8414 868.036 44.8095C869.295 44.8015 870.075 44.3888 869.77 43.8913C869.463 43.3949 870.182 43.2424 871.365 43.5534C873.045 43.995 873.384 43.7697 872.909 42.5256C872.523 41.5148 872.915 40.7701 873.981 40.488C874.905 40.2427 874.3 39.9905 872.637 39.9267C870.973 39.8629 869.086 39.2818 868.443 38.6348C867.8 37.9878 865.367 37.1464 863.039 36.7656C859.16 36.1306 859.36 36.0628 865.44 35.9482C869.089 35.8794 872.35 35.375 872.687 34.8267C873.024 34.2784 875.393 33.786 877.951 33.7321L882.602 33.6344L878.31 32.4801C875.951 31.845 874.298 31.0465 874.637 30.7056C874.977 30.3647 871.776 29.7616 867.526 29.3658C862.04 28.8554 859.307 28.1247 858.11 26.8457C855.504 24.0634 843.687 23.5211 801.385 24.2408C744.504 25.2098 678.768 25.4281 647.119 24.7552C631.577 24.4243 617.111 24.4243 614.972 24.7552ZM789.189 26.5885C786.345 26.7889 781.437 26.7909 778.282 26.5925C775.126 26.3941 777.452 26.2296 783.451 26.2276C789.45 26.2256 792.032 26.3881 789.189 26.5885ZM799.086 26.5087C798.415 26.7819 797.076 26.7988 796.112 26.5456C795.147 26.2924 795.696 26.0691 797.332 26.0492C798.968 26.0292 799.757 26.2356 799.086 26.5087ZM826.313 26.4569C825.984 26.7879 825.128 26.8238 824.413 26.5357C823.622 26.2177 823.857 25.9814 825.012 25.9335C826.057 25.8907 826.642 26.1259 826.313 26.4569ZM725.2 27.5385C724.245 27.7897 722.685 27.7897 721.73 27.5385C720.775 27.2883 721.556 27.0829 723.465 27.0829C725.373 27.0829 726.155 27.2883 725.2 27.5385ZM749.492 27.5724C747.72 27.7937 744.819 27.7937 743.047 27.5724C741.275 27.3521 742.725 27.1707 746.27 27.1707C749.814 27.1707 751.264 27.3521 749.492 27.5724ZM756.907 27.4538C756.578 27.7847 755.723 27.8206 755.008 27.5325C754.216 27.2145 754.451 26.9783 755.607 26.9304C756.652 26.8876 757.237 27.1228 756.907 27.4538ZM766.366 27.5056C765.695 27.7788 764.357 27.7957 763.392 27.5425C762.427 27.2893 762.976 27.066 764.612 27.0461C766.248 27.0261 767.038 27.2325 766.366 27.5056ZM742.782 59.6639C744.407 60.302 744.063 60.5821 740.799 61.2759C735.01 62.507 733.38 62.5728 733.38 61.574C733.38 60.5572 737.101 58.8744 739.329 58.8854C740.147 58.8884 741.702 59.2393 742.782 59.6639ZM749.921 61.9299C749.605 62.7244 749.37 62.4881 749.322 61.3267C749.28 60.276 749.514 59.6879 749.843 60.0188C750.172 60.3498 750.208 61.2101 749.921 61.9299ZM757.424 60.4086C756.743 60.6857 755.627 60.6857 754.945 60.4086C754.264 60.1325 754.821 59.9062 756.185 59.9062C757.548 59.9062 758.106 60.1325 757.424 60.4086ZM712.558 61.1852C712.558 61.4274 712.112 61.9019 711.567 62.2409C711.021 62.5798 710.575 62.3814 710.575 61.8013C710.575 61.2211 711.021 60.7456 711.567 60.7456C712.112 60.7456 712.558 60.9429 712.558 61.1852ZM784.549 63.2667C784.667 64.0731 784.356 64.7331 783.859 64.7331C783.362 64.7331 782.955 63.7611 782.955 62.5728C782.955 60.271 784.19 60.8084 784.549 63.2667ZM769.751 63.9236C769.435 64.7181 769.2 64.4819 769.152 63.3205C769.11 62.2698 769.344 61.6816 769.673 62.0126C770.002 62.3436 770.038 63.2039 769.751 63.9236ZM843.437 63.3444C843.437 63.5597 841.094 63.6724 838.232 63.5946C833.076 63.4551 833.064 63.4471 836.992 62.8081C840.695 62.207 843.437 62.4353 843.437 63.3444ZM860.541 62.4024C859.86 62.6795 858.744 62.6795 858.062 62.4024C857.381 62.1262 857.938 61.8999 859.301 61.8999C860.665 61.8999 861.223 62.1262 860.541 62.4024ZM695.703 63.1311C695.703 63.3464 695.033 63.7811 694.215 64.0971C693.397 64.4121 692.728 64.2356 692.728 63.7053C692.728 63.174 693.397 62.7393 694.215 62.7393C695.033 62.7393 695.703 62.9158 695.703 63.1311ZM804.768 63.1211C804.768 63.3315 803.653 63.7183 802.29 63.9804C800.926 64.2426 799.811 64.0702 799.811 63.5976C799.811 63.1261 800.926 62.7393 802.29 62.7393C803.653 62.7393 804.768 62.9118 804.768 63.1211ZM827.821 63.4431C826.593 63.6804 824.587 63.6804 823.359 63.4431C822.132 63.2049 823.136 63.0105 825.59 63.0105C828.044 63.0105 829.048 63.2049 827.821 63.4431ZM711.298 64.3383C710.969 64.6693 710.113 64.7052 709.398 64.4171C708.607 64.0991 708.842 63.8628 709.997 63.8149C711.042 63.7721 711.627 64.0073 711.298 64.3383ZM717.516 64.7331C717.516 65.9822 716.464 65.9822 714.541 64.7331C713.339 63.9515 713.481 63.7641 715.285 63.7512C716.512 63.7432 717.516 64.1848 717.516 64.7331ZM722.473 64.7331C722.473 65.2814 722.277 65.73 722.036 65.73C721.795 65.73 721.323 65.2814 720.986 64.7331C720.649 64.1848 720.846 63.7362 721.423 63.7362C722 63.7362 722.473 64.1848 722.473 64.7331ZM741.064 64.45C739.565 64.6783 737.11 64.6783 735.611 64.45C734.112 64.2217 735.338 64.0353 738.337 64.0353C741.337 64.0353 742.563 64.2217 741.064 64.45ZM756.946 64.449C755.456 64.6763 752.779 64.6802 750.997 64.4589C749.215 64.2366 750.434 64.0502 753.706 64.0452C756.978 64.0392 758.436 64.2207 756.946 64.449ZM792.622 64.423C791.668 64.6743 790.107 64.6743 789.152 64.423C788.197 64.1728 788.979 63.9675 790.887 63.9675C792.796 63.9675 793.577 64.1728 792.622 64.423Z" fill="#4B6CB7"/>
<path fill-rule="evenodd" clip-rule="evenodd" d="M967.138 47.9052C962.327 48.605 962.379 48.6229 968.873 48.5192C972.554 48.4594 975.566 48.0647 975.566 47.641C975.566 46.7966 974.53 46.8295 967.138 47.9052ZM977.274 47.5084C976.983 47.9819 984.398 48.3687 993.754 48.3677C1003.11 48.3667 1013.66 48.6658 1017.21 49.0326C1022.26 49.556 1023.01 49.4782 1020.68 48.6728C1016.95 47.3838 977.993 46.3381 977.274 47.5084ZM849.892 49.551C850.847 49.8022 852.408 49.8022 853.362 49.551C854.317 49.3008 853.536 49.0954 851.627 49.0954C849.719 49.0954 848.937 49.3008 849.892 49.551ZM780.812 50.7552C777 51.3444 774.52 53.8486 777.748 53.8486C779.207 53.8486 779.224 54.015 777.902 55.3439C777.084 56.1663 775.937 56.8392 775.352 56.8392C774.768 56.8392 774.29 57.2878 774.29 57.8361C774.29 58.3843 774.822 58.8329 775.474 58.8329C776.125 58.8329 775.239 59.8857 773.505 61.1726C770.302 63.5472 770.253 64.8142 773.366 64.8142C775.755 64.8142 775.628 71.5471 773.223 72.3147C772.307 72.6068 770.327 73.9097 768.822 75.2107C766.343 77.352 766.261 77.6201 767.956 78.0568C769.778 78.5263 769.779 78.5422 767.941 78.6549C766.203 78.7616 766.235 78.928 768.341 80.7643L770.627 82.758L768.245 82.8368C766.934 82.8797 766.391 83.1319 767.04 83.397C767.822 83.718 767.493 84.6073 766.059 86.0487C764.113 88.0056 764.071 88.2508 765.638 88.5539C766.593 88.7393 767.118 89.3046 766.807 89.812C766.496 90.3184 767.606 90.7331 769.274 90.7331C773.228 90.7331 773.18 92.3759 769.2 93.2542C766.915 93.7586 766.456 94.1713 767.465 94.8133C768.455 95.4433 768.491 95.6916 767.597 95.7025C766.916 95.7105 766.358 96.0754 766.358 96.514C766.358 97.6863 765.79 97.6783 869.97 97.9545C965.667 98.2087 1000.77 97.7541 1009.28 96.1511C1013.62 95.3337 1013.66 95.2918 1010.76 94.6349C1008.05 94.0188 1008.16 93.949 1012 93.8413C1014.32 93.7765 1016.22 93.2751 1016.22 92.7268C1016.22 92.1786 1017.56 91.73 1019.19 91.73C1020.83 91.73 1022.17 91.2335 1022.17 90.6264C1022.17 90.0193 1022.81 89.7731 1023.61 90.0781C1024.4 90.3832 1026.07 89.7731 1027.32 88.7224L1029.6 86.8124L1027.12 86.7027C1024.86 86.604 1024.94 86.4874 1027.94 85.3948L1031.23 84.1965L1028.73 81.483C1027.35 79.9917 1026.68 78.7705 1027.23 78.7705C1027.82 78.7705 1028.02 77.3639 1027.7 75.3921C1027.14 71.7944 1028.42 70.8413 1033.88 70.8094C1035.13 70.8015 1035.91 70.3888 1035.61 69.8913C1035.3 69.3949 1036.02 69.2424 1037.2 69.5534C1038.88 69.995 1039.22 69.7697 1038.75 68.5256C1038.36 67.5148 1038.75 66.7701 1039.82 66.488C1040.74 66.2428 1040.14 65.9905 1038.48 65.9267C1036.81 65.8629 1034.93 65.2818 1034.28 64.6348C1033.64 63.9878 1031.21 63.1464 1028.88 62.7656C1025 62.1306 1025.2 62.0628 1031.28 61.9482C1034.93 61.8794 1038.19 61.375 1038.53 60.8267C1038.86 60.2784 1041.23 59.786 1043.79 59.7321L1048.44 59.6344L1044.15 58.4801C1041.79 57.845 1040.14 57.0465 1040.48 56.7056C1040.82 56.3647 1037.62 55.7616 1033.37 55.3658C1027.88 54.8554 1025.15 54.1247 1023.95 52.8457C1021.34 50.0634 1009.53 49.5211 967.225 50.2408C910.343 51.2098 844.608 51.4281 812.959 50.7552C797.417 50.4243 782.951 50.4243 780.812 50.7552ZM955.029 52.5885C952.185 52.7889 947.277 52.7909 944.122 52.5925C940.966 52.3941 943.292 52.2296 949.291 52.2276C955.289 52.2256 957.871 52.3881 955.029 52.5885ZM964.926 52.5087C964.255 52.7819 962.916 52.7988 961.951 52.5456C960.987 52.2924 961.536 52.0691 963.172 52.0492C964.808 52.0292 965.597 52.2356 964.926 52.5087ZM992.153 52.4569C991.823 52.7879 990.968 52.8238 990.253 52.5357C989.462 52.2177 989.697 51.9814 990.852 51.9335C991.897 51.8907 992.482 52.1259 992.153 52.4569ZM891.04 53.5385C890.085 53.7897 888.524 53.7897 887.57 53.5385C886.615 53.2883 887.396 53.0829 889.305 53.0829C891.213 53.0829 891.995 53.2883 891.04 53.5385ZM915.332 53.5724C913.56 53.7937 910.659 53.7937 908.887 53.5724C907.115 53.3521 908.565 53.1707 912.109 53.1707C915.654 53.1707 917.104 53.3521 915.332 53.5724ZM922.747 53.4538C922.418 53.7848 921.562 53.8206 920.847 53.5325C920.056 53.2145 920.291 52.9783 921.446 52.9304C922.491 52.8876 923.076 53.1228 922.747 53.4538ZM932.206 53.5056C931.535 53.7788 930.196 53.7957 929.232 53.5425C928.267 53.2893 928.816 53.066 930.452 53.0461C932.088 53.0261 932.877 53.2325 932.206 53.5056ZM908.622 85.6639C910.247 86.3019 909.903 86.5821 906.639 87.2759C900.85 88.507 899.22 88.5728 899.22 87.574C899.22 86.5572 902.941 84.8744 905.169 84.8854C905.987 84.8884 907.541 85.2393 908.622 85.6639ZM915.761 87.9299C915.445 88.7244 915.21 88.4881 915.162 87.3267C915.12 86.276 915.354 85.6879 915.683 86.0188C916.012 86.3498 916.048 87.2101 915.761 87.9299ZM923.264 86.4086C922.583 86.6857 921.467 86.6857 920.785 86.4086C920.104 86.1325 920.661 85.9062 922.024 85.9062C923.388 85.9062 923.946 86.1325 923.264 86.4086ZM878.398 87.1852C878.398 87.4274 877.952 87.9019 877.407 88.2409C876.861 88.5798 876.415 88.3814 876.415 87.8013C876.415 87.2211 876.861 86.7456 877.407 86.7456C877.952 86.7456 878.398 86.9429 878.398 87.1852ZM950.388 89.2667C950.506 90.0731 950.196 90.7331 949.699 90.7331C949.202 90.7331 948.795 89.7611 948.795 88.5728C948.795 86.271 950.029 86.8084 950.388 89.2667ZM935.591 89.9236C935.275 90.7181 935.04 90.4819 934.992 89.3205C934.95 88.2698 935.184 87.6816 935.513 88.0126C935.842 88.3436 935.878 89.2039 935.591 89.9236ZM1009.28 89.3444C1009.28 89.5597 1006.93 89.6724 1004.07 89.5946C998.916 89.4551 998.904 89.4471 1002.83 88.8081C1006.53 88.207 1009.28 88.4353 1009.28 89.3444ZM1026.38 88.4024C1025.7 88.6795 1024.58 88.6795 1023.9 88.4024C1023.22 88.1262 1023.78 87.8999 1025.14 87.8999C1026.5 87.8999 1027.06 88.1262 1026.38 88.4024ZM861.542 89.1311C861.542 89.3464 860.873 89.7811 860.055 90.0971C859.237 90.4121 858.568 90.2356 858.568 89.7053C858.568 89.174 859.237 88.7393 860.055 88.7393C860.873 88.7393 861.542 88.9158 861.542 89.1311ZM970.608 89.1211C970.608 89.3315 969.493 89.7183 968.129 89.9804C966.766 90.2426 965.651 90.0702 965.651 89.5976C965.651 89.1261 966.766 88.7393 968.129 88.7393C969.493 88.7393 970.608 88.9118 970.608 89.1211ZM993.661 89.4431C992.433 89.6804 990.426 89.6804 989.199 89.4431C987.971 89.2049 988.976 89.0105 991.43 89.0105C993.884 89.0105 994.888 89.2049 993.661 89.4431ZM877.138 90.3383C876.809 90.6693 875.953 90.7052 875.238 90.4171C874.447 90.0991 874.682 89.8628 875.837 89.8149C876.882 89.7721 877.467 90.0073 877.138 90.3383ZM883.356 90.7331C883.356 91.9822 882.304 91.9822 880.381 90.7331C879.178 89.9515 879.321 89.7641 881.125 89.7512C882.352 89.7432 883.356 90.1848 883.356 90.7331ZM888.313 90.7331C888.313 91.2814 888.117 91.73 887.876 91.73C887.635 91.73 887.163 91.2814 886.826 90.7331C886.489 90.1848 886.686 89.7362 887.263 89.7362C887.84 89.7362 888.313 90.1848 888.313 90.7331ZM906.904 90.45C905.405 90.6783 902.95 90.6783 901.451 90.45C899.951 90.2217 901.178 90.0353 904.177 90.0353C907.177 90.0353 908.403 90.2217 906.904 90.45ZM922.786 90.449C921.296 90.6763 918.619 90.6802 916.837 90.4589C915.055 90.2366 916.274 90.0502 919.546 90.0452C922.818 90.0393 924.276 90.2207 922.786 90.449ZM958.462 90.423C957.507 90.6743 955.947 90.6743 954.992 90.423C954.037 90.1728 954.818 89.9675 956.727 89.9675C958.636 89.9675 959.417 90.1728 958.462 90.423Z" fill="#4B6CB7"/>
<path fill-rule="evenodd" clip-rule="evenodd" d="M1028.31 42.707C1023.45 42.9813 1023.5 43.0037 1029.98 43.4712C1033.65 43.735 1036.69 43.6065 1036.72 43.1844C1036.8 42.3433 1035.76 42.285 1028.31 42.707ZM1038.44 43.2025C1038.11 43.6486 1045.46 44.6855 1054.78 45.5067C1064.1 46.3279 1074.59 47.5534 1078.09 48.2303C1083.08 49.196 1083.83 49.1842 1081.58 48.1768C1077.97 46.5647 1039.25 42.0998 1038.44 43.2025ZM911.364 34.0432C912.293 34.3773 913.848 34.5145 914.821 34.3481C915.794 34.1828 915.033 33.9095 913.132 33.7418C911.231 33.5741 910.435 33.71 911.364 34.0432ZM842.443 29.1721C838.594 29.424 835.907 31.7007 839.123 31.9844C840.576 32.1126 840.578 32.2799 839.146 33.4875C838.26 34.2349 837.059 34.8044 836.476 34.753C835.895 34.7017 835.38 35.1066 835.332 35.6528C835.285 36.199 835.776 36.6927 836.425 36.7499C837.074 36.8072 836.1 37.7779 834.261 38.9076C830.865 40.9917 830.706 42.2496 833.807 42.5231C836.187 42.7331 835.477 49.4292 833.015 49.9825C832.077 50.1929 829.991 51.3169 828.379 52.4806C825.724 54.3959 825.619 54.6558 827.27 55.2397C829.045 55.8676 829.043 55.8835 827.203 55.8343C825.463 55.7878 825.48 55.9564 827.419 57.9707L829.524 60.1578L827.143 60.0269C825.834 59.9544 825.272 60.158 825.895 60.4791C826.646 60.8677 826.241 61.7246 824.688 63.0346C822.58 64.8129 822.517 65.0536 824.051 65.4931C824.986 65.7617 825.461 66.371 825.107 66.8491C824.753 67.3262 825.823 67.8369 827.484 67.9835C831.423 68.331 831.234 69.9634 827.193 70.4885C824.872 70.7902 824.379 71.161 825.329 71.8892C826.26 72.6038 826.275 72.8543 825.383 72.7866C824.704 72.7347 824.116 73.0491 824.078 73.4861C823.977 74.6539 823.412 74.5961 927.171 84.0264C1022.48 92.6893 1057.49 95.3211 1066.1 94.472C1070.5 94.0389 1070.54 94.0008 1067.72 93.0922C1065.07 92.2402 1065.18 92.1802 1069.02 92.4106C1071.33 92.5497 1073.27 92.2169 1073.31 91.6707C1073.36 91.1245 1074.73 90.7952 1076.36 90.939C1077.99 91.0828 1079.37 90.7058 1079.42 90.1011C1079.47 89.4963 1080.14 89.3079 1080.9 89.6813C1081.66 90.0547 1083.38 89.594 1084.72 88.6575L1087.16 86.955L1084.7 86.628C1082.46 86.3311 1082.54 86.2213 1085.62 85.3965L1089.01 84.4921L1086.75 81.5692C1085.51 79.9626 1084.95 78.687 1085.5 78.7356C1086.08 78.7872 1086.4 77.4032 1086.26 75.4115C1086 71.7775 1087.36 70.9408 1092.8 71.3886C1094.06 71.4914 1094.87 71.1488 1094.61 70.6264C1094.35 70.1049 1095.08 70.0162 1096.23 70.43C1097.86 71.0175 1098.22 70.8229 1097.86 69.5418C1097.56 68.5009 1098.01 67.7935 1099.1 67.6061C1100.04 67.443 1099.46 67.1386 1097.81 66.9289C1096.16 66.7192 1094.33 65.9744 1093.74 65.2733C1093.16 64.5723 1090.81 63.5204 1088.52 62.9365C1084.71 61.9629 1084.92 61.913 1090.98 62.3331C1094.63 62.5852 1097.92 62.3693 1098.3 61.8527C1098.68 61.3362 1101.09 61.0537 1103.64 61.2249L1108.28 61.5363L1104.11 60.0092C1101.81 59.1693 1100.23 58.2286 1100.6 57.9187C1100.97 57.609 1097.83 56.7269 1093.63 55.9591C1088.21 54.9686 1085.55 54.0005 1084.47 52.6211C1082.12 49.6205 1070.39 48.0418 1028.19 45.0414C971.441 41.008 905.937 35.4487 874.467 31.9971C859.013 30.3016 844.602 29.0304 842.443 29.1721ZM1015.84 46.3083C1012.99 46.258 1008.1 45.8287 1004.97 45.3538C1001.84 44.8788 1004.18 44.9194 1010.15 45.4446C1016.13 45.9697 1018.69 46.3585 1015.84 46.3083ZM1025.7 47.0986C1025.01 47.3117 1023.68 47.211 1022.74 46.8739C1021.8 46.5369 1022.36 46.3627 1024 46.4867C1025.63 46.6106 1026.39 46.8855 1025.7 47.0986ZM1052.83 49.4396C1052.47 49.7404 1051.62 49.7009 1050.93 49.3511C1050.17 48.9648 1050.42 48.7501 1051.58 48.8039C1052.62 48.8531 1053.19 49.1388 1052.83 49.4396ZM952.009 41.6315C951.036 41.7978 949.481 41.6606 948.552 41.3265C947.622 40.9933 948.419 40.8574 950.32 41.0251C952.221 41.1929 952.982 41.4661 952.009 41.6315ZM976.205 43.7999C974.421 43.8647 971.531 43.6098 969.785 43.2336C968.039 42.8584 969.499 42.8051 973.03 43.1166C976.561 43.4281 977.99 43.7362 976.205 43.7999ZM983.603 44.3334C983.246 44.6342 982.391 44.5948 981.703 44.2449C980.943 43.8586 981.197 43.6439 982.352 43.6978C983.397 43.7469 983.959 44.0327 983.603 44.3334ZM993.021 45.2163C992.329 45.4294 990.994 45.3287 990.055 44.9917C989.116 44.6546 989.682 44.4805 991.314 44.6044C992.945 44.7283 993.714 45.0032 993.021 45.2163ZM966.74 75.1794C968.304 75.9578 967.937 76.2066 964.625 76.611C958.751 77.3287 957.122 77.251 957.208 76.2559C957.296 75.243 961.149 73.8936 963.368 74.1003C964.182 74.1752 965.701 74.6614 966.74 75.1794ZM973.656 78.064C973.272 78.8277 973.058 78.5717 973.111 77.4106C973.16 76.3602 973.444 75.7948 973.743 76.1534C974.042 76.5121 974.003 77.3722 973.656 78.064ZM981.262 77.2079C980.559 77.4241 979.448 77.3261 978.792 76.9901C978.138 76.6552 978.712 76.4787 980.07 76.5985C981.429 76.7183 981.965 76.9928 981.262 77.2079ZM936.5 74.0388C936.479 74.2801 935.993 74.7136 935.42 75.0033C934.848 75.2931 934.421 75.0562 934.471 74.4783C934.521 73.9003 935.007 73.4658 935.55 73.5137C936.093 73.5617 936.521 73.7975 936.5 74.0388ZM1008.04 82.4388C1008.08 83.2525 1007.72 83.8827 1007.22 83.839C1006.73 83.7953 1006.4 82.7913 1006.51 81.6076C1006.71 79.3145 1007.89 79.9583 1008.04 82.4388ZM993.237 81.7928C992.853 82.5565 992.64 82.3005 992.693 81.1394C992.742 80.089 993.026 79.5236 993.325 79.8822C993.624 80.2409 993.585 81.101 993.237 81.7928ZM1066.69 87.6912C1066.67 87.9058 1064.33 87.8121 1061.48 87.4831C1056.36 86.891 1056.35 86.882 1060.32 86.5906C1064.06 86.3171 1066.77 86.7856 1066.69 87.6912ZM1083.81 88.2558C1083.11 88.472 1082 88.374 1081.34 88.038C1080.69 87.7031 1081.26 87.5266 1082.62 87.6464C1083.98 87.7662 1084.52 88.0407 1083.81 88.2558ZM919.54 74.4961C919.521 74.7106 918.817 75.0847 917.974 75.3276C917.132 75.5696 916.481 75.335 916.527 74.8067C916.573 74.2774 917.277 73.9032 918.092 73.9751C918.907 74.047 919.558 74.2815 919.54 74.4961ZM1028.19 84.0706C1028.17 84.2802 1027.03 84.5675 1025.65 84.7088C1024.27 84.8502 1023.17 84.5804 1023.21 84.1097C1023.25 83.64 1024.4 83.3527 1025.75 83.4725C1027.11 83.5923 1028.21 83.8621 1028.19 84.0706ZM1051.13 86.4172C1049.88 86.5457 1047.88 86.3694 1046.68 86.0251C1045.48 85.6799 1046.5 85.5745 1048.94 85.7902C1051.39 86.0058 1052.37 86.2878 1051.13 86.4172ZM934.971 77.0692C934.614 77.3699 933.759 77.3305 933.072 76.9807C932.311 76.5944 932.566 76.3796 933.721 76.4335C934.765 76.4826 935.328 76.7684 934.971 77.0692ZM941.131 78.0088C941.023 79.2532 939.975 79.1607 938.168 77.7474C937.037 76.8632 937.196 76.689 938.994 76.8346C940.217 76.9345 941.178 77.4626 941.131 78.0088ZM946.069 78.4445C946.022 78.9907 945.788 79.4203 945.548 79.3991C945.307 79.378 944.876 78.8896 944.588 78.3138C944.3 77.738 944.535 77.3084 945.11 77.3591C945.685 77.4099 946.117 77.8983 946.069 78.4445ZM964.614 79.7962C963.101 79.8919 960.655 79.6761 959.181 79.317C957.708 78.9578 958.946 78.8799 961.934 79.1434C964.921 79.407 966.127 79.7005 964.614 79.7962ZM980.435 81.1909C978.931 81.2863 976.264 81.055 974.508 80.678C972.752 80.3 973.982 80.2214 977.242 80.5039C980.502 80.7855 981.94 81.0944 980.435 81.1909ZM1015.98 84.3002C1015 84.4666 1013.45 84.3294 1012.52 83.9953C1011.59 83.6621 1012.39 83.5262 1014.29 83.6939C1016.19 83.8617 1016.95 84.1349 1015.98 84.3002Z" fill="#4B6CB7"/>
<path fill-rule="evenodd" clip-rule="evenodd" d="M1113.01 129.693C1122.72 132.492 1122.64 132.414 1110.24 127.041C1103.22 123.999 1097.18 122.164 1096.82 122.966C1096.1 124.567 1098.1 125.393 1113.01 129.693ZM1093.47 121.753C1094.42 121.105 1080.7 114.013 1062.97 105.992C1045.23 97.9708 1025.49 88.3529 1019.08 84.618C1009.94 79.2907 1008.46 78.797 1012.2 82.3241C1018.18 87.968 1091.12 123.354 1093.47 121.753ZM1336.6 227.118C1335 225.823 1332.04 224.485 1330.02 224.142C1328 223.798 1329.31 224.857 1332.92 226.494C1336.54 228.13 1338.19 228.411 1336.6 227.118ZM1468.53 284.076C1476.25 286.229 1483.07 283.61 1476.95 280.841C1474.19 279.591 1474.29 279.261 1477.92 277.876C1480.17 277.019 1482.91 276.727 1484.02 277.229C1485.13 277.73 1486.41 277.29 1486.88 276.251C1487.34 275.212 1486.71 273.905 1485.47 273.346C1484.24 272.788 1486.81 271.553 1491.19 270.601C1499.26 268.847 1500.43 266.488 1494.53 263.819C1490 261.77 1495.93 249.12 1501.14 249.728C1503.12 249.96 1507.98 249.189 1511.93 248.014C1518.44 246.082 1518.82 245.644 1515.98 243.363C1512.92 240.91 1512.94 240.88 1516.51 242.242C1519.9 243.53 1519.98 243.188 1517.54 237.902L1514.89 232.163L1519.47 234.057C1521.99 235.1 1523.24 235.087 1522.23 234.028C1521.02 232.749 1522.4 231.346 1526.33 229.844C1531.67 227.805 1531.96 227.376 1529.25 225.458C1527.6 224.288 1527.08 222.766 1528.1 222.072C1529.12 221.379 1527.36 219.641 1524.2 218.211C1516.71 214.82 1518.19 211.747 1526.47 213.496C1531.23 214.5 1532.45 214.111 1531.08 212.029C1529.74 209.987 1529.88 209.485 1531.58 210.231C1532.88 210.8 1534.24 210.587 1534.62 209.756C1535.61 207.534 1536.68 208.037 1339.48 118.173C1158.34 35.6271 1091.44 6.38743 1073.96 2.12817C1065.04 -0.0435061 1064.93 0.000969172 1069.86 3.72614C1074.47 7.21911 1074.21 7.25783 1066.84 4.16707C1062.39 2.30279 1058.37 1.62646 1057.91 2.66548C1057.44 3.70451 1054.53 3.40676 1051.43 2.00382C1048.33 0.600877 1045.37 0.393803 1044.86 1.54429C1044.34 2.69477 1042.91 2.60618 1041.67 1.34959C1040.43 0.0930016 1036.74 -0.186104 1033.47 0.73031L1027.54 2.39512L1032.14 4.7286C1036.34 6.85338 1036.11 7.01234 1029.5 6.50992L1022.25 5.95777L1024.69 13.2444C1026.04 17.2507 1026.28 20.1414 1025.23 19.6678C1024.12 19.1644 1022.56 21.6617 1021.48 25.6654C1019.52 32.9713 1016.28 33.6771 1005.91 29.0577C1003.52 27.9929 1001.69 28.1059 1001.85 29.3104C1002.01 30.514 1000.52 30.1866 998.538 28.5828C995.728 26.3055 994.895 26.4417 994.743 29.2066C994.619 31.4529 993.247 32.5283 990.989 32.1489C989.03 31.8212 989.963 32.8177 993.06 34.3646C996.159 35.9122 999.244 38.6316 999.916 40.4095C1000.59 42.1874 1004.49 45.8675 1008.58 48.5856C1015.39 53.1161 1014.95 53.0728 1003.34 48.0762C996.362 45.0776 989.756 43.2369 988.653 43.9869C987.551 44.7368 982.646 43.6388 977.752 41.5471L968.855 37.7436L976.011 43.6112C979.946 46.8382 982.403 49.7688 981.472 50.1241C980.54 50.4785 986.095 54.3661 993.815 58.7612C1003.78 64.433 1008.34 68.1611 1009.53 71.6119C1012.11 79.119 1034.05 90.2802 1114.82 125.192C1223.44 172.135 1348.2 228.093 1407.61 256.509C1436.78 270.464 1464.19 282.869 1468.53 284.076ZM1139.92 131.202C1145.48 133.261 1154.78 137.466 1160.59 140.548C1166.41 143.63 1161.86 141.947 1150.49 136.807C1139.12 131.666 1134.37 129.144 1139.92 131.202ZM1121.1 122.866C1122.6 122.924 1125.15 124.04 1126.77 125.347C1128.38 126.654 1127.15 126.606 1124.03 125.241C1120.92 123.876 1119.6 122.808 1121.1 122.866ZM1069.46 99.6159C1070.36 99.271 1072.01 99.9368 1073.12 101.096C1074.35 102.377 1073.71 102.623 1071.48 101.723C1069.46 100.908 1068.55 99.9608 1069.46 99.6159ZM1261.99 184.276C1264.01 184.618 1266.97 185.957 1268.57 187.252C1270.16 188.545 1268.51 188.264 1264.89 186.627C1261.28 184.99 1259.97 183.931 1261.99 184.276ZM1215.98 163.38C1219.53 164.48 1225.03 166.968 1228.2 168.907C1231.37 170.844 1228.47 169.944 1221.75 166.905C1215.03 163.865 1212.44 162.278 1215.98 163.38ZM1201.83 157.246C1202.73 156.901 1204.39 157.566 1205.5 158.725C1206.73 160.007 1206.08 160.253 1203.85 159.353C1201.84 158.538 1200.93 157.59 1201.83 157.246ZM1183.95 149.036C1185.45 149.094 1188 150.21 1189.62 151.517C1191.23 152.824 1190 152.776 1186.88 151.411C1183.77 150.046 1182.45 148.978 1183.95 149.036ZM1255.84 108.319C1253.3 105.716 1254.19 105.48 1260.96 106.964C1272.97 109.596 1276.12 110.869 1275.27 112.762C1274.41 114.689 1265.94 114.687 1261.72 112.755C1260.18 112.048 1257.53 110.05 1255.84 108.319ZM1244.22 97.9026C1245.5 96.6682 1245.74 97.3174 1244.85 99.5591C1244.04 101.587 1243.1 102.501 1242.76 101.591C1242.41 100.682 1243.07 99.0208 1244.22 97.9026ZM1228.72 94.3514C1230.24 94.4104 1232.36 95.3669 1233.42 96.4771C1234.47 97.5845 1233.23 97.5355 1230.64 96.3664C1228.06 95.1973 1227.19 94.2897 1228.72 94.3514ZM1314.4 131.354C1314.61 130.895 1315.85 130.379 1317.17 130.204C1318.49 130.029 1319.17 130.788 1318.68 131.887C1318.19 132.987 1316.94 133.505 1315.91 133.038C1314.87 132.57 1314.2 131.813 1314.4 131.354ZM1179.73 65.6745C1180.19 64.045 1181.34 63.0605 1182.28 63.4865C1183.22 63.9133 1183.17 66.1039 1182.17 68.3557C1180.22 72.7177 1178.33 70.6409 1179.73 65.6745ZM1208.33 77.1189C1209.6 75.8845 1209.85 76.5338 1208.96 78.7754C1208.15 80.8031 1207.21 81.7171 1206.86 80.8076C1206.52 79.8981 1207.18 78.2372 1208.33 77.1189ZM1068.2 15.0272C1068.38 14.6192 1072.92 16.4149 1078.28 19.0169C1087.93 23.7028 1087.94 23.7281 1079.96 21.5703C1072.44 19.5345 1067.43 16.7501 1068.2 15.0272ZM1034.99 2.14532C1036.52 2.20428 1038.63 3.16083 1039.69 4.27099C1040.75 5.37842 1039.5 5.3294 1036.91 4.16028C1034.33 2.99116 1033.46 2.08363 1034.99 2.14532ZM1347.99 142.121C1348.17 141.713 1349.81 141.464 1351.62 141.566C1353.44 141.671 1354.56 142.579 1354.11 143.584C1353.66 144.591 1352.03 144.841 1350.48 144.139C1348.93 143.438 1347.81 142.529 1347.99 142.121ZM1141.29 48.6108C1141.47 48.2122 1143.91 48.4358 1146.72 49.108C1149.52 49.7803 1151.49 51.0637 1151.09 51.9591C1150.69 52.8527 1148.25 52.6291 1145.67 51.46C1143.08 50.2909 1141.11 49.0075 1141.29 48.6108ZM1097.88 28.2319C1100.4 28.8349 1104.21 30.5558 1106.33 32.0581C1108.46 33.5622 1106.39 33.0693 1101.74 30.9649C1097.09 28.8605 1095.35 27.6308 1097.88 28.2319ZM1319.46 126.46C1320.36 126.115 1322.01 126.781 1323.12 127.94C1324.35 129.221 1323.71 129.467 1321.48 128.567C1319.46 127.752 1318.55 126.805 1319.46 126.46ZM1308.01 120.38C1309.06 118.013 1311.06 118.915 1313.64 122.93C1315.26 125.443 1314.83 125.676 1311.4 124.154C1309.07 123.116 1307.54 121.419 1308.01 120.38ZM1298.61 116.128C1299.07 115.089 1299.83 114.407 1300.28 114.614C1300.74 114.821 1301.25 116.076 1301.43 117.404C1301.6 118.732 1300.85 119.413 1299.76 118.918C1298.66 118.423 1298.15 117.167 1298.61 116.128ZM1263.14 100.722C1266.17 101.575 1270.83 103.681 1273.48 105.399C1276.12 107.117 1273.64 106.418 1267.96 103.846C1262.27 101.274 1260.11 99.8693 1263.14 100.722ZM1233.04 87.1046C1236.06 87.9518 1241.14 90.24 1244.32 92.1873C1247.51 94.1365 1245.05 93.4448 1238.84 90.6483C1232.64 87.8538 1230.03 86.2592 1233.04 87.1046ZM1165.41 56.5594C1167.43 56.9021 1170.39 58.2404 1171.99 59.5353C1173.58 60.8283 1171.93 60.5474 1168.31 58.9107C1164.7 57.2739 1163.39 56.2147 1165.41 56.5594Z" fill="#4B6CB7"/>
<path fill-rule="evenodd" clip-rule="evenodd" d="M1221.26 154.693C1230.96 157.492 1230.88 157.414 1218.49 152.041C1211.46 148.999 1205.42 147.164 1205.06 147.966C1204.35 149.567 1206.34 150.393 1221.26 154.693ZM1201.71 146.753C1202.66 146.105 1188.94 139.013 1171.21 130.992C1153.48 122.971 1133.73 113.353 1127.32 109.618C1118.18 104.291 1116.7 103.797 1120.44 107.324C1126.42 112.968 1199.36 148.354 1201.71 146.753ZM1444.84 252.118C1443.24 250.823 1440.28 249.485 1438.26 249.142C1436.24 248.798 1437.55 249.857 1441.17 251.494C1444.78 253.13 1446.44 253.411 1444.84 252.118ZM1576.77 309.076C1584.49 311.229 1591.31 308.61 1585.19 305.841C1582.43 304.591 1582.54 304.261 1586.17 302.876C1588.41 302.019 1591.15 301.727 1592.26 302.229C1593.37 302.73 1594.65 302.29 1595.12 301.251C1595.58 300.212 1594.95 298.905 1593.72 298.346C1592.48 297.788 1595.05 296.553 1599.43 295.601C1607.51 293.847 1608.67 291.488 1602.77 288.819C1598.24 286.77 1604.18 274.12 1609.38 274.728C1611.37 274.96 1616.22 274.189 1620.17 273.014C1626.68 271.082 1627.06 270.644 1624.22 268.363C1621.16 265.91 1621.18 265.88 1624.76 267.242C1628.14 268.53 1628.22 268.188 1625.78 262.902L1623.13 257.163L1627.72 259.057C1630.24 260.1 1631.48 260.087 1630.47 259.028C1629.26 257.749 1630.64 256.346 1634.57 254.844C1639.92 252.805 1640.2 252.376 1637.49 250.458C1635.84 249.288 1635.32 247.766 1636.34 247.072C1637.36 246.379 1635.6 244.641 1632.44 243.211C1624.95 239.82 1626.43 236.747 1634.71 238.496C1639.47 239.5 1640.69 239.111 1639.32 237.029C1637.98 234.987 1638.12 234.485 1639.82 235.231C1641.12 235.8 1642.49 235.587 1642.86 234.756C1643.85 232.534 1644.92 233.037 1447.72 143.173C1266.58 60.6271 1199.68 31.3874 1182.2 27.1282C1173.29 24.9565 1173.17 25.001 1178.1 28.7261C1182.72 32.2191 1182.45 32.2578 1175.08 29.1671C1170.63 27.3028 1166.61 26.6265 1166.15 27.6655C1165.69 28.7045 1162.77 28.4068 1159.67 27.0038C1156.57 25.6009 1153.61 25.3938 1153.1 26.5443C1152.59 27.6948 1151.15 27.6062 1149.91 26.3496C1148.67 25.093 1144.98 24.8139 1141.72 25.7303L1135.78 27.3951L1140.39 29.7286C1144.59 31.8534 1144.35 32.0123 1137.74 31.5099L1130.49 30.9578L1132.93 38.2444C1134.28 42.2507 1134.52 45.1414 1133.47 44.6678C1132.36 44.1644 1130.8 46.6617 1129.72 50.6654C1127.76 57.9713 1124.52 58.6771 1114.15 54.0577C1111.76 52.9929 1109.93 53.1059 1110.09 54.3104C1110.25 55.514 1108.76 55.1866 1106.78 53.5828C1103.97 51.3055 1103.14 51.4417 1102.99 54.2066C1102.86 56.453 1101.49 57.5283 1099.23 57.1489C1097.27 56.8212 1098.21 57.8177 1101.3 59.3646C1104.4 60.9122 1107.49 63.6316 1108.16 65.4095C1108.83 67.1874 1112.73 70.8675 1116.82 73.5856C1123.63 78.1161 1123.2 78.0728 1111.58 73.0762C1104.61 70.0776 1098 68.2369 1096.9 68.9869C1095.79 69.7368 1090.89 68.6388 1085.99 66.5471L1077.1 62.7436L1084.25 68.6112C1088.19 71.8382 1090.65 74.7688 1089.72 75.1241C1088.78 75.4785 1094.34 79.3661 1102.06 83.7612C1112.02 89.433 1116.58 93.1611 1117.77 96.6119C1120.36 104.119 1142.29 115.28 1223.07 150.192C1331.68 197.135 1456.44 253.093 1515.85 281.509C1545.02 295.464 1572.44 307.869 1576.77 309.076ZM1248.16 156.202C1253.72 158.261 1263.03 162.466 1268.84 165.548C1274.65 168.63 1270.1 166.947 1258.73 161.807C1247.36 156.666 1242.61 154.144 1248.16 156.202ZM1229.34 147.866C1230.84 147.924 1233.4 149.04 1235.01 150.347C1236.62 151.654 1235.39 151.606 1232.28 150.241C1229.16 148.876 1227.84 147.808 1229.34 147.866ZM1177.7 124.616C1178.6 124.271 1180.26 124.937 1181.37 126.096C1182.6 127.377 1181.95 127.623 1179.72 126.723C1177.71 125.908 1176.8 124.961 1177.7 124.616ZM1370.23 209.276C1372.25 209.618 1375.21 210.957 1376.81 212.252C1378.41 213.545 1376.75 213.264 1373.14 211.627C1369.52 209.99 1368.21 208.931 1370.23 209.276ZM1324.23 188.38C1327.77 189.48 1333.27 191.968 1336.44 193.907C1339.61 195.844 1336.71 194.944 1329.99 191.905C1323.28 188.865 1320.68 187.278 1324.23 188.38ZM1310.07 182.246C1310.98 181.901 1312.63 182.566 1313.74 183.725C1314.97 185.007 1314.32 185.253 1312.1 184.353C1310.08 183.538 1309.17 182.59 1310.07 182.246ZM1292.19 174.036C1293.69 174.094 1296.25 175.21 1297.86 176.517C1299.47 177.824 1298.24 177.776 1295.13 176.411C1292.01 175.046 1290.69 173.978 1292.19 174.036ZM1364.08 133.318C1361.54 130.716 1362.43 130.48 1369.2 131.964C1381.21 134.596 1384.36 135.869 1383.51 137.762C1382.65 139.689 1374.18 139.687 1369.97 137.755C1368.42 137.048 1365.77 135.05 1364.08 133.318ZM1352.47 122.903C1353.74 121.668 1353.98 122.317 1353.09 124.559C1352.28 126.587 1351.34 127.501 1351 126.591C1350.66 125.682 1351.32 124.021 1352.47 122.903ZM1336.96 119.351C1338.49 119.41 1340.6 120.367 1341.66 121.477C1342.72 122.585 1341.47 122.535 1338.89 121.366C1336.3 120.197 1335.44 119.29 1336.96 119.351ZM1422.64 156.354C1422.85 155.895 1424.1 155.379 1425.42 155.204C1426.74 155.029 1427.41 155.788 1426.92 156.887C1426.43 157.987 1425.18 158.505 1424.15 158.038C1423.12 157.57 1422.44 156.813 1422.64 156.354ZM1287.98 90.6745C1288.43 89.045 1289.58 88.0605 1290.52 88.4865C1291.47 88.9133 1291.41 91.1039 1290.41 93.3557C1288.46 97.7177 1286.58 95.6409 1287.98 90.6745ZM1316.57 102.119C1317.84 100.885 1318.09 101.534 1317.2 103.775C1316.39 105.803 1315.45 106.717 1315.11 105.808C1314.76 104.898 1315.42 103.237 1316.57 102.119ZM1176.44 40.0272C1176.62 39.6191 1181.16 41.4149 1186.52 44.0169C1196.17 48.7028 1196.19 48.7281 1188.2 46.5703C1180.68 44.5345 1175.67 41.7501 1176.44 40.0272ZM1143.23 27.1453C1144.76 27.2043 1146.87 28.1608 1147.93 29.271C1148.99 30.3784 1147.74 30.3294 1145.16 29.1603C1142.57 27.9912 1141.71 27.0836 1143.23 27.1453ZM1456.23 167.121C1456.41 166.713 1458.05 166.464 1459.87 166.566C1461.68 166.671 1462.8 167.579 1462.35 168.584C1461.91 169.591 1460.27 169.841 1458.72 169.139C1457.17 168.438 1456.05 167.529 1456.23 167.121ZM1249.53 73.6108C1249.71 73.2122 1252.15 73.4358 1254.96 74.108C1257.76 74.7803 1259.73 76.0637 1259.33 76.9591C1258.93 77.8527 1256.49 77.6291 1253.91 76.46C1251.33 75.2909 1249.36 74.0075 1249.53 73.6108ZM1206.12 53.2319C1208.65 53.8349 1212.45 55.5558 1214.58 57.0581C1216.7 58.5622 1214.63 58.0693 1209.98 55.9649C1205.33 53.8605 1203.59 52.6308 1206.12 53.2319ZM1427.7 151.46C1428.6 151.115 1430.25 151.781 1431.36 152.94C1432.6 154.221 1431.95 154.467 1429.72 153.567C1427.7 152.752 1426.79 151.805 1427.7 151.46ZM1416.25 145.38C1417.31 143.013 1419.3 143.915 1421.89 147.93C1423.5 150.443 1423.08 150.676 1419.65 149.154C1417.31 148.116 1415.79 146.419 1416.25 145.38ZM1406.85 141.128C1407.32 140.089 1408.07 139.407 1408.53 139.614C1408.98 139.821 1409.5 141.076 1409.67 142.404C1409.85 143.732 1409.09 144.413 1408 143.918C1406.91 143.423 1406.39 142.167 1406.85 141.128ZM1371.38 125.722C1374.42 126.575 1379.07 128.681 1381.72 130.399C1384.37 132.117 1381.88 131.418 1376.2 128.846C1370.52 126.274 1368.35 124.869 1371.38 125.722ZM1341.28 112.105C1344.3 112.952 1349.38 115.24 1352.57 117.187C1355.76 119.136 1353.29 118.445 1347.08 115.648C1340.88 112.854 1338.27 111.259 1341.28 112.105ZM1273.65 81.5594C1275.68 81.9021 1278.63 83.2404 1280.23 84.5353C1281.83 85.8283 1280.17 85.5474 1276.56 83.9107C1272.94 82.2739 1271.63 81.2147 1273.65 81.5594Z" fill="#4B6CB7"/>
<path d="M-0.125051 70H1282.9V375H-0.125051V70Z" fill="#4B6CB7"/>
<path fill-rule="evenodd" clip-rule="evenodd" d="M868.668 162.199C865.764 162.341 863.224 162.51 863.024 162.573C862.823 162.635 864.052 162.79 865.755 162.916C868.841 163.146 868.836 163.146 864.116 163.259C861.513 163.322 857.662 163.502 855.559 163.66C852.914 163.86 854.26 163.896 859.929 163.778C872.883 163.509 886.186 163.271 887.896 163.277C888.851 163.281 889.377 163.139 889.24 162.916C889.093 162.676 892.278 162.55 898.525 162.55C905.276 162.55 907.964 162.666 907.791 162.948C907.637 163.199 907.865 163.314 908.407 163.26C908.88 163.212 909.513 163.271 909.813 163.391C910.113 163.511 912.817 163.785 915.821 164C918.825 164.215 921.897 164.537 922.648 164.714C923.399 164.892 924.014 164.9 924.014 164.734C924.014 164.318 923.05 164.076 917.46 163.087C916.759 162.963 915.448 162.692 914.547 162.484C912.605 162.035 876.552 161.811 868.668 162.199ZM757.793 162.584C756.082 162.788 756.131 162.805 758.613 162.859C761.226 162.916 762.016 162.761 760.433 162.502C759.982 162.428 758.795 162.465 757.793 162.584ZM753.788 162.764C753.387 162.827 751.626 162.984 749.874 163.114C748.122 163.243 746.688 163.47 746.688 163.619C746.688 163.767 747.22 163.823 747.871 163.743C748.778 163.631 748.927 163.687 748.508 163.984C748.093 164.277 748.355 164.361 749.601 164.332C751.095 164.298 751.143 164.27 750.147 164.015L749.054 163.736L750.39 163.692C751.124 163.668 751.779 163.796 751.846 163.976C751.915 164.161 753.302 164.184 755.062 164.028C758.401 163.733 758.343 163.592 754.88 163.584C753.679 163.581 753.105 163.498 753.606 163.4C754.466 163.231 755.63 162.489 754.862 162.6C754.672 162.628 754.189 162.701 753.788 162.764ZM879.333 162.821C878.09 162.892 875.96 162.893 874.6 162.822C873.24 162.752 874.257 162.693 876.86 162.693C879.464 162.692 880.576 162.75 879.333 162.821ZM884.416 162.793C884.166 162.895 883.756 162.895 883.505 162.793C883.255 162.691 883.46 162.608 883.961 162.608C884.461 162.608 884.666 162.691 884.416 162.793ZM912.089 163.159C911.839 163.261 911.429 163.261 911.179 163.159C910.928 163.057 911.133 162.974 911.634 162.974C912.134 162.974 912.339 163.057 912.089 163.159ZM914.645 163.157C914.398 163.257 913.906 163.263 913.552 163.17C913.198 163.077 913.4 162.995 914 162.988C914.601 162.981 914.891 163.056 914.645 163.157ZM758.795 163.535C759.145 163.627 759.719 163.627 760.069 163.535C760.419 163.443 760.133 163.368 759.432 163.368C758.731 163.368 758.444 163.443 758.795 163.535ZM762.254 163.525C762.504 163.627 762.914 163.627 763.164 163.525C763.415 163.424 763.21 163.341 762.709 163.341C762.208 163.341 762.004 163.424 762.254 163.525ZM692.545 164.13C692.44 164.301 690.529 164.407 688.298 164.365C684.249 164.291 677.158 164.83 675.964 165.303C675.565 165.462 675.362 165.891 675.41 166.476C675.492 167.471 675.549 167.507 677.596 167.849C679.272 168.129 679.407 168.722 677.778 168.647C676.694 168.598 676.603 168.678 676.7 169.601C676.791 170.483 676.678 170.609 675.789 170.613C674.516 170.621 674.067 170.946 673.967 171.937C673.902 172.581 674.138 172.756 675.332 172.948C677.265 173.259 677.161 173.765 675.116 173.997C673.5 174.18 671.491 175.5 671.876 176.125C671.971 176.281 671.557 176.517 670.956 176.65C670.011 176.859 669.933 176.962 670.381 177.412C670.666 177.699 671.115 177.936 671.38 177.938C671.743 177.943 671.73 178.027 671.328 178.283C670.955 178.52 671.381 178.656 672.752 178.735C674.684 178.847 674.708 178.863 674.741 180.039C674.759 180.694 674.651 181.229 674.501 181.229C674.351 181.229 674.228 181.559 674.228 181.962C674.228 182.505 673.969 182.707 673.227 182.744C672.354 182.788 672.332 182.814 673.054 182.954C674.11 183.158 676.03 184.154 675.372 184.157C675.094 184.158 674.966 184.388 675.078 184.682C675.374 185.459 674.653 185.878 672.257 186.322C670.113 186.719 669.189 187.089 670.344 187.089C670.678 187.089 670.951 187.337 670.951 187.639C670.951 188.066 670.465 188.188 668.766 188.188C666.41 188.188 665.678 188.888 667.947 188.97C668.792 189.001 669 189.081 668.493 189.179C668.042 189.266 667.674 189.48 667.674 189.654C667.674 189.828 667.344 190.075 666.94 190.204C666.537 190.333 666.297 190.585 666.407 190.764C666.517 190.944 666.069 191.247 665.411 191.438C664.377 191.737 664.586 191.791 666.945 191.829C669.75 191.874 669.854 192.26 667.192 192.741C666.012 192.954 665.868 193.076 666.249 193.538C666.611 193.976 666.76 193.99 667.011 193.608C667.254 193.238 667.445 193.293 667.87 193.854C668.372 194.515 668.348 194.606 667.59 194.935C666.883 195.243 667.052 195.323 668.766 195.496C670.563 195.676 670.689 195.742 669.995 196.142C669.57 196.388 668.505 196.698 667.628 196.832C664.904 197.249 664.747 197.686 667.31 197.719L669.676 197.75L666.581 198.92L663.486 200.091L665.307 200.275L667.128 200.458L664.982 200.953C663.483 201.3 662.99 201.546 663.344 201.772C663.623 201.949 664.178 202.109 664.579 202.126C665.302 202.157 665.302 202.159 664.585 202.441C664.062 202.646 664.512 202.811 666.224 203.041C668.362 203.327 668.447 203.369 667.128 203.488C666.327 203.561 665.516 203.774 665.325 203.962C665.111 204.173 666.633 204.314 669.331 204.332C672.691 204.355 673.454 204.445 672.68 204.729C672.1 204.942 671.679 205.371 671.679 205.749C671.679 206.278 671.043 206.531 668.316 207.088C666.466 207.466 665.261 207.834 665.638 207.907C666.186 208.013 666.222 208.105 665.815 208.364C665.441 208.602 665.548 208.69 666.217 208.698C666.718 208.705 667.369 208.863 667.664 209.051C668.259 209.429 668.104 209.522 666.166 209.947C665.638 210.062 665.116 210.39 665.007 210.676C664.841 211.111 665.47 211.168 668.882 211.026C671.891 210.902 672.811 210.963 672.407 211.259C671.947 211.598 671.975 211.652 672.589 211.603C673.806 211.505 674.073 211.622 673.5 212.003C673.128 212.25 673.652 212.282 675.138 212.104C677.858 211.777 677.719 211.774 683.877 212.339C687.651 212.686 693.183 212.742 705.178 212.557C715.135 212.403 724.469 212.456 729.392 212.693C745.615 213.477 747.229 213.532 746.997 213.291C746.867 213.156 745.065 212.956 742.992 212.847C740.919 212.738 739.067 212.501 738.877 212.322C738.403 211.874 769.757 211.909 780.815 212.368C787.158 212.632 835.068 213.148 851.736 213.132C855.455 213.129 871.674 212.666 872.418 212.542C873.032 212.439 873.349 212.515 873.216 212.733C873.094 212.931 873.158 213.093 873.358 213.093C873.558 213.093 873.823 212.929 873.947 212.727C874.242 212.247 875.586 212.253 875.586 212.734C875.586 213.148 884.187 213.173 890.469 212.777C893.345 212.595 894.288 212.648 894.422 212.999C894.519 213.252 894.836 213.46 895.127 213.46C895.418 213.46 895.554 213.295 895.43 213.093C895.307 212.892 895.502 212.699 895.864 212.665C896.226 212.63 896.769 212.565 897.069 212.52C897.369 212.476 898.516 212.419 899.618 212.394C900.838 212.367 901.434 212.231 901.143 212.045C900.67 211.744 903.253 211.463 910.541 211.025C914.205 210.805 915.863 210.204 913.072 210.108C912.181 210.077 911.288 210.014 911.088 209.967C910.887 209.92 909.167 209.84 907.264 209.789L903.805 209.697L906.172 209.412C907.474 209.255 910.15 209.075 912.118 209.013C914.087 208.95 915.776 208.771 915.872 208.615C915.968 208.46 916.374 208.332 916.774 208.332C917.175 208.332 917.414 208.189 917.307 208.013C917.198 207.837 916.42 207.83 915.556 207.998C913.812 208.337 912.151 208.422 912.413 208.159C912.763 207.806 920.307 206.499 920.829 206.7C921.134 206.818 921.466 206.66 921.589 206.339C921.743 205.934 922.364 205.751 923.729 205.709L925.652 205.649L923.65 205.433C922.074 205.263 921.856 205.17 922.627 204.998C923.166 204.878 924.395 204.902 925.358 205.051C926.321 205.201 927.146 205.29 927.191 205.249C927.237 205.208 927.013 204.8 926.694 204.342C926.31 203.79 925.992 203.632 925.752 203.873C925.512 204.114 925.005 204.108 924.247 203.854C922.212 203.172 922.534 203.019 925.716 203.153C927.936 203.246 928.767 203.166 928.59 202.878C928.436 202.628 928.664 202.459 929.181 202.439C929.93 202.41 926.351 201.678 923.468 201.271C922.867 201.186 923.604 201.089 925.106 201.056C926.608 201.023 928.083 200.836 928.383 200.641C928.836 200.346 928.805 200.284 928.201 200.275C927.801 200.268 927.227 200.089 926.927 199.876C926.527 199.594 926.845 199.552 928.109 199.721C930.369 200.024 930.846 199.704 929.804 198.588C929.342 198.093 929.181 197.711 929.434 197.711C929.68 197.711 929.781 197.546 929.658 197.344C929.534 197.143 928.746 196.976 927.907 196.973C927.067 196.969 926.135 196.795 925.834 196.585C925.441 196.31 925.824 196.27 927.2 196.442C929.145 196.685 929.881 196.197 928.292 195.718C927.493 195.477 927.491 195.462 928.201 195.119C928.778 194.84 928.663 194.799 927.646 194.921C926.18 195.096 924.64 194.306 925.671 193.908C925.994 193.784 926.552 193.682 926.912 193.682C927.271 193.682 927.77 193.435 928.019 193.133C928.375 192.701 928.376 192.583 928.024 192.583C927.776 192.583 927.67 192.338 927.787 192.034C927.921 191.681 927.773 191.475 927.371 191.459C926.851 191.437 926.869 191.382 927.473 191.133C928.149 190.854 928.129 190.804 927.176 190.426C926.612 190.202 925.916 190.019 925.629 190.019C925.341 190.019 925.106 189.855 925.106 189.653C925.106 189.452 926.048 189.271 927.2 189.251L929.293 189.216L927.928 188.652C926.448 188.041 926.179 187.322 927.222 186.76C927.585 186.565 929.715 186.288 931.956 186.145C934.196 186.003 936.03 185.759 936.03 185.603C936.03 185.447 935.579 185.154 935.028 184.951C934.19 184.643 934.457 184.579 936.667 184.554C938.165 184.538 939.307 184.367 939.307 184.159C939.307 183.958 938.969 183.793 938.557 183.793C938.145 183.793 937.904 183.636 938.022 183.443C938.141 183.25 938.478 183.185 938.772 183.299C939.066 183.412 939.307 183.35 939.307 183.161C939.307 182.972 938.528 182.633 937.577 182.409C936.109 182.062 936.673 182.019 941.309 182.117L946.771 182.234L942.038 181.565C933.755 180.393 933.903 180.423 934.937 180.112C935.78 179.858 935.788 179.835 935.05 179.801C933.94 179.75 933.658 179.118 934.659 178.925C935.118 178.836 934.811 178.743 933.966 178.715C933.132 178.688 932.395 178.503 932.328 178.304C932.261 178.106 930.322 177.808 928.019 177.644C923.918 177.351 923.863 177.336 925.368 176.895C926.349 176.608 928.903 176.475 932.423 176.527C937.516 176.602 937.98 176.553 938.456 175.897C938.91 175.272 939.52 175.171 943.509 175.064C947.126 174.968 948.046 174.838 948.046 174.423C948.046 174.138 947.903 173.904 947.729 173.904C947.217 173.904 941.004 172.801 940.308 172.586C938.992 172.181 939.744 171.705 941.765 171.664C943.836 171.623 943.843 171.619 942.402 171.319C941.601 171.153 939.634 170.995 938.032 170.968C935.179 170.921 931.31 170.423 932.388 170.242C933.416 170.069 929.661 169.563 927.151 169.536C924.963 169.512 924.536 169.393 923.8 168.593L922.956 167.678L924.486 167.645L926.016 167.612L924.771 167.252C924.087 167.054 923.227 166.971 922.86 167.068C922.493 167.164 922.193 167.106 922.193 166.938C922.193 166.77 921.906 166.557 921.556 166.465C921.206 166.373 921.656 166.258 922.557 166.209L924.196 166.121L922.557 165.844C917.202 164.937 879.116 164.436 866.847 165.111C863.342 165.304 858.809 165.466 856.773 165.471C854.16 165.478 853.017 165.615 852.886 165.938C852.747 166.283 852.627 166.29 852.398 165.968C852.141 165.607 844.58 165.191 843.908 165.501C843.25 165.804 747.333 165.764 740.862 165.458C736.556 165.255 731.64 165.024 729.938 164.946C728.236 164.867 723.169 164.717 718.679 164.613C714.189 164.508 708.864 164.319 706.845 164.193C701.009 163.828 692.753 163.792 692.545 164.13ZM877.338 163.899C877.601 164.005 877.915 163.992 878.036 163.87C878.157 163.749 877.942 163.662 877.558 163.678C877.134 163.695 877.048 163.782 877.338 163.899ZM867.507 164.265C867.77 164.371 868.084 164.358 868.205 164.236C868.326 164.115 868.111 164.028 867.727 164.044C867.303 164.062 867.217 164.149 867.507 164.265ZM870.42 164.265C870.683 164.371 870.997 164.358 871.118 164.236C871.239 164.115 871.024 164.028 870.64 164.044C870.216 164.062 870.13 164.149 870.42 164.265ZM753.515 165.006C753.966 165.094 754.703 165.094 755.153 165.006C755.604 164.919 755.235 164.847 754.334 164.847C753.433 164.847 753.064 164.919 753.515 165.006ZM827.256 166.453C827.009 166.553 826.518 166.56 826.164 166.467C825.809 166.374 826.011 166.292 826.612 166.284C827.213 166.277 827.502 166.353 827.256 166.453ZM920.638 166.434C920.517 166.556 920.203 166.569 919.94 166.463C919.65 166.346 919.736 166.259 920.16 166.242C920.544 166.226 920.759 166.312 920.638 166.434ZM866.378 167.084C866.503 167.209 865.307 167.33 863.722 167.353C862.136 167.376 856.661 167.479 851.554 167.581C846.447 167.683 828.371 167.894 811.385 168.05C794.398 168.205 779.607 168.444 778.515 168.582C776.509 168.834 774.107 168.543 774.547 168.101C774.801 167.846 778.248 167.778 797.573 167.647C804.949 167.597 809.68 167.429 809.68 167.216C809.68 167.024 809.911 166.956 810.193 167.065C810.971 167.365 823.097 167.314 831.892 166.973C840.49 166.64 866.019 166.723 866.378 167.084ZM875.889 166.763C875.627 167.026 869.386 167.058 869.127 166.797C869.008 166.677 870.522 166.579 872.491 166.579C874.46 166.579 875.989 166.661 875.889 166.763ZM877.308 166.8C877.187 166.922 876.873 166.935 876.61 166.829C876.32 166.712 876.406 166.626 876.83 166.608C877.214 166.592 877.429 166.679 877.308 166.8ZM849.647 167.204C850.1 167.292 850.755 167.288 851.103 167.197C851.451 167.105 851.081 167.034 850.28 167.038C849.479 167.042 849.194 167.117 849.647 167.204ZM899.379 167.22C899.471 167.371 897.283 167.495 894.515 167.495C891.748 167.495 889.361 167.371 889.211 167.22C889.06 167.069 891.248 166.945 894.074 166.945C896.899 166.945 899.286 167.069 899.379 167.22ZM901.256 167.312C900.262 167.742 899.982 167.742 899.982 167.312C899.982 167.11 900.432 166.957 900.983 166.971C901.871 166.994 901.901 167.032 901.256 167.312ZM834.736 167.562C834.999 167.668 835.313 167.654 835.434 167.533C835.555 167.411 835.34 167.325 834.956 167.34C834.532 167.358 834.446 167.445 834.736 167.562ZM836.905 167.577C837.559 167.658 838.542 167.657 839.089 167.573C839.637 167.49 839.101 167.423 837.899 167.425C836.698 167.427 836.25 167.495 836.905 167.577ZM763.403 168.432C763.14 168.595 762.777 168.636 762.596 168.523C762.415 168.411 762.482 168.185 762.743 168.022C763.006 167.859 763.369 167.818 763.55 167.931C763.731 168.043 763.664 168.269 763.403 168.432ZM769.991 168.124C769.991 168.281 768.804 168.391 767.351 168.367C765.392 168.335 764.993 168.253 765.804 168.05C767.202 167.7 769.991 167.749 769.991 168.124ZM773.633 167.87C773.633 168.261 771.667 168.798 771.112 168.558C770.658 168.362 770.729 168.251 771.448 168.03C772.56 167.689 773.633 167.61 773.633 167.87ZM761.786 168.431C761.669 168.621 760.313 168.774 758.773 168.771C757.233 168.768 756.164 168.644 756.398 168.496C757.046 168.087 762.035 168.026 761.786 168.431ZM878.233 168.284C877.986 168.385 877.495 168.391 877.14 168.298C876.786 168.205 876.988 168.123 877.589 168.115C878.189 168.108 878.479 168.184 878.233 168.284ZM903.714 168.669C903.264 168.756 902.526 168.756 902.076 168.669C901.625 168.581 901.994 168.51 902.895 168.51C903.796 168.51 904.164 168.581 903.714 168.669ZM677.869 173.538C677.869 173.739 677.797 173.904 677.709 173.904C677.62 173.904 677.447 173.739 677.323 173.538C677.199 173.336 677.272 173.172 677.483 173.172C677.695 173.172 677.869 173.336 677.869 173.538ZM667.97 186.973C668.232 187.079 668.547 187.066 668.667 186.944C668.788 186.823 668.573 186.736 668.19 186.752C667.766 186.77 667.679 186.856 667.97 186.973ZM926.828 193.171C926.707 193.292 926.393 193.305 926.13 193.2C925.84 193.083 925.926 192.996 926.35 192.978C926.734 192.963 926.949 193.049 926.828 193.171ZM670.951 194.048C670.951 194.25 670.777 194.414 670.565 194.414C670.353 194.414 670.281 194.25 670.405 194.048C670.528 193.847 670.702 193.682 670.79 193.682C670.879 193.682 670.951 193.847 670.951 194.048ZM779.291 199.567C779.683 200.204 779.237 200.339 778.737 199.734C778.45 199.386 778.422 199.176 778.664 199.176C778.877 199.176 779.159 199.352 779.291 199.567ZM802.381 200.468C802.597 200.334 802.68 200.07 802.564 199.883C802.444 199.687 803.281 199.542 804.531 199.542C805.787 199.542 806.763 199.712 806.84 199.944C806.913 200.165 807.743 200.434 808.684 200.54C811.027 200.806 810.493 201.37 808.029 201.231C806.547 201.147 806.039 201.244 806.039 201.612C806.039 202.234 804.707 202.264 804.46 201.648C804.353 201.382 804.264 201.469 804.247 201.853C804.232 202.217 804.084 202.432 803.919 202.329C803.755 202.227 803.347 202.464 803.013 202.857C802.3 203.695 800.577 203.827 800.577 203.044C800.577 202.644 800.261 202.57 799.254 202.734C798.216 202.903 797.969 202.839 798.11 202.437C798.208 202.154 798.521 201.94 798.805 201.96C799.09 201.981 799.546 201.756 799.82 201.462C800.252 200.996 800.156 200.959 799.082 201.177C798.402 201.315 797.573 201.505 797.24 201.599C796.906 201.693 796.537 201.613 796.42 201.423C796.303 201.232 797.035 200.961 798.048 200.821C799.061 200.681 800.085 200.351 800.324 200.088C800.681 199.697 800.87 199.71 801.374 200.161C801.712 200.465 802.165 200.603 802.381 200.468ZM853.739 200.05C853.739 200.351 851.512 200.502 851.334 200.213C851.231 200.046 851.73 199.908 852.443 199.908C853.155 199.908 853.739 199.972 853.739 200.05ZM787.249 202.255C786.937 203.075 786.478 202.665 786.588 201.663C786.725 200.417 786.733 200.407 787.117 201.067C787.311 201.402 787.371 201.937 787.249 202.255ZM813.055 200.881C812.809 200.981 812.317 200.988 811.963 200.895C811.609 200.802 811.81 200.72 812.411 200.712C813.012 200.705 813.302 200.781 813.055 200.881ZM825.337 201.026C823.002 201.444 814.7 201.43 814.05 201.007C813.687 200.772 815.772 200.666 820.24 200.692C824.847 200.72 826.458 200.825 825.337 201.026ZM832.893 200.903C832.342 200.987 831.441 200.987 830.89 200.903C830.339 200.819 830.79 200.751 831.892 200.751C832.993 200.751 833.444 200.819 832.893 200.903ZM836.352 200.883C836.102 200.985 835.692 200.985 835.442 200.883C835.192 200.782 835.396 200.699 835.897 200.699C836.398 200.699 836.603 200.782 836.352 200.883ZM839.993 200.883C839.743 200.985 839.333 200.985 839.083 200.883C838.833 200.782 839.037 200.699 839.538 200.699C840.039 200.699 840.244 200.782 839.993 200.883ZM778.002 201.186C778.002 201.719 776.644 202.836 776.009 202.826C775.299 202.814 775.303 202.787 776.104 202.115L776.937 201.417L775.376 201.276C774.005 201.152 774.07 201.127 775.908 201.071C777.06 201.036 778.002 201.088 778.002 201.186ZM779.724 201.228C779.603 201.35 779.289 201.363 779.026 201.257C778.736 201.14 778.822 201.054 779.246 201.036C779.63 201.02 779.845 201.107 779.724 201.228ZM802.034 201.373C802.034 201.575 802.207 201.74 802.419 201.74C802.631 201.74 802.704 201.575 802.58 201.373C802.456 201.172 802.283 201.007 802.194 201.007C802.106 201.007 802.034 201.172 802.034 201.373ZM915.904 201.228C915.784 201.35 915.469 201.363 915.207 201.257C914.916 201.14 915.003 201.054 915.427 201.036C915.81 201.02 916.025 201.107 915.904 201.228ZM918.643 201.249C918.393 201.351 917.983 201.351 917.733 201.249C917.482 201.148 917.687 201.065 918.188 201.065C918.689 201.065 918.893 201.148 918.643 201.249ZM762.246 201.594C762.125 201.716 761.811 201.729 761.548 201.623C761.258 201.507 761.344 201.42 761.768 201.402C762.152 201.386 762.367 201.473 762.246 201.594ZM772.457 201.808C772.377 202.048 772.095 202.316 771.829 202.405C771.558 202.496 771.451 202.398 771.585 202.179C771.718 201.962 771.461 201.722 770.998 201.633C770.411 201.519 770.523 201.459 771.387 201.423C772.179 201.39 772.551 201.525 772.457 201.808ZM784.01 202.106C783.877 202.526 783.944 202.838 784.168 202.838C784.381 202.838 784.556 202.976 784.556 203.143C784.556 203.619 783.076 203.392 782.753 202.866C782.529 202.502 782.288 202.491 781.682 202.817C781.252 203.049 780.723 203.128 780.506 202.994C780.069 202.722 782.526 201.45 783.579 201.403C784.08 201.381 784.185 201.552 784.01 202.106ZM852.828 201.74C852.952 201.941 852.88 202.106 852.668 202.106C852.456 202.106 852.282 201.941 852.282 201.74C852.282 201.538 852.354 201.373 852.443 201.373C852.531 201.373 852.705 201.538 852.828 201.74ZM856.288 201.535C856.288 201.624 856.124 201.798 855.923 201.923C855.723 202.047 855.559 201.974 855.559 201.761C855.559 201.548 855.723 201.373 855.923 201.373C856.124 201.373 856.288 201.446 856.288 201.535ZM909.547 201.614C909.3 201.714 908.809 201.72 908.455 201.627C908.1 201.534 908.302 201.452 908.903 201.445C909.504 201.437 909.793 201.513 909.547 201.614ZM911.535 201.594C911.414 201.716 911.1 201.729 910.837 201.623C910.547 201.507 910.633 201.42 911.057 201.402C911.441 201.386 911.656 201.473 911.535 201.594ZM767.624 202.106C767.748 202.307 767.676 202.472 767.464 202.472C767.252 202.472 767.078 202.307 767.078 202.106C767.078 201.904 767.15 201.74 767.239 201.74C767.327 201.74 767.501 201.904 767.624 202.106ZM810.674 201.961C810.553 202.082 810.239 202.096 809.976 201.99C809.686 201.873 809.772 201.786 810.196 201.768C810.58 201.753 810.795 201.839 810.674 201.961ZM812.495 201.961C812.374 202.082 812.059 202.096 811.797 201.99C811.506 201.873 811.593 201.786 812.017 201.768C812.401 201.753 812.615 201.839 812.495 201.961ZM815.87 202.289C815.87 202.591 816.034 202.838 816.234 202.838C816.435 202.838 816.598 202.632 816.598 202.38C816.597 202.041 817.397 201.953 819.698 202.041C821.573 202.113 822.712 202.3 822.581 202.514C822.461 202.709 822.074 202.776 821.721 202.663C821.367 202.55 820.603 202.708 820.022 203.012C819.087 203.503 818.952 203.504 818.848 203.019C818.716 202.408 817.13 202.269 816.781 202.838C816.537 203.236 815.035 203.341 814.682 202.986C814.327 202.629 814.814 201.74 815.363 201.74C815.642 201.74 815.87 201.987 815.87 202.289ZM849.369 202.289C848.986 202.754 849.066 202.838 849.893 202.838C850.451 202.838 850.772 202.995 850.644 203.205C850.52 203.406 850.073 203.571 849.651 203.571C849.229 203.571 849.001 203.689 849.144 203.833C849.287 203.977 850.731 204.044 852.351 203.982C854.984 203.882 855.274 203.935 855.065 204.484C854.911 204.887 854.987 205.039 855.286 204.929C855.536 204.837 855.701 204.576 855.65 204.349C855.6 204.122 855.979 203.937 856.491 203.937C857.019 203.937 857.326 204.096 857.198 204.303C857.074 204.505 857.146 204.67 857.358 204.67C857.57 204.67 857.744 204.505 857.744 204.303C857.744 203.694 859.106 203.893 859.352 204.539C859.478 204.87 859.527 205.196 859.46 205.263C859.393 205.33 857.724 205.43 855.75 205.485C853.13 205.558 852.121 205.462 852.009 205.127C851.926 204.876 851.534 204.67 851.138 204.67C850.742 204.67 850.52 204.834 850.644 205.036C850.775 205.249 850.405 205.402 849.755 205.402C849.142 205.402 848.641 205.237 848.641 205.036C848.641 204.834 848.035 204.67 847.294 204.67C845.821 204.67 846.009 204.084 847.549 203.877C848.233 203.784 848.487 203.504 848.574 202.747C848.645 202.129 848.909 201.74 849.256 201.74C849.719 201.74 849.739 201.841 849.369 202.289ZM885.599 202.584C886 202.689 885.549 202.758 884.598 202.738C883.647 202.718 882.868 202.556 882.868 202.379C882.868 202.201 883.216 202.168 883.642 202.304C884.234 202.492 884.346 202.434 884.118 202.053C883.885 201.663 883.933 201.646 884.346 201.975C884.635 202.205 885.199 202.479 885.599 202.584ZM840.084 202.472C839.96 202.673 839.705 202.838 839.517 202.838C839.328 202.838 839.174 202.673 839.174 202.472C839.174 202.271 839.43 202.106 839.742 202.106C840.054 202.106 840.208 202.271 840.084 202.472ZM801.306 202.838C802.012 203.297 802.398 203.297 802.398 202.838C802.398 202.637 802.029 202.475 801.579 202.478C800.916 202.482 800.864 202.551 801.306 202.838ZM835.533 202.997C835.533 203.295 835.967 203.578 836.534 203.651C837.337 203.754 837.238 203.814 836.033 203.955C834.664 204.115 834.531 204.058 834.531 203.302C834.531 202.842 834.755 202.472 835.032 202.472C835.307 202.472 835.533 202.708 835.533 202.997ZM846.82 202.784C846.82 202.968 846.162 203.127 845.357 203.139C844.551 203.15 843.966 203.039 844.056 202.892C844.301 202.494 846.82 202.395 846.82 202.784ZM733.397 203.205C733.521 203.406 733.367 203.571 733.055 203.571C732.743 203.571 732.487 203.406 732.487 203.205C732.487 203.003 732.641 202.838 732.83 202.838C733.018 202.838 733.273 203.003 733.397 203.205ZM805.675 203.226C805.675 203.439 805.493 203.501 805.27 203.362C805.048 203.224 804.722 203.338 804.548 203.615C804.296 204.015 804.228 203.986 804.224 203.479C804.221 203.081 804.494 202.838 804.947 202.838C805.347 202.838 805.675 203.013 805.675 203.226ZM810.773 203.113C810.773 203.264 810.379 203.388 809.897 203.388C809.416 203.388 809.098 203.264 809.191 203.113C809.283 202.962 809.677 202.838 810.066 202.838C810.455 202.838 810.773 202.962 810.773 203.113ZM880.137 203.205C880.014 203.406 879.553 203.559 879.115 203.545C878.346 203.52 878.343 203.508 879.045 203.205C880.047 202.771 880.404 202.771 880.137 203.205ZM906.9 203.205C906.9 203.406 907.269 203.573 907.719 203.576C908.17 203.58 908.784 203.742 909.085 203.937C909.488 204.199 909.201 204.312 907.992 204.369C907.091 204.412 905.78 204.512 905.08 204.591C904.379 204.671 898.152 204.785 891.243 204.844C884.334 204.903 879.664 204.828 880.866 204.677C882.067 204.527 883.87 204.301 884.871 204.176C888.718 203.695 893.384 203.57 893.612 203.941C893.739 204.147 894.01 204.211 894.216 204.083C894.421 203.955 894.972 204.057 895.441 204.309C895.908 204.561 896.589 204.647 896.953 204.501C897.317 204.354 898.793 204.206 900.232 204.17C901.671 204.135 902.955 203.999 903.086 203.867C903.217 203.735 903.883 203.719 904.566 203.83C905.554 203.991 905.808 203.911 905.808 203.436C905.808 203.107 906.054 202.838 906.354 202.838C906.654 202.838 906.9 203.003 906.9 203.205ZM917.611 203.296C917.781 203.662 917.866 203.662 918.036 203.296C918.265 202.804 921.304 202.647 921.591 203.113C921.683 203.264 921.038 203.33 920.156 203.259C919.154 203.179 918.552 203.282 918.552 203.534C918.552 204.145 916.839 204.017 916.6 203.388C916.345 202.72 917.304 202.633 917.611 203.296ZM833.166 203.571C833.042 203.772 832.5 203.925 831.961 203.911C831.086 203.888 831.059 203.852 831.71 203.571C832.721 203.133 833.435 203.133 833.166 203.571ZM867.393 203.571C867.269 203.772 867.506 203.937 867.918 203.937C868.33 203.937 868.668 203.772 868.668 203.571C868.668 203.138 869.373 203.236 869.973 203.752C870.523 204.225 868.653 205.059 867.64 204.793C867.249 204.69 866.819 204.785 866.685 205.004C866.55 205.223 866.194 205.402 865.894 205.402C865.593 205.402 865.457 205.224 865.59 205.008C865.758 204.734 865.317 204.691 864.155 204.866C863.137 205.019 862.478 204.979 862.478 204.762C862.478 204.566 863.417 204.308 864.565 204.189C865.714 204.07 866.711 203.8 866.78 203.588C866.85 203.377 867.068 203.205 867.263 203.205C867.458 203.205 867.517 203.369 867.393 203.571ZM877.804 203.542C877.522 203.722 876.809 203.808 876.219 203.733C875.394 203.628 875.104 203.762 874.96 204.316C874.857 204.712 874.633 205.036 874.463 205.036C874.069 205.036 874.493 203.843 875.013 203.485C875.228 203.337 876.059 203.216 876.86 203.216C877.854 203.216 878.154 203.32 877.804 203.542ZM749.601 203.894C749.601 204.33 748.193 204.679 747.96 204.3C747.859 204.135 747.981 203.916 748.233 203.814C748.979 203.511 749.601 203.548 749.601 203.894ZM754.334 203.937C754.334 204.139 754.18 204.303 753.992 204.303C753.803 204.303 753.548 204.139 753.424 203.937C753.3 203.736 753.454 203.571 753.766 203.571C754.078 203.571 754.334 203.736 754.334 203.937ZM760.888 203.897C760.888 204.451 758.229 204.569 757.257 204.058C756.405 203.611 756.505 203.575 758.613 203.573C759.864 203.572 760.888 203.718 760.888 203.897ZM762.008 204.038C761.963 204.476 761.464 204.391 761.307 203.919C761.227 203.677 761.358 203.545 761.598 203.626C761.839 203.706 762.023 203.892 762.008 204.038ZM765.232 205.191C765.246 205.378 764.954 205.213 764.583 204.825C764.125 204.347 764.037 204.036 764.31 203.859C764.674 203.622 765.167 204.334 765.232 205.191ZM768.323 203.793C769.064 204.079 769.07 204.67 768.331 204.67C768.019 204.67 767.859 204.825 767.975 205.013C768.091 205.203 767.856 205.333 767.452 205.302C766.697 205.245 766.579 204.354 767.26 203.851C767.706 203.521 767.63 203.525 768.323 203.793ZM911.27 203.937C911.27 204.139 910.983 204.301 910.632 204.298C910.088 204.293 910.075 204.24 910.541 203.937C911.228 203.49 911.27 203.49 911.27 203.937ZM772.008 204.507C771.077 204.892 771.027 204.977 771.644 205.135C772.221 205.282 772.183 205.325 771.444 205.36C770.917 205.384 770.354 205.118 770.114 204.731C769.732 204.115 769.839 204.059 771.392 204.061C773.071 204.062 773.076 204.066 772.008 204.507ZM777.013 204.93C777.16 205.702 777.074 205.801 776.41 205.621C775.984 205.506 774.98 205.405 774.179 205.396C773 205.383 772.845 205.308 773.367 205.002C773.722 204.794 773.92 204.476 773.809 204.294C773.697 204.112 774.334 203.978 775.224 203.996C776.642 204.025 776.863 204.14 777.013 204.93ZM787.713 204.876C788.091 205.396 788.297 205.448 788.636 205.108C789.242 204.498 790.018 204.56 790.018 205.219C790.018 205.647 789.555 205.762 787.924 205.739C786.772 205.724 786.035 205.627 786.286 205.526C787.356 205.091 786.594 204.67 784.738 204.67C782.572 204.67 781.989 205.263 783.919 205.504C784.655 205.595 784.319 205.673 783.03 205.71C781.867 205.743 780.85 205.594 780.713 205.37C780.537 205.083 780.358 205.083 780.073 205.37C779.855 205.589 779.431 205.768 779.131 205.768C778.727 205.768 778.691 205.661 778.993 205.357C779.218 205.131 779.311 204.709 779.2 204.418C779.029 203.971 779.634 203.914 783.112 204.048C786.564 204.18 787.304 204.313 787.713 204.876ZM795.842 204.761C795.845 205.17 793.374 205.094 793.117 204.677C792.984 204.46 793.48 204.351 794.368 204.402C795.178 204.448 795.841 204.61 795.842 204.761ZM808.952 204.648C808.952 204.838 808.789 205.094 808.589 205.218C807.954 205.613 798.118 205.432 797.3 205.01C796.884 204.796 801.395 204.419 805.038 204.363C807.283 204.329 808.952 204.45 808.952 204.648ZM824.92 204.86C825.304 205.246 824.615 205.377 821.219 205.563C817.736 205.754 814.05 205.287 814.05 204.656C814.05 204.334 824.594 204.533 824.92 204.86ZM837.899 205.023C835.551 205.234 833.785 205.078 834.369 204.712C834.567 204.588 835.934 204.563 837.407 204.656L840.084 204.826L837.899 205.023ZM844.272 204.67C844.272 204.871 844.2 205.036 844.111 205.036C844.023 205.036 843.849 204.871 843.725 204.67C843.602 204.468 843.674 204.303 843.886 204.303C844.098 204.303 844.272 204.468 844.272 204.67ZM852.464 204.67C852.341 204.871 852.495 205.036 852.807 205.036C853.119 205.036 853.375 204.871 853.375 204.67C853.375 204.468 853.221 204.303 853.032 204.303C852.843 204.303 852.588 204.468 852.464 204.67ZM927.951 204.553C928.214 204.659 928.528 204.646 928.649 204.525C928.769 204.403 928.555 204.316 928.171 204.332C927.747 204.35 927.66 204.437 927.951 204.553ZM842.654 205.001C842.542 205.184 842.123 205.247 841.722 205.142C840.72 204.878 840.811 204.67 841.926 204.67C842.439 204.67 842.766 204.819 842.654 205.001ZM861.476 204.912C861.226 205.014 860.816 205.014 860.566 204.912C860.316 204.811 860.52 204.727 861.021 204.727C861.522 204.727 861.727 204.811 861.476 204.912ZM878.226 204.912C877.976 205.014 877.566 205.014 877.315 204.912C877.065 204.811 877.27 204.727 877.771 204.727C878.271 204.727 878.476 204.811 878.226 204.912ZM925.288 206.501C925.412 206.702 925.585 206.867 925.674 206.867C925.762 206.867 925.834 206.702 925.834 206.501C925.834 206.299 925.661 206.135 925.449 206.135C925.237 206.135 925.164 206.299 925.288 206.501ZM934.869 206.385C935.132 206.491 935.446 206.477 935.567 206.356C935.688 206.234 935.473 206.148 935.089 206.164C934.665 206.181 934.579 206.268 934.869 206.385ZM786.012 210.987C786.012 211.138 782.694 211.231 778.639 211.194C773.535 211.147 772.218 211.062 774.361 210.919C778.807 210.623 786.011 210.665 786.012 210.987ZM789.654 211.122C789.654 211.199 788.876 211.243 787.924 211.219C786.437 211.182 786.348 211.141 787.287 210.926C788.308 210.693 789.654 210.804 789.654 211.122ZM770.811 211.138C770.56 211.24 770.151 211.24 769.9 211.138C769.65 211.037 769.855 210.954 770.355 210.954C770.856 210.954 771.061 211.037 770.811 211.138ZM737.857 211.919C738.109 212.086 736.615 212.232 734.493 212.248C732.393 212.264 730.741 212.169 730.822 212.038C731.043 211.679 737.333 211.573 737.857 211.919ZM904.283 212.245C904.546 212.351 904.86 212.337 904.981 212.216C905.102 212.094 904.887 212.008 904.503 212.024C904.079 212.041 903.993 212.128 904.283 212.245ZM877.672 212.582C877.551 212.704 877.237 212.717 876.974 212.611C876.684 212.494 876.77 212.407 877.194 212.39C877.578 212.374 877.793 212.461 877.672 212.582ZM751.128 213.367C753.27 213.431 756.875 213.432 759.139 213.367C761.403 213.303 759.65 213.25 755.244 213.249C750.839 213.249 748.986 213.302 751.128 213.367ZM783.762 213.54C783.956 213.735 784.419 213.83 784.791 213.751C785.291 213.644 785.199 213.552 784.437 213.396C783.773 213.259 783.534 213.31 783.762 213.54ZM896.637 213.344C896.899 213.449 897.213 213.436 897.334 213.315C897.455 213.193 897.24 213.107 896.857 213.122C896.432 213.14 896.346 213.227 896.637 213.344ZM786.654 213.719C787.107 213.806 787.763 213.803 788.111 213.711C788.459 213.62 788.088 213.548 787.287 213.552C786.486 213.556 786.201 213.631 786.654 213.719ZM791.752 213.719C792.205 213.806 792.86 213.803 793.208 213.711C793.556 213.62 793.186 213.548 792.385 213.552C791.584 213.556 791.299 213.631 791.752 213.719ZM803.042 213.725C803.696 213.807 804.679 213.805 805.226 213.722C805.774 213.638 805.238 213.571 804.036 213.573C802.835 213.575 802.387 213.644 803.042 213.725ZM808.32 213.723C808.873 213.807 809.693 213.804 810.141 213.718C810.588 213.631 810.135 213.562 809.134 213.564C808.133 213.567 807.766 213.638 808.32 213.723ZM856.014 213.712C856.365 213.804 856.939 213.804 857.289 213.712C857.639 213.62 857.353 213.545 856.652 213.545C855.951 213.545 855.664 213.62 856.014 213.712ZM862.022 213.702C862.273 213.804 862.683 213.804 862.933 213.702C863.183 213.601 862.978 213.518 862.478 213.518C861.977 213.518 861.772 213.601 862.022 213.702Z" fill="#4B6CB7"/>
</svg>
