<svg width="66" height="70" viewBox="0 0 66 70" fill="none" xmlns="http://www.w3.org/2000/svg">
<path fill-rule="evenodd" clip-rule="evenodd" d="M27.5529 0.428219C23.9949 1.24013 22.6719 2.86418 22.4961 6.63448L22.4032 8.62754L20.7614 9.5185C19.3801 10.268 16.9589 11.8463 15.0747 13.2259C14.6747 13.5187 14.5664 13.5011 14.1397 13.0744L13.6569 12.5916L14.6816 11.6988C17.7927 8.98763 19.1085 7.16629 19.1068 5.5732C19.1049 3.50038 17.3099 2.24581 14.0641 2.04828C12.0474 1.92583 8.45043 2.43183 6.98378 3.04481C6.2141 3.3662 6.08531 3.35893 5.41298 2.95543C4.21283 2.23502 3.47411 2.16206 2.36287 2.65352C0.519008 3.46918 -0.173026 5.48054 0.826319 7.11984C1.3084 7.91064 1.3084 7.9172 0.855408 8.99654C0.287471 10.3494 -0.00623356 12.5001 0.000100313 15.2624C0.0061996 18.0256 0.627389 19.4158 2.22376 20.2389C4.06105 21.1864 5.9028 20.5359 8.3709 18.0678C9.0871 17.3514 9.75708 16.7654 9.8596 16.7654C9.96211 16.7654 10.2767 16.9822 10.5587 17.2472L11.0715 17.7291L9.94944 19.5959C8.62074 21.8069 6.90003 25.7994 6.21574 28.2602C3.29583 38.7575 5.85542 47.8117 13.9205 55.5149L16.3574 57.8422L15.7764 58.4754C14.6691 59.6818 13.0014 62.016 12.4199 63.1742C11.0717 65.8581 12.1203 68.6093 14.4913 68.6093C16.4335 68.6093 17.5257 67.6728 20.1066 63.7949C21.1189 62.2738 21.9613 61.2386 22.1649 61.2658C22.3542 61.2911 23.4066 61.6428 24.5033 62.0474C29.1064 63.7449 34.2262 64.3049 38.5436 63.583C39.8646 63.3621 41.5379 62.9776 42.2618 62.7284C42.986 62.4793 43.6937 62.2764 43.835 62.2776C43.976 62.279 44.4897 63.108 44.9765 64.1203C45.9667 66.1792 47.9855 68.5791 49.2211 69.1653C51.0176 70.0178 52.8835 69.3818 53.5901 67.6764C54.2615 66.0551 53.2785 62.4007 51.4061 59.5577L50.6261 58.3733L52.1028 57.0277C54.2185 55.0999 56.4743 52.0019 57.933 49.0212C60.3047 44.1744 61.1731 40.4499 61.1877 35.0632C61.2076 27.6383 59.3638 22.1682 54.7865 16.0734C54.4522 15.6283 54.3105 15.3443 54.4719 15.4421C54.633 15.5401 55.3955 16.4482 56.1661 17.4605C57.8638 19.6909 58.9429 20.6143 60.2934 20.9924C62.2844 21.5498 63.907 20.7391 64.9603 18.6609C66.4553 15.7104 66.327 11.5188 64.6464 8.41617C64.0823 7.37437 64.0353 7.15034 64.3051 6.78133C65.01 5.81741 64.4963 3.82927 63.3478 3.07672C62.6372 2.61129 61.1171 2.57095 60.5275 3.00212C60.1632 3.26838 59.8737 3.22732 58.5474 2.72132C57.1523 2.18904 56.6463 2.12734 53.5922 2.11608C50.3938 2.10435 50.1118 2.14048 48.8723 2.72178C48.1472 3.06194 47.1178 3.7338 46.585 4.21541C45.3931 5.29216 45.3058 6.05247 46.3078 6.62767C46.6883 6.84608 47.0997 7.2369 47.2222 7.49659C47.3449 7.75604 48.0841 8.72137 48.8648 9.64166C49.6457 10.5619 50.2326 11.3671 50.1691 11.4304C50.1057 11.494 49.3841 11.1062 48.5659 10.5685C47.7474 10.0311 46.2775 9.2262 45.2995 8.77978L43.5211 7.96834L43.5129 5.95769C43.5061 4.23793 43.4115 3.76382 42.8598 2.67839C42.3371 1.65042 41.9935 1.29737 41.049 0.818339C39.9108 0.240783 39.7538 0.225769 34.3632 0.180494C30.6185 0.148824 28.4282 0.228585 27.5529 0.428219ZM27.864 2.70044C26.4738 2.97537 25.5015 3.53463 25.1224 4.27757C24.8329 4.84457 24.2687 7.0504 24.2687 7.61529C24.2687 7.73118 24.8596 7.62256 25.5817 7.3739C29.9105 5.88473 35.4311 5.65366 39.7731 6.77992C40.9115 7.07527 40.9348 7.07057 41.0739 6.51648C41.262 5.76697 40.9843 4.10796 40.5629 3.46426C40.3771 3.18017 39.8282 2.83767 39.3431 2.70302C38.3121 2.41659 29.3095 2.41471 27.864 2.70044ZM2.6866 4.80141C2.2695 5.2185 2.02412 6.20893 2.338 6.20893C2.51418 6.20893 3.84453 4.71508 3.85274 4.50817C3.86634 4.16051 3.14639 4.34161 2.6866 4.80141ZM50.2514 4.64916C49.7689 4.83073 49.0963 5.16103 48.7571 5.38342L48.1404 5.78761L49.6347 7.30493C50.4564 8.13959 52.1708 9.73878 53.4442 10.8587C54.7175 11.9784 56.7085 14.0397 57.8685 15.4393C59.2781 17.14 60.2507 18.0979 60.8008 18.3277C61.5771 18.6522 61.6559 18.6414 62.1898 18.1398C63.6642 16.7548 63.8512 12.6542 62.5628 9.96234C61.2494 7.21743 59.5754 5.67806 57.0882 4.92761C55.2969 4.38712 51.3732 4.22714 50.2514 4.64916ZM9.37236 5.01183C7.4044 5.504 5.61543 6.3905 4.75262 7.30141C3.29113 8.84383 2.06096 12.9346 2.31032 15.4224C2.66736 18.9853 3.99396 19.0571 7.15644 15.6849C8.92641 13.7976 11.9587 10.7576 14.3853 8.43752C16.2146 6.68867 16.8409 5.778 16.5444 5.2985C16.0574 4.51005 12.0237 4.34912 9.37236 5.01183ZM29.4296 9.13964C25.6202 9.9926 21.8168 11.7511 17.5191 14.6468C15.1817 16.2219 14.5408 16.7912 13.5267 18.1945C10.9504 21.7593 8.50954 27.6092 7.8398 31.8238C7.42223 34.4507 7.6608 39.8754 8.28668 41.9836C8.94752 44.2108 10.8622 47.9843 12.2798 49.8542C17.7765 57.104 27.0389 61.4943 35.8625 61.0321C41.6962 60.7265 46.6235 58.4901 50.913 54.2007C53.1364 51.9773 54.4029 50.1721 55.8273 47.1961C57.7287 43.2241 58.5659 39.4554 58.5746 34.8287C58.5983 22.5431 51.0103 12.4978 39.4052 9.45117C36.9428 8.80465 31.6627 8.63973 29.4296 9.13964ZM29.6642 12.3195C28.6965 12.4391 26.9803 12.8011 25.8505 13.1239C21.7333 14.2999 18.9973 16.0849 15.6678 19.7669C11.9941 23.8293 10.7527 27.1138 10.4996 33.4408C9.98839 46.2177 15.9849 55.1527 27.0427 58.0902C29.8061 58.8242 35.1906 58.9464 38.1117 58.3409C46.4304 56.6172 52.8394 50.2664 55.1625 41.4454C55.9338 38.5164 56.0319 33.462 55.3751 30.4888C53.3226 21.1982 46.8649 14.3878 38.477 12.6681C36.1717 12.1954 32.0007 12.0302 29.6642 12.3195ZM51.7155 12.8438C51.7155 12.8881 52.0322 13.2276 52.4192 13.5985C52.8063 13.9693 53.123 14.1673 53.123 14.0383C53.123 13.9095 52.8063 13.5698 52.4192 13.2836C52.0322 12.9974 51.7155 12.7994 51.7155 12.8438ZM11.7579 14.3756C11.2423 14.9455 11.2638 15.181 11.8665 15.5573C12.2998 15.828 12.4255 15.8104 12.8105 15.4254C13.2463 14.9898 13.2442 14.9715 12.7021 14.4622C12.1665 13.9593 12.1372 13.9564 11.7579 14.3756ZM29.3123 14.6658C26.8731 14.9919 23.8938 15.9732 22.0401 17.0614C19.6513 18.4638 15.5286 22.5494 14.6565 24.3785C13.4446 26.9198 12.9813 29.0186 12.8417 32.6001C12.6308 38.0118 13.3662 41.8952 15.3961 46.0889C16.4295 48.2236 16.8581 48.8209 18.6104 50.5674C21.5691 53.5159 25.0304 55.266 29.2497 55.9465C31.7973 56.3575 36.5555 56.1288 38.7712 55.4886C45.897 53.4298 51.3279 47.3108 52.9421 39.5228C54.8317 30.4053 49.93 20.0229 42.0279 16.4053C38.7585 14.9084 33.1936 14.1472 29.3123 14.6658ZM42.9149 22.9914C40.5772 24.3236 36.9721 27.0539 35.8524 28.3407C35.3856 28.8769 34.7625 29.8265 34.4679 30.4508C33.9347 31.5806 33.9267 31.5859 32.678 31.6549C31.5083 31.7197 31.3575 31.6636 30.4463 30.8266C27.7852 28.3824 21.5862 26.478 20.4344 27.7509C19.5345 28.7451 20.2056 30.4602 22.4211 32.8286C23.9119 34.4221 25.5723 35.3924 27.849 36.0004C28.8227 36.2606 29.021 36.4227 29.3933 37.2644C29.9614 38.5485 31.2707 39.668 32.434 39.8646C34.5373 40.22 36.7837 38.7991 37.0835 36.9235C37.209 36.1393 37.4166 35.8559 38.317 35.2404C40.5209 33.7331 45.623 27.9653 46.8098 25.6394C47.4075 24.4679 47.3981 23.0045 46.7891 22.3955C46.0382 21.6446 44.9971 21.8048 42.9149 22.9914ZM42.0716 26.1351C38.6051 28.4512 36.9369 29.8615 36.1398 31.1508L35.4459 32.2733L36.1438 32.9712L36.8417 33.6691L38.2468 32.3976C40.5822 30.2842 45.3284 24.5068 44.7292 24.5068C44.6082 24.5068 43.4122 25.2396 42.0716 26.1351ZM22.392 29.3496C22.392 29.7362 24.1369 31.7865 24.9389 32.3423C25.7691 32.9175 28.3958 33.884 29.1413 33.8884C29.3055 33.8896 29.5608 33.6245 29.7088 33.2999C30.0222 32.612 29.8683 32.4556 27.7875 31.342C26.406 30.6028 22.392 29.1204 22.392 29.3496ZM31.8471 34.4765C31.4602 34.7475 31.361 35.0267 31.414 35.6941C31.4942 36.7075 32.2139 37.4091 33.1727 37.4091C34.7072 37.4091 35.2587 35.1862 33.8985 34.4829C33.0268 34.032 32.484 34.0304 31.8471 34.4765ZM16.079 61.1349C15.2518 62.4404 14.4395 63.9018 14.2738 64.3825C13.8856 65.5092 14.0763 66.2634 14.7491 66.2634C15.5852 66.2634 16.2838 65.403 19.6309 60.2512C19.789 60.0082 18.2187 58.7531 17.7638 58.759C17.6643 58.7601 16.9061 59.8294 16.079 61.1349ZM47.3756 60.5221C46.8595 60.84 46.3439 61.1316 46.2299 61.1703C46.1159 61.209 46.6146 62.1978 47.3381 63.3675C48.6628 65.5085 50.3387 67.3076 50.852 67.1389C51.3678 66.9696 51.2991 65.1747 50.7222 63.7508C50.1904 62.4373 48.6818 59.9221 48.435 59.9368C48.3684 59.9408 47.8917 60.2043 47.3756 60.5221Z" fill="white"/>
</svg>
