<svg width="148" height="51" viewBox="0 0 148 51" fill="none" xmlns="http://www.w3.org/2000/svg">
<path d="M12.8582 16.2125C12.2028 14.7117 11.4094 11.3848 11.0657 8.70269M12.7002 17.6375C12.0916 14.6555 11.5774 11.4015 11.1205 9.37527M12.6204 33.8572C12.3601 28.8755 11.8749 27.4085 11.1528 22.6355M12.8716 33.1717C12.5573 31.1637 12.2349 29.5211 11.0335 23.441M12.6854 2.42857V2.42857Z" stroke="#D9D9D9" stroke-width="1.42857"/>
<path d="M11.1202 41.9396C14.4388 41.524 16.1293 41.3788 19.7242 40.7493M11.3582 41.8551C12.7873 41.6096 16.4455 41.1792 20.519 40.6956M30.1445 42.147C36.6086 41.6839 39.1548 41.1577 41.2553 40.7905M32.314 41.9529C35.0613 41.7698 37.9519 41.4267 42.3132 40.958M53.6825 42.0806C55.3998 41.6954 58.1935 41.4465 62.1858 41.044M52.6854 42.1963C55.4184 41.8527 58.6325 41.6234 63.1797 41.0008M74.334 42.1892C74.869 42.1094 78.1769 41.6262 82.7633 41.4026M73.8554 42.2576C76.5515 41.9696 79.4308 41.62 83.5137 41.2539M95.0454 42.2971C97.0426 42.1058 99.0472 41.9392 104.396 41.4693M94.1848 42.3884C97.4155 42.0924 100.604 41.8422 103.294 41.4024M115.615 42.5635C119.584 42.3548 120.102 41.8581 125.855 41.4624M115.304 42.5237C118.649 42.3085 119.957 42.0058 124.653 41.5835M136.355 42.6755C140.438 42.4647 143.175 41.9609 147.054 41.7353M137.336 42.6195C138.312 42.392 140.58 42.1709 146.044 41.642M0.0142738 40.6259V40.6259Z" stroke="#D9D9D9" stroke-width="1.42857"/>
<path d="M145.214 17.9363C145.9 16.4502 146.326 13.0477 146.68 10.2975M145.358 18.5573C145.739 15.6948 146.119 13.1802 146.812 9.40723M145.505 33.7965C145.7 30.294 146.087 29.8519 147.052 24.9482M145.42 33.8572C145.88 31.5449 146.021 29.5251 146.898 23.8631M145.524 2.42857V2.42857Z" stroke="#D9D9D9" stroke-width="1.42857"/>
<path d="M10.8344 2.31434C11.7397 1.89647 15.3489 1.76009 22.101 1.20224M11.1999 2.31176C12.9652 1.94014 15.728 1.76619 21.3349 1M30.9304 2.33537C34.0257 1.85809 36.9749 1.49351 41.5841 1.17924M31.4793 2.30925C35.1525 1.90042 39.0742 1.55293 40.5393 1.19096M52.1188 2.42857C56.0422 1.96381 57.8722 1.64614 62.1363 1.32037M52.6133 2.37875C56.2461 1.86166 60.028 1.44122 61.866 1.25111M74.1621 2.20163C75.8296 2.09654 77.5843 1.6411 82.9942 1.13779M73.8937 2.31964C77.9323 1.90927 80.0733 1.56222 83.1758 1.23813M97.0622 2.19191C99.4164 1.9599 101.945 1.4272 104.628 1.26487M95.1116 2.24763C99.7332 1.88139 103.463 1.45942 105.059 1.19692M118.015 2.24938C119.606 2.01556 121.976 1.53181 126.601 1.07176M117.141 2.24703C120.356 2.02098 123.032 1.58121 125.518 1.15238M138.318 2.2251C140.922 2.0556 143.893 1.58835 146.09 1.27499M138.843 2.25132C142.329 1.93026 144.908 1.41631 147.052 1.18806M0.00512695 1.05773V1.05773Z" stroke="#D9D9D9" stroke-width="1.42857"/>
<path d="M56.1798 26.3476C56.1798 26.9847 56.0765 27.5874 55.8698 28.1556C55.6632 28.7238 55.3662 29.2232 54.9787 29.6537C54.5999 30.0756 54.1393 30.4113 53.5969 30.661C53.0545 30.9193 52.4518 31.0485 51.7888 31.0485C51.2034 31.0485 50.661 30.9537 50.1616 30.7643C49.6708 30.5835 49.2447 30.3252 48.8831 29.9895C48.5214 29.6537 48.2373 29.2447 48.0307 28.7626C47.8327 28.2804 47.7337 27.7423 47.7337 27.1483C47.7337 27.0277 47.738 26.8771 47.7466 26.6963C47.7552 26.5155 47.781 26.3433 47.8241 26.1797C47.8757 26.0075 47.9446 25.8654 48.0307 25.7535C48.1254 25.633 48.2589 25.5727 48.431 25.5727C48.5688 25.5727 48.7195 25.6028 48.8831 25.6631C49.0552 25.7148 49.2145 25.7879 49.3609 25.8826C49.5073 25.9773 49.6278 26.0936 49.7225 26.2313C49.8258 26.3605 49.8775 26.5025 49.8775 26.6575V27.4066C49.8775 28.0006 50.0368 28.4871 50.3553 28.8659C50.6825 29.2361 51.1517 29.4212 51.763 29.4212C52.1935 29.4212 52.5637 29.3222 52.8736 29.1242C53.1836 28.9262 53.4333 28.6722 53.6227 28.3622C53.8207 28.0523 53.9628 27.7079 54.0489 27.3291C54.1436 26.9416 54.1909 26.5628 54.1909 26.1926C54.1909 25.4694 54.0403 24.7677 53.7389 24.0875C53.4462 23.4074 53.076 22.7444 52.6283 22.0987C52.1806 21.4443 51.6941 20.8029 51.1689 20.1744C50.6437 19.5459 50.1573 18.9217 49.7096 18.3018C49.2619 17.6819 48.8874 17.062 48.586 16.4421C48.2933 15.8222 48.1469 15.1894 48.1469 14.5437C48.1469 14.0185 48.2502 13.5665 48.4569 13.1876C48.6721 12.8002 48.9519 12.486 49.2963 12.2449C49.6493 11.9952 50.0454 11.8144 50.4845 11.7025C50.9322 11.5819 51.3928 11.5217 51.8663 11.5217C52.4432 11.5217 52.9597 11.6035 53.4161 11.767C53.8724 11.9306 54.2598 12.1674 54.5784 12.4773C54.8969 12.7873 55.138 13.1704 55.3016 13.6267C55.4738 14.0744 55.5599 14.5867 55.5599 15.1636C55.5599 15.2497 55.5556 15.3573 55.547 15.4864C55.5383 15.6156 55.5168 15.7447 55.4824 15.8739C55.4479 15.9944 55.3963 16.102 55.3274 16.1967C55.2585 16.2828 55.1638 16.3259 55.0433 16.3259C54.8711 16.3259 54.6989 16.2828 54.5267 16.1967C54.3803 16.1192 54.2598 16.0461 54.1651 15.9772C54.079 15.8997 54.0101 15.8179 53.9585 15.7318C53.9068 15.6371 53.8681 15.5338 53.8422 15.4219C53.8164 15.3099 53.7949 15.1722 53.7777 15.0086C53.7346 14.6986 53.6787 14.4188 53.6098 14.1691C53.5409 13.9195 53.4376 13.7085 53.2998 13.5363C53.1621 13.3641 52.9813 13.2307 52.7574 13.136C52.5336 13.0413 52.2451 12.9939 51.8921 12.9939C51.6425 12.9939 51.4014 13.0198 51.1689 13.0714C50.9451 13.1231 50.7471 13.2092 50.5749 13.3297C50.4113 13.4502 50.2778 13.6095 50.1745 13.8075C50.0798 13.997 50.0324 14.2337 50.0324 14.5178C50.0324 14.9139 50.1185 15.3185 50.2907 15.7318C50.4715 16.1451 50.704 16.5669 50.9881 16.9974C51.2809 17.4279 51.608 17.8713 51.9696 18.3276C52.3398 18.7753 52.7187 19.2403 53.1061 19.7224C53.4935 20.2045 53.8681 20.7039 54.2297 21.2205C54.5999 21.7285 54.9271 22.258 55.2112 22.809C55.5039 23.36 55.7364 23.9325 55.9086 24.5266C56.0894 25.1121 56.1798 25.7191 56.1798 26.3476ZM66.5114 22.499C66.5114 22.964 66.4942 23.4848 66.4597 24.0617C66.4339 24.6385 66.3737 25.2283 66.2789 25.831C66.1842 26.4337 66.0465 27.0234 65.8657 27.6003C65.6849 28.1685 65.4395 28.6765 65.1295 29.1242C64.8196 29.5719 64.4365 29.9335 63.9802 30.209C63.5325 30.4759 62.99 30.6094 62.3529 30.6094C61.9999 30.6094 61.6555 30.5577 61.3198 30.4544C60.984 30.3511 60.674 30.1961 60.3899 29.9895C59.9422 29.6623 59.5634 29.1931 59.2534 28.5818C58.9521 27.9619 58.7024 27.2688 58.5044 26.5025C58.3064 25.7277 58.1557 24.9097 58.0524 24.0488C57.9491 23.1792 57.8716 22.3268 57.8199 21.4917C57.7769 20.6566 57.751 19.8688 57.7424 19.1283C57.7338 18.3879 57.7295 17.7551 57.7295 17.2299C57.7295 17.0921 57.7295 16.8941 57.7295 16.6358C57.7295 16.3775 57.7295 16.0934 57.7295 15.7835C57.7381 15.4649 57.7467 15.1377 57.7553 14.802C57.764 14.4662 57.7769 14.1476 57.7941 13.8463C57.8113 13.5363 57.8328 13.2651 57.8587 13.0327C57.8845 12.8002 57.9189 12.6323 57.962 12.529C58.005 12.4257 58.0524 12.3525 58.104 12.3095C58.1643 12.2664 58.2547 12.2449 58.3752 12.2449C58.7627 12.2449 59.0683 12.3654 59.2922 12.6065C59.5246 12.839 59.6409 13.1489 59.6409 13.5363C59.6409 14.1046 59.628 14.6728 59.6021 15.2411C59.5763 15.8093 59.5634 16.3775 59.5634 16.9458C59.5634 17.1955 59.5634 17.5614 59.5634 18.0435C59.572 18.5257 59.5892 19.0767 59.615 19.6966C59.6409 20.3079 59.6796 20.9665 59.7313 21.6725C59.7829 22.3785 59.8518 23.0802 59.9379 23.7776C60.0326 24.4663 60.1488 25.1336 60.2866 25.7793C60.4244 26.4164 60.5879 26.9804 60.7773 27.4711C60.9754 27.9619 61.2035 28.3536 61.4618 28.6464C61.7201 28.9391 62.0171 29.0854 62.3529 29.0854C62.6715 29.0854 62.947 28.9606 63.1795 28.7109C63.4205 28.4612 63.6185 28.1427 63.7735 27.7552C63.9371 27.3592 64.0663 26.9201 64.161 26.438C64.2643 25.9558 64.3418 25.4823 64.3934 25.0174C64.4451 24.5438 64.4795 24.109 64.4967 23.713C64.514 23.3083 64.5226 22.9898 64.5226 22.7573C64.5226 22.2838 64.5097 21.7586 64.4838 21.1817C64.4666 20.5963 64.4365 19.9893 64.3934 19.3608C64.359 18.7323 64.3073 18.0909 64.2384 17.4365C64.1696 16.7822 64.0878 16.1494 63.9931 15.5381C63.8984 14.9182 63.7864 14.3284 63.6573 13.7688C63.5368 13.2092 63.3947 12.7098 63.2311 12.2707C63.2053 12.1932 63.1622 12.0942 63.102 11.9737C63.0503 11.8531 63.0245 11.7541 63.0245 11.6766C63.0245 11.5389 63.0546 11.4356 63.1149 11.3667C63.1838 11.2978 63.2656 11.2505 63.3603 11.2246C63.455 11.1902 63.5583 11.173 63.6702 11.173C63.7821 11.1644 63.8854 11.1601 63.9802 11.1601C64.1868 11.1601 64.3547 11.1687 64.4838 11.1859C64.6216 11.2031 64.7809 11.2634 64.9617 11.3667C65.0822 11.4356 65.1941 11.625 65.2974 11.9349C65.4094 12.2449 65.5127 12.6366 65.6074 13.1102C65.7021 13.5837 65.7882 14.1218 65.8657 14.7245C65.9518 15.3185 66.0293 15.9341 66.0981 16.5713C66.167 17.1998 66.2273 17.8283 66.2789 18.4568C66.3306 19.0853 66.3737 19.6664 66.4081 20.2002C66.4425 20.734 66.4684 21.2033 66.4856 21.6079C66.5028 22.0126 66.5114 22.3096 66.5114 22.499ZM77.0626 25.3661C77.0626 26.3734 76.899 27.2516 76.5718 28.0006C76.2533 28.7497 75.8056 29.3739 75.2287 29.8732C74.6519 30.3726 73.9631 30.7428 73.1624 30.9839C72.3703 31.2336 71.5007 31.3584 70.5537 31.3584H70.1146C70.0285 31.3584 69.8993 31.3541 69.7271 31.3455C69.5549 31.3455 69.3784 31.3283 69.1976 31.2938C69.0254 31.268 68.8705 31.2207 68.7327 31.1518C68.6036 31.0829 68.539 30.9882 68.539 30.8677C68.539 30.7299 68.5691 30.5921 68.6294 30.4544C68.6983 30.3252 68.7844 30.209 68.8877 30.1057C68.991 29.9938 69.1072 29.9034 69.2364 29.8345C69.3655 29.757 69.4947 29.7053 69.6238 29.6795C69.5549 29.5934 69.5033 29.4772 69.4688 29.3308C69.4344 29.1845 69.4043 29.0295 69.3784 28.8659C69.3526 28.7023 69.3311 28.543 69.3139 28.3881C69.3053 28.2245 69.2966 28.0867 69.288 27.9748C69.1331 26.6403 68.9996 25.3101 68.8877 23.9842C68.7758 22.6583 68.7198 21.3195 68.7198 19.9678C68.7198 19.1068 68.7327 18.2544 68.7585 17.4107C68.7844 16.5669 68.8059 15.7146 68.8231 14.8536C68.8403 14.5006 68.8446 14.1519 68.836 13.8075C68.836 13.4632 68.8489 13.1145 68.8748 12.7615C68.8231 12.7787 68.7671 12.7873 68.7069 12.7873C68.6466 12.7873 68.582 12.7873 68.5132 12.7873C68.384 12.7873 68.2549 12.7658 68.1257 12.7227C68.0052 12.6711 67.9449 12.5548 67.9449 12.374C67.9449 12.1502 67.9923 11.9694 68.087 11.8316C68.1817 11.6939 68.3022 11.5905 68.4486 11.5217C68.595 11.4442 68.7585 11.3968 68.9393 11.3796C69.1288 11.3538 69.3139 11.3409 69.4947 11.3409C70.3212 11.3409 71.1219 11.4442 71.8968 11.6508C72.6716 11.8574 73.3561 12.176 73.9502 12.6065C74.5443 13.037 75.0221 13.588 75.3837 14.2596C75.7453 14.9225 75.9261 15.7146 75.9261 16.6358C75.9261 17.3935 75.7884 18.1167 75.5128 18.8055C75.2373 19.4942 74.8327 20.1055 74.2989 20.6393C74.781 20.846 75.1943 21.1172 75.5387 21.453C75.8917 21.7801 76.1801 22.1503 76.4039 22.5636C76.6278 22.9769 76.7914 23.4246 76.8947 23.9067C77.0066 24.3802 77.0626 24.8667 77.0626 25.3661ZM73.9631 16.455C73.9631 15.9384 73.8813 15.4821 73.7177 15.0861C73.5541 14.6814 73.326 14.3327 73.0333 14.04C72.7405 13.7387 72.3918 13.4976 71.9872 13.3168C71.5825 13.1274 71.1391 12.9853 70.657 12.8906C70.6742 12.9337 70.6828 12.9724 70.6828 13.0068C70.6828 13.0413 70.6828 13.0714 70.6828 13.0972C70.6828 13.9152 70.6742 14.7245 70.657 15.5252C70.6398 16.3173 70.6311 17.118 70.6311 17.9273V19.2704C70.6311 19.4426 70.6355 19.6191 70.6441 19.7999C70.6527 19.9721 70.657 20.1486 70.657 20.3294C70.8808 20.2347 71.1047 20.1873 71.3285 20.1873C71.561 20.1787 71.7935 20.1744 72.0259 20.1744C72.6716 19.7698 73.1538 19.2403 73.4723 18.5859C73.7995 17.923 73.9631 17.2127 73.9631 16.455ZM75.1254 25.3402C75.1254 24.927 75.0867 24.5266 75.0092 24.1392C74.9403 23.7517 74.8155 23.3987 74.6347 23.0802C74.4539 22.753 74.2171 22.4732 73.9244 22.2407C73.6316 22.0083 73.2657 21.8361 72.8266 21.7242C72.1723 22.0944 71.4749 22.3441 70.7345 22.4732C70.8033 23.4461 70.8851 24.419 70.9798 25.3919C71.0832 26.3562 71.2252 27.3205 71.406 28.2847C71.4491 28.5086 71.4964 28.7324 71.5481 28.9563C71.6083 29.1715 71.6471 29.3954 71.6643 29.6279C72.2412 29.5504 72.7448 29.3911 73.1753 29.15C73.6144 28.9003 73.976 28.5904 74.2601 28.2202C74.5529 27.8413 74.7681 27.4066 74.9059 26.9158C75.0522 26.4251 75.1254 25.8999 75.1254 25.3402ZM88.8406 30.4544C88.8406 30.6266 88.7976 30.7643 88.7115 30.8677C88.634 30.971 88.4963 31.0226 88.2982 31.0226C88.1949 31.0226 88.0873 31.0097 87.9754 30.9839C87.8634 30.9667 87.7558 30.9365 87.6525 30.8935C87.4373 30.8332 87.2651 30.7773 87.1359 30.7256C87.0154 30.6739 86.9207 30.6051 86.8518 30.519C86.7915 30.4415 86.7528 30.3382 86.7356 30.209C86.7184 30.0799 86.7054 29.9034 86.6968 29.6795C86.628 27.9145 86.5505 26.1668 86.4644 24.4362C86.3869 22.6971 86.2577 20.9493 86.0769 19.1929C85.9564 19.787 85.8402 20.381 85.7282 20.9751C85.6163 21.5692 85.5001 22.1719 85.3796 22.7831C85.259 23.4203 85.1428 24.0703 85.0309 24.7332C84.9275 25.3962 84.7597 26.0376 84.5272 26.6575C84.4325 26.9072 84.3163 27.1052 84.1785 27.2516C84.0407 27.3893 83.8298 27.4582 83.5457 27.4582C83.3391 27.4582 83.1712 27.4238 83.042 27.3549C82.9129 27.2774 82.788 27.1655 82.6675 27.0191C82.5556 26.8986 82.435 26.6661 82.3059 26.3217C82.1767 25.9773 82.039 25.577 81.8926 25.1207C81.7549 24.6558 81.6171 24.1607 81.4794 23.6355C81.3416 23.1103 81.2125 22.6067 81.0919 22.1245C80.9714 21.6338 80.8638 21.1861 80.7691 20.7814C80.6744 20.3767 80.6012 20.0711 80.5495 19.8645V21.6208C80.5495 22.7659 80.571 23.9067 80.6141 25.0432C80.6571 26.1797 80.7303 27.3118 80.8336 28.4397C80.8595 28.6894 80.8939 28.9391 80.9369 29.1888C80.9886 29.4384 81.0144 29.6881 81.0144 29.9378C81.0144 30.1617 80.9369 30.308 80.782 30.3769C80.6356 30.4458 80.472 30.4802 80.2912 30.4802C79.8005 30.4802 79.4216 30.3769 79.1547 30.1703C78.8965 29.955 78.7673 29.5934 78.7673 29.0854C78.7673 28.0437 78.7415 27.0105 78.6898 25.986C78.6382 24.9614 78.6123 23.9282 78.6123 22.8865C78.6123 22.7401 78.6123 22.4861 78.6123 22.1245C78.6209 21.7629 78.6296 21.3367 78.6382 20.846C78.6468 20.3466 78.6554 19.8085 78.664 19.2316C78.6812 18.6462 78.6984 18.0564 78.7156 17.4624C78.7329 16.8683 78.7501 16.2914 78.7673 15.7318C78.7845 15.1636 78.8017 14.6556 78.819 14.2079C78.8362 13.7602 78.8534 13.39 78.8706 13.0972C78.8965 12.7959 78.9223 12.6151 78.9481 12.5548C78.9912 12.4343 79.0385 12.3568 79.0902 12.3224C79.1504 12.2879 79.2408 12.2707 79.3614 12.2707C79.6885 12.2707 79.9597 12.3439 80.175 12.4903C80.3988 12.628 80.5495 12.8648 80.627 13.2006C80.7475 13.3814 80.8853 13.7128 81.0403 14.195C81.1952 14.6685 81.3588 15.2238 81.531 15.861C81.7032 16.4981 81.8754 17.1868 82.0476 17.9273C82.2284 18.6591 82.3963 19.3651 82.5513 20.0453C82.7149 20.7254 82.8612 21.3496 82.9904 21.9179C83.1281 22.4861 83.2357 22.9209 83.3132 23.2222C83.5629 21.7414 83.8169 20.2691 84.0752 18.8055C84.3335 17.3418 84.5789 15.8696 84.8113 14.3887C84.8544 14.139 84.8974 13.8936 84.9405 13.6526C84.9921 13.4115 85.0179 13.1661 85.0179 12.9164C85.0179 12.7615 84.9964 12.6194 84.9534 12.4903C84.9103 12.3525 84.8888 12.2104 84.8888 12.0641C84.8888 11.8833 84.9448 11.7757 85.0567 11.7412C85.1772 11.6982 85.3107 11.6766 85.457 11.6766C85.5948 11.6766 85.7584 11.6982 85.9478 11.7412C86.1372 11.7843 86.318 11.8488 86.4902 11.9349C86.671 12.021 86.8217 12.1287 86.9422 12.2578C87.0714 12.3869 87.1359 12.5376 87.1359 12.7098C87.1359 13.0111 87.1101 13.3297 87.0584 13.6655C87.3684 15.1205 87.6267 16.5799 87.8333 18.0435C88.0399 19.4986 88.1949 20.9665 88.2982 22.4474C88.4016 23.7216 88.4833 24.9872 88.5436 26.2442C88.6125 27.5013 88.6943 28.7583 88.789 30.0153C88.8062 30.0928 88.8191 30.166 88.8277 30.2348C88.8363 30.3037 88.8406 30.3769 88.8406 30.4544ZM98.2037 28.5689C98.2037 28.8185 98.1391 29.0553 98.01 29.2792C97.8808 29.4944 97.7043 29.6537 97.4805 29.757C97.4116 29.7914 97.2437 29.8259 96.9768 29.8603C96.7099 29.8861 96.4215 29.912 96.1115 29.9378C95.8016 29.9636 95.5046 29.9895 95.2204 30.0153C94.9449 30.0411 94.7512 30.0583 94.6393 30.067C94.6135 30.2133 94.5446 30.3166 94.4326 30.3769C94.3207 30.4286 94.2002 30.4544 94.071 30.4544C93.9247 30.4544 93.7568 30.4329 93.5674 30.3898C93.378 30.3468 93.2101 30.2994 93.0637 30.2478C92.6763 30.2994 92.2845 30.3554 91.8885 30.4156C91.4924 30.4759 91.0921 30.506 90.6874 30.506C90.3775 30.506 90.2225 30.3597 90.2225 30.067C90.2225 29.7742 90.3043 29.5504 90.4679 29.3954C90.6315 29.2404 90.8295 29.1242 91.062 29.0467C91.2944 28.9692 91.5441 28.9176 91.811 28.8917C92.0779 28.8659 92.3147 28.8358 92.5213 28.8013C92.4782 26.3562 92.4309 23.9282 92.3792 21.5175C92.3362 19.1068 92.3147 16.6789 92.3147 14.2337C91.9617 14.2596 91.6173 14.2854 91.2815 14.3112C90.9457 14.3284 90.6099 14.337 90.2742 14.337C90.2053 14.337 90.1321 14.337 90.0546 14.337C89.9771 14.3284 89.9039 14.3155 89.8351 14.2983C89.7748 14.2725 89.7231 14.238 89.6801 14.195C89.6284 14.1433 89.6026 14.0701 89.6026 13.9754C89.6026 13.8118 89.637 13.6698 89.7059 13.5493C89.7748 13.4201 89.8652 13.3168 89.9771 13.2393C90.0977 13.1532 90.2268 13.0843 90.3646 13.0327C90.5023 12.981 90.6444 12.9423 90.7907 12.9164C91.161 12.8476 91.5355 12.7916 91.9143 12.7485C92.3017 12.6969 92.6849 12.6495 93.0637 12.6065C93.4511 12.5548 93.8343 12.5032 94.2131 12.4515C94.6005 12.3999 94.9837 12.331 95.3625 12.2449C95.7241 12.1674 96.0857 12.0684 96.4473 11.9478C96.8089 11.8187 97.1791 11.7541 97.558 11.7541C97.7646 11.7541 97.9024 11.8316 97.9712 11.9866C98.0401 12.133 98.0746 12.2965 98.0746 12.4773C98.0746 12.6237 98.0573 12.7658 98.0229 12.9035C97.9971 13.0327 97.9368 13.1575 97.8421 13.278C97.7904 13.3469 97.6742 13.4158 97.4934 13.4847C97.3212 13.5449 97.1103 13.6009 96.8606 13.6526C96.6195 13.7042 96.3569 13.7559 96.0728 13.8075C95.7973 13.8506 95.5261 13.8936 95.2592 13.9367C95.0009 13.9711 94.7641 14.0013 94.5489 14.0271C94.3336 14.0529 94.1744 14.0701 94.071 14.0787C94.1657 15.2755 94.2303 16.4722 94.2648 17.669C94.3078 18.8657 94.3422 20.0625 94.3681 21.2592C94.3939 22.456 94.4197 23.6527 94.4456 24.8495C94.4714 26.0462 94.5187 27.243 94.5876 28.4397C95.0784 28.3622 95.5734 28.289 96.0728 28.2202C96.5722 28.1427 97.0758 28.1039 97.5838 28.1039C97.7302 28.1039 97.8679 28.1384 97.9971 28.2073C98.1348 28.2675 98.2037 28.3881 98.2037 28.5689ZM107.373 12.6581C107.373 12.9681 107.283 13.2221 107.102 13.4201C106.93 13.6181 106.693 13.7516 106.392 13.8205C105.909 13.9238 105.414 13.9797 104.906 13.9883C104.407 13.9883 103.912 14.0013 103.421 14.0271V16.5842C103.421 18.7538 103.486 20.9191 103.615 23.0802C103.753 25.2326 103.972 27.3893 104.274 29.5504C104.299 29.6795 104.325 29.8087 104.351 29.9378C104.385 30.067 104.403 30.1961 104.403 30.3252C104.403 30.5319 104.347 30.6825 104.235 30.7773C104.131 30.872 103.981 30.9193 103.783 30.9193C103.628 30.9193 103.434 30.8978 103.202 30.8547C102.978 30.8203 102.801 30.7643 102.672 30.6868C102.5 30.5835 102.388 30.4802 102.336 30.3769C102.293 30.265 102.259 30.1186 102.233 29.9378C102.138 29.3265 102.074 28.7152 102.039 28.1039C102.005 27.4927 101.966 26.8814 101.923 26.2701C101.82 24.9614 101.734 23.657 101.665 22.357C101.596 21.0569 101.561 19.7525 101.561 18.4439C101.561 17.7293 101.566 17.019 101.574 16.313C101.583 15.607 101.587 14.8881 101.587 14.1562C101.054 14.2079 100.515 14.2596 99.973 14.3112C99.4392 14.3629 98.9011 14.3887 98.3587 14.3887C98.2295 14.3887 98.1262 14.3586 98.0487 14.2983C97.9626 14.2294 97.9196 14.1304 97.9196 14.0013C97.9196 13.6999 98.0186 13.4675 98.2166 13.3039C98.4146 13.1317 98.6514 13.0111 98.9269 12.9423C99.366 12.8476 99.8137 12.7873 100.27 12.7615C100.726 12.727 101.183 12.684 101.639 12.6323C101.639 12.5462 101.643 12.4644 101.652 12.3869C101.66 12.3008 101.678 12.2277 101.704 12.1674C101.738 12.0985 101.785 12.0426 101.846 11.9995C101.906 11.9565 101.992 11.9349 102.104 11.9349C102.311 11.9349 102.521 11.9823 102.737 12.077C102.952 12.1717 103.12 12.3051 103.24 12.4773L105.384 12.2449C105.591 12.2191 105.797 12.1932 106.004 12.1674C106.211 12.133 106.417 12.1157 106.624 12.1157C106.719 12.1157 106.809 12.12 106.895 12.1287C106.99 12.1373 107.072 12.1631 107.141 12.2061C107.209 12.2406 107.265 12.2965 107.308 12.374C107.351 12.4429 107.373 12.5376 107.373 12.6581Z" fill="#FFD464"/>
</svg>
