<svg width="111" height="39" viewBox="0 0 111 39" fill="none" xmlns="http://www.w3.org/2000/svg">
<path d="M9.61813 12.3791C9.12793 11.2565 8.53444 8.76794 8.27735 6.76169M9.50001 13.4451C9.04474 11.2144 8.66013 8.78041 8.31832 7.26479M9.44027 25.5775C9.24557 21.8512 8.88261 20.7538 8.34247 17.1836M9.62817 25.0648C9.39308 23.5628 9.15191 22.3341 8.25327 17.7861M9.48891 2.06859V2.06859Z" stroke="#D9D9D9" stroke-width="1.06859"/>
<path d="M8.31798 31.6232C10.8004 31.3124 12.0649 31.2037 14.7538 30.7329M8.49601 31.56C9.565 31.3764 12.3014 31.0544 15.3484 30.6927M22.5484 31.7784C27.3836 31.4319 29.2881 31.0383 30.8593 30.7637M24.1712 31.6332C26.2262 31.4962 28.3883 31.2395 31.6507 30.8889M40.155 31.7287C41.4396 31.4406 43.5293 31.2543 46.5155 30.9533M39.4092 31.8153C41.4535 31.5582 43.8577 31.3867 47.259 30.921M55.6025 31.8099C56.0028 31.7502 58.4771 31.3888 61.9077 31.2215M55.2446 31.8611C57.2613 31.6457 59.415 31.3842 62.469 31.1103M71.0949 31.8906C72.5888 31.7475 74.0883 31.6229 78.0895 31.2714M70.4511 31.9589C72.8678 31.7375 75.2526 31.5504 77.2653 31.2214M86.4813 32.0899C89.4502 31.9338 89.8373 31.5623 94.1408 31.2663M86.2484 32.0601C88.7508 31.8992 89.7289 31.6727 93.2419 31.3568M101.995 32.1737C105.049 32.016 107.096 31.6392 109.998 31.4704M102.729 32.1318C103.459 31.9616 105.155 31.7962 109.243 31.4006M0.0106465 30.6406V30.6406Z" stroke="#D9D9D9" stroke-width="1.06859"/>
<path d="M108.622 13.6685C109.135 12.5569 109.453 10.0118 109.718 7.95462M108.729 14.133C109.014 11.9918 109.299 10.1109 109.817 7.28869M108.839 25.5321C108.985 22.9122 109.274 22.5815 109.996 18.9135M108.776 25.5775C109.119 23.8479 109.225 22.3371 109.881 18.1019M108.853 2.06859V2.06859Z" stroke="#D9D9D9" stroke-width="1.06859"/>
<path d="M8.10434 1.98314C8.7815 1.67057 11.4812 1.56855 16.5318 1.15128M8.37772 1.98121C9.69814 1.70323 11.7648 1.57312 15.9588 1M23.1363 1.99887C25.4516 1.64186 27.6577 1.36915 31.1054 1.13408M23.5469 1.97933C26.2945 1.67352 29.2279 1.4136 30.3238 1.14284M38.9854 2.06859C41.9202 1.72094 43.2891 1.48332 46.4786 1.23964M39.3553 2.03132C42.0727 1.64453 44.9016 1.33003 46.2765 1.18784M55.4741 1.89883C56.7214 1.82022 58.0339 1.47955 62.0806 1.10307M55.2733 1.98711C58.2943 1.68014 59.8957 1.42055 62.2164 1.17813M72.6036 1.89156C74.3645 1.71801 76.2558 1.31955 78.2632 1.19813M71.1445 1.93324C74.6015 1.65929 77.3912 1.34365 78.5856 1.1473M88.2764 1.93455C89.4663 1.75965 91.2394 1.3978 94.6987 1.05368M87.623 1.93279C90.0273 1.7637 92.0289 1.43475 93.8886 1.11398M103.464 1.91639C105.411 1.7896 107.633 1.44009 109.277 1.20569M103.856 1.936C106.464 1.69585 108.393 1.31141 109.996 1.14067M0.00390625 1.04319V1.04319Z" stroke="#D9D9D9" stroke-width="1.06859"/>
<path d="M42.023 20.496C42.023 20.9726 41.9458 21.4234 41.7912 21.8485C41.6366 22.2735 41.4144 22.6471 41.1246 22.9691C40.8413 23.2846 40.4967 23.5358 40.091 23.7226C39.6853 23.9158 39.2345 24.0124 38.7386 24.0124C38.3006 24.0124 37.8949 23.9415 37.5214 23.7998C37.1543 23.6646 36.8355 23.4714 36.565 23.2202C36.2945 22.9691 36.082 22.6632 35.9274 22.3025C35.7793 21.9419 35.7053 21.5394 35.7053 21.095C35.7053 21.0048 35.7085 20.8921 35.7149 20.7569C35.7214 20.6216 35.7407 20.4928 35.7729 20.3705C35.8115 20.2417 35.863 20.1354 35.9274 20.0517C35.9983 19.9615 36.0981 19.9164 36.2269 19.9164C36.33 19.9164 36.4427 19.939 36.565 19.9841C36.6938 20.0227 36.813 20.0774 36.9224 20.1483C37.0319 20.2191 37.1221 20.3061 37.1929 20.4091C37.2702 20.5057 37.3089 20.612 37.3089 20.7279V21.2882C37.3089 21.7326 37.428 22.0964 37.6663 22.3798C37.911 22.6567 38.262 22.7952 38.7192 22.7952C39.0413 22.7952 39.3182 22.7211 39.55 22.573C39.7819 22.4249 39.9686 22.2349 40.1103 22.003C40.2584 21.7712 40.3647 21.5136 40.4291 21.2302C40.4999 20.9404 40.5354 20.6571 40.5354 20.3801C40.5354 19.8392 40.4227 19.3143 40.1973 18.8055C39.9783 18.2967 39.7014 17.8009 39.3665 17.3178C39.0316 16.8284 38.6677 16.3486 38.2749 15.8785C37.882 15.4083 37.5182 14.9414 37.1833 14.4777C36.8484 14.014 36.5682 13.5504 36.3428 13.0867C36.1239 12.623 36.0144 12.1496 36.0144 11.6666C36.0144 11.2738 36.0917 10.9357 36.2462 10.6523C36.4072 10.3625 36.6165 10.1274 36.8741 9.9471C37.1382 9.76034 37.4344 9.62509 37.7629 9.54137C38.0978 9.45121 38.4423 9.40613 38.7965 9.40613C39.228 9.40613 39.6144 9.46731 39.9558 9.58967C40.2971 9.71204 40.5869 9.88914 40.8252 10.121C41.0635 10.3528 41.2438 10.6394 41.3661 10.9807C41.4949 11.3156 41.5593 11.6988 41.5593 12.1303C41.5593 12.1947 41.5561 12.2752 41.5497 12.3718C41.5432 12.4684 41.5271 12.565 41.5014 12.6616C41.4756 12.7518 41.437 12.8323 41.3855 12.9031C41.3339 12.9675 41.2631 12.9997 41.1729 12.9997C41.0441 12.9997 40.9153 12.9675 40.7865 12.9031C40.6771 12.8452 40.5869 12.7904 40.516 12.7389C40.4516 12.6809 40.4001 12.6198 40.3615 12.5554C40.3228 12.4845 40.2939 12.4072 40.2745 12.3235C40.2552 12.2398 40.2391 12.1367 40.2262 12.0144C40.194 11.7825 40.1522 11.5732 40.1007 11.3865C40.0491 11.1997 39.9719 11.0419 39.8688 10.9131C39.7658 10.7843 39.6305 10.6845 39.4631 10.6137C39.2956 10.5428 39.0799 10.5074 38.8158 10.5074C38.6291 10.5074 38.4488 10.5267 38.2749 10.5654C38.1074 10.604 37.9593 10.6684 37.8305 10.7586C37.7081 10.8487 37.6083 10.9679 37.531 11.116C37.4602 11.2577 37.4248 11.4348 37.4248 11.6473C37.4248 11.9435 37.4892 12.2462 37.618 12.5554C37.7532 12.8645 37.9271 13.1801 38.1396 13.5021C38.3586 13.8241 38.6033 14.1557 38.8738 14.4971C39.1507 14.8319 39.4341 15.1797 39.7239 15.5404C40.0137 15.901 40.2939 16.2745 40.5643 16.6609C40.8413 17.0409 41.086 17.437 41.2985 17.8492C41.5175 18.2613 41.6914 18.6896 41.8202 19.134C41.9554 19.5719 42.023 20.0259 42.023 20.496ZM49.7512 17.6173C49.7512 17.9651 49.7383 18.3547 49.7126 18.7862C49.6932 19.2177 49.6482 19.6588 49.5773 20.1096C49.5065 20.5605 49.4034 21.0016 49.2682 21.4331C49.133 21.8581 48.9494 22.2381 48.7176 22.573C48.4857 22.9079 48.1991 23.1784 47.8578 23.3845C47.5229 23.5841 47.1172 23.6839 46.6406 23.6839C46.3766 23.6839 46.119 23.6453 45.8678 23.568C45.6166 23.4907 45.3848 23.3748 45.1723 23.2202C44.8374 22.9755 44.554 22.6245 44.3222 22.1673C44.0968 21.7036 43.91 21.1851 43.7619 20.612C43.6138 20.0324 43.5011 19.4205 43.4238 18.7765C43.3465 18.1261 43.2885 17.4885 43.2499 16.8638C43.2177 16.2391 43.1984 15.6498 43.1919 15.096C43.1855 14.5421 43.1823 14.0688 43.1823 13.6759C43.1823 13.5729 43.1823 13.4248 43.1823 13.2316C43.1823 13.0384 43.1823 12.8258 43.1823 12.594C43.1887 12.3557 43.1951 12.111 43.2016 11.8598C43.208 11.6087 43.2177 11.3704 43.2306 11.145C43.2434 10.9131 43.2595 10.7103 43.2789 10.5364C43.2982 10.3625 43.3239 10.2369 43.3561 10.1596C43.3883 10.0823 43.4238 10.0276 43.4624 9.9954C43.5075 9.9632 43.5751 9.9471 43.6653 9.9471C43.9551 9.9471 44.1837 10.0373 44.3511 10.2176C44.525 10.3915 44.612 10.6233 44.612 10.9131C44.612 11.3382 44.6023 11.7632 44.583 12.1883C44.5637 12.6133 44.554 13.0384 44.554 13.4634C44.554 13.6502 44.554 13.9239 44.554 14.2845C44.5605 14.6452 44.5733 15.0574 44.5927 15.521C44.612 15.9783 44.641 16.471 44.6796 16.9991C44.7182 17.5271 44.7698 18.052 44.8342 18.5737C44.905 19.0889 44.9919 19.588 45.095 20.071C45.198 20.5476 45.3204 20.9694 45.4621 21.3365C45.6102 21.7036 45.7809 21.9966 45.9741 22.2156C46.1673 22.4345 46.3895 22.544 46.6406 22.544C46.8789 22.544 47.085 22.4506 47.2589 22.2639C47.4392 22.0771 47.5873 21.8388 47.7032 21.549C47.8256 21.2528 47.9222 20.9243 47.993 20.5637C48.0703 20.203 48.1283 19.8488 48.1669 19.501C48.2056 19.1468 48.2313 18.8216 48.2442 18.5254C48.2571 18.2227 48.2635 17.9844 48.2635 17.8105C48.2635 17.4563 48.2539 17.0635 48.2346 16.632C48.2217 16.194 48.1991 15.74 48.1669 15.2699C48.1412 14.7997 48.1025 14.32 48.051 13.8305C47.9995 13.3411 47.9383 12.8677 47.8675 12.4105C47.7966 11.9468 47.7129 11.5056 47.6163 11.087C47.5261 10.6684 47.4199 10.2949 47.2975 9.96642C47.2782 9.90846 47.246 9.8344 47.2009 9.74424C47.1623 9.65408 47.143 9.58001 47.143 9.52205C47.143 9.41901 47.1655 9.34173 47.2106 9.29021C47.2621 9.23869 47.3233 9.20327 47.3941 9.18395C47.465 9.15818 47.5422 9.1453 47.626 9.1453C47.7097 9.13886 47.787 9.13564 47.8578 9.13564C48.0124 9.13564 48.138 9.14208 48.2346 9.15496C48.3376 9.16785 48.4567 9.21293 48.592 9.29021C48.6821 9.34173 48.7659 9.48341 48.8431 9.71526C48.9269 9.9471 49.0042 10.2401 49.075 10.5943C49.1458 10.9485 49.2102 11.3511 49.2682 11.8019C49.3326 12.2462 49.3906 12.7067 49.4421 13.1833C49.4936 13.6534 49.5387 14.1235 49.5773 14.5937C49.616 15.0638 49.6482 15.4985 49.6739 15.8978C49.6997 16.2971 49.719 16.6481 49.7319 16.9508C49.7448 17.2534 49.7512 17.4756 49.7512 17.6173ZM57.6436 19.7619C57.6436 20.5154 57.5212 21.1723 57.2765 21.7326C57.0382 22.2928 56.7033 22.7598 56.2718 23.1333C55.8404 23.5068 55.3251 23.7837 54.7262 23.9641C54.1337 24.1508 53.4833 24.2442 52.7749 24.2442H52.4464C52.382 24.2442 52.2854 24.241 52.1566 24.2346C52.0278 24.2346 51.8958 24.2217 51.7605 24.1959C51.6317 24.1766 51.5158 24.1412 51.4128 24.0896C51.3162 24.0381 51.2679 23.9673 51.2679 23.8771C51.2679 23.7741 51.2904 23.671 51.3355 23.568C51.387 23.4714 51.4514 23.3845 51.5287 23.3072C51.606 23.2234 51.6929 23.1558 51.7895 23.1043C51.8861 23.0463 51.9827 23.0077 52.0793 22.9884C52.0278 22.924 51.9892 22.837 51.9634 22.7276C51.9376 22.6181 51.9151 22.5022 51.8958 22.3798C51.8765 22.2574 51.8604 22.1383 51.8475 22.0224C51.841 21.9 51.8346 21.797 51.8282 21.7132C51.7122 20.715 51.6124 19.72 51.5287 18.7282C51.445 17.7365 51.4031 16.735 51.4031 15.7239C51.4031 15.0799 51.4128 14.4423 51.4321 13.8112C51.4514 13.1801 51.4675 12.5425 51.4804 11.8985C51.4933 11.6344 51.4965 11.3736 51.49 11.116C51.49 10.8584 51.4997 10.5976 51.519 10.3335C51.4804 10.3464 51.4385 10.3528 51.3934 10.3528C51.3484 10.3528 51.3001 10.3528 51.2485 10.3528C51.1519 10.3528 51.0553 10.3367 50.9587 10.3045C50.8686 10.2659 50.8235 10.1789 50.8235 10.0437C50.8235 9.87626 50.8589 9.74102 50.9298 9.63798C51.0006 9.53493 51.0908 9.45765 51.2002 9.40613C51.3097 9.34817 51.4321 9.31275 51.5673 9.29987C51.709 9.28055 51.8475 9.27089 51.9827 9.27089C52.601 9.27089 53.1999 9.34817 53.7795 9.50273C54.3591 9.6573 54.8711 9.89558 55.3155 10.2176C55.7599 10.5396 56.1173 10.9518 56.3878 11.4541C56.6583 11.95 56.7935 12.5425 56.7935 13.2316C56.7935 13.7983 56.6905 14.3393 56.4844 14.8545C56.2783 15.3697 55.9756 15.8269 55.5763 16.2262C55.937 16.3808 56.2461 16.5837 56.5037 16.8348C56.7677 17.0796 56.9835 17.3565 57.1509 17.6656C57.3184 17.9747 57.4407 18.3096 57.518 18.6703C57.6017 19.0245 57.6436 19.3883 57.6436 19.7619ZM55.3251 13.0963C55.3251 12.7099 55.264 12.3686 55.1416 12.0723C55.0192 11.7697 54.8486 11.5088 54.6296 11.2899C54.4106 11.0645 54.1498 10.8841 53.8471 10.7489C53.5444 10.6072 53.2128 10.501 52.8521 10.4301C52.865 10.4623 52.8715 10.4913 52.8715 10.5171C52.8715 10.5428 52.8715 10.5654 52.8715 10.5847C52.8715 11.1965 52.865 11.8019 52.8521 12.4008C52.8393 12.9933 52.8328 13.5922 52.8328 14.1976V15.2023C52.8328 15.3311 52.836 15.4631 52.8425 15.5983C52.8489 15.7271 52.8521 15.8591 52.8521 15.9944C53.0196 15.9236 53.187 15.8881 53.3545 15.8881C53.5283 15.8817 53.7022 15.8785 53.8761 15.8785C54.3591 15.5758 54.7198 15.1797 54.9581 14.6903C55.2028 14.1944 55.3251 13.6631 55.3251 13.0963ZM56.1946 19.7426C56.1946 19.4334 56.1656 19.134 56.1076 18.8442C56.0561 18.5543 55.9627 18.2903 55.8275 18.052C55.6922 17.8073 55.5151 17.598 55.2962 17.4241C55.0772 17.2502 54.8035 17.1214 54.475 17.0377C53.9856 17.3146 53.4639 17.5014 52.9101 17.598C52.9616 18.3257 53.0228 19.0535 53.0936 19.7812C53.1709 20.5025 53.2772 21.2238 53.4124 21.9451C53.4446 22.1125 53.48 22.28 53.5187 22.4474C53.5638 22.6084 53.5927 22.7759 53.6056 22.9497C54.0371 22.8918 54.4139 22.7726 54.7359 22.5923C55.0643 22.4056 55.3348 22.1737 55.5473 21.8968C55.7663 21.6134 55.9273 21.2882 56.0303 20.9211C56.1398 20.554 56.1946 20.1612 56.1946 19.7426ZM66.4537 23.568C66.4537 23.6968 66.4215 23.7998 66.3571 23.8771C66.2991 23.9544 66.1961 23.993 66.048 23.993C65.9707 23.993 65.8902 23.9834 65.8065 23.9641C65.7228 23.9512 65.6422 23.9286 65.565 23.8964C65.404 23.8514 65.2752 23.8095 65.1786 23.7709C65.0884 23.7322 65.0176 23.6807 64.966 23.6163C64.921 23.5583 64.892 23.4811 64.8791 23.3845C64.8662 23.2878 64.8566 23.1558 64.8501 22.9884C64.7986 21.6682 64.7406 20.3608 64.6762 19.0663C64.6183 17.7654 64.5217 16.4581 64.3864 15.1443C64.2963 15.5887 64.2093 16.033 64.1256 16.4774C64.0419 16.9218 63.9549 17.3726 63.8648 17.8298C63.7746 18.3064 63.6877 18.7926 63.6039 19.2885C63.5267 19.7844 63.4011 20.2642 63.2272 20.7279C63.1564 20.9147 63.0694 21.0628 62.9664 21.1723C62.8633 21.2753 62.7055 21.3268 62.493 21.3268C62.3385 21.3268 62.2129 21.3011 62.1163 21.2495C62.0197 21.1916 61.9263 21.1079 61.8361 20.9984C61.7524 20.9082 61.6622 20.7343 61.5656 20.4767C61.469 20.2191 61.366 19.9197 61.2565 19.5783C61.1535 19.2306 61.0504 18.8603 60.9474 18.4674C60.8443 18.0746 60.7477 17.6978 60.6576 17.3372C60.5674 16.9701 60.4869 16.6352 60.4161 16.3325C60.3452 16.0298 60.2905 15.8012 60.2519 15.6466V16.9604C60.2519 17.817 60.268 18.6703 60.3002 19.5204C60.3324 20.3705 60.3871 21.2173 60.4644 22.061C60.4837 22.2478 60.5095 22.4345 60.5417 22.6213C60.5803 22.8081 60.5996 22.9948 60.5996 23.1816C60.5996 23.349 60.5417 23.4585 60.4257 23.51C60.3163 23.5616 60.1939 23.5873 60.0586 23.5873C59.6916 23.5873 59.4082 23.51 59.2086 23.3555C59.0153 23.1945 58.9187 22.924 58.9187 22.544C58.9187 21.7648 58.8994 20.9919 58.8608 20.2256C58.8221 19.4592 58.8028 18.6864 58.8028 17.9071C58.8028 17.7976 58.8028 17.6076 58.8028 17.3372C58.8093 17.0667 58.8157 16.7479 58.8221 16.3808C58.8286 16.0073 58.835 15.6048 58.8415 15.1733C58.8543 14.7353 58.8672 14.2942 58.8801 13.8498C58.893 13.4055 58.9059 12.974 58.9187 12.5554C58.9316 12.1303 58.9445 11.7503 58.9574 11.4155C58.9703 11.0806 58.9831 10.8036 58.996 10.5847C59.0153 10.3593 59.0347 10.224 59.054 10.1789C59.0862 10.0888 59.1216 10.0308 59.1602 10.0051C59.2053 9.9793 59.273 9.96642 59.3631 9.96642C59.6078 9.96642 59.8107 10.0212 59.9717 10.1306C60.1392 10.2337 60.2519 10.4108 60.3098 10.662C60.4 10.7972 60.503 11.0451 60.6189 11.4058C60.7349 11.76 60.8572 12.1754 60.986 12.652C61.1148 13.1285 61.2436 13.6437 61.3724 14.1976C61.5077 14.745 61.6333 15.2731 61.7492 15.7819C61.8715 16.2906 61.981 16.7575 62.0776 17.1826C62.1807 17.6076 62.2612 17.9329 62.3191 18.1583C62.5059 17.0506 62.6959 15.9493 62.8891 14.8545C63.0823 13.7597 63.2658 12.6584 63.4397 11.5507C63.4719 11.3639 63.5041 11.1804 63.5363 11.0001C63.575 10.8197 63.5943 10.6362 63.5943 10.4494C63.5943 10.3335 63.5782 10.2272 63.546 10.1306C63.5138 10.0276 63.4977 9.92134 63.4977 9.81186C63.4977 9.67662 63.5395 9.59611 63.6233 9.57035C63.7134 9.53815 63.8132 9.52205 63.9227 9.52205C64.0258 9.52205 64.1481 9.53815 64.2898 9.57035C64.4315 9.60255 64.5667 9.65086 64.6955 9.71526C64.8308 9.77966 64.9435 9.86016 65.0337 9.95676C65.1303 10.0534 65.1786 10.1661 65.1786 10.2949C65.1786 10.5203 65.1592 10.7586 65.1206 11.0097C65.3524 12.0981 65.5456 13.1897 65.7002 14.2845C65.8548 15.3729 65.9707 16.471 66.048 17.5787C66.1253 18.5318 66.1864 19.4785 66.2315 20.4188C66.283 21.359 66.3442 22.2993 66.4151 23.2395C66.4279 23.2975 66.4376 23.3523 66.444 23.4038C66.4505 23.4553 66.4537 23.51 66.4537 23.568ZM73.4574 22.1576C73.4574 22.3444 73.4091 22.5215 73.3125 22.6889C73.2159 22.8499 73.0838 22.9691 72.9164 23.0463C72.8649 23.0721 72.7393 23.0979 72.5396 23.1236C72.34 23.1429 72.1242 23.1623 71.8924 23.1816C71.6606 23.2009 71.4384 23.2202 71.2258 23.2395C71.0198 23.2589 70.8749 23.2717 70.7911 23.2782C70.7718 23.3877 70.7203 23.465 70.6366 23.51C70.5529 23.5487 70.4627 23.568 70.3661 23.568C70.2566 23.568 70.131 23.5519 69.9893 23.5197C69.8477 23.4875 69.7221 23.4521 69.6126 23.4134C69.3228 23.4521 69.0298 23.4939 68.7335 23.539C68.4373 23.5841 68.1378 23.6066 67.8351 23.6066C67.6033 23.6066 67.4873 23.4972 67.4873 23.2782C67.4873 23.0592 67.5485 22.8918 67.6709 22.7759C67.7933 22.6599 67.9414 22.573 68.1153 22.515C68.2891 22.4571 68.4759 22.4184 68.6756 22.3991C68.8752 22.3798 69.0523 22.3572 69.2069 22.3315C69.1747 20.5025 69.1392 18.6864 69.1006 16.8831C69.0684 15.0799 69.0523 13.2638 69.0523 11.4348C68.7883 11.4541 68.5306 11.4734 68.2795 11.4927C68.0283 11.5056 67.7772 11.5121 67.526 11.5121C67.4745 11.5121 67.4197 11.5121 67.3618 11.5121C67.3038 11.5056 67.2491 11.496 67.1975 11.4831C67.1525 11.4638 67.1138 11.438 67.0816 11.4058C67.043 11.3672 67.0237 11.3124 67.0237 11.2416C67.0237 11.1192 67.0494 11.0129 67.1009 10.9228C67.1525 10.8262 67.2201 10.7489 67.3038 10.6909C67.394 10.6265 67.4906 10.575 67.5936 10.5364C67.6967 10.4977 67.8029 10.4688 67.9124 10.4494C68.1893 10.3979 68.4695 10.3561 68.7528 10.3238C69.0426 10.2852 69.3292 10.2498 69.6126 10.2176C69.9024 10.1789 70.189 10.1403 70.4724 10.1017C70.7622 10.063 71.0487 10.0115 71.3321 9.9471C71.6026 9.88914 71.8731 9.81508 72.1436 9.72492C72.4141 9.62831 72.691 9.58001 72.9743 9.58001C73.1289 9.58001 73.232 9.63798 73.2835 9.7539C73.335 9.86338 73.3608 9.98574 73.3608 10.121C73.3608 10.2305 73.3479 10.3367 73.3221 10.4398C73.3028 10.5364 73.2577 10.6298 73.1869 10.7199C73.1482 10.7714 73.0613 10.823 72.926 10.8745C72.7972 10.9196 72.6395 10.9614 72.4527 11.0001C72.2724 11.0387 72.0759 11.0773 71.8634 11.116C71.6573 11.1482 71.4545 11.1804 71.2548 11.2126C71.0616 11.2383 70.8845 11.2609 70.7235 11.2802C70.5625 11.2995 70.4434 11.3124 70.3661 11.3189C70.4369 12.214 70.4852 13.1092 70.511 14.0044C70.5432 14.8996 70.569 15.7947 70.5883 16.6899C70.6076 17.5851 70.6269 18.4803 70.6462 19.3755C70.6656 20.2706 70.701 21.1658 70.7525 22.061C71.1196 22.003 71.4899 21.9483 71.8634 21.8968C72.2369 21.8388 72.6137 21.8098 72.9937 21.8098C73.1031 21.8098 73.2062 21.8356 73.3028 21.8871C73.4058 21.9322 73.4574 22.0224 73.4574 22.1576ZM80.3161 10.2562C80.3161 10.4881 80.2485 10.6781 80.1132 10.8262C79.9844 10.9743 79.8073 11.0741 79.5819 11.1256C79.2213 11.2029 78.851 11.2448 78.471 11.2512C78.0975 11.2512 77.7272 11.2609 77.3601 11.2802V13.1929C77.3601 14.8158 77.4084 16.4355 77.505 18.052C77.608 19.6621 77.7723 21.2753 77.9977 22.8918C78.017 22.9884 78.0363 23.085 78.0556 23.1816C78.0814 23.2782 78.0943 23.3748 78.0943 23.4714C78.0943 23.626 78.0524 23.7387 77.9687 23.8095C77.8914 23.8803 77.7787 23.9158 77.6306 23.9158C77.5146 23.9158 77.3697 23.8997 77.1959 23.8675C77.0284 23.8417 76.8964 23.7998 76.7998 23.7419C76.671 23.6646 76.5873 23.5873 76.5486 23.51C76.5164 23.4263 76.4907 23.3168 76.4713 23.1816C76.4005 22.7243 76.3522 22.2671 76.3264 21.8098C76.3007 21.3526 76.2717 20.8953 76.2395 20.4381C76.1622 19.4592 76.0978 18.4835 76.0463 17.511C75.9948 16.5386 75.969 15.5629 75.969 14.584C75.969 14.0495 75.9722 13.5182 75.9787 12.9901C75.9851 12.462 75.9883 11.9242 75.9883 11.3768C75.589 11.4155 75.1865 11.4541 74.7808 11.4927C74.3815 11.5314 73.979 11.5507 73.5733 11.5507C73.4767 11.5507 73.3994 11.5282 73.3414 11.4831C73.277 11.4316 73.2448 11.3575 73.2448 11.2609C73.2448 11.0355 73.3189 10.8616 73.467 10.7392C73.6151 10.6104 73.7922 10.5203 73.9983 10.4688C74.3268 10.3979 74.6617 10.3528 75.003 10.3335C75.3443 10.3077 75.6856 10.2755 76.027 10.2369C76.027 10.1725 76.0302 10.1113 76.0366 10.0534C76.0431 9.98896 76.056 9.93422 76.0753 9.88914C76.101 9.83762 76.1365 9.79576 76.1815 9.76356C76.2266 9.73136 76.291 9.71526 76.3747 9.71526C76.5293 9.71526 76.6871 9.75068 76.8481 9.82152C77.0091 9.89236 77.1347 9.99218 77.2248 10.121L78.8284 9.9471C78.983 9.92778 79.1376 9.90846 79.2921 9.88914C79.4467 9.86338 79.6013 9.8505 79.7558 9.8505C79.8267 9.8505 79.8943 9.85372 79.9587 9.86016C80.0295 9.8666 80.0907 9.88592 80.1422 9.91812C80.1937 9.94388 80.2356 9.98574 80.2678 10.0437C80.3 10.0952 80.3161 10.1661 80.3161 10.2562Z" fill="#FFD464"/>
</svg>
