<svg width="47" height="47" viewBox="0 0 47 47" fill="none" xmlns="http://www.w3.org/2000/svg">
<g clip-path="url(#clip0_11_263)">
<path d="M5.72706 24.7229C7.83375 22.331 10.5452 20.3576 12.7781 18.0411C15.5344 15.1815 18.1061 12.1417 20.6796 9.119C21.1168 8.60527 21.8284 8.76538 22.2856 9.119C26.3827 12.2878 30.4757 15.4776 34.3082 18.9661C35.9817 20.4894 40.9635 24.2824 40.296 26.9882C40.2912 27.0076 40.2782 27.0231 40.2698 27.0407C40.8638 29.0875 39.8644 31.5511 39.4577 33.5806C39.1893 34.9206 38.9175 36.2586 38.6505 37.5974C38.9065 37.4311 39.3221 37.7103 39.1046 37.9951C38.8782 38.2913 38.6396 38.5777 38.4002 38.8632C37.9798 41.0257 37.5899 43.1941 37.2985 45.3824C37.2185 45.9846 36.8569 46.4787 36.1948 46.4861C34.6057 46.5044 32.4707 46.866 30.4604 46.9078C30.2478 47.0406 30.0326 47.0194 29.8778 46.9095C28.5396 46.8917 27.287 46.6995 26.3291 46.1261C25.9187 45.88 25.8248 45.3712 26.0074 44.9915C25.1102 40.2611 25.2486 35.4236 25.292 30.6249L20.5519 30.629C20.0114 35.0216 20.2602 39.4631 19.9356 43.8733C19.9043 44.2981 19.6804 44.5935 19.3878 44.7613C19.323 45.1172 19.1045 45.4517 18.7279 45.5815C15.774 46.6018 12.4237 45.7832 9.41115 45.3908C8.902 45.3242 8.45431 45.091 8.31153 44.5535C6.7762 38.774 5.90425 32.0202 5.71941 26.0349C5.45044 25.6706 5.40607 25.0873 5.72706 24.7229ZM35.5271 23.1716C34.1914 24.7497 32.793 26.2588 31.3367 27.7273C30.1626 28.9111 28.9144 30.3419 27.4519 31.2136C27.4443 31.8043 27.4387 32.3965 27.4303 32.987C30.5445 30.1853 34.1845 28.0419 36.9796 24.8933C36.4745 24.3143 35.9901 23.7159 35.5271 23.1716ZM35.2543 44.2703C35.3716 43.4616 35.5003 42.6546 35.6378 41.8495C35.5195 41.9698 35.4017 42.0909 35.2834 42.2113C34.6498 42.8548 34.0168 43.5357 33.3735 44.2086C34.0157 44.2336 34.6473 44.2585 35.2543 44.2703ZM31.7138 44.155C32.526 43.4136 33.375 42.7033 34.1555 41.9759C34.7566 41.4158 35.341 40.8396 35.9261 40.2639C36.1777 38.9114 36.46 37.565 36.7562 36.2214C36.075 37.0994 35.3609 37.9571 34.6151 38.8094C33.1027 40.5377 31.4853 42.5735 29.6565 44.1581C30.3334 44.1351 31.0231 44.1382 31.7138 44.155ZM27.4833 44.179C30.5695 40.9497 34.0945 38.0866 37.0884 34.7449C37.1287 34.5726 37.1637 34.3992 37.2047 34.2271C37.5117 32.936 37.736 31.3214 38.1684 29.8371C36.7402 31.5379 35.2237 33.1686 33.7358 34.813C31.9743 36.7601 30.0604 39.5967 27.7908 40.9449C27.6569 41.0244 27.518 41.0303 27.3918 40.9944C27.4086 42.0547 27.4321 43.1156 27.4833 44.179ZM32.5217 34.7258C34.7156 32.5801 36.793 30.337 38.8565 28.0705C39.0422 27.7118 39.2446 27.3691 39.4896 27.0713C38.8152 26.7498 38.1547 26.1652 37.518 25.4916C34.8502 29.099 30.7559 31.3885 27.5692 34.4941C27.5187 34.5433 27.4642 34.569 27.4101 34.5965C27.3864 36.3075 27.3681 38.0168 27.378 39.7272C28.6887 37.8612 30.931 36.2815 32.5217 34.7258ZM27.4726 29.5385C27.4723 29.5877 27.4711 29.6367 27.4708 29.6859C28.5062 28.7823 29.6769 27.983 30.6886 27.079C32.2351 25.6976 33.6593 24.1641 35.0674 22.6425C34.8777 22.4329 34.6924 22.2384 34.5126 22.0691C34.3668 21.9317 34.2141 21.8017 34.0672 21.6658C32.6222 23.3964 30.9874 24.9613 29.3282 26.4847C28.6433 27.1139 27.8583 27.9642 27.0183 28.6831C27.2865 28.8823 27.4746 29.1854 27.4726 29.5385ZM25.4916 28.4522C25.7144 28.2984 25.9416 28.15 26.1626 27.994C27.2018 27.2574 28.1472 26.3518 29.0913 25.4998C30.6233 24.1174 32.0885 22.6571 33.4913 21.1439C32.9383 20.6401 32.3741 20.1483 31.8096 19.6568C30.3984 21.5386 28.7678 23.2758 27.0978 24.9213C26.0726 25.9317 24.7265 27.4729 23.2982 28.4504C24.0294 28.4511 24.7607 28.4516 25.4916 28.4522ZM21.1097 28.4483C21.1158 28.4414 21.1181 28.433 21.1248 28.4259C22.5798 26.836 24.7849 25.692 26.4303 24.2531C28.1995 22.7057 29.8472 21.0521 31.419 19.3108C31.0223 18.9684 30.6129 18.6408 30.2116 18.3029C27.4907 21.9598 24.1934 25.2991 20.6972 28.4478L21.1097 28.4483ZM10.2976 43.1248C10.418 43.6724 12.0815 43.8455 13.8922 43.8608C13.9725 43.8088 14.0534 43.7563 14.1303 43.6999C14.626 43.3376 15.0755 42.9004 15.5153 42.4736C15.723 42.2719 17.2398 40.7675 17.149 40.5859C17.0468 40.3804 17.3178 40.1344 17.4835 40.3277C18.0039 40.9347 16.9639 42.057 16.6284 42.4792C16.2421 42.9659 15.8133 43.4157 15.362 43.8419C16.2847 43.8142 17.1482 43.7606 17.7563 43.7096C17.8963 41.1996 17.9167 38.6847 18.0016 36.1745C17.1916 37.0954 16.2916 37.9415 15.3783 38.7589C14.5416 39.508 13.7053 40.254 12.9017 41.0392C12.1799 41.7442 11.6338 42.5967 10.7481 43.0929C10.5901 43.1816 10.408 43.1441 10.2823 43.0414C10.2882 43.0694 10.2918 43.0972 10.2976 43.1248ZM9.53072 38.609C9.64698 38.5351 9.76349 38.4632 9.87185 38.3898C10.8759 37.7085 11.8824 37.0303 12.8806 36.3402C13.9695 35.5865 15.0576 34.8235 16.0991 34.0045C16.4752 33.7093 17.2688 33.229 17.4896 32.8052C17.6225 32.5516 18.0615 32.7298 17.957 33.0021C17.3695 34.53 15.6341 35.5646 14.3748 36.5342C13.3517 37.3225 12.3087 38.0846 11.2667 38.8469C10.8363 39.1615 10.2969 39.703 9.7329 39.9886C9.86803 40.8432 10.0156 41.6957 10.1888 42.544C10.7848 40.7998 12.8543 39.5126 14.2318 38.3987C15.5866 37.3031 16.8714 36.1989 18.05 34.9494C18.1163 33.4564 18.2145 31.9647 18.3894 30.478C15.4204 33.0385 12.3758 35.4896 9.47565 37.9023C9.46137 37.9143 9.44557 37.9171 9.43103 37.9275C9.46112 38.1549 9.4986 38.3811 9.53072 38.609ZM9.11387 35.494C9.15237 35.793 9.19087 36.0921 9.22911 36.3912C15.7177 29.8373 23.4081 24.6977 29.6894 17.8677C29.179 17.4425 28.6548 17.0366 28.1408 16.6159C22.9474 23.3087 15.0566 27.6972 8.89232 33.4485C8.96473 34.1583 9.03127 34.8512 9.11387 35.494ZM8.72966 31.993C11.2065 29.2155 14.3055 27.0152 17.2872 24.8186C19.2529 23.3702 21.216 21.9248 23.1073 20.3793C24.0748 19.5884 24.9784 18.7292 25.8761 17.8621C26.2098 17.5396 28.3728 16.1606 26.7878 16.4214C26.6733 16.4403 26.6305 16.2888 26.7399 16.248C26.9344 16.1504 27.1289 16.0525 27.3235 15.9546C26.3658 15.1782 25.4164 14.3899 24.4483 13.6304C22.6147 12.192 22.2369 10.7851 20.7377 12.5581C18.9865 14.6293 17.201 16.6695 15.3763 18.6762C12.9611 21.3318 10.1979 24.7696 6.81699 26.2124C7.32282 26.8704 7.68996 27.633 7.97092 28.4486C10.3037 26.0849 13.2079 24.006 15.577 21.8417C17.3637 20.2092 19.1287 18.5538 20.9065 16.9122C21.8705 16.0219 22.8202 14.7665 24.0924 14.3397C24.1722 14.3129 24.2594 14.3994 24.2321 14.4794C23.2847 17.2673 19.1976 20.0292 17.1411 22.037C14.4898 24.6256 11.6463 28.1235 8.46425 30.3161C8.57286 30.8699 8.65878 31.4323 8.72966 31.993Z" fill="#4B6CB7"/>
<path d="M5.13885 17.6396C5.0379 17.4881 4.96039 17.314 4.9507 17.0894C4.93056 16.6177 4.89053 16.1353 4.84285 15.6481C4.48999 15.6055 4.21643 15.1905 4.54915 14.8682C4.61135 14.808 4.67637 14.7479 4.73909 14.6877C4.22943 10.4126 3.2035 5.73244 5.39483 1.93337C7.15478 -1.11766 11.8737 0.261891 14.5869 0.635399C15.0163 0.694548 15.3569 1.2144 15.338 1.62207C15.2396 3.8032 15.2503 5.97643 15.3204 8.15374C17.4832 6.08555 19.6419 4.01277 21.7652 1.90481C22.2715 1.4023 22.9471 1.5002 23.4632 1.90481C32.1642 8.72509 40.4403 16.58 46.743 25.7111C47.2968 26.5132 46.0404 27.4739 45.3976 26.7491C38.303 18.7522 31.0412 11.0462 22.6889 4.35467C19.2052 7.7838 15.6389 11.1313 12.1279 14.5322C9.80706 16.7799 7.49846 19.04 5.2314 21.3417C4.38802 22.1976 2.26017 24.0562 1.92465 24.7326C1.52743 25.5342 0.466568 25.1987 0.203201 24.5075C-0.420162 22.8712 2.55719 19.9145 5.13885 17.6396ZM6.72773 4.24631C6.57042 4.71849 6.46589 5.2001 6.38252 5.68502C6.76368 5.40814 7.14917 5.13891 7.49667 4.85871C8.57436 3.98932 9.62885 3.08831 10.6479 2.15085C8.92569 2.05753 7.34293 2.40249 6.72773 4.24631ZM7.03164 16.0124C7.63231 15.5038 8.11442 15.0946 8.37983 14.8346C10.2135 13.0394 12.0682 11.2654 13.9235 9.49199C13.8386 9.00885 13.7744 8.52419 13.7142 8.03926C11.2853 9.94377 9.14036 12.1343 6.84169 14.162C6.92048 14.7841 6.98931 15.4023 7.03164 16.0124ZM6.67087 12.8872C8.85838 10.9144 11.2215 9.0188 13.6441 7.44293C13.5824 6.86189 13.5444 6.27855 13.5039 5.69547C12.4711 7.01129 11.2358 8.19912 10.0715 9.35559C9.09753 10.3226 7.93111 11.7756 6.60408 12.4074C6.62651 12.5672 6.64844 12.7274 6.67087 12.8872ZM13.0983 2.83489C12.6388 4.28557 11.1576 5.41987 10.0995 6.43458C9.21939 7.27822 8.31405 8.09612 7.40208 8.90509C7.08364 9.18758 6.70912 9.60366 6.30323 9.92796C6.34454 10.3632 6.39221 10.7991 6.44753 11.2354C8.86144 9.1427 11.5357 7.13137 13.4254 4.54053C13.3892 3.86184 13.3565 3.1829 13.3285 2.50217C12.6483 2.39203 11.9194 2.26557 11.1991 2.19317C11.284 2.31453 11.3016 2.48127 11.167 2.6248C10.2132 3.63978 9.19645 4.59203 8.16567 5.52797C7.56194 6.07637 6.92353 6.7673 6.21145 7.26089C6.19641 7.62879 6.19386 7.99872 6.20405 8.37045C6.24051 8.3424 6.27952 8.31512 6.31496 8.28682C7.15809 7.60508 7.98796 6.90701 8.80994 6.19977C9.95978 5.21029 11.8184 3.96816 12.544 2.60135C12.7056 2.29821 13.202 2.50727 13.0983 2.83489Z" fill="#4B6CB7"/>
</g>
<defs>
<clipPath id="clip0_11_263">
<rect width="47" height="47" fill="white" transform="matrix(-1 0 0 1 47 0)"/>
</clipPath>
</defs>
</svg>
