<svg width="128" height="16" viewBox="0 0 128 16" fill="none" xmlns="http://www.w3.org/2000/svg">
<path d="M1.20032 9.62951C4.57557 7.70646 7.65179 5.66707 10.1334 2.43442M1.02547 9.94335C3.28053 7.7794 6.18934 5.61983 8.80832 2.88414M5.35897 13.5882C12.922 10.6944 15.8401 5.56134 20.796 1.441M8.05066 14.3239C12.778 9.22208 16.0413 4.90686 20.7127 1.6687M16.782 15C22.4492 10.4689 26.8799 5.43478 30.989 1.59671M17.9358 14.5983C22.7617 9.34281 27.0858 5.4724 31.4438 1.74629M27.1467 14.7058C32.6058 9.46571 34.4518 6.84009 38.8865 2.30143M29.4315 14.529C33.832 9.83464 37.8577 6.09383 40.3241 2.94615M40.6357 13.5918C41.0781 11.0544 46.7074 9.86376 52.2764 3.43976M39.8011 13.7831C43.2496 10.4878 47.3221 6.58285 51.7668 2.82455M50.1103 13.2231C52.6309 11.6527 58.0953 7.7177 61.875 4.38504M49.8462 14.0103C55.1022 10.9959 58.8777 5.68061 62.2953 2.32747M61.3802 14.6808C65.1319 11.1512 70.0922 5.17591 74.4966 3.07366M60.7451 14.7416C63.5167 9.94731 68.8585 7.18601 72.2336 2.94404M72.2266 14.9946C73.4825 11.885 75.3568 10.1806 83.734 1.50512M72.229 14.243C75.3844 10.6675 79.789 5.74277 83.2963 2.69111M83.8815 14.2667C86.3198 12.571 86.0324 10.1866 92.4437 2.49752M83.0417 14.6807C86.6832 10.4045 90.3341 7.74574 94.9284 3.1673M91.9757 14.497C94.2505 10.8426 99.6753 9.33413 104.421 2.32104M92.1676 14.1148C96.6063 10.6134 101.274 6.88767 104.479 2.62956M104.442 14.0689C106.214 11.2043 109.859 8.43206 114.756 3.64933M104.131 14.7085C106.735 10.0475 112.266 7.18511 115.344 2.30418M114.183 14.4115C115.842 10.258 119.477 7.58405 126.519 1.14822M113.606 14.4552C117.253 11.3688 121.773 6.42481 127 2.29466M1 0V0Z" stroke="white"/>
</svg>
